<svg width="71" height="71" viewBox="0 0 71 71" fill="none" xmlns="http://www.w3.org/2000/svg">
<path d="M0 0H60C66.0751 0 71 4.92487 71 11V71H8C3.58172 71 0 67.4183 0 63V0Z" fill="#FF7014"/>
<g clip-path="url(#clip0_0_10225)">
<path d="M32.4987 33.0884C33.9406 31.4831 35.991 30.4012 38.1815 30.4536C40.4587 30.3797 42.3321 31.5613 43.9683 33.0128C45.6251 31.0027 46.6201 28.4298 46.6201 25.6291C46.6201 19.2198 41.4091 14.0052 35.0011 14H34.9917C28.5802 14 23.3632 19.2164 23.3632 25.6291C23.3632 28.4684 24.3866 31.0749 26.0838 33.0962L32.4987 33.0884ZM30.3555 23.6783C30.8582 23.1747 31.6746 23.1747 32.1782 23.6783L33.8865 25.3867L37.824 21.4491C38.3276 20.9455 39.1439 20.9455 39.6466 21.4491C40.1502 21.9527 40.1502 22.7691 39.6466 23.2718L35.0011 27.9184C34.7178 28.2471 34.3175 28.5167 33.8866 28.4985C33.5566 28.4985 33.2266 28.373 32.9757 28.1213L30.3556 25.501C29.852 24.9974 29.852 24.181 30.3555 23.6783ZM43.2636 46.3829C43.2627 46.3829 38.681 41.8461 38.681 41.8461C38.6009 41.7667 38.4927 41.7222 38.3799 41.7225C38.2672 41.7228 38.1592 41.7678 38.0796 41.8476C37.4696 42.4595 36.8594 43.0712 36.2489 43.6827C34.4959 45.2623 32.5349 46.0967 30.5765 46.0967C29.4875 46.1204 28.2982 45.8101 27.3024 45.2674C25.7616 44.4493 24.9642 42.6893 25.3603 40.9843C25.6149 39.813 26.3258 39.175 27.1941 38.3168C27.9272 37.5786 28.875 36.6247 29.8289 35.6716L14.2659 35.6966C13.5544 35.6974 13.0015 36.2758 13.0023 36.9882L13 47.3918C13.0009 48.1034 13.5792 48.6791 14.2916 48.6783L20.1922 48.6671L28.9015 57.3476C29.766 58.2096 31.1599 58.2165 32.0338 57.3734C32.924 56.5132 32.9128 55.0677 32.0596 54.1774L33.8367 55.9477C34.6865 56.8045 36.1242 56.8277 36.9999 55.9417C37.872 55.066 37.8695 53.6498 36.9938 52.7784C37.8703 53.6592 39.3141 53.6317 40.1579 52.7715C41.0146 51.9224 41.0361 50.4821 40.1519 49.6073C41.0004 50.4604 42.377 50.464 43.2317 49.6812C43.4858 49.4606 43.6732 49.1886 43.7937 48.8854C44.1425 48.0374 43.9372 47.0142 43.2636 46.3829Z" fill="white"/>
<path d="M55.6432 35.8332L44.9755 35.8538C44.3469 35.8554 43.7241 35.733 43.1429 35.4937C42.5616 35.2544 42.0332 34.9028 41.588 34.4591C39.7636 32.62 36.7242 32.5478 34.899 34.3112C33.2198 35.8865 29.3812 39.7769 28.2142 40.9473C28.0372 41.1261 27.9238 41.3401 27.8722 41.5652C27.745 42.1066 27.9745 42.7056 28.5116 42.9909C30.568 44.0823 32.7257 43.3871 34.5234 41.7672L36.4251 39.8516C37.4065 38.7408 39.1348 38.6611 40.1899 39.7124L45.0399 44.5155C47.0712 46.3373 47.012 49.9306 44.8895 51.6569C44.5593 51.9433 44.1919 52.1838 43.7974 52.3719L46.4416 52.3676C49.8617 52.3607 50.5922 49.0745 50.5922 49.0745L55.6691 49.0633C56.3807 49.0624 57.001 48.4841 57.0002 47.7716V37.1197C56.9984 36.4081 56.3547 35.8323 55.6432 35.8332Z" fill="white"/>
</g>
<defs>
<clipPath id="clip0_0_10225">
<rect width="44" height="44" fill="white" transform="translate(13 14)"/>
</clipPath>
</defs>
</svg>
