<svg width="46" height="46" viewBox="0 0 46 46" fill="none" xmlns="http://www.w3.org/2000/svg">
<path d="M22.9087 31.5879C24.1809 31.5879 25.2121 30.5566 25.2121 29.2845C25.2121 28.0124 24.1809 26.9812 22.9087 26.9812C21.6367 26.9812 20.6055 28.0124 20.6055 29.2845C20.6055 30.5566 21.6367 31.5879 22.9087 31.5879Z" fill="#2B76C1"/>
<path fill-rule="evenodd" clip-rule="evenodd" d="M21.3809 15.8405C21.8824 15.0216 22.9527 14.7642 23.7716 15.2657C23.7715 15.2656 23.7717 15.2657 23.7716 15.2657C24.5905 15.7671 24.848 16.8377 24.3466 17.6565C22.1158 21.2996 16.3858 30.6571 14.155 34.3002C13.6535 35.1191 12.5832 35.3764 11.7643 34.875C11.7642 34.8749 11.7644 34.8751 11.7643 34.875C10.9454 34.3736 10.6878 33.3031 11.1893 32.4842C13.4201 28.8411 19.1501 19.4835 21.3809 15.8405Z" fill="#2B76C1"/>
<path fill-rule="evenodd" clip-rule="evenodd" d="M24.2512 15.8405C23.7497 15.0216 22.6794 14.7642 21.8605 15.2657C21.8604 15.2657 21.8606 15.2656 21.8605 15.2657C21.0416 15.7671 20.784 16.8377 21.2855 17.6565C23.5163 21.2996 29.2463 30.6571 31.4771 34.3002C31.9786 35.1191 33.0489 35.3764 33.8678 34.875C33.8677 34.8751 33.8679 34.8749 33.8678 34.875C34.6867 34.3736 34.9443 33.3031 34.4428 32.4842C32.212 28.8411 26.482 19.4835 24.2512 15.8405Z" fill="#2B76C1"/>
<path fill-rule="evenodd" clip-rule="evenodd" d="M23.8316 9.11372C23.8321 9.06861 23.8617 9.02911 23.9048 9.01611C23.948 9.00311 23.9948 9.01961 24.0202 9.05695C24.2579 9.408 24.6399 9.97239 24.6399 9.97239C24.6399 9.97239 25.3215 9.97939 25.7453 9.98383C25.7904 9.98433 25.8301 10.014 25.8432 10.0572C25.8562 10.1004 25.8394 10.1471 25.8021 10.1724C25.4512 10.4101 24.8867 10.7922 24.8867 10.7922C24.8867 10.7922 24.8798 11.4737 24.8754 11.8977C24.8748 11.9428 24.8449 11.9824 24.8018 11.9954C24.7586 12.0084 24.7122 11.9918 24.6868 11.9544C24.449 11.6034 24.067 11.039 24.067 11.039C24.067 11.039 23.3854 11.032 22.9613 11.0277C22.9162 11.0272 22.8768 10.9974 22.8638 10.9542C22.8508 10.911 22.8672 10.8644 22.9046 10.8391C23.2557 10.6013 23.8202 10.2192 23.8202 10.2192C23.8202 10.2192 23.8271 9.53772 23.8316 9.11372Z" fill="#2B76C1"/>
<path fill-rule="evenodd" clip-rule="evenodd" d="M30.8904 16.2208C30.8911 16.1663 30.9269 16.1186 30.9788 16.103C31.0311 16.0872 31.0872 16.1072 31.1176 16.1524C31.3756 16.5328 31.7642 17.107 31.7642 17.107C31.7642 17.107 32.4577 17.1142 32.917 17.119C32.9715 17.1196 33.0194 17.1554 33.0351 17.2075C33.0507 17.2596 33.0306 17.3159 32.9855 17.3464C32.6051 17.604 32.0309 17.9928 32.0309 17.9928C32.0309 17.9928 32.0239 18.6861 32.0189 19.1458C32.0184 19.2002 31.9826 19.2479 31.9304 19.2636C31.8785 19.2792 31.8223 19.2592 31.7915 19.2142C31.5339 18.8337 31.1452 18.2594 31.1452 18.2594C31.1452 18.2594 30.4519 18.2522 29.9921 18.2476C29.9376 18.247 29.8901 18.2111 29.8745 18.159C29.8587 18.1069 29.8786 18.0507 29.9237 18.0202C30.3044 17.7625 30.8786 17.3737 30.8786 17.3737C30.8786 17.3737 30.8856 16.6804 30.8904 16.2208Z" fill="#2B76C1"/>
<path fill-rule="evenodd" clip-rule="evenodd" d="M29.2797 8.60792C29.2355 8.5227 29.2514 8.41853 29.319 8.35087C29.3872 8.28276 29.4914 8.26681 29.5761 8.31159C30.3246 8.70364 31.4816 9.30987 31.4816 9.30987C31.4816 9.30987 32.6385 8.70381 33.387 8.31159C33.472 8.26703 33.5764 8.28276 33.6442 8.35059C33.712 8.41842 33.7277 8.52276 33.6832 8.60781C33.2909 9.35626 32.6849 10.5131 32.6849 10.5131C32.6849 10.5131 33.2911 11.6702 33.6832 12.4186C33.728 12.5034 33.712 12.6075 33.6439 12.6757C33.5762 12.7434 33.4721 12.7593 33.3868 12.715C32.6389 12.3225 31.4817 11.7162 31.4817 11.7162C31.4817 11.7162 30.3244 12.3228 29.576 12.715C29.4914 12.7591 29.3871 12.7434 29.3192 12.6755C29.2514 12.6077 29.2357 12.5034 29.2798 12.4188C29.672 11.6703 30.2785 10.513 30.2785 10.513C30.2785 10.513 29.6723 9.35592 29.2797 8.60792Z" fill="#2B76C1"/>
<path fill-rule="evenodd" clip-rule="evenodd" d="M42.3121 33.9211C44.1996 30.5852 45.1917 26.8177 45.1917 22.9848C45.1917 10.7284 35.2411 0.777832 22.9848 0.777832C10.7285 0.777832 0.777832 10.7284 0.777832 22.9848C0.777832 26.8177 1.76984 30.5852 3.65744 33.9211L5.72489 32.7512C4.03933 29.7722 3.15338 26.4076 3.15338 22.9848C3.15338 12.0394 12.0396 3.15328 22.9848 3.15328C33.93 3.15328 42.8162 12.0394 42.8162 22.9848C42.8162 26.4076 41.9302 29.7722 40.2446 32.7512L42.3121 33.9211Z" fill="#2B76C1"/>
<path fill-rule="evenodd" clip-rule="evenodd" d="M42.104 34.2817C46.1807 27.3823 46.2239 18.8216 42.217 11.8814C38.21 4.94113 30.7746 0.69816 22.7612 0.778966L22.7852 3.15437C29.9414 3.08218 36.5815 6.87135 40.1597 13.0691C43.7381 19.267 43.6995 26.9119 40.0588 33.0733L42.104 34.2817Z" fill="#2B76C1"/>
<path fill-rule="evenodd" clip-rule="evenodd" d="M3.64111 33.8938C7.57784 40.874 14.97 45.1916 22.9839 45.1916C30.9978 45.1916 38.3899 40.874 42.3267 33.8938L40.2576 32.7268C36.742 38.9603 30.1404 42.8162 22.9839 42.8162C15.8272 42.8162 9.22584 38.9603 5.71022 32.7268L3.64111 33.8938Z" fill="#2B76C1"/>
</svg>
