<svg width="80" height="80" viewBox="0 0 80 80" fill="none" xmlns="http://www.w3.org/2000/svg">
<path d="M7.2251 7.31055H71.5494V71.6349H7.2251V7.31055Z" fill="#2E001E"/>
<path d="M6 6V74H74V6H6ZM8.83333 8.90598H71.1667V71.094H8.83333V8.90598Z" fill="#FF2BC2"/>
<path d="M54.4368 37.9597C54.0448 37.7827 53.5483 37.7068 52.9211 37.7068C49.6286 37.7068 47.4335 40.1601 47.4335 44.232C47.4335 48.8856 49.6808 50.7571 52.6076 50.7571C53.2347 50.7571 53.9141 50.6813 54.4106 50.4789V37.9597H54.4368ZM42.7298 44.4343C42.7298 38.5414 46.6496 33.9384 53.0779 33.9384C53.6267 33.9384 53.9141 33.9384 54.4368 33.989V27.4132C54.4368 27.2615 54.5674 27.1603 54.6981 27.1603H58.9053C59.1143 27.1603 59.1666 27.2362 59.1666 27.3626V50.4789C59.1666 51.1618 59.1666 52.0217 59.2972 52.9575C59.2972 53.1345 59.2972 53.1598 59.1404 53.2357C56.9454 54.2473 54.6458 54.7026 52.4508 54.7026C46.7802 54.7026 42.7298 51.3135 42.7298 44.4343ZM33.819 40.3371L41.1358 54.0703C41.2665 54.2726 41.1881 54.475 40.979 54.475H36.4321C36.1447 54.475 36.014 54.3991 35.8834 54.1462C34.211 50.8077 32.5124 47.3428 30.7616 43.7514H30.7093C29.1415 47.1405 27.4168 50.833 25.7444 54.1715C25.6137 54.3738 25.483 54.4497 25.274 54.4497H20.9362C20.6748 54.4497 20.6487 54.2473 20.7794 54.0956L27.9394 40.767L21.0145 27.5144C20.8578 27.312 21.0145 27.135 21.1975 27.135H25.6921C25.9534 27.135 26.0841 27.1856 26.1625 27.4132C27.8087 30.777 29.4812 34.0901 31.0491 37.4792H31.1013C32.6169 34.1407 34.2894 30.777 35.8834 27.4638C36.014 27.2615 36.0924 27.135 36.3538 27.135H40.5609C40.77 27.135 40.8484 27.2868 40.7177 27.5144L33.819 40.3371Z" fill="#FF2BC2"/>
</svg>
