<svg width="40" height="40" viewBox="0 0 40 40" fill="none" xmlns="http://www.w3.org/2000/svg">
<g clip-path="url(#clip0_0_2317)">
<path d="M10.0542 12.322H30.8126V14.0522H10.0542V12.322Z" fill="#2B76C1"/>
<path d="M7.45959 28.756C5.54893 28.756 4 27.207 4 25.296V15.782C4 13.871 5.54893 12.3221 7.45951 12.3221C9.3705 12.3221 10.9193 13.871 10.9193 15.782V25.296C10.9193 27.2069 9.3705 28.7559 7.45951 28.7559L7.45959 28.756ZM7.45959 14.0522C6.50422 14.0522 5.72976 14.8266 5.72976 15.782V25.296C5.72976 26.2513 6.50422 27.0261 7.45951 27.0261C8.41521 27.0261 9.18959 26.2513 9.18959 25.296V15.782C9.18959 14.8267 8.41521 14.0522 7.45959 14.0522ZM33.4076 28.756C31.4969 28.756 29.948 27.207 29.948 25.2961V15.782C29.948 13.871 31.4969 12.3221 33.4075 12.3221C35.3185 12.3221 36.8673 13.871 36.8673 15.782V25.296C36.8673 27.2069 35.3185 28.7559 33.4075 28.7559L33.4076 28.756ZM33.4076 14.0522C32.4522 14.0522 31.6777 14.8266 31.6777 15.782V25.296C31.6777 26.2513 32.4522 27.0261 33.4075 27.0261C34.3632 27.0261 35.1376 26.2513 35.1376 25.296V15.782C35.1376 14.8267 34.3632 14.0522 33.4076 14.0522Z" fill="#2B76C1"/>
<path d="M24.7582 40.0001C22.8473 40.0001 21.2984 38.4508 21.2984 36.5403V32.2157H19.5686V36.5403C19.5686 38.4508 18.0198 40.0001 16.1088 40.0001C14.1982 40.0001 12.649 38.4508 12.649 36.5403V32.2157H11.7842C10.351 32.2157 9.18945 31.0539 9.18945 29.6209V13.1871C9.18945 6.97726 14.2235 1.94287 20.4334 1.94287C26.6435 1.94287 31.6776 6.97726 31.6776 13.1871V29.6209C31.6776 31.0539 30.5158 32.2157 29.0828 32.2157H28.2177V36.5403C28.2177 38.4508 26.6689 40.0001 24.7582 40.0001ZM17.8386 30.4855H23.0281V36.5402C23.0281 37.4955 23.8029 38.2699 24.7582 38.2699C25.7135 38.2699 26.488 37.4955 26.488 36.5402V30.4855H29.0828C29.5605 30.4855 29.9478 30.0985 29.9478 29.6208V13.1871C29.9478 7.93263 25.6883 3.67295 20.4334 3.67295C15.1789 3.67295 10.9192 7.93255 10.9192 13.1871V29.6209C10.9192 30.0985 11.3066 30.4856 11.7842 30.4856H14.379V36.5403C14.379 37.4955 15.1535 38.27 16.1088 38.27C17.0641 38.27 17.8386 37.4956 17.8386 36.5403V30.4855Z" fill="#2B76C1"/>
<path d="M16.9742 7.99757H15.2442V9.72732H16.9742V7.99757ZM25.6234 7.99757H23.8935V9.72732H25.6234V7.99757ZM12.3696 0.990077L13.8051 0.0253803L16.201 3.59079L14.7652 4.55557L12.3696 0.990077ZM24.648 3.56249L27.0421 0L28.4785 0.965426L26.0845 4.52792L24.648 3.56249Z" fill="#2B76C1"/>
</g>
<defs>
<clipPath id="clip0_0_2317">
<rect width="40" height="40" fill="white"/>
</clipPath>
</defs>
</svg>
