<svg width="80" height="80" viewBox="0 0 80 80" fill="none" xmlns="http://www.w3.org/2000/svg">
<path d="M39.8946 7L7 17.9282L12.1982 58.612L39.9294 73L67.8038 58.417L73 17.7346L39.8946 7Z" fill="#B3B3B3"/>
<path d="M69.7191 20.0858L39.8179 10.4602V69.5624L64.8764 56.4706L69.7191 20.0858Z" fill="#A6120D"/>
<path d="M10.6912 20.2593L15.1456 56.6445L39.8172 69.5624V10.4592L10.6914 20.259L10.6912 20.2593Z" fill="#DD1B16"/>
<path d="M48.0489 41.9231L39.818 45.5566H31.1429L27.0649 55.1854L19.48 55.3177L39.818 12.6064L48.0489 41.9233V41.9231ZM47.2532 40.0939L39.8728 26.3009L33.8187 39.8565H39.8177L47.2532 40.0941V40.0939Z" fill="#F2F2F2"/>
<path d="M39.8176 12.6062L39.8721 26.3009L46.7413 39.867H39.8332L39.8176 45.5478L49.3702 45.5564L53.8348 55.3192L61.0925 55.4461L39.8176 12.6062Z" fill="#B3B3B3"/>
</svg>
