<svg width="40" height="40" viewBox="0 0 40 40" fill="none" xmlns="http://www.w3.org/2000/svg">
<path d="M4.07599 30.6336L1.09623 7.31269L19.9399 1.05248L38.903 7.20141L35.925 30.5176L19.9553 38.8724L4.07599 30.6336Z" stroke="#2B76C1" stroke-width="2"/>
<path d="M20.1396 37.5041V2.44034L37.7362 8.10494L34.8459 29.8208L20.1396 37.5041Z" stroke="#2B76C1" stroke-width="0.5"/>
<path d="M5.16919 29.927L2.51021 8.20787L19.6395 2.44448V37.5036L5.16919 29.927Z" stroke="#2B76C1" stroke-width="0.5"/>
<path d="M24.1859 20.5505L24.2793 20.8832L19.7841 22.8676H14.6319H14.3006L14.1715 23.1726L11.8267 28.709L8.36202 28.7694L19.7683 4.81553L23.0367 16.4573L20.3636 11.4616L19.8822 10.562L19.4662 11.4936L15.797 19.7091L15.4827 20.413H16.2536H19.8814L24.1859 20.5505Z" fill="white" stroke="#2B76C1"/>
<path d="M20.3982 5.54598L31.9698 28.8471L28.7086 28.79L26.1338 23.1596L26.0003 22.8679L25.6795 22.8676L20.391 22.8628L20.3977 20.4195H24.0858H24.8995L24.5319 19.6936L20.4222 11.5773L20.3982 5.54598Z" fill="white" stroke="#2B76C1"/>
</svg>
