<svg width="160" height="160" viewBox="0 0 160 160" fill="none" xmlns="http://www.w3.org/2000/svg">
<path opacity="0.4" d="M140.338 137.64C141.954 136.602 143.418 135.369 144.651 133.877C153.814 122.786 153.718 107.137 153.088 93.6515C152.344 77.7337 149.528 61.8095 141.388 47.7692C133.541 34.2361 121.719 22.7407 106.92 16.5929C102.836 14.8966 98.5723 13.6201 94.2165 12.7849C86.1714 11.2425 77.821 11.5654 69.9746 13.9209C66.98 14.8201 64.0594 15.9462 61.2114 17.2166C41.7438 25.903 39.0395 43.8015 31.4686 61.7004C26.1096 74.3699 13.5051 82.6495 8.1592 95.3372C2.17232 109.546 11.7669 125.073 24.0094 132.698C26.811 134.443 29.8114 135.882 32.9218 137.027C62.0146 147.733 94.829 151.017 125.112 143.224C130.208 141.913 135.856 140.521 140.338 137.64Z" fill="#2B76C1"/>
<path opacity="0.3" d="M23.3337 129.818L24.1699 127.491L22.2355 126.436L20.7318 128.4C20.2947 128.299 19.8528 128.251 19.4134 128.257L18.3597 126.022L16.2461 126.644L16.5712 129.094C16.1984 129.326 15.8528 129.606 15.5401 129.928L13.2128 129.092L12.1581 131.026L14.1216 132.53C14.0205 132.967 13.9725 133.409 13.9792 133.848L11.7437 134.902L12.3657 137.016L14.8157 136.691C15.048 137.064 15.3277 137.409 15.6496 137.722L14.8134 140.049L16.7478 141.104L18.2515 139.14C18.6886 139.241 19.1305 139.289 19.5699 139.283L20.6237 141.518L22.7373 140.896L22.4125 138.446C22.7853 138.214 23.1309 137.934 23.4435 137.612L25.7709 138.449L26.8256 136.514L24.8621 135.01C24.9632 134.573 25.0112 134.131 25.0045 133.692L27.24 132.638L26.6182 130.525L24.1683 130.849C24.1113 130.758 24.0512 130.668 23.9885 130.58M16.8742 136.071C15.9357 135.003 15.7126 133.422 16.4326 132.102C17.3536 130.413 19.4697 129.79 21.159 130.711C22.8483 131.632 23.4707 133.748 22.5497 135.438C21.7187 136.962 19.9145 137.618 18.3289 137.054" stroke="black" stroke-miterlimit="10" stroke-linecap="round" stroke-linejoin="round"/>
<path opacity="0.3" d="M19.6106 122.193C19.033 122.369 18.3879 122.322 17.816 122.01C16.6855 121.393 16.2688 119.977 16.8855 118.847C17.5018 117.716 18.9178 117.299 20.0484 117.916C21.1789 118.532 21.5956 119.949 20.9789 121.079C20.912 121.202 20.8359 121.316 20.7517 121.421M15.801 124.164L17.0954 124.87L18.1018 123.556C18.3943 123.624 18.69 123.656 18.984 123.652L19.6893 125.148L21.1037 124.731L20.8864 123.092C21.136 122.937 21.3671 122.749 21.5764 122.534L23.1338 123.094L23.8397 121.799L22.5258 120.793C22.5936 120.5 22.6256 120.204 22.6212 119.911L24.1172 119.205L23.7008 117.791L22.0615 118.009C21.906 117.759 21.7188 117.528 21.5034 117.319L22.0631 115.761L20.7687 115.055L19.7626 116.369C19.4701 116.301 19.1741 116.269 18.8804 116.274L18.1754 114.778L16.761 115.194L16.9783 116.834C16.7287 116.989 16.4976 117.176 16.2884 117.392L14.7309 116.832L14.025 118.126L15.3389 119.133C15.2714 119.425 15.2391 119.721 15.2436 120.015L13.7476 120.72L14.1639 122.135L15.8032 121.917C15.9588 122.167 16.146 122.398 16.3613 122.607L15.801 124.164Z" stroke="black" stroke-miterlimit="10" stroke-linecap="round" stroke-linejoin="round"/>
<path opacity="0.3" d="M102.782 39.9815L103.618 37.6542L101.684 36.5995L100.18 38.563C99.7428 38.4619 99.3008 38.4139 98.8615 38.4206L97.8077 36.1851L95.6941 36.8071L96.0189 39.2571C95.6461 39.4894 95.3005 39.7691 94.9879 40.091L92.6605 39.2548L91.6058 41.1892L93.5693 42.6929C93.4682 43.13 93.4202 43.5719 93.4269 44.0113L91.1914 45.0651L91.8135 47.1787L94.2634 46.8539C94.4957 47.2267 94.7754 47.5723 95.0973 47.8849L94.2612 50.2123L96.1956 51.267L97.6992 49.3035C98.1364 49.4046 98.5783 49.4526 99.0176 49.4459L100.071 51.6814L102.185 51.0593L101.86 48.6094C102.233 48.3771 102.579 48.0974 102.891 47.7755L105.219 48.6116L106.273 46.6772L104.31 45.1735C104.411 44.7364 104.459 44.2945 104.452 43.8551L106.688 42.8014L106.066 40.6878L103.616 41.0126C103.559 40.9211 103.499 40.8308 103.436 40.7428M96.3226 46.234C95.384 45.1665 95.161 43.5854 95.881 42.2651C96.802 40.5758 98.9181 39.9534 100.607 40.8743C102.297 41.7953 102.919 43.9115 101.998 45.6007C101.167 47.1249 99.3629 47.7809 97.7773 47.2177" stroke="black" stroke-miterlimit="10" stroke-linecap="round" stroke-linejoin="round"/>
<path opacity="0.3" d="M99.0585 32.3564C98.4809 32.5321 97.8358 32.4848 97.264 32.1728C96.1334 31.5564 95.7168 30.1404 96.3331 29.0099C96.9494 27.8796 98.3654 27.4627 99.496 28.0793C100.627 28.6956 101.043 30.1116 100.427 31.2422C100.36 31.3648 100.283 31.479 100.199 31.5843M95.2489 34.328L96.5433 35.0339L97.5497 33.72C97.8422 33.7878 98.1382 33.8198 98.432 33.8153L99.1372 35.3113L100.552 34.895L100.334 33.2556C100.584 33.1001 100.815 32.9129 101.024 32.6976L102.582 33.2572L103.288 31.9628L101.974 30.9564C102.042 30.664 102.074 30.3683 102.069 30.0742L103.565 29.3689L103.149 27.9545L101.509 28.1721C101.354 27.9225 101.167 27.6915 100.951 27.4822L101.511 25.9248L100.217 25.2188L99.2105 26.5328C98.918 26.4649 98.622 26.4329 98.3283 26.4374L97.6233 24.9414L96.2089 25.3577L96.4265 26.9971C96.1769 27.1526 95.9456 27.3398 95.7366 27.5552L94.1792 26.9955L93.4732 28.2899L94.7872 29.2963C94.7196 29.5888 94.6873 29.8848 94.6918 30.1785L93.1958 30.8838L93.6121 32.2982L95.2515 32.0806C95.407 32.3302 95.5942 32.5616 95.8096 32.7705L95.2489 34.328Z" stroke="black" stroke-miterlimit="10" stroke-linecap="round" stroke-linejoin="round"/>
<g opacity="0.3">
<path d="M121.858 38.1206C122.533 38.1206 123.081 37.5733 123.081 36.8982C123.081 36.2231 122.533 35.6758 121.858 35.6758C121.183 35.6758 120.636 36.2231 120.636 36.8982C120.636 37.5733 121.183 38.1206 121.858 38.1206Z" stroke="black" stroke-miterlimit="10" stroke-linecap="round" stroke-linejoin="round"/>
<path d="M14.5954 58.9009C15.2706 58.9009 15.8178 58.3536 15.8178 57.6785C15.8178 57.0033 15.2706 56.4561 14.5954 56.4561C13.9203 56.4561 13.373 57.0033 13.373 57.6785C13.373 58.3536 13.9203 58.9009 14.5954 58.9009Z" stroke="black" stroke-miterlimit="10" stroke-linecap="round" stroke-linejoin="round"/>
<path d="M106.579 122.158C107.254 122.158 107.801 121.611 107.801 120.936C107.801 120.261 107.254 119.713 106.579 119.713C105.904 119.713 105.356 120.261 105.356 120.936C105.356 121.611 105.904 122.158 106.579 122.158Z" stroke="black" stroke-miterlimit="10" stroke-linecap="round" stroke-linejoin="round"/>
<path d="M16.7351 112.074C17.4102 112.074 17.9575 111.526 17.9575 110.851C17.9575 110.176 17.4102 109.629 16.7351 109.629C16.06 109.629 15.5127 110.176 15.5127 110.851C15.5127 111.526 16.06 112.074 16.7351 112.074Z" stroke="black" stroke-miterlimit="10" stroke-linecap="round" stroke-linejoin="round"/>
<path d="M99.6242 58.2153L97.0312 60.8083" stroke="black" stroke-miterlimit="10" stroke-linecap="round" stroke-linejoin="round"/>
<path d="M99.6242 60.8083L97.0312 58.2153" stroke="black" stroke-miterlimit="10" stroke-linecap="round" stroke-linejoin="round"/>
<path d="M90.3081 132.78L92.9011 135.373" stroke="black" stroke-miterlimit="10" stroke-linecap="round" stroke-linejoin="round"/>
<path d="M92.9011 132.78L90.3081 135.373" stroke="black" stroke-miterlimit="10" stroke-linecap="round" stroke-linejoin="round"/>
<path d="M8.71533 74.4121L11.3083 77.0051" stroke="black" stroke-miterlimit="10" stroke-linecap="round" stroke-linejoin="round"/>
<path d="M11.3083 74.4121L8.71533 77.0051" stroke="black" stroke-miterlimit="10" stroke-linecap="round" stroke-linejoin="round"/>
<path d="M104.365 13.9048L106.959 16.4977" stroke="black" stroke-miterlimit="10" stroke-linecap="round" stroke-linejoin="round"/>
<path d="M106.959 13.9048L104.365 16.4977" stroke="black" stroke-miterlimit="10" stroke-linecap="round" stroke-linejoin="round"/>
<path d="M41.4136 16.0439L44.0065 18.6369" stroke="black" stroke-miterlimit="10" stroke-linecap="round" stroke-linejoin="round"/>
<path d="M44.0065 16.0439L41.4136 18.6369" stroke="black" stroke-miterlimit="10" stroke-linecap="round" stroke-linejoin="round"/>
</g>
<path d="M9.979 144.983H150.202" stroke="#2B76C1" stroke-miterlimit="10" stroke-linecap="round" stroke-linejoin="round"/>
<path d="M22.6226 33.5571V136.656C22.6226 140.279 25.5595 143.216 29.1826 143.216H76.0002C79.6232 143.216 82.5602 140.279 82.5602 136.656V33.5571C82.5602 29.934 79.6232 26.9971 76.0002 26.9971H29.1826C25.5595 26.9971 22.6226 29.934 22.6226 33.5571Z" fill="white"/>
<path d="M82.5602 33.2619C82.5602 31.762 82.0318 30.3863 81.1528 29.3076C78.1554 30.7601 73.8693 33.8439 68.3173 40.3025C56.3829 54.1854 52.7298 87.7963 38.6034 102.41C32.5557 108.666 27.0002 112.51 22.6226 114.862V136.952C22.6226 140.412 25.4274 143.216 28.8872 143.216H72.8286C73.1163 142.86 73.3992 142.492 73.6757 142.11C76.9733 137.544 80.0053 133.714 82.5605 130.656V33.2619H82.5602Z" fill="#D1E8FF"/>
<path d="M22.6226 33.2617V60.0659C27.5006 57.8892 33.4027 53.7532 37.629 45.9043C41.9112 37.9516 47.4222 31.4748 51.8472 26.9971H28.8872C25.4274 26.9971 22.6226 29.8019 22.6226 33.2617Z" fill="#D1E8FF"/>
<path d="M27.2538 29.5115C27.2538 30.2222 26.4558 30.4782 26.4526 31.0203V31.0574H27.227V31.2965H26.1934V31.0942C26.1934 30.3333 26.9914 30.1851 26.9914 29.5214C26.9914 29.2792 26.9105 29.1512 26.7153 29.1512C26.5233 29.1512 26.4391 29.2891 26.4391 29.4978V29.7067H26.1934V29.5147C26.1934 29.1544 26.3585 28.915 26.722 28.915C27.089 28.9154 27.2538 29.1512 27.2538 29.5115Z" fill="#2B76C1"/>
<path d="M28.5442 29.5082V29.5686C28.5442 29.8112 28.4466 29.983 28.2581 30.0538C28.4565 30.128 28.5442 30.3062 28.5442 30.5421V30.7238C28.5442 31.0842 28.3759 31.32 28.012 31.32C27.6517 31.32 27.4834 31.0842 27.4834 30.7238V30.5622H27.7292V30.7408C27.7292 30.953 27.8168 31.081 28.0053 31.081C28.1973 31.081 28.2815 30.9565 28.2815 30.7174V30.5357C28.2815 30.3034 28.1839 30.1923 27.9848 30.1856H27.8437V29.9498H27.9986C28.1736 29.943 28.2818 29.832 28.2818 29.6266V29.5187C28.2818 29.2765 28.1976 29.1517 28.0056 29.1517C27.8172 29.1517 27.7295 29.2829 27.7295 29.495V29.6163H27.4837V29.5085C27.4837 29.1482 27.652 28.9155 28.0124 28.9155C28.3759 28.9152 28.5442 29.1478 28.5442 29.5082Z" fill="#2B76C1"/>
<path d="M29.0531 29.6865V30.0132H28.8003V29.6865H29.0531ZM29.0531 30.9697V31.2964H28.8003V30.9697H29.0531Z" fill="#2B76C1"/>
<path d="M29.5851 29.8991C29.6594 29.7711 29.7771 29.7039 29.9355 29.7039C30.2386 29.7039 30.3733 29.926 30.3733 30.263V30.7244C30.3733 31.0847 30.2018 31.3206 29.8415 31.3206C29.4808 31.3206 29.3125 31.0847 29.3125 30.7244V30.566H29.5583V30.7411C29.5583 30.9532 29.6459 31.0812 29.8344 31.0812C30.0229 31.0812 30.1106 30.9532 30.1106 30.7411V30.2831C30.1106 30.071 30.0229 29.943 29.8344 29.943C29.6898 29.943 29.5919 30.0239 29.5685 30.1958V30.2495H29.3227L29.3867 28.9395H30.316V29.1753H29.6223L29.5851 29.8991Z" fill="#2B76C1"/>
<path d="M31.6834 29.5048V29.5487H31.4377V29.4882C31.4377 29.276 31.35 29.1515 31.1583 29.1515C30.9596 29.1515 30.8719 29.2795 30.8719 29.532V30.0607C30.9359 29.8991 31.0639 29.8082 31.2524 29.8082C31.5554 29.8082 31.6902 30.0271 31.6902 30.3672V30.7243C31.6902 31.0847 31.5113 31.3205 31.1513 31.3205C30.7874 31.3205 30.6089 31.0847 30.6089 30.7243V29.5221C30.6089 29.1483 30.7775 28.916 31.1513 28.916C31.5151 28.9154 31.6834 29.1445 31.6834 29.5048ZM30.8719 30.3874V30.741C30.8719 30.9531 30.9596 31.0811 31.1513 31.0811C31.3398 31.0811 31.4306 30.9531 31.4306 30.741V30.3874C31.4306 30.1752 31.3398 30.0472 31.1513 30.0472C30.9596 30.0472 30.8719 30.1749 30.8719 30.3874Z" fill="#2B76C1"/>
<path d="M68.4835 29.6089H67.8179V31.2729H68.4835V29.6089Z" fill="#2B76C1"/>
<path d="M69.3707 29.2754H68.7051V31.2728H69.3707V29.2754Z" fill="#2B76C1"/>
<path d="M70.2584 29.0386H69.5928V31.2728H70.2584V29.0386Z" fill="#2B76C1"/>
<path d="M71.1461 28.627H70.4805V31.2727H71.1461V28.627Z" fill="#2B76C1"/>
<path d="M79.3828 31.2268H75.3892V28.7861H79.3828V31.2268ZM75.6112 31.005H79.1613V29.0082H75.6112V31.005Z" fill="#2B76C1"/>
<path d="M78.0517 29.25H75.9438V30.7639H78.0517V29.25Z" fill="#2B76C1"/>
<path d="M79.7462 29.7192H79.2441V30.2943H79.7462V29.7192Z" fill="#2B76C1"/>
<path d="M73.9246 30.6959C73.8987 30.6959 73.8722 30.6892 73.8482 30.6751C73.0354 30.1922 72.4984 30.6405 72.4757 30.6594C72.4136 30.7132 72.3195 30.7065 72.2658 30.6447C72.212 30.5826 72.2178 30.4895 72.2795 30.4351C72.3083 30.4098 72.9954 29.8213 74.0008 30.4188C74.0715 30.4607 74.0949 30.5525 74.0526 30.6233C74.0248 30.67 73.9755 30.6959 73.9246 30.6959Z" fill="#2B76C1"/>
<path d="M74.2255 30.1945C74.1996 30.1945 74.173 30.1877 74.1493 30.1733C72.9743 29.4745 72.1845 30.1506 72.1762 30.157C72.1144 30.2117 72.0204 30.2053 71.966 30.1436C71.9116 30.0818 71.9173 29.9874 71.9794 29.9333C71.989 29.9247 72.9416 29.1087 74.302 29.917C74.3727 29.9589 74.396 30.0508 74.3538 30.1215C74.3256 30.1689 74.276 30.1945 74.2255 30.1945Z" fill="#2B76C1"/>
<path d="M74.4986 29.6141C74.4726 29.6141 74.4461 29.6074 74.4224 29.5933C72.9341 28.7082 71.9446 29.5414 71.9034 29.5776C71.8413 29.6317 71.7469 29.625 71.6931 29.5632C71.639 29.5014 71.6451 29.4077 71.7069 29.3533C71.7184 29.3427 72.8941 28.3373 74.5754 29.337C74.6461 29.3789 74.6694 29.4707 74.6272 29.5414C74.5987 29.5882 74.5491 29.6141 74.4986 29.6141Z" fill="#2B76C1"/>
<path d="M73.4757 30.9459C73.4757 31.1526 73.3083 31.3199 73.1016 31.3199C72.8949 31.3199 72.7275 31.1523 72.7275 30.9459C72.7275 30.7391 72.8949 30.5718 73.1016 30.5718C73.3083 30.5718 73.4757 30.7395 73.4757 30.9459Z" fill="#2B76C1"/>
<path d="M84.1717 31.13V34.6996H85.2818V44.8442H84.1717V47.1498H85.2818V57.2945H84.1717V59.6001H85.2818V69.7447H84.1717V139.083C84.1717 142.731 81.2139 145.689 77.5656 145.689H27.6175C23.9692 145.689 21.0114 142.731 21.0114 139.083V52.9601H20.2188V42.8154H21.0114V31.13C21.0114 27.4817 23.9692 24.5239 27.6175 24.5239H77.5656C81.2139 24.5239 84.1717 27.4817 84.1717 31.13ZM66.9 26.9969L64.9506 29.898C64.3656 30.7684 63.3858 31.2906 62.3368 31.2906H42.8466C41.7976 31.2906 40.8178 30.7684 40.2328 29.898L38.2834 26.9969H29.2287C25.5803 26.9969 22.6226 29.9546 22.6226 33.603V136.61C22.6226 140.258 25.5803 143.216 29.2287 143.216H75.9544C79.6027 143.216 82.5605 140.258 82.5605 136.61V33.603C82.5605 29.9546 79.6027 26.9969 75.9544 26.9969H66.9Z" fill="#2B76C1"/>
<path d="M77.3755 59.5122H77.834C78.7624 59.5122 79.5147 60.2648 79.5147 61.1928V93.3032C79.5147 98.5224 83.7457 102.753 88.9646 102.753C94.1838 102.753 98.4145 98.5221 98.4145 93.3032V81.5148" stroke="#2B76C1" stroke-miterlimit="10" stroke-linecap="round" stroke-linejoin="round"/>
<path d="M75.9756 59.5122H77.3753" stroke="#2B76C1" stroke-width="3" stroke-miterlimit="10" stroke-linecap="round" stroke-linejoin="round"/>
<path d="M42.5781 79.2017C43.1208 79.2017 43.5605 79.6413 43.5605 80.1841V93.3361C43.5605 108.198 55.6085 120.246 70.4706 120.246C84.5964 120.246 96.0476 108.795 96.0476 94.6692V81.5876" stroke="#2B76C1" stroke-miterlimit="10" stroke-linecap="round" stroke-linejoin="round"/>
<path d="M41.0347 79.2017H42.5783" stroke="#2B76C1" stroke-width="3" stroke-miterlimit="10" stroke-linecap="round" stroke-linejoin="round"/>
<path d="M78.1968 99.8424C79.1353 99.8424 79.8963 100.603 79.8963 101.542V116.912C79.8963 122.749 84.6275 127.479 90.4633 127.479C96.2995 127.479 101.03 122.748 101.03 116.912V81.9595" stroke="#2B76C1" stroke-miterlimit="10" stroke-linecap="round" stroke-linejoin="round"/>
<path d="M76.2017 99.8423H78.1965" stroke="#2B76C1" stroke-width="3" stroke-miterlimit="10" stroke-linecap="round" stroke-linejoin="round"/>
<path d="M74.4576 66.3752H63.9245C63.0169 66.3752 62.2812 65.6395 62.2812 64.732V54.1989C62.2812 53.2913 63.0169 52.5557 63.9245 52.5557H74.4576C75.3651 52.5557 76.1008 53.2913 76.1008 54.1989V64.732C76.1011 65.6395 75.3654 66.3752 74.4576 66.3752Z" fill="#D1E8FF" stroke="#2B76C1" stroke-miterlimit="10" stroke-linecap="round" stroke-linejoin="round"/>
<path d="M73.6478 59.1604V58.1134L72.5912 57.9367C72.5029 57.4993 72.331 57.0926 72.0945 56.7319L72.7224 55.8516L71.9822 55.1115L71.1038 55.7383C70.7461 55.5025 70.3425 55.33 69.9083 55.2404L69.7288 54.1665H68.6821L68.5025 55.2404C68.0725 55.3294 67.6728 55.4996 67.3176 55.7319L66.4203 55.0919L65.6801 55.8321L66.3189 56.7278C66.0872 57.0801 65.9176 57.4769 65.827 57.9031L64.7349 58.0859V59.1329L65.82 59.3143C65.9067 59.7415 66.0744 60.139 66.3032 60.4932L65.66 61.3947L66.4001 62.1348L67.2917 61.499C67.6449 61.7345 68.0443 61.906 68.4728 61.9985L68.6536 63.0798H69.7003L69.8792 62.011C70.3141 61.9249 70.7182 61.7563 71.0776 61.5236L71.9621 62.1547L72.7022 61.4145L72.0785 60.5399C72.3182 60.1812 72.4923 59.7751 72.5845 59.3387L73.6478 59.1604ZM69.2053 61.1895C67.788 61.1895 66.6389 60.0404 66.6389 58.6231C66.6389 57.2059 67.788 56.0567 69.2053 56.0567C70.6225 56.0567 71.7717 57.2059 71.7717 58.6231C71.7717 60.0404 70.6225 61.1895 69.2053 61.1895Z" fill="white" stroke="#2B76C1" stroke-miterlimit="10" stroke-linecap="round" stroke-linejoin="round"/>
<path d="M73.339 64.1558H64.708V64.8633H73.339V64.1558Z" fill="white" stroke="#2B76C1" stroke-miterlimit="10" stroke-linecap="round" stroke-linejoin="round"/>
<path d="M69.0235 64.1558H64.708V64.8633H69.0235V64.1558Z" fill="#2B76C1" stroke="#2B76C1" stroke-miterlimit="10" stroke-linecap="round" stroke-linejoin="round"/>
<path d="M56.7892 66.3293H46.459C45.5115 66.3293 44.7432 65.561 44.7432 64.6135V54.2832C44.7432 53.3357 45.5115 52.5674 46.459 52.5674H56.7892C57.7368 52.5674 58.5051 53.3357 58.5051 54.2832V64.6135C58.5051 65.5613 57.7368 66.3293 56.7892 66.3293Z" fill="white" stroke="#2B76C1" stroke-miterlimit="10" stroke-linecap="round" stroke-linejoin="round"/>
<path d="M52.7074 64.0663C55.2575 63.4683 56.8401 60.9162 56.2421 58.366C55.6441 55.8159 53.092 54.2333 50.5418 54.8313C47.9916 55.4293 46.4091 57.9814 47.0071 60.5316C47.6051 63.0818 50.1572 64.6643 52.7074 64.0663Z" fill="#2B76C1" stroke="#2B76C1" stroke-miterlimit="10" stroke-linecap="round" stroke-linejoin="round"/>
<path d="M50.1289 61.3901L51.6236 59.4483V55.9731" stroke="white" stroke-miterlimit="10" stroke-linecap="round" stroke-linejoin="round"/>
<path d="M39.2217 66.3293H28.8911C27.9436 66.3293 27.1753 65.561 27.1753 64.6135V54.2832C27.1753 53.3357 27.9436 52.5674 28.8911 52.5674H39.2214C40.1689 52.5674 40.9372 53.3357 40.9372 54.2832V64.6135C40.9375 65.5613 40.1692 66.3293 39.2217 66.3293Z" fill="white" stroke="#2B76C1" stroke-miterlimit="10" stroke-linecap="round" stroke-linejoin="round"/>
<path d="M32.5615 61.3901L34.0566 59.4483V55.9731" stroke="white" stroke-miterlimit="10" stroke-linecap="round" stroke-linejoin="round"/>
<path d="M37.9096 59.1376L31.6597 55.5293V62.7459L37.9096 59.1376Z" fill="#2B76C1" stroke="#2B76C1" stroke-miterlimit="10" stroke-linecap="round" stroke-linejoin="round"/>
<path d="M74.4576 86.6061H63.9245C63.0169 86.6061 62.2812 85.8705 62.2812 84.9629V74.4298C62.2812 73.5223 63.0169 72.7866 63.9245 72.7866H74.4576C75.3651 72.7866 76.1008 73.5223 76.1008 74.4298V84.9629C76.1011 85.8701 75.3654 86.6061 74.4576 86.6061Z" fill="white" stroke="#2B76C1" stroke-miterlimit="10" stroke-linecap="round" stroke-linejoin="round"/>
<path d="M68.9906 75.5957C66.5333 75.5957 64.541 77.1893 64.541 79.1554C64.541 80.4261 65.3762 81.5384 66.6287 82.1682L65.8761 84.0498L68.2549 82.6623C68.4949 82.6943 68.7397 82.7151 68.9909 82.7151C71.4485 82.7151 73.4405 81.1215 73.4405 79.1554C73.4402 77.1893 71.4482 75.5957 68.9906 75.5957Z" fill="#2B76C1" stroke="#2B76C1" stroke-miterlimit="10" stroke-linecap="round" stroke-linejoin="round"/>
<path d="M74.4576 106.837H63.9245C63.0169 106.837 62.2812 106.101 62.2812 105.194V94.6608C62.2812 93.7533 63.0169 93.0176 63.9245 93.0176H74.4576C75.3651 93.0176 76.1008 93.7533 76.1008 94.6608V105.194C76.1011 106.101 75.3654 106.837 74.4576 106.837Z" fill="#D1E8FF" stroke="#2B76C1" stroke-miterlimit="10" stroke-linecap="round" stroke-linejoin="round"/>
<path d="M73.6478 99.6228V98.5758L72.5912 98.3992C72.5029 97.9617 72.331 97.555 72.0945 97.1943L72.7224 96.314L71.9822 95.5739L71.1038 96.2008C70.7461 95.9649 70.3425 95.7924 69.9083 95.7028L69.7288 94.6289H68.6821L68.5025 95.7028C68.0725 95.7918 67.6728 95.962 67.3176 96.1943L66.4203 95.5543L65.6801 96.2945L66.3189 97.1902C66.0872 97.5425 65.9176 97.9393 65.827 98.3655L64.7349 98.5483V99.5953L65.82 99.7767C65.9067 100.204 66.0744 100.601 66.3032 100.956L65.66 101.857L66.4001 102.597L67.2917 101.961C67.6449 102.197 68.0443 102.368 68.4728 102.461L68.6536 103.542H69.7003L69.8792 102.473C70.3141 102.387 70.7182 102.218 71.0776 101.986L71.9621 102.617L72.7022 101.877L72.0785 101.002C72.3182 100.644 72.4923 100.238 72.5845 99.8011L73.6478 99.6228ZM69.2053 101.652C67.788 101.652 66.6389 100.503 66.6389 99.0852C66.6389 97.6679 67.788 96.5188 69.2053 96.5188C70.6225 96.5188 71.7717 97.6679 71.7717 99.0852C71.7717 100.503 70.6225 101.652 69.2053 101.652Z" fill="white" stroke="#2B76C1" stroke-miterlimit="10" stroke-linecap="round" stroke-linejoin="round"/>
<path d="M73.339 104.618H64.708V105.325H73.339V104.618Z" fill="white" stroke="#2B76C1" stroke-miterlimit="10" stroke-linecap="round" stroke-linejoin="round"/>
<path d="M66.1358 104.618H64.708V105.325H66.1358V104.618Z" fill="#2B76C1" stroke="#2B76C1" stroke-miterlimit="10" stroke-linecap="round" stroke-linejoin="round"/>
<path d="M39.2217 86.5603H28.8911C27.9436 86.5603 27.1753 85.7919 27.1753 84.8444V74.5142C27.1753 73.5667 27.9436 72.7983 28.8911 72.7983H39.2214C40.1689 72.7983 40.9372 73.5667 40.9372 74.5142V84.8444C40.9375 85.7919 40.1692 86.5603 39.2217 86.5603Z" fill="#D1E8FF" stroke="#2B76C1" stroke-miterlimit="10" stroke-linecap="round" stroke-linejoin="round"/>
<path d="M38.613 79.3914V78.3447L37.5563 78.168C37.468 77.7306 37.2962 77.3239 37.0597 76.9632L37.6875 76.0829L36.9474 75.3427L36.0687 75.9693C35.7109 75.7335 35.3074 75.561 34.8731 75.4714L34.6933 74.3975H33.6466L33.4671 75.4714C33.0373 75.5603 32.6376 75.7306 32.2821 75.9629L31.3848 75.3229L30.6447 76.0631L31.2837 76.9587C31.0517 77.3111 30.8824 77.7079 30.7919 78.1341L29.6997 78.3168V79.3635L30.7848 79.545C30.8715 79.9722 31.0392 80.3696 31.268 80.7239L30.6251 81.6253L31.3653 82.3655L32.2568 81.7296C32.6101 81.9651 33.0095 82.1367 33.4379 82.2291L33.6187 83.3104H34.6658L34.8447 82.2416C35.2795 82.1555 35.6837 81.9866 36.0431 81.7543L36.9275 82.3853L37.6677 81.6451L37.044 80.7706C37.2837 80.4119 37.4578 80.0058 37.5499 79.5693L38.613 79.3914ZM34.1704 81.4205C32.7531 81.4205 31.604 80.2714 31.604 78.8541C31.604 77.4368 32.7531 76.2877 34.1704 76.2877C35.5877 76.2877 36.7368 77.4368 36.7368 78.8541C36.7368 80.2714 35.5877 81.4205 34.1704 81.4205Z" fill="white" stroke="#2B76C1" stroke-miterlimit="10" stroke-linecap="round" stroke-linejoin="round"/>
<path d="M38.3044 84.3867H29.6733V85.0942H38.3044V84.3867Z" fill="white" stroke="#2B76C1" stroke-miterlimit="10" stroke-linecap="round" stroke-linejoin="round"/>
<path d="M37.4737 84.3867H29.6733V85.0942H37.4737V84.3867Z" fill="#2B76C1" stroke="#2B76C1" stroke-miterlimit="10" stroke-linecap="round" stroke-linejoin="round"/>
<path d="M39.2217 106.792H28.8911C27.9436 106.792 27.1753 106.023 27.1753 105.076V94.7456C27.1753 93.7981 27.9436 93.0298 28.8911 93.0298H39.2214C40.1689 93.0298 40.9372 93.7981 40.9372 94.7456V105.076C40.9375 106.023 40.1692 106.792 39.2217 106.792Z" fill="white" stroke="#2B76C1" stroke-miterlimit="10" stroke-linecap="round" stroke-linejoin="round"/>
<path d="M32.5615 101.853L34.0566 99.9108V96.4355" stroke="white" stroke-miterlimit="10" stroke-linecap="round" stroke-linejoin="round"/>
<path d="M38.6943 96.9346H29.4185V102.887H38.6943V96.9346Z" fill="#2B76C1" stroke="#2B76C1" stroke-miterlimit="10" stroke-linecap="round" stroke-linejoin="round"/>
<path d="M29.4185 96.9346L33.9791 100.8L38.629 96.988" stroke="white" stroke-miterlimit="10" stroke-linecap="round" stroke-linejoin="round"/>
<path d="M29.4185 102.887L32.7423 99.8721" stroke="white" stroke-miterlimit="10" stroke-linecap="round" stroke-linejoin="round"/>
<path d="M38.6942 102.887L35.2158 99.8721" stroke="white" stroke-miterlimit="10" stroke-linecap="round" stroke-linejoin="round"/>
<path d="M136.322 98.499L139.988 133.631" stroke="#2B76C1" stroke-width="2" stroke-miterlimit="10"/>
<path d="M139.397 126.907L137.735 125.152" stroke="#2B76C1" stroke-width="2" stroke-miterlimit="10"/>
<path d="M138.24 125.678C138.24 125.678 138.288 124.901 137.579 124.268C137.152 123.887 134.907 122.942 134.693 123.733C134.462 124.594 136.76 126.283 138.24 125.678Z" fill="white" stroke="#2B76C1" stroke-miterlimit="10"/>
<path d="M138.24 125.678L136.103 124.346" stroke="#2B76C1" stroke-width="0.5" stroke-miterlimit="10"/>
<path d="M139.814 130.903L138.152 129.147" stroke="#2B76C1" stroke-width="2" stroke-miterlimit="10"/>
<path d="M138.657 129.674C138.657 129.674 138.705 128.897 137.996 128.264C137.569 127.883 135.324 126.938 135.11 127.729C134.879 128.589 137.177 130.278 138.657 129.674Z" fill="white" stroke="#2B76C1" stroke-miterlimit="10"/>
<path d="M138.657 129.673L136.52 128.341" stroke="#2B76C1" stroke-width="0.5" stroke-miterlimit="10"/>
<path d="M138.38 117.158L136.717 115.402" stroke="#2B76C1" stroke-width="2" stroke-miterlimit="10"/>
<path d="M137.222 115.929C137.222 115.929 137.27 115.152 136.561 114.519C136.134 114.138 133.889 113.193 133.676 113.984C133.444 114.844 135.742 116.533 137.222 115.929Z" fill="white" stroke="#2B76C1" stroke-miterlimit="10"/>
<path d="M137.222 115.929L135.085 114.597" stroke="#2B76C1" stroke-width="0.5" stroke-miterlimit="10"/>
<path d="M138.797 121.153L137.135 119.398" stroke="#2B76C1" stroke-width="2" stroke-miterlimit="10"/>
<path d="M137.64 119.924C137.64 119.924 137.688 119.147 136.979 118.514C136.552 118.133 134.307 117.189 134.093 117.979C133.861 118.839 136.16 120.529 137.64 119.924Z" fill="white" stroke="#2B76C1" stroke-miterlimit="10"/>
<path d="M137.64 119.924L135.502 118.592" stroke="#2B76C1" stroke-width="0.5" stroke-miterlimit="10"/>
<path d="M137.703 110.667L136.041 108.912" stroke="#2B76C1" stroke-width="2" stroke-miterlimit="10"/>
<path d="M136.545 109.438C136.545 109.438 136.593 108.661 135.884 108.028C135.457 107.647 133.212 106.702 132.999 107.493C132.767 108.353 135.065 110.042 136.545 109.438Z" fill="white" stroke="#2B76C1" stroke-miterlimit="10"/>
<path d="M136.545 109.438L134.408 108.106" stroke="#2B76C1" stroke-width="0.5" stroke-miterlimit="10"/>
<path d="M137.022 104.149L135.36 102.393" stroke="#2B76C1" stroke-width="2" stroke-miterlimit="10"/>
<path d="M135.865 102.919C135.865 102.919 135.913 102.142 135.204 101.509C134.777 101.128 132.532 100.183 132.319 100.974C132.087 101.834 134.385 103.524 135.865 102.919Z" fill="white" stroke="#2B76C1" stroke-miterlimit="10"/>
<path d="M135.865 102.919L133.728 101.587" stroke="#2B76C1" stroke-width="0.5" stroke-miterlimit="10"/>
<path d="M139.118 124.544L140.382 122.482" stroke="#2B76C1" stroke-width="2" stroke-miterlimit="10"/>
<path d="M139.996 123.102C139.996 123.102 139.789 122.351 140.352 121.585C140.691 121.125 142.693 119.737 143.065 120.466C143.469 121.26 141.569 123.388 139.996 123.102Z" fill="white" stroke="#2B76C1" stroke-miterlimit="10"/>
<path d="M139.996 123.101L141.921 121.262" stroke="#2B76C1" stroke-width="0.5" stroke-miterlimit="10"/>
<path d="M138.021 114.029L139.285 111.968" stroke="#2B76C1" stroke-width="2" stroke-miterlimit="10"/>
<path d="M138.899 112.587C138.899 112.587 138.692 111.837 139.255 111.071C139.594 110.61 141.596 109.223 141.968 109.952C142.372 110.746 140.472 112.873 138.899 112.587Z" fill="white" stroke="#2B76C1" stroke-miterlimit="10"/>
<path d="M138.899 112.587L140.824 110.748" stroke="#2B76C1" stroke-width="0.5" stroke-miterlimit="10"/>
<path d="M137.539 109.409L138.803 107.348" stroke="#2B76C1" stroke-width="2" stroke-miterlimit="10"/>
<path d="M138.417 107.967C138.417 107.967 138.21 107.217 138.773 106.451C139.112 105.99 141.114 104.602 141.486 105.332C141.89 106.125 139.99 108.253 138.417 107.967Z" fill="white" stroke="#2B76C1" stroke-miterlimit="10"/>
<path d="M138.417 107.967L140.342 106.127" stroke="#2B76C1" stroke-width="0.5" stroke-miterlimit="10"/>
<path d="M136.832 102.635L138.096 100.574" stroke="#2B76C1" stroke-width="2" stroke-miterlimit="10"/>
<path d="M137.71 101.193C137.71 101.193 137.503 100.443 138.066 99.6767C138.405 99.2159 140.407 97.828 140.779 98.5576C141.183 99.3516 139.283 101.479 137.71 101.193Z" fill="white" stroke="#2B76C1" stroke-miterlimit="10"/>
<path d="M137.71 101.193L139.635 99.353" stroke="#2B76C1" stroke-width="0.5" stroke-miterlimit="10"/>
<path d="M136.291 98.3037C136.291 98.3037 136.084 97.5536 136.647 96.7875C136.986 96.3267 138.988 94.9389 139.359 95.6685C139.764 96.4624 137.864 98.5898 136.291 98.3037Z" fill="white" stroke="#2B76C1" stroke-miterlimit="10"/>
<path d="M136.291 98.304L138.216 96.4644" stroke="#2B76C1" stroke-width="0.5" stroke-miterlimit="10"/>
<path d="M136.402 98.3832C136.402 98.3832 135.635 98.5103 134.932 97.87C134.509 97.4847 133.339 95.3484 134.103 95.0552C134.935 94.7362 136.852 96.8488 136.402 98.3832Z" fill="white" stroke="#2B76C1" stroke-miterlimit="10"/>
<path d="M136.402 98.3831L134.775 96.2759" stroke="#2B76C1" stroke-width="0.5" stroke-miterlimit="10"/>
<path d="M145.992 103.337L142.346 138.471" stroke="#2B76C1" stroke-width="2" stroke-miterlimit="10"/>
<path d="M143.152 131.771L141.887 129.71" stroke="#2B76C1" stroke-width="2" stroke-miterlimit="10"/>
<path d="M142.273 130.329C142.273 130.329 142.48 129.579 141.916 128.813C141.577 128.352 139.574 126.966 139.203 127.696C138.799 128.49 140.7 130.616 142.273 130.329Z" fill="white" stroke="#2B76C1" stroke-miterlimit="10"/>
<path d="M142.273 130.329L140.456 128.585" stroke="#2B76C1" stroke-width="0.5" stroke-miterlimit="10"/>
<path d="M144.164 122.02L142.899 119.959" stroke="#2B76C1" stroke-width="2" stroke-miterlimit="10"/>
<path d="M143.285 120.578C143.285 120.578 143.491 119.828 142.928 119.063C142.589 118.602 140.586 117.215 140.215 117.945C139.811 118.739 141.712 120.865 143.285 120.578Z" fill="white" stroke="#2B76C1" stroke-miterlimit="10"/>
<path d="M143.285 120.579L141.467 118.835" stroke="#2B76C1" stroke-width="0.5" stroke-miterlimit="10"/>
<path d="M143.749 126.016L142.484 123.956" stroke="#2B76C1" stroke-width="2" stroke-miterlimit="10"/>
<path d="M142.871 124.575C142.871 124.575 143.077 123.824 142.513 123.059C142.174 122.598 140.172 121.211 139.8 121.941C139.396 122.735 141.297 124.861 142.871 124.575Z" fill="white" stroke="#2B76C1" stroke-miterlimit="10"/>
<path d="M142.87 124.575L141.053 122.831" stroke="#2B76C1" stroke-width="0.5" stroke-miterlimit="10"/>
<path d="M144.838 115.529L143.572 113.469" stroke="#2B76C1" stroke-width="2" stroke-miterlimit="10"/>
<path d="M143.958 114.088C143.958 114.088 144.165 113.338 143.601 112.572C143.262 112.111 141.259 110.724 140.888 111.454C140.484 112.248 142.386 114.374 143.958 114.088Z" fill="white" stroke="#2B76C1" stroke-miterlimit="10"/>
<path d="M143.958 114.088L142.141 112.344" stroke="#2B76C1" stroke-width="0.5" stroke-miterlimit="10"/>
<path d="M145.514 109.01L144.25 106.95" stroke="#2B76C1" stroke-width="2" stroke-miterlimit="10"/>
<path d="M144.635 107.568C144.635 107.568 144.841 106.818 144.278 106.052C143.939 105.592 141.936 104.205 141.565 104.935C141.161 105.729 143.062 107.855 144.635 107.568Z" fill="white" stroke="#2B76C1" stroke-miterlimit="10"/>
<path d="M144.635 107.568L142.817 105.825" stroke="#2B76C1" stroke-width="0.5" stroke-miterlimit="10"/>
<path d="M143.366 129.4L145.027 127.643" stroke="#2B76C1" stroke-width="2" stroke-miterlimit="10"/>
<path d="M144.522 128.169C144.522 128.169 144.474 127.393 145.183 126.759C145.61 126.378 147.854 125.432 148.068 126.223C148.3 127.083 146.002 128.773 144.522 128.169Z" fill="white" stroke="#2B76C1" stroke-miterlimit="10"/>
<path d="M144.522 128.169L146.784 126.766" stroke="#2B76C1" stroke-width="0.5" stroke-miterlimit="10"/>
<path d="M144.457 118.884L146.118 117.128" stroke="#2B76C1" stroke-width="2" stroke-miterlimit="10"/>
<path d="M145.613 117.655C145.613 117.655 145.565 116.878 146.274 116.244C146.7 115.863 148.945 114.917 149.159 115.708C149.391 116.567 147.094 118.258 145.613 117.655Z" fill="white" stroke="#2B76C1" stroke-miterlimit="10"/>
<path d="M145.613 117.655L147.876 116.25" stroke="#2B76C1" stroke-width="0.5" stroke-miterlimit="10"/>
<path d="M144.937 114.264L146.598 112.507" stroke="#2B76C1" stroke-width="2" stroke-miterlimit="10"/>
<path d="M146.093 113.033C146.093 113.033 146.045 112.257 146.754 111.623C147.18 111.242 149.425 110.296 149.639 111.086C149.871 111.947 147.573 113.637 146.093 113.033Z" fill="white" stroke="#2B76C1" stroke-miterlimit="10"/>
<path d="M146.093 113.033L148.355 111.629" stroke="#2B76C1" stroke-width="0.5" stroke-miterlimit="10"/>
<path d="M145.639 107.489L147.3 105.733" stroke="#2B76C1" stroke-width="2" stroke-miterlimit="10"/>
<path d="M146.796 106.259C146.796 106.259 146.748 105.483 147.457 104.849C147.883 104.468 150.128 103.522 150.342 104.312C150.574 105.172 148.276 106.863 146.796 106.259Z" fill="white" stroke="#2B76C1" stroke-miterlimit="10"/>
<path d="M146.796 106.259L149.058 104.855" stroke="#2B76C1" stroke-width="0.5" stroke-miterlimit="10"/>
<path d="M146.002 103.14C146.002 103.14 145.954 102.363 146.663 101.73C147.089 101.349 149.334 100.403 149.548 101.193C149.78 102.053 147.482 103.744 146.002 103.14Z" fill="white" stroke="#2B76C1" stroke-miterlimit="10"/>
<path d="M146.002 103.14L148.265 101.736" stroke="#2B76C1" stroke-width="0.5" stroke-miterlimit="10"/>
<path d="M146.095 103.24C146.095 103.24 145.317 103.207 144.762 102.435C144.427 101.971 143.722 99.6394 144.531 99.5102C145.41 99.3697 146.851 101.831 146.095 103.24Z" fill="white" stroke="#2B76C1" stroke-miterlimit="10"/>
<path d="M146.095 103.24L144.936 100.843" stroke="#2B76C1" stroke-width="0.5" stroke-miterlimit="10"/>
<path d="M141.814 89.0308V133.46" stroke="#2B76C1" stroke-width="2" stroke-miterlimit="10"/>
<path d="M141.85 126.78L140.379 124.861" stroke="#2B76C1" stroke-width="2" stroke-miterlimit="10"/>
<path d="M140.826 125.437C140.826 125.437 140.954 124.669 140.315 123.966C139.93 123.542 137.795 122.37 137.501 123.134C137.181 123.966 139.291 125.884 140.826 125.437Z" fill="white" stroke="#2B76C1" stroke-miterlimit="10"/>
<path d="M140.827 125.437L138.839 123.89" stroke="#2B76C1" stroke-width="0.5" stroke-miterlimit="10"/>
<path d="M141.85 118.43L140.379 116.511" stroke="#2B76C1" stroke-width="2" stroke-miterlimit="10"/>
<path d="M140.826 117.087C140.826 117.087 140.954 116.32 140.315 115.616C139.93 115.193 137.795 114.02 137.501 114.785C137.181 115.616 139.291 117.535 140.826 117.087Z" fill="white" stroke="#2B76C1" stroke-miterlimit="10"/>
<path d="M140.827 117.087L138.839 115.54" stroke="#2B76C1" stroke-width="0.5" stroke-miterlimit="10"/>
<path d="M141.85 108.627L140.379 106.709" stroke="#2B76C1" stroke-width="2" stroke-miterlimit="10"/>
<path d="M140.826 107.284C140.826 107.284 140.954 106.517 140.315 105.813C139.93 105.39 137.795 104.217 137.501 104.982C137.181 105.813 139.291 107.732 140.826 107.284Z" fill="white" stroke="#2B76C1" stroke-miterlimit="10"/>
<path d="M140.827 107.284L138.839 105.738" stroke="#2B76C1" stroke-width="0.5" stroke-miterlimit="10"/>
<path d="M141.85 102.102L140.379 100.183" stroke="#2B76C1" stroke-width="2" stroke-miterlimit="10"/>
<path d="M140.826 100.758C140.826 100.758 140.954 99.9911 140.315 99.2874C139.93 98.864 137.795 97.6916 137.501 98.456C137.181 99.2877 139.291 101.206 140.826 100.758Z" fill="white" stroke="#2B76C1" stroke-miterlimit="10"/>
<path d="M140.827 100.758L138.839 99.2119" stroke="#2B76C1" stroke-width="0.5" stroke-miterlimit="10"/>
<path d="M141.85 95.5473L140.379 93.6289" stroke="#2B76C1" stroke-width="2" stroke-miterlimit="10"/>
<path d="M140.826 94.2042C140.826 94.2042 140.954 93.4369 140.315 92.7332C139.93 92.3098 137.795 91.1374 137.501 91.9018C137.181 92.7335 139.291 94.6519 140.826 94.2042Z" fill="white" stroke="#2B76C1" stroke-miterlimit="10"/>
<path d="M140.827 94.2043L138.839 92.6577" stroke="#2B76C1" stroke-width="0.5" stroke-miterlimit="10"/>
<path d="M141.817 129.329L143.288 127.411" stroke="#2B76C1" stroke-width="2" stroke-miterlimit="10"/>
<path d="M142.841 127.986C142.841 127.986 142.713 127.219 143.352 126.515C143.737 126.092 145.872 124.92 146.166 125.684C146.486 126.515 144.376 128.434 142.841 127.986Z" fill="white" stroke="#2B76C1" stroke-miterlimit="10"/>
<path d="M142.841 127.987L144.946 126.356" stroke="#2B76C1" stroke-width="0.5" stroke-miterlimit="10"/>
<path d="M141.817 116.05L143.288 114.131" stroke="#2B76C1" stroke-width="2" stroke-miterlimit="10"/>
<path d="M142.841 114.707C142.841 114.707 142.713 113.94 143.352 113.236C143.737 112.813 145.872 111.64 146.166 112.405C146.486 113.236 144.376 115.155 142.841 114.707Z" fill="white" stroke="#2B76C1" stroke-miterlimit="10"/>
<path d="M142.841 114.707L144.946 113.077" stroke="#2B76C1" stroke-width="0.5" stroke-miterlimit="10"/>
<path d="M141.817 109.496L143.288 107.577" stroke="#2B76C1" stroke-width="2" stroke-miterlimit="10"/>
<path d="M142.841 108.153C142.841 108.153 142.713 107.386 143.352 106.682C143.737 106.259 145.872 105.086 146.166 105.851C146.486 106.682 144.376 108.601 142.841 108.153Z" fill="white" stroke="#2B76C1" stroke-miterlimit="10"/>
<path d="M142.841 108.153L144.946 106.523" stroke="#2B76C1" stroke-width="0.5" stroke-miterlimit="10"/>
<path d="M141.817 100.833L143.288 98.9141" stroke="#2B76C1" stroke-width="2" stroke-miterlimit="10"/>
<path d="M142.841 99.4899C142.841 99.4899 142.713 98.7225 143.352 98.0189C143.737 97.5955 145.872 96.423 146.166 97.1875C146.486 98.0188 144.376 99.9376 142.841 99.4899Z" fill="white" stroke="#2B76C1" stroke-miterlimit="10"/>
<path d="M142.841 99.4899L144.946 97.8599" stroke="#2B76C1" stroke-width="0.5" stroke-miterlimit="10"/>
<path d="M141.817 94.0222L143.288 92.1035" stroke="#2B76C1" stroke-width="2" stroke-miterlimit="10"/>
<path d="M142.841 92.6789C142.841 92.6789 142.713 91.9115 143.352 91.2078C143.737 90.7844 145.872 89.612 146.166 90.3765C146.486 91.2081 144.376 93.1269 142.841 92.6789Z" fill="white" stroke="#2B76C1" stroke-miterlimit="10"/>
<path d="M142.841 92.6791L144.946 91.0493" stroke="#2B76C1" stroke-width="0.5" stroke-miterlimit="10"/>
<path d="M141.729 89.6583C141.729 89.6583 141.601 88.891 142.241 88.1873C142.626 87.7639 144.761 86.5915 145.055 87.3559C145.375 88.1873 143.264 90.106 141.729 89.6583Z" fill="white" stroke="#2B76C1" stroke-miterlimit="10"/>
<path d="M141.729 89.6584L143.835 88.0283" stroke="#2B76C1" stroke-width="0.5" stroke-miterlimit="10"/>
<path d="M141.832 89.749C141.832 89.749 141.056 89.7957 140.423 89.086C140.042 88.6588 139.1 86.4127 139.891 86.2002C140.752 85.9695 142.438 88.2693 141.832 89.749Z" fill="white" stroke="#2B76C1" stroke-miterlimit="10"/>
<path d="M141.832 89.749L140.432 87.4844" stroke="#2B76C1" stroke-width="0.5" stroke-miterlimit="10"/>
<path d="M143.642 144.984H138.937L138.349 133.1H144.23L143.642 144.984Z" fill="#2B76C1" stroke="#2B76C1" stroke-miterlimit="10"/>
<path d="M132.273 58.651C130.338 57.0213 130.712 54.4248 130.712 54.4248C130.712 54.4248 122.8 61.605 122.393 63.9477C121.985 66.2907 127.893 74.7451 128.81 76.0696C128.923 76.2322 129.071 76.3618 129.247 76.4619C128.999 77.0718 128.826 77.7774 128.835 78.6664C128.859 81.2632 131.794 80.3432 132.978 79.5541C134.161 78.765 133.865 77.3838 133.865 77.3838C133.865 77.3838 132.386 77.9755 132.386 77.2853C132.386 76.5947 133.767 75.5096 133.767 75.5096L133.732 75.4856C134.021 75.2626 134.288 75.0168 134.515 74.7454C136.043 72.9118 133.496 70.8747 132.987 69.7541C132.477 68.6334 133.394 67.6149 135.228 66.0869C137.061 64.5589 134.209 60.2808 132.273 58.651Z" fill="#2B76C1" stroke="#2B76C1" stroke-miterlimit="10" stroke-linecap="round" stroke-linejoin="round"/>
<path d="M103.255 74.4225C103.255 74.4225 103.332 75.8741 103.179 77.0965C103.026 78.3189 103.867 79.6558 104.287 79.9614C104.707 80.267 106.808 80.9547 106.808 80.9547L107.152 79.1211L106.846 78.3573L107.266 75.5688C107.266 75.5688 106.961 74.6901 106.579 74.0789C106.196 73.4677 105.165 72.8184 105.089 72.7038C105.012 72.5893 103.752 72.8568 103.637 72.8568C103.523 72.8568 102.95 73.0859 102.95 73.0859L103.255 74.4225Z" fill="white" stroke="#2B76C1" stroke-miterlimit="10" stroke-linecap="round" stroke-linejoin="round"/>
<path d="M102.605 72.5562C102.605 72.5562 101.949 72.6099 101.869 72.8704C101.789 73.1309 102.064 74.632 102.227 74.7712C102.391 74.9101 102.837 74.7722 102.838 74.1626C102.839 73.5526 102.777 72.7958 102.605 72.5562Z" fill="white" stroke="#2B76C1" stroke-miterlimit="10" stroke-linecap="round" stroke-linejoin="round"/>
<path d="M103.35 72.377C103.35 72.377 102.634 72.377 102.524 72.6522C102.414 72.9274 102.579 74.5779 102.745 74.743C102.91 74.9082 103.405 74.7981 103.46 74.1379C103.515 73.4774 103.515 72.6522 103.35 72.377Z" fill="white" stroke="#2B76C1" stroke-miterlimit="10" stroke-linecap="round" stroke-linejoin="round"/>
<path d="M104.112 72.1001C104.112 72.1001 103.305 72.1001 103.181 72.4102C103.057 72.7203 103.243 74.5814 103.429 74.7676C103.616 74.9539 104.174 74.8297 104.236 74.0854C104.298 73.3407 104.298 72.4105 104.112 72.1001Z" fill="white" stroke="#2B76C1" stroke-miterlimit="10" stroke-linecap="round" stroke-linejoin="round"/>
<path d="M104.844 72.1045C104.844 72.1045 104.037 72.1045 103.913 72.4146C103.789 72.7247 103.975 74.5858 104.161 74.772C104.347 74.9583 104.906 74.8341 104.968 74.0898C105.03 73.3451 105.03 72.4146 104.844 72.1045Z" fill="white" stroke="#2B76C1" stroke-miterlimit="10" stroke-linecap="round" stroke-linejoin="round"/>
<path d="M106.891 77.7494C106.891 77.7494 107.201 76.1366 107.263 75.2681C107.325 74.3996 106.332 73.3449 106.084 73.0348C105.836 72.7247 105.836 71.6079 105.402 71.6079C104.968 71.6079 104.844 72.1042 104.844 72.1042C104.844 72.1042 104.596 72.9106 105.03 73.3449C105.464 73.7791 105.898 74.4614 105.898 74.4614C105.898 74.4614 104.596 76.9426 104.596 77.6252C104.596 78.3078 105.836 79.1142 105.836 79.1142" fill="white"/>
<path d="M106.891 77.7494C106.891 77.7494 107.201 76.1366 107.263 75.2681C107.325 74.3996 106.332 73.3449 106.084 73.0348C105.836 72.7247 105.836 71.6079 105.402 71.6079C104.968 71.6079 104.844 72.1042 104.844 72.1042C104.844 72.1042 104.596 72.9106 105.03 73.3449C105.464 73.7791 105.898 74.4614 105.898 74.4614C105.898 74.4614 104.596 76.9426 104.596 77.6252C104.596 78.3078 105.836 79.1142 105.836 79.1142" stroke="#2B76C1" stroke-miterlimit="10" stroke-linecap="round" stroke-linejoin="round"/>
<path d="M107.075 78.9678L106.731 81.9473L114.906 84.6215L114.829 80.1521L107.075 78.9678Z" fill="#D1E8FF" stroke="#2B76C1" stroke-miterlimit="10" stroke-linecap="round" stroke-linejoin="round"/>
<path d="M120.559 64.9111C120.559 64.9111 116.005 66.274 115.7 67.7003C115.394 69.1262 114.447 73.4676 114.447 73.4676C114.447 73.4676 113.327 76.4215 113.428 77.9495C113.53 79.4775 114.447 82.5335 113.938 84.5706C113.428 86.6081 111.697 92.7198 111.289 94.7569C110.882 96.7943 110.678 98.0164 110.678 98.0164L112.308 98.322L114.549 98.6276C114.549 98.6276 115.466 92.5159 116.179 87.219C116.892 81.922 115.058 78.2548 116.79 74.7915C118.521 71.3281 122.698 67.8647 122.392 66.4388C122.087 65.0129 120.559 64.9111 120.559 64.9111Z" fill="#D1E8FF" stroke="#2B76C1" stroke-miterlimit="10" stroke-linecap="round" stroke-linejoin="round"/>
<path d="M112.308 94.3492C112.308 94.3492 111.696 101.785 112.919 107.286C114.141 112.787 115.567 116.555 115.567 116.555C115.567 116.555 116.993 125.519 118.012 128.677C119.03 131.835 119.336 134.891 119.132 137.336C118.928 139.781 117.197 142.938 116.382 143.55C115.567 144.161 113.937 145.587 115.974 146.096C118.012 146.606 120.644 145.435 121.883 145.383C124.327 145.281 124.633 143.651 124.633 142.124C124.633 140.596 123.207 135.401 123.614 132.752C124.022 130.104 124.124 121.343 123.716 119C123.309 116.658 123.105 114.519 123.105 114.519L122.799 95.4699L112.715 94.0439L112.308 94.3492Z" fill="#2B76C1" stroke="#2B76C1" stroke-miterlimit="10" stroke-linecap="round" stroke-linejoin="round"/>
<path d="M123.553 134.348C121.201 135.368 119.881 135.181 119.156 134.76C119.205 135.67 119.199 136.538 119.132 137.336C118.929 139.781 117.197 142.939 116.382 143.55C115.567 144.161 113.937 145.587 115.975 146.096C118.012 146.606 120.644 145.435 121.883 145.383C124.328 145.282 124.633 143.652 124.633 142.124C124.633 140.864 123.664 137.111 123.553 134.348Z" fill="white" stroke="#2B76C1" stroke-miterlimit="10" stroke-linecap="round" stroke-linejoin="round"/>
<path d="M124.623 141.885C124.622 141.868 124.621 141.852 124.62 141.835C124.613 141.75 124.604 141.659 124.593 141.561C124.591 141.54 124.588 141.519 124.586 141.498C124.574 141.403 124.561 141.304 124.546 141.199C124.545 141.188 124.543 141.177 124.542 141.166C124.526 141.056 124.507 140.939 124.488 140.819C124.483 140.782 124.477 140.746 124.471 140.708C124.452 140.597 124.433 140.483 124.413 140.365C124.402 140.302 124.391 140.238 124.38 140.173C124.377 140.16 124.375 140.146 124.372 140.132C124.23 140.274 124.081 140.426 123.92 140.596C122.291 142.327 120.05 144.263 117.707 144.263C116.59 144.263 116.307 143.939 116.316 143.6C115.483 144.236 113.991 145.601 115.975 146.097C118.012 146.606 120.644 145.435 121.883 145.384C124.328 145.282 124.633 143.652 124.633 142.124C124.633 142.053 124.629 141.971 124.623 141.885Z" fill="#D1E8FF" stroke="#2B76C1" stroke-miterlimit="10" stroke-linecap="round" stroke-linejoin="round"/>
<path d="M122.596 143.957C120.661 145.485 118.623 145.688 116.892 145.688C115.553 145.688 115.19 145.142 115.093 144.893C114.859 145.378 114.978 145.847 115.975 146.096C118.012 146.605 120.645 145.434 121.883 145.383C124.186 145.287 124.591 143.835 124.63 142.39C124.14 142.756 123.46 143.274 122.596 143.957Z" fill="white" stroke="#2B76C1" stroke-miterlimit="10" stroke-linecap="round" stroke-linejoin="round"/>
<path d="M118.827 105.656C118.827 105.656 119.845 118.593 120.66 122.056C121.475 125.52 123.207 137.54 123.207 139.169C123.207 140.799 122.086 143.142 121.475 144.161C120.864 145.179 119.235 145.383 119.235 146.3C119.235 147.217 122.494 147.217 123.105 147.319C123.716 147.42 127.893 146.3 127.995 145.791C128.097 145.281 128.097 143.142 128.097 143.142C128.097 143.142 128.198 142.124 128.097 141.411C127.995 140.698 126.772 138.559 126.772 138.559C126.772 138.559 127.893 128.576 128.199 126.946C128.504 125.316 128.403 121.955 128.3 120.427C128.199 118.899 127.282 115.843 127.282 115.843L129.319 99.6465L129.115 94.4517C129.115 94.4517 126.263 94.7573 123.105 94.7573C119.948 94.7573 117.707 94.7573 117.707 94.7573L117.91 98.628" fill="#2B76C1"/>
<path d="M118.827 105.656C118.827 105.656 119.845 118.593 120.66 122.056C121.475 125.52 123.207 137.54 123.207 139.169C123.207 140.799 122.086 143.142 121.475 144.161C120.864 145.179 119.235 145.383 119.235 146.3C119.235 147.217 122.494 147.217 123.105 147.319C123.716 147.42 127.893 146.3 127.995 145.791C128.097 145.281 128.097 143.142 128.097 143.142C128.097 143.142 128.198 142.124 128.097 141.411C127.995 140.698 126.772 138.559 126.772 138.559C126.772 138.559 127.893 128.576 128.199 126.946C128.504 125.316 128.403 121.955 128.3 120.427C128.199 118.899 127.282 115.843 127.282 115.843L129.319 99.6465L129.115 94.4517C129.115 94.4517 126.263 94.7573 123.105 94.7573C119.948 94.7573 117.707 94.7573 117.707 94.7573L117.91 98.628" stroke="#2B76C1" stroke-miterlimit="10" stroke-linecap="round" stroke-linejoin="round"/>
<path d="M127.995 145.791C128.096 145.281 128.096 143.142 128.096 143.142C128.096 143.142 128.198 142.124 128.096 141.411C127.995 140.698 126.772 138.559 126.772 138.559C126.772 138.559 126.939 137.071 127.162 135.152C125.183 135.939 123.491 135.26 122.737 134.847C123.018 136.963 123.207 138.632 123.207 139.17C123.207 140.799 122.086 143.143 121.475 144.161C120.864 145.18 119.234 145.383 119.234 146.3C119.234 147.217 122.494 147.217 123.105 147.319C123.717 147.42 127.893 146.3 127.995 145.791Z" fill="white" stroke="#2B76C1" stroke-miterlimit="10" stroke-linecap="round" stroke-linejoin="round"/>
<path d="M127.995 145.791C128.096 145.281 128.096 143.142 128.096 143.142C128.096 143.142 128.198 142.124 128.096 141.411C128.037 140.999 127.606 140.114 127.251 139.438C127.227 139.485 127.205 139.528 127.18 139.577C126.568 140.8 123.951 143.982 122.729 144.695C121.507 145.408 121.17 144.569 121.17 144.569H121.138C120.409 145.256 119.306 145.525 119.234 146.301C119.1 147.754 123.087 147.658 123.667 147.468C124.256 147.275 127.893 146.3 127.995 145.791Z" fill="#D1E8FF" stroke="#2B76C1" stroke-miterlimit="10" stroke-linecap="round" stroke-linejoin="round"/>
<path d="M127.995 145.791C128.061 145.462 128.084 144.455 128.092 143.782C125.271 145.993 122.346 146.411 121.098 146.489C119.922 146.563 119.443 146.042 119.359 145.937C119.292 146.046 119.247 146.165 119.234 146.3C119.1 147.753 123.087 147.657 123.667 147.467C124.256 147.275 127.893 146.3 127.995 145.791Z" fill="white" stroke="#2B76C1" stroke-miterlimit="10" stroke-linecap="round" stroke-linejoin="round"/>
<path d="M119.948 65.4199C119.948 65.4199 115.975 73.1617 115.059 75.3006C114.142 77.4398 114.549 80.9031 114.549 82.1255C114.549 83.3479 112.308 94.3492 112.308 94.3492C112.308 94.3492 114.346 96.4884 119.744 96.2846C125.143 96.0807 128.403 94.7566 128.403 94.7566C128.403 94.7566 127.18 84.6721 127.18 82.5329C127.18 80.3937 129.828 71.226 129.523 68.7812C129.218 66.3364 125.55 66.5402 124.634 66.3364C123.717 66.1332 119.948 65.4199 119.948 65.4199Z" fill="white" stroke="#2B76C1" stroke-miterlimit="10" stroke-linecap="round" stroke-linejoin="round"/>
<path d="M115.389 50.9681C115.389 50.9681 114.249 54.8778 114.656 55.3665C115.063 55.8551 115.47 56.9956 115.47 56.9956C115.47 56.9956 114.249 59.3578 114.574 59.6836C114.9 60.0093 115.633 60.2538 115.633 60.2538C115.633 60.2538 116.366 63.7562 117.018 63.9191C117.669 64.082 121.498 63.0231 121.498 63.0231C121.498 63.0231 123.778 60.9866 122.882 57.3213C121.986 53.6561 118.402 51.0493 117.751 50.7236C117.1 50.3978 115.389 50.9681 115.389 50.9681Z" fill="white" stroke="#2B76C1" stroke-miterlimit="10" stroke-linecap="round" stroke-linejoin="round"/>
<path d="M117.425 56.8325V57.7285C117.425 57.7285 118.435 57.7906 118.923 57.4648" stroke="#2B76C1" stroke-miterlimit="10" stroke-linecap="round" stroke-linejoin="round"/>
<path d="M117.084 56.4195C117.084 56.4195 117.95 55.9149 118.851 56.4557" stroke="#2B76C1" stroke-miterlimit="10" stroke-linecap="round" stroke-linejoin="round"/>
<path d="M116.184 56.4197C116.184 56.4197 116.544 55.6626 117.95 55.6626C119.356 55.6626 120.149 56.0952 120.257 56.3477C120.365 56.6002 120.221 56.7804 120.221 56.7804C120.221 56.7804 120.221 58.2584 119.825 58.6549C119.428 59.0514 117.986 59.4482 117.265 59.1237C116.544 58.7992 116.147 57.3932 116.147 57.0687C116.147 56.7442 116.184 56.4197 116.184 56.4197Z" stroke="#2B76C1" stroke-miterlimit="10" stroke-linecap="round" stroke-linejoin="round"/>
<path d="M120.257 56.3477H120.834" stroke="#2B76C1" stroke-miterlimit="10" stroke-linecap="round" stroke-linejoin="round"/>
<path d="M116.184 56.4195C116.184 56.4195 115.571 55.9149 115.318 56.5277" stroke="#2B76C1" stroke-miterlimit="10" stroke-linecap="round" stroke-linejoin="round"/>
<path d="M115.066 56.4197C115.066 56.4197 114.561 56.2754 113.949 56.2754C113.336 56.2754 113.155 56.5279 113.191 56.636C113.228 56.7442 113.408 57.285 113.408 57.6815C113.408 58.078 113.444 58.6911 113.804 58.8712C114.165 59.0514 114.598 59.0876 114.598 59.0876" stroke="#2B76C1" stroke-miterlimit="10" stroke-linecap="round" stroke-linejoin="round"/>
<path d="M123.309 66.0312C123.309 66.0312 120.558 72.958 119.846 76.8287C119.133 80.6994 119.438 100.767 119.438 100.767C119.438 100.767 121.883 102.091 125.346 101.887C128.81 101.683 132.375 99.4424 132.375 99.4424C132.375 99.4424 131.56 93.5343 130.236 89.358C128.911 85.1816 128.402 83.2463 128.402 83.2463C128.402 83.2463 131.05 69.6984 130.847 68.2722C130.643 66.8463 123.309 66.0312 123.309 66.0312Z" fill="#D1E8FF" stroke="#2B76C1" stroke-miterlimit="10" stroke-linecap="round" stroke-linejoin="round"/>
<path d="M118.077 47.1401C118.077 47.1401 114.086 48.2806 114.086 48.9321C114.086 49.5836 113.923 50.4796 116.611 52.3532C119.299 54.2265 121.254 55.9372 121.417 58.2179C121.58 60.4985 119.299 66.526 118.81 68.4809C118.322 70.4358 118.566 73.2867 120.114 73.694C121.661 74.1014 121.173 73.8569 121.01 72.9609C120.847 72.0649 121.743 68.318 124.431 67.0963C127.119 65.8745 130.032 63.9164 130.621 60.254C131.237 56.4313 130.989 50.9027 127.037 47.8732C123.039 44.8083 118.077 47.1401 118.077 47.1401Z" fill="#2B76C1" stroke="#2B76C1" stroke-miterlimit="10" stroke-linecap="round" stroke-linejoin="round"/>
<path d="M125.448 73.5692L124.43 82.9407L123.818 83.1446V83.654L123.207 83.9596L122.902 84.367L108.743 83.0428C108.743 83.0428 105.483 82.6355 104.872 82.6355C104.261 82.6355 101.918 82.3299 101.918 82.3299C101.918 82.3299 102.224 83.2467 102.733 83.3484C103.242 83.4502 105.891 84.367 105.891 84.367C105.891 84.367 107.622 85.2838 108.743 85.2838C109.863 85.2838 111.595 85.3855 111.595 85.3855C111.595 85.3855 119.031 87.423 121.374 87.8303C123.717 88.2377 125.652 89.1545 126.467 88.8489C127.282 88.5433 128.301 87.7286 128.606 86.6079C128.912 85.4873 130.236 78.5606 130.236 78.5606C130.236 78.5606 131.866 71.5321 131.866 69.8003C131.866 68.0684 129.523 67.1516 127.384 68.2723" fill="#D1E8FF"/>
<path d="M125.448 73.5692L124.43 82.9407L123.818 83.1446V83.654L123.207 83.9596L122.902 84.367L108.743 83.0428C108.743 83.0428 105.483 82.6355 104.872 82.6355C104.261 82.6355 101.918 82.3299 101.918 82.3299C101.918 82.3299 102.224 83.2467 102.733 83.3484C103.242 83.4502 105.891 84.367 105.891 84.367C105.891 84.367 107.622 85.2838 108.743 85.2838C109.863 85.2838 111.595 85.3855 111.595 85.3855C111.595 85.3855 119.031 87.423 121.374 87.8303C123.717 88.2377 125.652 89.1545 126.467 88.8489C127.282 88.5433 128.301 87.7286 128.606 86.6079C128.912 85.4873 130.236 78.5606 130.236 78.5606C130.236 78.5606 131.866 71.5321 131.866 69.8003C131.866 68.0684 129.523 67.1516 127.384 68.2723" stroke="#2B76C1" stroke-miterlimit="10" stroke-linecap="round" stroke-linejoin="round"/>
<path d="M123.228 88.2546L122.143 84.2962L108.743 83.043C108.743 83.043 105.483 82.6357 104.872 82.6357C104.261 82.6357 101.918 82.3301 101.918 82.3301C101.918 82.3301 102.224 83.2469 102.733 83.3486C103.242 83.4504 105.891 84.3672 105.891 84.3672C105.891 84.3672 107.622 85.284 108.743 85.284C109.863 85.284 111.595 85.3858 111.595 85.3858C111.595 85.3858 119.031 87.4232 121.374 87.8306C122.03 87.9445 122.652 88.0987 123.228 88.2546Z" fill="white" stroke="#2B76C1" stroke-miterlimit="10" stroke-linecap="round" stroke-linejoin="round"/>
<path d="M124.724 87.0562L125.041 87.5246" stroke="#2B76C1" stroke-miterlimit="10" stroke-linecap="round" stroke-linejoin="round"/>
<path d="M122.902 84.3672L124.335 86.4833" stroke="#2B76C1" stroke-miterlimit="10" stroke-linecap="round" stroke-linejoin="round"/>
<path d="M123.818 83.6538L125.856 85.08" stroke="#2B76C1" stroke-miterlimit="10" stroke-linecap="round" stroke-linejoin="round"/>
<path d="M102.54 82.48C102.54 82.48 102.681 82.9984 103.199 83.0454C103.717 83.0925 105.225 83.9408 105.366 83.9408" stroke="#2B76C1" stroke-miterlimit="10" stroke-linecap="round" stroke-linejoin="round"/>
<path d="M104.236 82.6216C104.236 82.6216 104.707 83.0456 105.131 83.14C105.555 83.2344 106.922 83.8469 106.922 83.8469" stroke="#2B76C1" stroke-miterlimit="10" stroke-linecap="round" stroke-linejoin="round"/>
<path d="M111.398 83.4694C111.398 83.4694 109.292 82.7571 109.12 82.807C108.948 82.8569 108.335 82.8569 107.628 82.7625C106.921 82.6684 106.497 83.4694 107.063 83.7049C107.628 83.9404 108.099 83.8464 108.288 83.8464C108.476 83.8464 109.042 84.0349 109.183 84.0349" fill="white"/>
<path d="M111.398 83.4694C111.398 83.4694 109.292 82.7571 109.12 82.807C108.948 82.8569 108.335 82.8569 107.628 82.7625C106.921 82.6684 106.497 83.4694 107.063 83.7049C107.628 83.9404 108.099 83.8464 108.288 83.8464C108.476 83.8464 109.042 84.0349 109.183 84.0349" stroke="#2B76C1" stroke-miterlimit="10" stroke-linecap="round" stroke-linejoin="round"/>
<path d="M94.8563 81.285L114.707 83.5182L114.645 82.8357L94.7324 80.7266L94.8563 81.285Z" fill="white" stroke="#2B76C1" stroke-miterlimit="10" stroke-linecap="round" stroke-linejoin="round"/>
<path d="M94.7324 80.7268L90.8242 70.4292L101.99 71.3598L105.65 81.9678L94.7324 80.7268Z" fill="white" stroke="#2B76C1" stroke-miterlimit="10" stroke-linecap="round" stroke-linejoin="round"/>
<path d="M105.65 81.9678V82.4996L114.707 83.5185L114.645 82.8359L105.641 81.8823L105.65 81.9678Z" fill="#2B76C1" stroke="#2B76C1" stroke-miterlimit="10" stroke-linecap="round" stroke-linejoin="round"/>
</svg>
