<svg width="956" height="671" viewBox="0 0 956 671" fill="none" xmlns="http://www.w3.org/2000/svg">
<rect width="956" height="670.511" fill="white"/>
<path d="M735.661 428.006V637.936L551.972 454.247M885.871 249.745L726.613 388.191L597.216 181.88L885.871 249.745ZM493.155 322.135L739.281 402.669L568.26 439.769L493.155 322.135Z" stroke="#2B76C1" stroke-width="2"/>
<path d="M417.146 439.769L40.7188 378.238L190.928 551.069L205.406 543.946M417.146 439.769L395.429 450.454M417.146 439.769L387.285 414.433L478.678 312.182L570.975 197.263L616.219 157.449L743.806 60.6271M64.2455 373.714L215.359 228.029M215.359 228.029L205.406 543.946M215.359 228.029L395.429 450.454M215.359 228.029L466.914 312.182L471.439 122.159M205.406 543.946L395.429 450.454M875.917 218.075L743.806 60.6271M743.806 60.6271H703.991L471.439 122.159M461.485 301.324L305.847 60.6271L48.8626 38.9102L205.406 245.221L322.135 67.8661L471.439 122.159M536.59 439.769L478.678 570.071L361.044 444.294L536.59 439.769Z" stroke="#2B76C1" stroke-width="2"/>
<circle cx="202.692" cy="548.354" r="47.0534" fill="#2B76C1"/>
<circle cx="202.692" cy="548.353" r="13.978" fill="white" stroke="#2B76C1"/>
<circle cx="57.9128" cy="392.716" r="47.0534" fill="#2B76C1"/>
<circle cx="57.9126" cy="392.716" r="13.978" fill="white" stroke="#2B76C1"/>
<circle cx="211.74" cy="233.458" r="47.0534" fill="#2B76C1"/>
<circle cx="211.74" cy="233.457" r="13.978" fill="white" stroke="#2B76C1"/>
<circle cx="475.964" cy="306.752" r="44.3388" fill="#2B76C1"/>
<circle cx="475.965" cy="306.752" r="13.1427" fill="white" stroke="#2B76C1"/>
<circle cx="380.047" cy="443.838" r="50.2201" fill="#2B76C1"/>
<circle cx="380.048" cy="443.838" r="14.9522" fill="white" stroke="#2B76C1"/>
<circle cx="734.305" cy="399.502" r="50.2201" fill="#2B76C1"/>
<circle cx="734.306" cy="399.501" r="14.9522" fill="white" stroke="#2B76C1"/>
<circle cx="734.305" cy="620.291" r="50.2201" fill="#2B76C1"/>
<circle cx="734.306" cy="620.291" r="14.9522" fill="white" stroke="#2B76C1"/>
<circle cx="909.852" cy="243.412" r="46.1486" fill="#2B76C1"/>
<circle cx="909.85" cy="243.411" r="13.6994" fill="white" stroke="#2B76C1"/>
<circle cx="743.805" cy="60.6271" r="48.8614" fill="#2B76C1"/>
<circle cx="743.805" cy="60.6265" r="14.5347" fill="white" stroke="#2B76C1"/>
<circle cx="475.963" cy="119.443" r="24.8365" fill="#2B76C1" stroke="#2B76C1"/>
<circle cx="475.963" cy="564.641" r="24.8365" fill="#2B76C1" stroke="#2B76C1"/>
<circle cx="837.913" cy="523.018" r="19.4072" fill="#2B76C1" stroke="#2B76C1"/>
<circle cx="19.9072" cy="490.441" r="19.4072" fill="#2B76C1" stroke="#2B76C1"/>
<circle cx="19.9072" cy="282.32" r="19.4072" fill="#2B76C1" stroke="#2B76C1"/>
<circle cx="552.879" cy="442.484" r="42.5291" fill="#2B76C1"/>
<circle cx="552.879" cy="442.483" r="12.5859" fill="white" stroke="#2B76C1"/>
<circle cx="57.9128" cy="47.0534" r="47.0534" fill="#2B76C1"/>
<circle cx="57.9126" cy="47.0537" r="13.978" fill="white" stroke="#2B76C1"/>
<circle cx="319.42" cy="76.0088" r="49.7681" fill="#2B76C1"/>
<circle cx="319.422" cy="76.01" r="14.8133" fill="white" stroke="#2B76C1"/>
<circle cx="588.168" cy="177.356" r="41.6242" fill="#2B76C1"/>
<circle cx="588.168" cy="177.355" r="12.3078" fill="white" stroke="#2B76C1"/>
</svg>
