<svg width="68" height="68" viewBox="0 0 68 68" fill="none" xmlns="http://www.w3.org/2000/svg">
<path d="M0 59.232C0 64.0749 3.92567 68 8.76801 68H59.2317C64.0749 68 68 64.0743 68 59.232V8.76828C68 3.92514 64.0743 0 59.232 0H8.76828C3.92514 0 0 3.92567 0 8.76801V59.232Z" fill="#563D7C"/>
<path d="M28.1983 30.0788V20.4491H36.6747C37.4822 20.4491 38.2605 20.5163 39.0101 20.651C39.7596 20.7854 40.4229 21.0255 40.9996 21.3717C41.576 21.7178 42.0374 22.1983 42.3835 22.8132C42.7293 23.4284 42.9025 24.2165 42.9025 25.1773C42.9025 26.9073 42.3835 28.1568 41.3454 28.9255C40.3076 29.6945 38.9814 30.0788 37.3666 30.0788H28.1983ZM19.145 13.4141V54.5859H39.0966C40.9419 54.5859 42.7392 54.3554 44.4883 53.894C46.2374 53.4326 47.7943 52.7215 49.1591 51.7605C50.5236 50.7995 51.6097 49.5595 52.4169 48.0412C53.2244 46.5226 53.6279 44.7254 53.6279 42.6495C53.6279 40.0738 53.0032 37.8731 51.7539 36.0472C50.5044 34.221 48.6111 32.9428 46.0738 32.2123C47.9191 31.3283 49.3129 30.1941 50.2548 28.8102C51.1964 27.4263 51.6674 25.6966 51.6674 23.6204C51.6674 21.6984 51.3502 20.0839 50.7159 18.7768C50.0816 17.4699 49.1877 16.4223 48.0344 15.6342C46.8813 14.846 45.4974 14.2789 43.8827 13.9331C42.2682 13.587 40.4806 13.4141 38.52 13.4141H19.145ZM28.1983 47.5509V36.2488H38.0586C40.0192 36.2488 41.5954 36.7003 42.7872 37.604C43.9788 38.5074 44.5749 40.0161 44.5749 42.1305C44.5749 43.2071 44.3921 44.0911 44.0269 44.783C43.6617 45.475 43.1716 46.023 42.5564 46.4265C41.9415 46.8302 41.2301 47.1184 40.4229 47.2916C39.6154 47.4643 38.7699 47.5509 37.8857 47.5509H28.1983Z" fill="white"/>
</svg>
