<svg width="40" height="40" viewBox="0 0 40 40" fill="none" xmlns="http://www.w3.org/2000/svg">
<path d="M5.15766 39C2.86146 39 1 37.1388 1 34.8423V5.15766C1 2.86148 2.86121 1 5.15781 1H34.8423C37.1385 1 39 2.86121 39 5.15781V34.8423C39 37.1385 37.1388 39 34.8422 39H5.15766Z" stroke="#2B76C1" stroke-width="2"/>
<path d="M11.7617 8.39062H22.6588C23.7832 8.39062 24.799 8.48985 25.7085 8.68483L25.7086 8.68485C26.6062 8.87711 27.3575 9.18845 27.9733 9.60936L27.9734 9.60939C28.577 10.0218 29.0463 10.5698 29.383 11.2635C29.7142 11.9461 29.8925 12.816 29.8925 13.8944C29.8925 15.0395 29.6334 15.9527 29.1482 16.6659L11.7617 8.39062ZM11.7617 8.39062V31.6094H22.998C24.0413 31.6094 25.0556 31.4791 26.042 31.2189C27.0183 30.9614 27.8788 30.5669 28.6291 30.0386C29.3657 29.5198 29.9528 28.8508 30.392 28.0248L30.392 28.0248C30.8213 27.2173 31.0458 26.2441 31.0458 25.088C31.0458 23.6566 30.6998 22.4645 30.0308 21.4866C29.3735 20.526 28.3672 19.8329 26.9639 19.4289L25.7009 19.0653L26.8862 18.4975C27.9096 18.0072 28.6537 17.3924 29.1482 16.6659L11.7617 8.39062ZM16.0872 17.6934V18.1934H16.5872H21.9803C23.0101 18.1934 23.9023 17.9474 24.6185 17.4167C25.3969 16.8402 25.7367 15.9278 25.7367 14.8102C25.7367 14.1888 25.6252 13.6333 25.3673 13.1745L25.3671 13.1743C25.1232 12.7408 24.7918 12.3934 24.3747 12.1429L24.3747 12.1429C23.9769 11.9041 23.528 11.7439 23.0353 11.6555C22.5635 11.5708 22.0761 11.5289 21.5733 11.5289H16.5872H16.0872V12.0289V17.6934ZM16.0872 27.9711V28.4711H16.5872H22.2856C22.8386 28.4711 23.3711 28.4169 23.8827 28.3075L23.883 28.3075C24.4107 28.1943 24.888 28.0031 25.3073 27.7278C25.7445 27.441 26.0886 27.0532 26.3403 26.5764C26.6047 26.0755 26.7205 25.4683 26.7205 24.7827C26.7205 23.451 26.3426 22.3824 25.471 21.7216C24.6593 21.1062 23.6157 20.8228 22.3873 20.8228H16.5872H16.0872V21.3228V27.9711Z" fill="#2B76C1" stroke="#2B76C1"/>
</svg>
