<svg width="40" height="40" viewBox="0 0 40 40" fill="none" xmlns="http://www.w3.org/2000/svg">
<g clip-path="url(#clip0_0_2179)">
<path d="M17.7091 3.99866H13.7307C13.7273 3.99866 13.7241 3.9996 13.7207 3.99972C13.6936 4.00002 13.6666 4.0027 13.6399 4.00772C13.6375 4.00772 13.6353 4.00901 13.633 4.00948C13.6083 4.01488 13.5842 4.02224 13.5607 4.03148C13.5526 4.03454 13.545 4.03819 13.5372 4.04172C13.519 4.04998 13.5013 4.05941 13.4843 4.06995C13.4772 4.0743 13.47 4.0783 13.4632 4.08313C13.4401 4.09876 13.4184 4.11644 13.3985 4.13595L7.75543 9.75948C7.73567 9.7794 7.71779 9.8011 7.70202 9.8243C7.69731 9.83101 7.69331 9.83807 7.68896 9.84501C7.67816 9.86231 7.66853 9.88031 7.66013 9.89889C7.65672 9.90642 7.65319 9.91383 7.65013 9.92148C7.64005 9.94671 7.63217 9.97277 7.62661 9.99936V10.0011C7.62153 10.0283 7.61881 10.0558 7.61849 10.0835C7.61849 10.0868 7.61755 10.0898 7.61755 10.0931V17.9648C7.61755 18.0896 7.66713 18.2093 7.75538 18.2975C7.84363 18.3858 7.96333 18.4354 8.08813 18.4354C8.21294 18.4354 8.33264 18.3858 8.42089 18.2975C8.50914 18.2093 8.55872 18.0896 8.55872 17.9648V10.5631H12.4837C12.9391 10.5625 13.3757 10.3812 13.6977 10.0591C14.0197 9.737 14.2008 9.30034 14.2013 8.84489V4.93983H17.7091C17.8339 4.93983 17.9536 4.89025 18.0418 4.802C18.1301 4.71375 18.1797 4.59405 18.1797 4.46925C18.1797 4.34444 18.1301 4.22474 18.0418 4.13649C17.9536 4.04824 17.8339 3.99866 17.7091 3.99866ZM13.2601 8.84489C13.2599 9.05081 13.1781 9.24825 13.0325 9.39391C12.887 9.53957 12.6896 9.62158 12.4837 9.62195H9.22649L9.66802 9.18207L13.2601 5.60254V8.84489ZM12.5452 34.9485C12.4204 34.9485 12.3007 34.9981 12.2124 35.0864C12.1242 35.1746 12.0746 35.2943 12.0746 35.4191C12.0746 35.5439 12.1242 35.6636 12.2124 35.7519C12.3007 35.8401 12.4204 35.8897 12.5452 35.8897H24.7501L24.452 36.316C24.2198 36.648 24.129 37.0588 24.1996 37.4578C24.2703 37.8569 24.4965 38.2115 24.8286 38.4437C25.1607 38.6759 25.5714 38.7667 25.9705 38.6961C26.3695 38.6255 26.7241 38.3992 26.9564 38.0671L33.16 29.1952V34.0423C33.1596 34.2824 33.064 34.5126 32.8942 34.6824C32.7244 34.8522 32.4943 34.9478 32.2541 34.9482H30.7212C30.5964 34.9482 30.4767 34.9978 30.3884 35.086C30.3002 35.1743 30.2506 35.294 30.2506 35.4188C30.2506 35.5436 30.3002 35.6633 30.3884 35.7515C30.4767 35.8398 30.5964 35.8894 30.7212 35.8894H32.2541C32.7438 35.8887 33.2132 35.6939 33.5594 35.3476C33.9057 35.0014 34.1005 34.532 34.1012 34.0423V27.8494L37.6098 22.8317C37.9166 22.3942 38.1253 21.8956 38.2215 21.37L38.5461 19.614C38.5624 19.5258 38.5532 19.4349 38.5196 19.3518C38.486 19.2687 38.4293 19.197 38.3563 19.145C38.2833 19.093 38.197 19.063 38.1075 19.0584C38.018 19.0538 37.929 19.0749 37.8511 19.1191L36.3061 19.9961C35.8233 20.2709 35.4075 20.6494 35.0885 21.1043L34.1008 22.5168V12.0655C34.1008 11.9407 34.0513 11.821 33.963 11.7327C33.8748 11.6445 33.7551 11.5949 33.6303 11.5949C33.5054 11.5949 33.3857 11.6445 33.2975 11.7327C33.2092 11.821 33.1597 11.9407 33.1597 12.0655V23.5969C33.1599 23.6662 33.1757 23.7345 33.2058 23.7969L25.4079 34.9487L12.5452 34.9485ZM35.8603 21.6436C36.0988 21.3034 36.4098 21.0203 36.771 20.8147L37.4373 20.4364L37.2961 21.1989C37.2241 21.5923 37.068 21.9655 36.8384 22.293L33.2401 27.4387L26.1847 37.5284C26.1406 37.5916 26.0844 37.6454 26.0195 37.6868C25.9545 37.7283 25.882 37.7565 25.8061 37.7699C25.7303 37.7834 25.6525 37.7817 25.5773 37.7651C25.502 37.7484 25.4308 37.7172 25.3677 37.673C25.3045 37.6289 25.2507 37.5727 25.2093 37.5077C25.1678 37.4428 25.1396 37.3703 25.1262 37.2944C25.1127 37.2186 25.1144 37.1408 25.131 37.0655C25.1476 36.9903 25.1789 36.9191 25.2231 36.8559L35.8603 21.6436ZM1.04613 37.7069C4.01296 38.782 9.13108 39.3474 9.34743 39.3709C9.46109 39.3831 9.57532 39.3536 9.66885 39.2879C9.76237 39.2222 9.82881 39.1247 9.85578 39.0136L10.7126 35.4696C10.7274 35.4083 10.7298 35.3446 10.7195 35.2824C10.7092 35.2201 10.6865 35.1606 10.6528 35.1073C10.619 35.054 10.5749 35.008 10.523 34.9721C10.4712 34.9362 10.4126 34.9111 10.3508 34.8983L9.80966 34.7859L10.609 31.7497C11.2807 31.8018 11.9664 31.8116 12.4639 31.8128C12.8676 31.8135 13.2608 31.6843 13.5853 31.4441C13.9099 31.204 14.1485 30.8658 14.2658 30.4795L14.6079 29.3697C14.6263 29.3101 14.6326 29.2475 14.6265 29.1854C14.6205 29.1233 14.6021 29.0631 14.5726 29.0081C14.543 28.9532 14.5028 28.9047 14.4544 28.8655C14.4059 28.8262 14.3501 28.797 14.2903 28.7795C13.046 28.4148 11.7457 27.6757 10.874 27.1195C10.3808 26.805 10.0106 26.3307 9.82519 25.776C9.29778 24.1851 8.94413 21.8998 8.78025 20.6792C8.75337 20.478 8.67843 20.2862 8.56177 20.1201C8.44511 19.9539 8.29016 19.8183 8.11002 19.7247C7.92988 19.6311 7.72985 19.5822 7.52683 19.5822C7.32382 19.5822 7.12379 19.6311 6.94366 19.7248L6.55378 19.9276C6.46648 19.7379 6.33799 19.5701 6.17765 19.4364C6.01732 19.3027 5.82918 19.2064 5.62693 19.1545C5.42468 19.1027 5.21342 19.0966 5.00852 19.1367C4.80363 19.1768 4.61025 19.2621 4.44249 19.3864L2.79978 20.6061C2.57253 20.7749 2.3907 20.9974 2.27057 21.2538C2.15044 21.5101 2.09576 21.7922 2.11143 22.0749C2.1406 22.6252 2.19166 23.1074 2.22602 23.3925L1.71202 23.7974C1.48961 23.9715 1.31402 24.1983 1.20107 24.4572C1.08811 24.7161 1.04134 24.999 1.06496 25.2805C1.2238 27.0762 1.77162 28.8158 2.67037 30.3784C2.80484 30.6101 2.85007 30.8828 2.79755 31.1455L2.38096 33.2441L2.09472 33.1852C1.97339 33.1601 1.84703 33.1838 1.74307 33.2512C1.63911 33.3186 1.56593 33.4243 1.53943 33.5454L0.746722 37.1638C0.722334 37.2753 0.739251 37.3918 0.794326 37.4917C0.849401 37.5915 0.938886 37.668 1.04613 37.7069ZM2.00319 25.202C1.99277 25.0756 2.01391 24.9487 2.06471 24.8326C2.11552 24.7164 2.1944 24.6147 2.29425 24.5367L2.3786 24.4707C2.53111 25.3491 2.79163 26.2054 3.15425 27.02C3.20689 27.1331 3.30233 27.2207 3.41957 27.2635C3.53681 27.3063 3.66626 27.3008 3.77943 27.2482C3.8926 27.1955 3.98022 27.1001 4.02302 26.9829C4.06583 26.8656 4.0603 26.7362 4.00766 26.623C3.35508 25.22 3.19708 23.5708 3.1959 23.5543C3.1959 23.5515 3.1946 23.5488 3.19425 23.546C3.19425 23.5405 3.19425 23.5352 3.19308 23.5298C3.1919 23.5244 3.09496 22.8449 3.0519 22.0256C3.04461 21.898 3.06908 21.7706 3.12312 21.6548C3.17716 21.539 3.25908 21.4383 3.36155 21.362L3.80613 21.0318C3.87602 22.1837 4.09637 24.2035 4.79131 25.806C4.84097 25.9205 4.93408 26.0106 5.05017 26.0564C5.16625 26.1023 5.2958 26.1001 5.41031 26.0505C5.52482 26.0008 5.61492 25.9077 5.66077 25.7916C5.70663 25.6755 5.7045 25.546 5.65484 25.4315C4.87002 23.6217 4.7406 21.1205 4.71931 20.3538L5.00425 20.1421C5.0695 20.0936 5.14642 20.0633 5.22718 20.0543C5.30794 20.0452 5.38966 20.0577 5.46403 20.0904C5.5384 20.1232 5.60277 20.1751 5.65059 20.2408C5.6984 20.3065 5.72796 20.3837 5.73625 20.4645L5.75755 20.672C5.76825 20.7987 5.96096 23.0249 6.4659 24.9231C6.48136 24.9833 6.50859 25.0398 6.54601 25.0894C6.58343 25.139 6.6303 25.1807 6.68392 25.2121C6.73753 25.2435 6.79684 25.264 6.8584 25.2723C6.91997 25.2807 6.98258 25.2768 7.04262 25.2608C7.10267 25.2448 7.15895 25.2171 7.20824 25.1793C7.25752 25.1414 7.29882 25.0942 7.32976 25.0403C7.3607 24.9865 7.38067 24.927 7.38851 24.8654C7.39634 24.8037 7.3919 24.7412 7.37543 24.6812C6.99578 23.254 6.7959 21.5796 6.72531 20.9L7.37872 20.56C7.42482 20.536 7.476 20.5236 7.52793 20.5236C7.57986 20.5237 7.63101 20.5362 7.67706 20.5602C7.72311 20.5842 7.7627 20.619 7.79248 20.6615C7.82225 20.7041 7.84135 20.7532 7.84813 20.8047C8.05366 22.3355 8.40872 24.4921 8.9326 26.0724C9.1861 26.8323 9.69277 27.4821 10.3679 27.9131C11.1878 28.4364 12.3711 29.1142 13.5718 29.5367L13.3664 30.2028C13.3076 30.3966 13.188 30.5664 13.0252 30.6869C12.8625 30.8075 12.6653 30.8724 12.4627 30.8722C11.7423 30.877 11.0222 30.8454 10.305 30.7775C10.1931 30.7657 10.0807 30.7943 9.98817 30.8582C9.89558 30.922 9.82889 31.0169 9.80013 31.1256L8.88672 34.595L3.30225 33.4354L3.72049 31.3288C3.81775 30.8413 3.73353 30.335 3.48366 29.9052C2.65475 28.4635 2.14956 26.8586 2.00319 25.202ZM2.35896 34.2009L9.68355 35.721L9.03908 38.3868C7.8219 38.2369 4.16849 37.7436 1.75578 36.9557L2.35896 34.2009Z" fill="#2B76C1"/>
<path d="M38.0115 1.64323L34.328 2.03453C34.2048 2.04763 34.0917 2.10879 34.0134 2.20473C33.935 2.30068 33.8976 2.42366 33.9093 2.547L33.937 2.83806L31.8052 3.02229C31.5384 3.04599 31.2721 2.97116 31.0567 2.81194C29.6018 1.74782 27.9327 1.01313 26.1653 0.658881C25.8881 0.604561 25.6018 0.62 25.3321 0.703809C25.0624 0.787617 24.8177 0.937165 24.6201 1.139L24.1613 1.60559C23.7318 1.50547 23.2992 1.41915 22.8641 1.34676C22.5849 1.30043 22.2986 1.32403 22.0307 1.41545C21.7628 1.50687 21.5218 1.66327 21.3292 1.87065L19.7727 3.54594C19.6342 3.69529 19.5337 3.8759 19.4799 4.07239C19.4261 4.26889 19.4206 4.47548 19.4637 4.67458C19.5069 4.87369 19.5975 5.05943 19.7278 5.21601C19.8582 5.37259 20.0244 5.49538 20.2124 5.57394L20.1073 5.73112C19.9824 5.91759 19.9042 6.13134 19.8792 6.35437C19.8542 6.5774 19.8832 6.80316 19.9636 7.01266C20.0441 7.22216 20.1738 7.40925 20.3417 7.55817C20.5095 7.7071 20.7108 7.8135 20.9284 7.86841C22.332 8.22206 24.2991 8.77829 25.6984 9.41982C26.2294 9.66486 26.6603 10.0848 26.919 10.6094C27.3764 11.537 27.969 12.9105 28.1947 14.187C28.2056 14.2484 28.2285 14.3071 28.2623 14.3595C28.296 14.412 28.3398 14.4572 28.3912 14.4926C28.4425 14.528 28.5004 14.5528 28.5614 14.5656C28.6225 14.5784 28.6855 14.579 28.7467 14.5672L29.8871 14.3488C30.2839 14.2744 30.6462 14.0743 30.9205 13.778C31.1947 13.4818 31.3663 13.1051 31.4098 12.7037C31.4645 12.2122 31.5285 11.5272 31.5502 10.853L34.6561 10.391L34.7082 10.9412C34.7193 11.0577 34.7734 11.1659 34.8599 11.2447C34.9464 11.3235 35.0592 11.3672 35.1762 11.3674C35.1962 11.3673 35.2162 11.3661 35.236 11.3636L38.8525 10.9001C38.9659 10.8855 39.0702 10.8302 39.1458 10.7444C39.2214 10.6587 39.2631 10.5483 39.2633 10.4339C39.2633 10.2163 39.2622 5.06712 38.5185 2.00029C38.4914 1.88955 38.4252 1.79236 38.332 1.72672C38.2388 1.66107 38.1249 1.63141 38.0115 1.64323ZM31.018 9.98065C30.9067 9.99718 30.805 10.053 30.7314 10.1381C30.6578 10.2232 30.617 10.3318 30.6166 10.4443C30.6055 11.1646 30.558 11.8839 30.4744 12.5995C30.4524 12.8009 30.3662 12.9898 30.2284 13.1384C30.0907 13.287 29.9088 13.3873 29.7097 13.4244L29.0251 13.5556C28.7371 12.3161 28.193 11.0655 27.7626 10.1931C27.4082 9.47487 26.818 8.90005 26.0906 8.56476C24.6264 7.893 22.5998 7.319 21.1582 6.9557C21.0869 6.93758 21.0209 6.90258 20.9659 6.85366C20.9109 6.80473 20.8685 6.7433 20.8421 6.67455C20.8158 6.6058 20.8064 6.53172 20.8147 6.45857C20.8229 6.38542 20.8486 6.31532 20.8897 6.25418L21.191 5.80359C21.8584 5.94818 23.4994 6.32982 24.8782 6.86406C24.9943 6.90782 25.123 6.90398 25.2363 6.85337C25.3495 6.80275 25.4382 6.70946 25.483 6.59379C25.5279 6.47812 25.5252 6.34942 25.4757 6.2357C25.4261 6.12198 25.3336 6.03242 25.2184 5.98653C23.3842 5.27582 21.1893 4.84029 21.0697 4.81676L20.6312 4.72265C20.5754 4.71064 20.5238 4.68407 20.4816 4.64564C20.4394 4.60721 20.4081 4.55828 20.391 4.50384C20.3738 4.4494 20.3714 4.39139 20.384 4.33572C20.3965 4.28004 20.4236 4.22869 20.4625 4.18688L20.8679 3.75017C21.6272 3.855 24.0964 4.25606 25.8124 5.23641C25.9207 5.29831 26.0493 5.31463 26.1697 5.28177C26.2901 5.2489 26.3925 5.16956 26.4544 5.06117C26.5163 4.9528 26.5326 4.82426 26.4998 4.70385C26.4669 4.58344 26.3876 4.48102 26.2792 4.41912C24.7624 3.55276 22.779 3.11253 21.6417 2.917L22.0181 2.51112C22.1052 2.41762 22.2142 2.34718 22.3352 2.30612C22.4562 2.26505 22.5855 2.25464 22.7115 2.27582C23.5213 2.40865 24.1846 2.57947 24.1913 2.5817C24.198 2.58394 24.2019 2.58359 24.2072 2.58476C24.2101 2.58476 24.2127 2.58676 24.2157 2.58735C24.2318 2.59065 25.8485 2.92523 27.1766 3.73053C27.2833 3.79524 27.4114 3.81491 27.5326 3.7852C27.5926 3.77049 27.6492 3.7441 27.699 3.70754C27.7488 3.67098 27.791 3.62496 27.823 3.57212C27.8551 3.51927 27.8764 3.46063 27.8858 3.39955C27.8951 3.33846 27.8924 3.27613 27.8777 3.2161C27.863 3.15608 27.8366 3.09954 27.8 3.04971C27.7635 2.99988 27.7174 2.95775 27.6646 2.9257C26.8947 2.47604 26.0721 2.12332 25.2155 1.87559L25.2908 1.799C25.3794 1.70833 25.4891 1.64109 25.6101 1.60331C25.7311 1.56552 25.8596 1.55838 25.984 1.58253C27.6146 1.90952 29.1544 2.58744 30.4967 3.56923C30.8966 3.86457 31.3905 4.00372 31.8858 3.96053L34.0257 3.77559L34.566 9.45335L31.018 9.98065ZM35.5991 10.3682L34.8904 2.92112L37.6939 2.62359C38.2125 5.107 38.303 8.79335 38.3187 10.0197L35.5991 10.3682ZM20.5797 11.3986C18.9245 11.4223 17.3229 11.9881 16.0202 13.0095C14.7176 14.0308 13.7859 15.4512 13.368 17.0528C12.9501 18.6545 13.0691 20.349 13.7067 21.8766C14.3444 23.4041 15.4654 24.6803 16.898 25.5096C16.9608 25.5468 17.0127 25.5998 17.0486 25.6633C17.0846 25.7268 17.1033 25.7986 17.1028 25.8716V29.0915C17.1038 29.925 17.4354 30.7241 18.0248 31.3135C18.6142 31.9029 19.4133 32.2344 20.2468 32.2354H21.1282C21.9618 32.2344 22.7609 31.9029 23.3504 31.3135C23.9398 30.7241 24.2713 29.9249 24.2722 29.0914V27.4949C24.2722 27.3701 24.2227 27.2504 24.1344 27.1621C24.0462 27.0739 23.9265 27.0243 23.8017 27.0243H22.1953V25.6572C22.195 25.46 22.2417 25.2655 22.3314 25.0899C22.4211 24.9142 22.5514 24.7625 22.7114 24.6471C23.5031 24.0809 24.8824 22.8784 25.2261 21.1765C25.2355 21.1239 25.4518 19.8759 24.9587 18.7272C24.8046 18.3681 24.5724 18.0478 24.2791 17.7895C23.9858 17.5312 23.6387 17.3415 23.263 17.2341C22.8923 17.1243 22.5018 17.0985 22.1199 17.1584C21.738 17.2184 21.3743 17.3626 21.0551 17.5806C20.9522 17.6513 20.8816 17.7599 20.8588 17.8827C20.836 18.0054 20.8629 18.1321 20.9335 18.235C21.0042 18.3379 21.1128 18.4085 21.2355 18.4313C21.3583 18.4541 21.485 18.4272 21.5879 18.3565C21.7925 18.2175 22.0255 18.1258 22.2699 18.088C22.5144 18.0502 22.7642 18.0673 23.0012 18.1381C23.2432 18.207 23.4668 18.3289 23.6558 18.4951C23.8447 18.6612 23.9944 18.8673 24.0938 19.0984C24.473 19.9816 24.3015 21.0001 24.3017 21.0001C24.0238 22.3752 22.8428 23.3952 22.164 23.881C21.8823 24.0835 21.6529 24.3502 21.4946 24.6589C21.3364 24.9677 21.254 25.3097 21.2541 25.6566V27.0237H20.2171V25.6566C20.2172 25.3097 20.1348 24.9677 19.9766 24.6589C19.8184 24.3502 19.5889 24.0835 19.3072 23.881C18.6873 23.4485 18.1495 22.909 17.719 22.2877C17.6853 22.2353 17.6415 22.1901 17.5903 22.1548C17.539 22.1194 17.4812 22.0946 17.4203 22.0817C17.3593 22.0689 17.2965 22.0682 17.2353 22.0799C17.1741 22.0915 17.1158 22.1151 17.0639 22.1495C17.0119 22.1838 16.9672 22.228 16.9325 22.2797C16.8978 22.3314 16.8736 22.3895 16.8615 22.4506C16.8494 22.5117 16.8495 22.5746 16.8619 22.6356C16.8742 22.6966 16.8986 22.7546 16.9335 22.8062C17.4276 23.5239 18.0461 24.1473 18.7598 24.6471C18.9198 24.7625 19.0501 24.9142 19.1398 25.0899C19.2295 25.2655 19.2762 25.46 19.2759 25.6572V27.0243H18.044V25.8714C18.0442 25.6335 17.9821 25.3997 17.8639 25.1933C17.7457 24.9869 17.5755 24.8151 17.3702 24.6949C16.3374 24.0966 15.4852 23.2306 14.9038 22.1882C14.3223 21.1457 14.0332 19.9657 14.0668 18.7725C14.1644 15.2741 17.0918 12.3881 20.5927 12.3391C21.4704 12.3266 22.3418 12.4886 23.1564 12.8157C23.9709 13.1429 24.7123 13.6287 25.3374 14.245C25.9625 14.8612 26.4589 15.5955 26.7977 16.4053C27.1366 17.215 27.3111 18.084 27.3111 18.9618C27.3086 20.1241 27.0015 21.2654 26.4204 22.2719C25.8392 23.2784 25.0044 24.1151 23.9991 24.6983C23.7949 24.8184 23.6258 24.99 23.5086 25.1959C23.3914 25.4018 23.3302 25.6348 23.3312 25.8717C23.3312 25.9965 23.3808 26.1162 23.469 26.2045C23.5573 26.2927 23.677 26.3423 23.8018 26.3423C23.9266 26.3423 24.0463 26.2927 24.1345 26.2045C24.2228 26.1162 24.2724 25.9965 24.2724 25.8717C24.2713 25.7999 24.289 25.7291 24.3237 25.6663C24.3585 25.6035 24.409 25.5508 24.4704 25.5136C25.6183 24.8474 26.5716 23.892 27.2352 22.7425C27.8987 21.593 28.2494 20.2897 28.2521 18.9624C28.2521 17.9599 28.0528 16.9675 27.6659 16.0427C27.2789 15.1179 26.712 14.2792 25.9981 13.5755C25.2842 12.8717 24.4376 12.3168 23.5074 11.9431C22.5771 11.5694 21.5819 11.3843 20.5795 11.3986H20.5797ZM18.044 27.9655H23.3312V29.0915C23.3305 29.6755 23.0982 30.2354 22.6852 30.6483C22.2723 31.0612 21.7124 31.2935 21.1284 31.2942H20.2468C19.6628 31.2935 19.1029 31.0612 18.6899 30.6483C18.2769 30.2353 18.0446 29.6754 18.0439 29.0914L18.044 27.9655ZM7.73671 36.5541C7.70645 36.56 7.67689 36.5691 7.64848 36.5811C7.62023 36.5929 7.59303 36.6071 7.56718 36.6235C7.54176 36.6411 7.51781 36.6608 7.49554 36.6823C7.4074 36.7707 7.35791 36.8904 7.35791 37.0152C7.35791 37.1401 7.4074 37.2598 7.49554 37.3482C7.51781 37.3697 7.54176 37.3893 7.56718 37.407C7.59303 37.4234 7.62023 37.4376 7.64848 37.4494C7.67689 37.4614 7.70645 37.4704 7.73671 37.4764C7.76693 37.4825 7.79766 37.4856 7.82848 37.4858C7.89432 37.4861 7.95949 37.4725 8.01977 37.446C8.08004 37.4195 8.13408 37.3807 8.1784 37.332C8.22271 37.2833 8.25632 37.2258 8.27703 37.1633C8.29775 37.1008 8.30512 37.0346 8.29867 36.9691C8.29221 36.9036 8.27208 36.8401 8.23957 36.7829C8.20706 36.7256 8.16289 36.6758 8.10993 36.6367C8.05696 36.5976 7.99638 36.57 7.93209 36.5558C7.8678 36.5415 7.80124 36.541 7.73671 36.5541Z" fill="#2B76C1"/>
<path d="M37.524 8.48581C37.5118 8.45755 37.4972 8.4304 37.4804 8.40463C37.4628 8.37917 37.4431 8.35517 37.4216 8.33286C37.3998 8.31115 37.3758 8.29183 37.3499 8.27522C37.3245 8.25773 37.2973 8.24313 37.2687 8.23169C37.2403 8.21967 37.2107 8.21061 37.1804 8.20463C37.0893 8.18541 36.9944 8.19423 36.9083 8.22992C36.8222 8.26562 36.7489 8.32652 36.6981 8.40463C36.6808 8.43013 36.6663 8.45733 36.6546 8.48581C36.6427 8.51425 36.6336 8.54381 36.6275 8.57404C36.6215 8.60426 36.6183 8.63499 36.6181 8.66581C36.6183 8.69663 36.6214 8.72736 36.6275 8.75757C36.6334 8.78784 36.6425 8.81742 36.6546 8.84581C36.6663 8.87428 36.6808 8.90148 36.6981 8.92698C36.7403 8.99193 36.7983 9.04516 36.8665 9.08177C36.9348 9.11837 37.0112 9.13716 37.0887 9.13639C37.1195 9.13682 37.1503 9.13366 37.1804 9.12698C37.2107 9.1214 37.2402 9.11273 37.2687 9.1011C37.2971 9.08919 37.3242 9.07461 37.3499 9.05757C37.3755 9.04018 37.3995 9.02049 37.4216 8.99875C37.4654 8.95506 37.5001 8.90316 37.5237 8.84602C37.5473 8.78888 37.5594 8.72763 37.5593 8.66581C37.5594 8.63502 37.5567 8.6043 37.551 8.57404C37.5443 8.54396 37.5353 8.51446 37.524 8.48581ZM18.6254 21.8118C18.7212 22.0193 18.8746 22.1948 19.0674 22.3174C19.2602 22.4401 19.4842 22.5047 19.7127 22.5036C19.7347 22.5036 19.7568 22.5036 19.779 22.5017C20.0162 22.4906 20.2446 22.4083 20.4343 22.2655C20.624 22.1227 20.7662 21.926 20.8424 21.7011L20.8535 21.6678C20.988 21.2489 21.0315 20.8062 20.9812 20.3691C20.9308 19.9321 20.7877 19.5108 20.5614 19.1336C19.7699 17.8005 18.4868 17.9392 18.2503 17.9775C16.663 18.116 16.1528 19.5457 16.1991 20.7326C16.204 20.8573 16.2582 20.975 16.3499 21.0598C16.4415 21.1445 16.563 21.1894 16.6877 21.1845C16.8125 21.1796 16.9301 21.1254 17.0149 21.0338C17.0996 20.9422 17.1445 20.8206 17.1396 20.6959C17.1199 20.19 17.1984 19.0045 18.3471 18.9138C18.3669 18.9123 18.3866 18.9095 18.406 18.9055C18.5871 18.8791 18.7719 18.8939 18.9464 18.949C18.2922 19.8367 18.1764 20.8405 18.6254 21.8118ZM19.6934 19.5215C19.7132 19.551 19.7328 19.5819 19.7522 19.6142C19.9102 19.8766 20.0103 20.1697 20.0458 20.4739C20.0813 20.7781 20.0514 21.0864 19.9581 21.3782L19.9513 21.3989C19.9356 21.4457 19.9059 21.4866 19.866 21.5158C19.8262 21.545 19.7783 21.5611 19.7289 21.5619C19.6774 21.5665 19.6258 21.555 19.5812 21.529C19.5365 21.503 19.5011 21.4637 19.4797 21.4166C19.1781 20.7647 19.2503 20.1285 19.6934 19.5212V19.5215Z" fill="#2B76C1"/>
</g>
<defs>
<clipPath id="clip0_0_2179">
<rect width="40" height="40" fill="white"/>
</clipPath>
</defs>
</svg>
