<svg width="661" height="531" viewBox="0 0 661 531" fill="none" xmlns="http://www.w3.org/2000/svg">
<g opacity="0.7">
<path d="M325.062 168.883L330.906 168.951V169.222H325.062V168.883Z" fill="#508DCD"/>
<path d="M340.555 169.222L346.33 169.562V169.902L340.555 169.562V169.222Z" fill="#508DCD"/>
<path d="M355.97 170.441L355.941 170.711L361.684 171.325L361.713 171.054L355.97 170.441Z" fill="#508DCD"/>
<path d="M371.336 172.28L377.111 173.163L377.043 173.503L371.268 172.552L371.336 172.28Z" fill="#508DCD"/>
<path d="M386.625 174.93L392.265 176.153L392.197 176.493L386.489 175.27L386.625 174.93Z" fill="#508DCD"/>
<path d="M401.641 178.396L407.281 179.958L407.145 180.434L401.573 178.871L401.641 178.396Z" fill="#508DCD"/>
<path d="M416.523 182.812L422.027 184.647L421.823 185.191L416.319 183.288L416.523 182.812Z" fill="#508DCD"/>
<path d="M431.064 188.112L436.432 190.355L436.16 190.966L430.86 188.724L431.064 188.112Z" fill="#508DCD"/>
<path d="M445.266 194.364L450.43 197.014L450.022 197.761L444.858 195.111L445.266 194.364Z" fill="#508DCD"/>
<path d="M458.855 201.838L463.747 204.896L463.204 205.712L458.379 202.586L458.855 201.838Z" fill="#508DCD"/>
<path d="M471.766 210.468L476.319 214.069L475.571 214.953L471.086 211.351L471.766 210.468Z" fill="#508DCD"/>
<path d="M483.589 220.525L487.666 224.602L486.783 225.485L482.706 221.34L483.589 220.525Z" fill="#508DCD"/>
<path d="M493.985 232.076L497.383 236.764L496.295 237.58L492.898 232.823L493.985 232.076Z" fill="#508DCD"/>
<path d="M502.343 245.19C502.343 245.19 502.955 246.481 503.634 247.772C504.246 249.131 504.79 250.49 504.79 250.49L503.363 251.034C503.363 251.034 502.819 249.743 502.207 248.384C501.596 247.093 500.984 245.734 500.984 245.734L502.343 245.19Z" fill="#508DCD"/>
<path d="M507.915 259.8C507.915 259.8 508.255 261.227 508.595 262.653C508.867 264.08 509.138 265.575 509.138 265.575L507.508 265.847C507.508 265.847 507.236 264.42 507.032 263.061C506.692 261.634 506.42 260.207 506.42 260.207L507.915 259.8Z" fill="#508DCD"/>
<path d="M509.886 275.292C509.886 275.292 509.886 276.719 509.818 278.214C509.75 279.709 509.614 281.136 509.614 281.136L507.915 281C507.915 281 508.051 279.573 508.119 278.146C508.187 276.719 508.187 275.224 508.187 275.224L509.886 275.292Z" fill="#508DCD"/>
<path d="M507.983 290.853C507.983 290.853 507.576 292.28 507.236 293.639C506.76 295.066 506.353 296.425 506.353 296.425L504.654 295.813C504.654 295.813 505.061 294.454 505.537 293.095C505.945 291.668 506.285 290.309 506.285 290.309L507.983 290.853Z" fill="#508DCD"/>
<path d="M502.547 305.462C502.547 305.462 501.868 306.753 501.188 308.044C500.441 309.335 499.693 310.626 499.693 310.626L498.13 309.675C498.13 309.675 498.878 308.452 499.557 307.229C500.237 305.938 500.916 304.646 500.916 304.646L502.547 305.462Z" fill="#508DCD"/>
<path d="M494.19 318.712L490.52 323.197L489.025 322.042L492.695 317.489L494.19 318.712Z" fill="#508DCD"/>
<path d="M483.861 330.332L479.58 334.273L478.221 332.846L482.502 328.905L483.861 330.332Z" fill="#508DCD"/>
<path d="M472.038 340.524L467.349 343.921L466.126 342.223L470.814 338.825L472.038 340.524Z" fill="#508DCD"/>
<path d="M459.127 349.289L454.167 352.211L453.08 350.377L458.108 347.455L459.127 349.289Z" fill="#508DCD"/>
<path d="M445.537 356.764L440.305 359.346L439.354 357.308L444.586 354.862L445.537 356.764Z" fill="#508DCD"/>
<path d="M431.403 363.219L425.967 365.326L425.152 363.219L430.588 361.113L431.403 363.219Z" fill="#508DCD"/>
<path d="M416.794 368.587L411.29 370.354L410.543 368.18L416.115 366.413L416.794 368.587Z" fill="#508DCD"/>
<path d="M401.913 373.072L396.274 374.499L395.73 372.189L401.37 370.762L401.913 373.072Z" fill="#508DCD"/>
<path d="M386.828 376.673L381.121 377.761L380.645 375.314L386.353 374.227L386.828 376.673Z" fill="#508DCD"/>
<path d="M371.54 379.391L365.764 380.207L365.424 377.693L371.2 376.877L371.54 379.391Z" fill="#508DCD"/>
<path d="M356.115 381.294L350.339 381.838L350.135 379.255L355.911 378.78L356.115 381.294Z" fill="#508DCD"/>
<path d="M340.623 382.449L334.847 382.721L334.711 380.071L340.487 379.867L340.623 382.449Z" fill="#508DCD"/>
<path d="M325.13 382.857H319.286V380.139L325.13 380.207V382.857Z" fill="#508DCD"/>
<path d="M309.569 382.585L303.793 382.246L303.929 379.392L309.705 379.731L309.569 382.585Z" fill="#508DCD"/>
<path d="M294.077 381.498L288.301 380.886L288.573 377.964L294.349 378.576L294.077 381.498Z" fill="#508DCD"/>
<path d="M278.652 379.595L272.876 378.712L273.352 375.722L279.127 376.673L278.652 379.595Z" fill="#508DCD"/>
<path d="M263.295 376.945L257.655 375.722L258.267 372.732L263.975 373.956L263.295 376.945Z" fill="#508DCD"/>
<path d="M248.142 373.48L242.57 371.917L243.386 368.859L248.958 370.422L248.142 373.48Z" fill="#508DCD"/>
<path d="M233.194 369.063L227.758 367.161L228.777 364.103L234.281 366.005L233.194 369.063Z" fill="#508DCD"/>
<path d="M218.585 363.695L213.217 361.453L214.508 358.395L219.876 360.637L218.585 363.695Z" fill="#508DCD"/>
<path d="M204.383 357.308L199.219 354.658L200.782 351.668L205.878 354.318L204.383 357.308Z" fill="#508DCD"/>
<path d="M190.657 349.833L185.765 346.707L187.599 343.786L192.492 346.911L190.657 349.833Z" fill="#508DCD"/>
<path d="M177.679 341.068L173.126 337.466L175.3 334.748L179.853 338.35L177.679 341.068Z" fill="#508DCD"/>
<path d="M165.787 330.875L161.71 326.73L164.225 324.284L168.302 328.429L165.787 330.875Z" fill="#508DCD"/>
<path d="M155.323 319.12L151.925 314.431L154.779 312.393L158.109 317.149L155.323 319.12Z" fill="#508DCD"/>
<path d="M146.897 305.802C146.897 305.802 146.286 304.511 145.674 303.152C145.063 301.793 144.451 300.366 144.451 300.366L147.645 299.075C147.645 299.075 148.188 300.366 148.732 301.657C149.344 302.948 150.023 304.239 150.023 304.239L146.897 305.802Z" fill="#508DCD"/>
<path d="M141.393 290.988C141.393 290.988 141.054 289.561 140.782 288.134C140.51 286.64 140.238 285.145 140.238 285.145L143.636 284.601C143.636 284.601 143.908 285.96 144.111 287.319C144.451 288.746 144.723 290.173 144.723 290.173L141.393 290.988Z" fill="#508DCD"/>
<path d="M139.423 275.292C139.423 275.292 139.491 273.797 139.491 272.37C139.627 270.875 139.695 269.381 139.695 269.381L143.024 269.72C143.024 269.72 142.956 271.079 142.82 272.506C142.82 273.254 142.82 273.933 142.752 274.477C142.752 274.749 142.752 274.953 142.752 275.156C142.752 275.224 142.752 275.292 142.752 275.36V275.292H139.423Z" fill="#508DCD"/>
<path d="M141.461 259.528C141.461 259.528 141.869 258.101 142.208 256.742C142.684 255.315 143.16 253.888 143.16 253.888L146.217 254.907C146.217 254.907 145.81 256.266 145.402 257.557C144.994 258.984 144.655 260.343 144.655 260.343L141.461 259.528Z" fill="#508DCD"/>
<path d="M147.033 244.783C147.033 244.783 147.713 243.492 148.392 242.2C149.14 240.909 149.887 239.618 149.887 239.618L152.537 241.181C152.537 241.181 151.858 242.404 151.178 243.627C150.499 244.918 149.819 246.21 149.819 246.21L147.033 244.783Z" fill="#508DCD"/>
<path d="M155.527 231.532L159.196 227.048L161.438 228.882L157.837 233.435L155.527 231.532Z" fill="#508DCD"/>
<path d="M166.059 219.913L170.34 216.04L172.175 218.01L167.894 221.951L166.059 219.913Z" fill="#508DCD"/>
<path d="M178.018 209.924L182.707 206.527L184.134 208.497L179.445 211.895L178.018 209.924Z" fill="#508DCD"/>
<path d="M190.997 201.295L196.025 198.373L197.045 200.208L192.084 203.197L190.997 201.295Z" fill="#508DCD"/>
<path d="M204.654 193.888L209.886 191.442L210.702 193.073L205.47 195.655L204.654 193.888Z" fill="#508DCD"/>
<path d="M218.856 187.637L224.292 185.531L224.836 187.025L219.468 189.2L218.856 187.637Z" fill="#508DCD"/>
<path d="M233.465 182.405L239.037 180.706L239.445 181.929L233.873 183.764L233.465 182.405Z" fill="#508DCD"/>
<path d="M248.346 178.124L253.986 176.697L254.258 177.716L248.686 179.211L248.346 178.124Z" fill="#508DCD"/>
<path d="M263.5 174.658L269.207 173.639L269.343 174.387L263.635 175.542L263.5 174.658Z" fill="#508DCD"/>
<path d="M278.72 172.076L284.496 171.329L284.564 171.94L278.856 172.756L278.72 172.076Z" fill="#508DCD"/>
<path d="M294.145 170.242L299.921 169.766V170.242L294.145 170.785V170.242Z" fill="#508DCD"/>
<path d="M309.569 169.222L315.345 168.95V169.358L309.569 169.63V169.222Z" fill="#508DCD"/>
<path d="M546.851 275.292L546.715 281.136H546.307L546.443 275.292H546.851Z" fill="#508DCD"/>
<path d="M545.763 290.853L544.744 296.628L544.269 296.56L545.288 290.785L545.763 290.853Z" fill="#508DCD"/>
<path d="M542.433 306.141L540.667 311.713L540.055 311.509L541.89 306.005L542.433 306.141Z" fill="#508DCD"/>
<path d="M536.998 320.819L534.552 326.119L533.872 325.779L536.386 320.547L536.998 320.819Z" fill="#508DCD"/>
<path d="M529.795 334.68L526.669 339.641L525.922 339.165L529.048 334.205L529.795 334.68Z" fill="#508DCD"/>
<path d="M520.962 347.591L517.292 352.212L516.477 351.464L520.146 346.979L520.962 347.591Z" fill="#508DCD"/>
<path d="M510.837 359.55L506.76 363.695L505.809 362.811L509.954 358.667L510.837 359.55Z" fill="#508DCD"/>
<path d="M499.557 370.422L495.14 374.227L494.121 373.072L498.606 369.335L499.557 370.422Z" fill="#508DCD"/>
<path d="M487.394 380.343L482.706 383.74L481.619 382.313L486.443 378.916L487.394 380.343Z" fill="#508DCD"/>
<path d="M474.552 389.244L469.524 392.302L468.504 390.535L473.533 387.545L474.552 389.244Z" fill="#508DCD"/>
<path d="M461.03 397.194L455.866 399.912L454.778 397.874L460.01 395.224L461.03 397.194Z" fill="#508DCD"/>
<path d="M446.964 404.193L441.664 406.639L440.645 404.261L446.013 401.951L446.964 404.193Z" fill="#508DCD"/>
<path d="M432.559 410.377L427.055 412.415L426.104 409.833L431.607 407.794L432.559 410.377Z" fill="#508DCD"/>
<path d="M417.814 415.609L412.174 417.375L411.291 414.454L416.93 412.823L417.814 415.609Z" fill="#508DCD"/>
<path d="M402.729 420.026L397.089 421.452L396.273 418.327L401.981 416.968L402.729 420.026Z" fill="#508DCD"/>
<path d="M387.44 423.627L381.732 424.782L381.053 421.384L386.828 420.365L387.44 423.627Z" fill="#508DCD"/>
<path d="M372.015 426.413L366.239 427.228L365.696 423.695L371.539 422.879L372.015 426.413Z" fill="#508DCD"/>
<path d="M356.455 428.383L350.611 428.927L350.271 425.19L356.115 424.714L356.455 428.383Z" fill="#508DCD"/>
<path d="M340.826 429.539L334.915 429.81L334.779 426.005L340.622 425.801L340.826 429.539Z" fill="#508DCD"/>
<path d="M325.13 430.014L319.218 429.946L319.286 426.073L325.13 426.141V430.014Z" fill="#508DCD"/>
<path d="M309.434 429.606L303.59 429.335L303.794 425.394L309.637 425.733L309.434 429.606Z" fill="#508DCD"/>
<path d="M293.737 428.519L287.894 427.908L288.369 423.967L294.145 424.578L293.737 428.519Z" fill="#508DCD"/>
<path d="M278.177 426.617L272.401 425.733L273.012 421.792L278.788 422.676L278.177 426.617Z" fill="#508DCD"/>
<path d="M262.684 423.966L256.976 422.743L257.791 418.802L263.499 420.025L262.684 423.966Z" fill="#508DCD"/>
<path d="M247.327 420.501L241.688 418.938L242.707 415.065L248.415 416.56L247.327 420.501Z" fill="#508DCD"/>
<path d="M232.242 416.152L226.67 414.318L227.894 410.512L233.465 412.347L232.242 416.152Z" fill="#508DCD"/>
<path d="M217.429 410.92L211.993 408.814L213.42 405.145L218.856 407.251L217.429 410.92Z" fill="#508DCD"/>
<path d="M202.888 404.873L197.588 402.426L199.219 398.893L204.519 401.339L202.888 404.873Z" fill="#508DCD"/>
<path d="M188.754 397.942L183.658 395.088L185.493 391.759L190.657 394.544L188.754 397.942Z" fill="#508DCD"/>
<path d="M175.164 390.06L170.272 386.866L172.31 383.672L177.203 386.866L175.164 390.06Z" fill="#508DCD"/>
<path d="M162.186 381.158L157.498 377.625L159.74 374.635L164.428 378.168L162.186 381.158Z" fill="#508DCD"/>
<path d="M149.887 371.237L145.539 367.296L147.985 364.646L152.334 368.587L149.887 371.237Z" fill="#508DCD"/>
<path d="M138.54 360.365L134.599 356.017L137.181 353.638L141.122 357.919L138.54 360.365Z" fill="#508DCD"/>
<path d="M128.279 348.338L124.745 343.65L127.531 341.611L130.997 346.3L128.279 348.338Z" fill="#508DCD"/>
<path d="M119.31 335.36L116.388 330.264L119.242 328.565L122.231 333.661L119.31 335.36Z" fill="#508DCD"/>
<path d="M111.903 321.362L109.661 315.926L112.718 314.703L114.961 320.071L111.903 321.362Z" fill="#508DCD"/>
<path d="M106.467 306.549L104.904 300.841L108.03 300.026L109.593 305.666L106.467 306.549Z" fill="#508DCD"/>
<path d="M103.07 291.056L102.39 285.213L105.516 284.873L106.195 290.649L103.07 291.056Z" fill="#508DCD"/>
<path d="M101.982 275.292L102.118 269.448L105.176 269.516L105.04 275.292H101.982Z" fill="#508DCD"/>
<path d="M103.138 259.528L104.157 253.752L107.147 254.228L106.127 260.003L103.138 259.528Z" fill="#508DCD"/>
<path d="M106.603 244.103L108.37 238.531L111.224 239.415L109.389 244.986L106.603 244.103Z" fill="#508DCD"/>
<path d="M112.107 229.29L114.621 224.058L117.271 225.281L114.757 230.581L112.107 229.29Z" fill="#508DCD"/>
<path d="M119.513 215.36L122.707 210.468L125.085 211.963L121.891 216.923L119.513 215.36Z" fill="#508DCD"/>
<path d="M128.483 202.45L132.152 197.897L134.327 199.596L130.657 204.217L128.483 202.45Z" fill="#508DCD"/>
<path d="M138.811 190.559L142.888 186.346L144.859 188.316L140.714 192.461L138.811 190.559Z" fill="#508DCD"/>
<path d="M150.159 179.686L154.643 175.949L156.342 177.92L151.925 181.725L150.159 179.686Z" fill="#508DCD"/>
<path d="M162.458 169.902L167.214 166.504L168.709 168.611L163.952 172.008L162.458 169.902Z" fill="#508DCD"/>
<path d="M175.436 161.068L180.464 158.079L181.755 160.253L176.795 163.243L175.436 161.068Z" fill="#508DCD"/>
<path d="M189.026 153.254L194.258 150.604L195.413 152.778L190.181 155.496L189.026 153.254Z" fill="#508DCD"/>
<path d="M203.16 146.391L208.528 144.013L209.479 146.255L204.111 148.566L203.16 146.391Z" fill="#508DCD"/>
<path d="M217.633 140.412L223.137 138.373L223.953 140.547L218.449 142.586L217.633 140.412Z" fill="#508DCD"/>
<path d="M232.446 135.248L238.018 133.549L238.698 135.723L233.126 137.49L232.446 135.248Z" fill="#508DCD"/>
<path d="M247.531 130.967L253.171 129.608L253.715 131.782L248.075 133.141L247.531 130.967Z" fill="#508DCD"/>
<path d="M262.752 127.501L268.528 126.414L268.935 128.588L263.16 129.675L262.752 127.501Z" fill="#508DCD"/>
<path d="M278.245 124.851L284.02 124.104L284.292 126.142L278.516 126.957L278.245 124.851Z" fill="#508DCD"/>
<path d="M293.737 123.016L299.58 122.473L299.784 124.511L293.941 125.055L293.737 123.016Z" fill="#508DCD"/>
<path d="M309.365 121.861L315.209 121.657L315.277 123.628L309.433 123.9L309.365 121.861Z" fill="#508DCD"/>
<path d="M324.994 121.521L330.906 121.589L330.838 123.492H324.994V121.521Z" fill="#508DCD"/>
<path d="M340.691 121.997L346.534 122.337L346.398 124.104L340.555 123.832L340.691 121.997Z" fill="#508DCD"/>
<path d="M356.251 123.152L362.095 123.764L361.891 125.463L356.115 124.851L356.251 123.152Z" fill="#508DCD"/>
<path d="M371.811 125.123L377.587 126.006L377.315 127.569L371.54 126.686L371.811 125.123Z" fill="#508DCD"/>
<path d="M387.236 127.841L392.944 129.064L392.604 130.491L386.896 129.336L387.236 127.841Z" fill="#508DCD"/>
<path d="M402.457 131.374L408.097 132.869L407.757 134.228L402.049 132.733L402.457 131.374Z" fill="#508DCD"/>
<path d="M417.474 135.723L423.046 137.558L422.638 138.713L417.066 136.946L417.474 135.723Z" fill="#508DCD"/>
<path d="M432.219 140.887L437.655 143.062L437.248 144.081L431.812 141.974L432.219 140.887Z" fill="#508DCD"/>
<path d="M446.624 147.003L451.925 149.449L451.517 150.332L446.217 147.886L446.624 147.003Z" fill="#508DCD"/>
<path d="M460.622 153.934L465.786 156.788L465.379 157.467L460.214 154.681L460.622 153.934Z" fill="#508DCD"/>
<path d="M474.144 161.816L479.036 165.009L478.629 165.621L473.736 162.427L474.144 161.816Z" fill="#508DCD"/>
<path d="M487.055 170.581L491.675 174.183L491.335 174.658L486.647 171.125L487.055 170.581Z" fill="#508DCD"/>
<path d="M499.217 180.434L503.566 184.375L503.158 184.783L498.81 180.842L499.217 180.434Z" fill="#508DCD"/>
<path d="M510.497 191.238L514.439 195.587L514.099 195.859L510.158 191.578L510.497 191.238Z" fill="#508DCD"/>
<path d="M520.69 203.129L524.155 207.818L523.884 208.022L520.35 203.333L520.69 203.129Z" fill="#508DCD"/>
<path d="M529.523 215.972L532.445 221L532.173 221.204L529.251 216.108L529.523 215.972Z" fill="#508DCD"/>
<path d="M536.862 229.766L539.104 235.134L538.832 235.27L536.522 229.902L536.862 229.766Z" fill="#508DCD"/>
<path d="M542.298 244.375L543.861 250.015L543.521 250.15L541.958 244.511L542.298 244.375Z" fill="#508DCD"/>
<path d="M545.695 259.664L546.375 265.439L546.035 265.507L545.355 259.664H545.695Z" fill="#508DCD"/>
<path d="M55.8442 275.292L55.9801 269.516H56.2519L56.184 275.292H55.8442Z" fill="#508DCD"/>
<path d="M56.6602 259.868L57.4076 254.092L57.7473 254.16L56.9999 259.868H56.6602Z" fill="#508DCD"/>
<path d="M59.106 244.579L60.465 238.939L60.8727 239.007L59.5137 244.647L59.106 244.579Z" fill="#508DCD"/>
<path d="M63.1826 229.63L65.0852 224.126L65.4929 224.33L63.5903 229.766L63.1826 229.63Z" fill="#508DCD"/>
<path d="M68.687 215.156L71.1332 209.924L71.6089 210.128L69.1627 215.428L68.687 215.156Z" fill="#508DCD"/>
<path d="M75.6177 201.295L78.4716 196.334L79.0831 196.606L76.1613 201.634L75.6177 201.295Z" fill="#508DCD"/>
<path d="M83.7036 188.112L87.1011 183.424L87.7127 183.832L84.3152 188.588L83.7036 188.112Z" fill="#508DCD"/>
<path d="M92.9448 175.678L96.6821 171.261L97.3616 171.805L93.6243 176.289L92.9448 175.678Z" fill="#508DCD"/>
<path d="M103.138 164.058L107.147 159.845L107.962 160.593L103.885 164.738L103.138 164.058Z" fill="#508DCD"/>
<path d="M114.146 153.186L118.494 149.313L119.31 150.196L114.961 154.002L114.146 153.186Z" fill="#508DCD"/>
<path d="M125.901 143.062L130.521 139.46L131.337 140.548L126.716 144.081L125.901 143.062Z" fill="#508DCD"/>
<path d="M138.335 133.753L143.092 130.491L143.907 131.714L139.083 134.908L138.335 133.753Z" fill="#508DCD"/>
<path d="M151.246 125.191L156.206 122.201L157.022 123.628L152.062 126.55L151.246 125.191Z" fill="#508DCD"/>
<path d="M164.632 117.444L169.797 114.658L170.612 116.289L165.448 118.939L164.632 117.444Z" fill="#508DCD"/>
<path d="M178.494 110.378L183.726 107.931L184.542 109.698L179.242 112.076L178.494 110.378Z" fill="#508DCD"/>
<path d="M192.627 104.058L197.995 101.884L198.742 103.786L193.374 105.961L192.627 104.058Z" fill="#508DCD"/>
<path d="M207.101 98.4866L212.537 96.584L213.285 98.6225L207.781 100.525L207.101 98.4866Z" fill="#508DCD"/>
<path d="M221.778 93.5943L227.35 91.8955L228.03 94.2058L222.458 95.7686L221.778 93.5943Z" fill="#508DCD"/>
<path d="M236.728 89.3812L242.367 88.0222L242.979 90.4005L237.339 91.7595L236.728 89.3812Z" fill="#508DCD"/>
<path d="M251.88 85.9156L257.52 84.7605L258.063 87.2746L252.356 88.3618L251.88 85.9156Z" fill="#508DCD"/>
<path d="M267.101 83.0618L272.808 82.1785L273.216 84.8285L267.508 85.7119L267.101 83.0618Z" fill="#508DCD"/>
<path d="M282.457 80.9554L288.233 80.2759L288.505 83.0618L282.797 83.6734L282.457 80.9554Z" fill="#508DCD"/>
<path d="M297.95 79.4604L303.725 79.0527L303.861 81.9066L298.086 82.2464L297.95 79.4604Z" fill="#508DCD"/>
<path d="M313.443 78.6453L319.219 78.4414L319.287 81.3633L313.511 81.4992L313.443 78.6453Z" fill="#508DCD"/>
<path d="M328.935 78.4414L334.711 78.5094L334.643 81.4312L328.867 81.3633L328.935 78.4414Z" fill="#508DCD"/>
<path d="M344.428 78.9167L350.204 79.2565L350.068 82.1783L344.292 81.8386L344.428 78.9167Z" fill="#508DCD"/>
<path d="M359.92 80.0042L365.696 80.6157L365.424 83.5375L359.648 82.926L359.92 80.0042Z" fill="#508DCD"/>
<path d="M375.345 81.7708L381.053 82.5862L380.645 85.576L374.937 84.6926L375.345 81.7708Z" fill="#508DCD"/>
<path d="M390.701 84.217L396.341 85.3042L395.798 88.2261L390.09 87.1389L390.701 84.217Z" fill="#508DCD"/>
<path d="M405.855 87.2747L411.563 88.6337L410.815 91.5555L405.175 90.1965L405.855 87.2747Z" fill="#508DCD"/>
<path d="M420.948 91.0272L420.109 93.9675L425.663 95.5524L426.502 92.6121L420.948 91.0272Z" fill="#508DCD"/>
<path d="M435.82 95.5647L441.324 97.3993L440.373 100.253L434.869 98.4186L435.82 95.5647Z" fill="#508DCD"/>
<path d="M450.43 100.729L455.866 102.835L454.779 105.621L449.343 103.515L450.43 100.729Z" fill="#508DCD"/>
<path d="M464.835 106.64L470.067 109.019L468.912 111.737L463.612 109.358L464.835 106.64Z" fill="#508DCD"/>
<path d="M478.901 113.3L483.997 115.95L482.706 118.532L477.542 115.882L478.901 113.3Z" fill="#508DCD"/>
<path d="M492.558 120.638L497.519 123.56L496.092 126.074L491.063 123.152L492.558 120.638Z" fill="#508DCD"/>
<path d="M505.809 128.792L510.633 131.986L509.003 134.364L504.178 131.17L505.809 128.792Z" fill="#508DCD"/>
<path d="M518.515 137.694L523.136 141.227L521.437 143.469L516.816 139.936L518.515 137.694Z" fill="#508DCD"/>
<path d="M530.678 147.41L535.027 151.216L533.26 153.254L528.844 149.449L530.678 147.41Z" fill="#508DCD"/>
<path d="M542.162 157.875L546.239 162.02L544.336 163.922L540.259 159.777L542.162 157.875Z" fill="#508DCD"/>
<path d="M552.83 169.154L556.635 173.571L554.597 175.338L550.859 170.921L552.83 169.154Z" fill="#508DCD"/>
<path d="M562.683 181.25L566.08 185.938L563.974 187.501L560.508 182.812L562.683 181.25Z" fill="#508DCD"/>
<path d="M571.448 194.092L574.438 199.12L572.196 200.411L569.206 195.451L571.448 194.092Z" fill="#508DCD"/>
<path d="M579.059 207.682L581.573 212.914L579.263 214.001L576.749 208.837L579.059 207.682Z" fill="#508DCD"/>
<path d="M585.378 221.951L587.349 227.387L585.038 228.271L583 222.835L585.378 221.951Z" fill="#508DCD"/>
<path d="M590.202 236.765L591.629 242.405L589.251 242.948L587.824 237.376L590.202 236.765Z" fill="#508DCD"/>
<path d="M593.464 251.985L594.279 257.761L591.901 258.033L591.085 252.325L593.464 251.985Z" fill="#508DCD"/>
<path d="M595.094 267.478L595.298 273.254L592.988 273.322L592.784 267.546L595.094 267.478Z" fill="#508DCD"/>
<path d="M595.095 283.038L594.687 288.814L592.377 288.678L592.785 282.902L595.095 283.038Z" fill="#508DCD"/>
<path d="M593.396 298.531L592.377 304.239L590.135 303.831L591.154 298.124L593.396 298.531Z" fill="#508DCD"/>
<path d="M590.134 313.752L588.436 319.324L586.329 318.712L587.96 313.14L590.134 313.752Z" fill="#508DCD"/>
<path d="M585.242 328.497L583 333.865L581.029 333.05L583.204 327.682L585.242 328.497Z" fill="#508DCD"/>
<path d="M578.923 342.767L576.205 347.863L574.302 346.844L577.02 341.747L578.923 342.767Z" fill="#508DCD"/>
<path d="M571.245 356.288L568.119 361.181L566.353 360.026L569.478 355.133L571.245 356.288Z" fill="#508DCD"/>
<path d="M562.479 369.131L558.945 373.684L557.314 372.392L560.848 367.84L562.479 369.131Z" fill="#508DCD"/>
<path d="M552.694 381.158L548.753 385.439L547.258 384.08L551.131 379.799L552.694 381.158Z" fill="#508DCD"/>
<path d="M541.958 392.37L537.745 396.379L536.386 394.952L540.599 390.943L541.958 392.37Z" fill="#508DCD"/>
<path d="M530.474 402.834L525.99 406.504L524.767 405.009L529.183 401.339L530.474 402.834Z" fill="#508DCD"/>
<path d="M518.311 412.483L513.623 415.881L512.468 414.318L517.156 410.92L518.311 412.483Z" fill="#508DCD"/>
<path d="M505.605 421.317L500.712 424.442L499.693 422.88L504.585 419.754L505.605 421.317Z" fill="#508DCD"/>
<path d="M492.355 429.403L487.326 432.257L486.375 430.626L491.471 427.84L492.355 429.403Z" fill="#508DCD"/>
<path d="M478.697 436.741L473.465 439.323L472.717 437.692L477.881 435.11L478.697 436.741Z" fill="#508DCD"/>
<path d="M464.631 443.332L459.331 445.643L458.652 444.012L463.952 441.702L464.631 443.332Z" fill="#508DCD"/>
<path d="M450.294 449.244L444.858 451.214L444.246 449.584L449.682 447.613L450.294 449.244Z" fill="#508DCD"/>
<path d="M435.684 454.408L430.18 456.107L429.637 454.476L435.209 452.709L435.684 454.408Z" fill="#508DCD"/>
<path d="M420.872 458.825L415.232 460.32L414.824 458.689L420.396 457.194L420.872 458.825Z" fill="#508DCD"/>
<path d="M405.854 462.562L400.146 463.853L399.807 462.222L405.447 460.999L405.854 462.562Z" fill="#508DCD"/>
<path d="M390.633 465.688L384.926 466.639L384.654 465.076L390.362 464.057L390.633 465.688Z" fill="#508DCD"/>
<path d="M375.345 468.066L369.569 468.814L369.365 467.251L375.141 466.503L375.345 468.066Z" fill="#508DCD"/>
<path d="M359.988 469.833L354.212 470.308L354.076 468.814L359.852 468.338L359.988 469.833Z" fill="#508DCD"/>
<path d="M344.496 470.92L338.72 471.192L338.652 469.697L344.428 469.425L344.496 470.92Z" fill="#508DCD"/>
<path d="M329.003 471.396C329.003 471.396 327.576 471.396 326.081 471.396C324.654 471.396 323.159 471.396 323.159 471.396V469.969C323.159 469.969 324.586 469.969 326.081 469.969C327.508 469.969 329.003 469.969 329.003 469.969V471.396Z" fill="#508DCD"/>
<path d="M313.579 471.26L307.735 470.988L307.803 469.629L313.579 469.833V471.26Z" fill="#508DCD"/>
<path d="M298.086 470.376L292.31 469.901L292.378 468.61L298.222 469.085L298.086 470.376Z" fill="#508DCD"/>
<path d="M282.661 468.95L276.885 468.202L277.089 466.979L282.797 467.659L282.661 468.95Z" fill="#508DCD"/>
<path d="M267.304 466.775L261.596 465.824L261.8 464.669L267.508 465.62L267.304 466.775Z" fill="#508DCD"/>
<path d="M252.084 463.989L246.444 462.834L246.648 461.679L252.355 462.902L252.084 463.989Z" fill="#508DCD"/>
<path d="M236.999 460.524L231.427 459.097L231.699 458.077L237.27 459.504L236.999 460.524Z" fill="#508DCD"/>
<path d="M222.118 456.379L216.546 454.68L216.886 453.729L222.39 455.427L222.118 456.379Z" fill="#508DCD"/>
<path d="M207.373 451.554L201.937 449.584L202.277 448.7L207.713 450.671L207.373 451.554Z" fill="#508DCD"/>
<path d="M192.967 446.05L187.599 443.74L187.939 442.993L193.239 445.235L192.967 446.05Z" fill="#508DCD"/>
<path d="M178.765 439.731L173.601 437.217L173.873 436.537L179.105 439.051L178.765 439.731Z" fill="#508DCD"/>
<path d="M164.972 432.732L159.876 429.946L160.216 429.334L165.312 432.12L164.972 432.732Z" fill="#508DCD"/>
<path d="M151.586 424.986L146.693 421.928L146.965 421.385L151.925 424.51L151.586 424.986Z" fill="#508DCD"/>
<path d="M138.607 416.492L133.918 413.163L134.258 412.687L138.947 416.085L138.607 416.492Z" fill="#508DCD"/>
<path d="M126.241 407.251L121.756 403.582L122.028 403.242L126.58 406.843L126.241 407.251Z" fill="#508DCD"/>
<path d="M114.485 397.194L110.272 393.253L110.544 392.914L114.757 396.923L114.485 397.194Z" fill="#508DCD"/>
<path d="M103.409 386.39L99.4683 382.109L99.7401 381.838L103.681 386.118L103.409 386.39Z" fill="#508DCD"/>
<path d="M93.2171 374.771L89.6157 370.218L89.8875 370.014L93.4889 374.567L93.2171 374.771Z" fill="#508DCD"/>
<path d="M80.9952 357.386L80.7686 357.536L83.9573 362.352L84.184 362.202L80.9952 357.386Z" fill="#508DCD"/>
<path d="M73.2777 343.981L73.0386 344.11L75.7838 349.192L76.0229 349.063L73.2777 343.981Z" fill="#508DCD"/>
<path d="M66.8177 329.958L66.5674 330.063L68.8159 335.384L69.0662 335.278L66.8177 329.958Z" fill="#508DCD"/>
<path d="M61.7763 315.35L61.5166 315.43L63.2187 320.949L63.4784 320.869L61.7763 315.35Z" fill="#508DCD"/>
<path d="M58.313 300.312L58.0464 300.364L59.1623 306.031L59.4289 305.978L58.313 300.312Z" fill="#508DCD"/>
<path d="M56.4778 285.02L56.207 285.044L56.712 290.797L56.9828 290.774L56.4778 285.02Z" fill="#508DCD"/>
<path d="M145.539 274.341L14.4632 250.627C13.6478 250.491 12.9003 251.034 12.7644 251.782L-1.43712 329.924C-1.57302 330.74 -1.02942 331.487 -0.281969 331.623L130.793 355.405C131.609 355.541 132.356 354.998 132.492 354.25L146.626 276.108C146.83 275.224 146.286 274.477 145.539 274.341Z" fill="#F7F7F8"/>
<path d="M141.869 321.159L1.41699 295.677L9.57098 250.627C9.70688 250.015 10.2505 249.607 10.862 249.743L149.208 274.817C149.82 274.953 150.227 275.496 150.091 276.108L141.869 321.159Z" fill="#CF545C"/>
<path d="M151.722 265.644L11.6771 240.23C7.73599 239.483 3.9308 242.133 3.2513 246.074L-14.2798 342.427L140.17 370.422L157.634 274.069C158.313 270.128 155.663 266.323 151.722 265.644ZM132.492 354.182C132.356 354.998 131.609 355.473 130.793 355.337L-0.282097 331.555C-1.0975 331.419 -1.57315 330.672 -1.43725 329.856L12.6963 251.714C12.8322 250.898 13.5797 250.423 14.3951 250.559L145.47 274.273C146.286 274.409 146.762 275.157 146.626 275.972L132.492 354.182Z" fill="#BFBFBF"/>
<path d="M61.2034 318.805L57.1689 341.07L127.843 353.876L131.877 331.611L61.2034 318.805Z" fill="#A2282B"/>
<path d="M128.483 354.862L56.1846 341.747L60.5334 317.829L132.832 330.943L128.483 354.862Z" fill="#E1E1E1"/>
<path d="M10.3885 309.617L6.354 331.883L53.4922 340.424L57.5267 318.159L10.3885 309.617Z" fill="#A2282B"/>
<path d="M54.146 341.408L5.35791 332.574L9.70671 308.656L58.4948 317.489L54.146 341.408Z" fill="#E1E1E1"/>
<path d="M14.985 286.028L11.314 306.288L32.1751 310.068L35.8461 289.808L14.985 286.028Z" fill="#F3EFD5"/>
<path d="M35.256 311.442L10.3184 306.957L14.7351 282.631L39.6727 287.184L35.256 311.442Z" fill="#F7F7F8"/>
<path d="M82.0056 258.713C81.8697 259.46 81.1902 259.868 80.5107 259.8C79.7633 259.664 79.2876 258.984 79.4235 258.305C79.5594 257.558 80.2389 257.15 80.9864 257.218C81.6659 257.286 82.1415 257.965 82.0056 258.713Z" fill="#F3EFD5"/>
<path d="M63.7582 324.846L63.4189 326.718L127.072 338.252L127.411 336.38L63.7582 324.846Z" fill="#67B6C0"/>
<path d="M62.8861 329.585L62.5469 331.457L126.2 342.991L126.539 341.119L62.8861 329.585Z" fill="#67B6C0"/>
<path d="M62.0243 334.245L61.6851 336.117L125.338 347.651L125.678 345.779L62.0243 334.245Z" fill="#67B6C0"/>
<path d="M13.913 315.816L13.5737 317.688L52.0198 324.655L52.359 322.782L13.913 315.816Z" fill="#67B6C0"/>
<path d="M13.0389 320.549L12.6997 322.421L51.1458 329.388L51.485 327.515L13.0389 320.549Z" fill="#67B6C0"/>
<path d="M12.1786 325.211L11.8394 327.083L50.2854 334.049L50.6247 332.177L12.1786 325.211Z" fill="#67B6C0"/>
<path d="M33.3536 308.724L13.1045 305.054L16.7058 285.281L36.9549 288.95L33.3536 308.724Z" fill="#E8B44E"/>
<path d="M133.239 326.866L119.582 324.42L120.193 320.955L133.851 323.401L133.239 326.866Z" fill="#CF5562"/>
<path d="M117.883 324.081L104.225 321.634L104.837 318.169L118.495 320.615L117.883 324.081Z" fill="#67B6C0"/>
<path d="M-23.7924 338.826L-24.4719 342.563C-25.0834 346.096 -22.5013 349.562 -18.6961 350.241L-16.8615 350.581L140.307 379.052L142.141 379.392C145.947 380.071 149.616 377.761 150.227 374.228L150.907 370.49L-23.7924 338.826Z" fill="#AEAEAE"/>
<path d="M43.4777 352.483L43.4097 352.959C43.2059 354.182 44.2251 355.473 45.72 355.745L79.8988 361.928C81.3937 362.2 82.8207 361.385 83.0245 360.162L83.0925 359.686L43.4777 352.483Z" fill="#F7F7F8"/>
<path d="M636.884 183.152C636.884 182.337 636.884 181.521 636.816 180.706C635.661 165.145 622.547 153.458 607.53 154.545C601.89 154.953 596.794 157.127 592.649 160.457C587.213 147.818 573.962 139.392 559.149 140.479C540.531 141.838 526.533 157.603 527.892 175.678C527.96 176.833 528.096 177.92 528.3 179.075C512.807 181.521 501.528 195.451 502.683 211.351C503.906 228.135 518.515 240.774 535.299 239.55C538.357 239.347 541.278 238.667 543.996 237.58C549.976 246.21 560.372 251.51 571.788 250.694C582.048 249.947 590.678 244.443 595.774 236.561C599.579 239.958 604.608 241.861 609.976 241.453C617.314 240.909 623.362 236.289 626.216 229.969C629.817 231.6 633.894 232.416 638.175 232.076C651.697 231.125 661.89 219.369 660.938 205.847C659.919 193.141 649.455 183.424 636.884 183.152Z" fill="#5A9EB8"/>
<path d="M497.315 239.619C497.315 239.211 497.315 238.803 497.315 238.395C497.859 230.717 504.314 224.941 511.789 225.485C514.575 225.689 517.089 226.776 519.127 228.407C521.777 222.155 528.301 218.011 535.639 218.554C544.812 219.234 551.675 226.98 551.064 235.881C550.996 236.425 550.928 236.969 550.86 237.512C558.47 238.735 564.042 245.598 563.499 253.412C562.887 261.702 555.684 267.886 547.394 267.342C545.9 267.206 544.473 266.867 543.114 266.391C540.192 270.604 535.028 273.254 529.388 272.846C524.359 272.506 520.079 269.788 517.564 265.915C515.73 267.614 513.216 268.497 510.566 268.361C506.964 268.09 503.974 265.847 502.548 262.722C500.781 263.537 498.742 263.945 496.704 263.741C490.045 263.265 485.016 257.489 485.492 250.83C485.9 244.579 491.132 239.755 497.315 239.619Z" fill="#82C5E3"/>
<path d="M495.711 122.007C503.742 105.299 496.707 85.2429 479.998 77.212C463.29 69.181 443.234 76.2159 435.203 92.9248C427.172 109.634 434.207 129.689 450.916 137.72C467.625 145.751 487.68 138.716 495.711 122.007Z" fill="#5FA7D5"/>
<path d="M142.073 154.477C142.073 167.524 131.541 178.056 118.494 178.056C105.448 178.056 94.9155 167.524 94.9155 154.477C94.9155 141.431 105.448 130.899 118.494 130.899C131.541 130.899 142.073 141.431 142.073 154.477Z" fill="#83C2C3"/>
<path d="M225.991 401.135C225.991 416.9 213.217 429.606 197.52 429.606C181.824 429.606 169.049 416.832 169.049 401.135C169.049 385.371 181.824 372.664 197.52 372.664C213.217 372.664 225.991 385.439 225.991 401.135Z" fill="#5CA2DD"/>
<path d="M597.811 385.427C616.607 376.029 624.226 353.173 614.828 334.377C605.43 315.581 582.574 307.962 563.777 317.36C544.981 326.758 537.362 349.614 546.76 368.411C556.159 387.207 579.015 394.826 597.811 385.427Z" fill="#5CA2DD"/>
<path d="M475.571 111.873C476.454 110.038 476.862 108 476.658 105.825C475.979 99.7097 470.475 95.225 464.359 95.9045C458.244 96.584 453.759 102.088 454.439 108.203C454.643 110.242 455.39 112.077 456.545 113.639V113.707C459.943 118.328 460.894 119.619 461.234 120.027C461.234 120.027 461.302 120.163 461.37 120.231L461.506 120.91H461.709C461.709 120.91 461.709 120.91 461.777 120.91L472.174 119.823C472.174 119.823 472.174 119.823 472.242 119.823H472.445V119.075C472.445 119.007 472.513 118.94 472.513 118.94C472.581 118.396 473.261 116.901 475.571 111.873Z" fill="#F3D632"/>
<path d="M474.416 106.98C474.008 107.048 473.668 106.709 473.668 106.369C473.193 101.884 469.183 98.6225 464.699 99.0982C464.291 99.1661 463.951 98.8944 463.951 98.4867C463.883 98.079 464.155 97.7392 464.563 97.7392C469.795 97.1956 474.552 101.001 475.095 106.233C475.027 106.641 474.755 106.98 474.416 106.98Z" fill="#F3EFD5"/>
<path d="M468.776 128.86L466.874 129.064C465.311 129.2 463.884 128.113 463.748 126.55L463.34 122.949C463.34 122.745 463.476 122.541 463.68 122.541L470.543 121.793C470.747 121.793 470.951 121.929 470.951 122.133L471.358 125.735C471.494 127.297 470.339 128.724 468.776 128.86Z" fill="#272425"/>
<path d="M465.515 121.114C465.107 121.182 464.767 120.91 464.767 120.502L463.748 110.582C463.68 110.174 463.952 109.834 464.36 109.834C464.767 109.766 465.107 110.038 465.107 110.446L466.126 120.366C466.194 120.706 465.923 121.046 465.515 121.114Z" fill="#E19E41"/>
<path d="M468.437 120.774C468.029 120.842 467.689 120.57 467.621 120.163L466.602 110.242C466.534 109.834 466.806 109.495 467.214 109.495C467.621 109.427 467.961 109.698 467.961 110.106L468.98 120.027C469.048 120.434 468.777 120.774 468.437 120.774Z" fill="#E19E41"/>
<path d="M471.97 121.861L462.321 122.881C461.709 122.949 461.166 122.473 461.098 121.861C461.03 121.25 461.505 120.706 462.117 120.638L471.766 119.619C472.377 119.551 472.921 120.027 472.989 120.638C473.057 121.25 472.581 121.793 471.97 121.861Z" fill="#7F7F7F"/>
<path d="M472.174 123.696L462.525 124.715C461.913 124.783 461.37 124.308 461.302 123.696C461.234 123.085 461.71 122.541 462.321 122.473L471.97 121.454C472.582 121.386 473.125 121.861 473.193 122.473C473.193 123.085 472.785 123.628 472.174 123.696Z" fill="#7F7F7F"/>
<path d="M472.31 125.531L462.661 126.55C462.049 126.618 461.506 126.142 461.438 125.531C461.37 124.919 461.845 124.375 462.457 124.307L472.106 123.288C472.717 123.22 473.261 123.696 473.329 124.307C473.397 124.851 472.989 125.463 472.31 125.531Z" fill="#7F7F7F"/>
<path d="M448.527 93.5942C448.391 93.4583 448.187 93.4583 447.983 93.4583C447.78 93.4583 447.576 93.5941 447.508 93.73C447.372 93.8659 447.304 94.0698 447.372 94.2057C447.372 94.4096 447.508 94.5454 447.644 94.6813L452.06 98.0788C452.332 98.2827 452.808 98.2827 453.08 97.943C453.216 97.8071 453.284 97.6032 453.216 97.4673C453.216 97.2634 453.08 97.1276 452.944 96.9917L448.527 93.5942Z" fill="#F3EFD5"/>
<path d="M463.137 85.644C462.729 85.7119 462.458 86.0517 462.458 86.3914L463.001 91.7594C463.069 92.1671 463.409 92.4389 463.817 92.371C464.224 92.303 464.496 91.9633 464.496 91.6235L463.952 86.2555C463.884 85.8478 463.545 85.576 463.137 85.644Z" fill="#F3EFD5"/>
<path d="M476.591 95.4287L480.192 91.2159C480.328 91.08 480.396 90.8761 480.328 90.7402C480.328 90.5364 480.192 90.4004 480.057 90.2645C479.921 90.1286 479.717 90.1287 479.513 90.1287C479.309 90.1287 479.105 90.2646 479.037 90.4005L475.436 94.6134C475.3 94.7493 475.232 94.9531 475.3 95.089C475.3 95.2928 475.436 95.4288 475.572 95.5647C475.912 95.7685 476.387 95.7685 476.591 95.4287Z" fill="#F3EFD5"/>
<path d="M487.667 104.398L482.027 105.01C481.619 105.078 481.348 105.418 481.348 105.757C481.416 106.165 481.755 106.437 482.163 106.369L487.803 105.757C488.211 105.689 488.482 105.35 488.414 105.01C488.414 104.602 488.075 104.33 487.667 104.398Z" fill="#F3EFD5"/>
<path d="M454.778 119.143C454.575 119.143 454.371 119.279 454.303 119.415L450.701 123.628C450.43 123.9 450.498 124.375 450.837 124.579C451.109 124.783 451.585 124.783 451.857 124.443L455.458 120.23C455.594 120.094 455.662 119.891 455.594 119.755C455.594 119.551 455.458 119.415 455.322 119.279C455.118 119.143 454.982 119.143 454.778 119.143Z" fill="#F3EFD5"/>
<path d="M449.478 109.087C449.411 108.679 449.071 108.407 448.663 108.475L443.023 109.087C442.616 109.155 442.344 109.494 442.344 109.834C442.412 110.242 442.751 110.513 443.159 110.446L448.799 109.834C449.275 109.834 449.546 109.494 449.478 109.087Z" fill="#F3EFD5"/>
<path d="M479.241 116.765C479.105 116.629 478.902 116.629 478.698 116.629C478.494 116.629 478.358 116.765 478.222 116.901C478.086 117.037 478.018 117.24 478.086 117.444C478.086 117.648 478.222 117.784 478.358 117.92L482.775 121.249C483.047 121.453 483.522 121.453 483.794 121.114C484.066 120.842 483.998 120.366 483.726 120.162L479.241 116.765Z" fill="#F3EFD5"/>
<path d="M179.785 251.51H171.291V243.491H196.297V251.51H187.803V296.492H179.785V251.51Z" fill="white"/>
<path d="M202.684 296.493V243.424H225.447V251.442H210.702V265.915H221.506V273.933H210.702V288.407H225.447V296.425H202.684V296.493Z" fill="white"/>
<path d="M243.658 297.172C240.124 297.172 237.135 295.949 234.688 293.435C232.242 290.989 230.951 287.999 230.951 284.465V255.519C230.951 251.985 232.174 248.995 234.688 246.549C237.203 244.103 240.192 242.812 243.658 242.812C247.191 242.812 250.181 244.035 252.627 246.549C255.073 249.063 256.296 252.053 256.296 255.519V261.566H248.007V255.315C248.007 254.024 247.531 252.937 246.648 252.053C245.764 251.17 244.677 250.694 243.386 250.694C242.095 250.694 241.008 251.17 240.124 252.053C239.241 252.937 238.765 254.024 238.765 255.315V284.397C238.765 285.688 239.241 286.776 240.124 287.659C241.008 288.542 242.095 289.018 243.386 289.018C244.677 289.018 245.764 288.542 246.648 287.659C247.531 286.776 248.007 285.688 248.007 284.397V277.059H256.364V284.465C256.364 287.999 255.141 290.989 252.627 293.435C250.113 295.949 247.191 297.172 243.658 297.172Z" fill="white"/>
<path d="M270.906 274.001V296.493H262.888V243.424H270.906V265.915H280.555V243.424H288.573V296.493H280.555V274.001H270.906Z" fill="white"/>
<path d="M304.677 243.356L315.277 279.029V243.356H323.295V296.425H314.733L303.726 262.45V296.425H295.708V243.356H304.677Z" fill="white"/>
<path d="M343 242.744C346.534 242.744 349.524 243.967 351.97 246.481C354.416 248.996 355.707 251.985 355.707 255.451V284.397C355.707 287.931 354.484 290.921 351.97 293.367C349.456 295.813 346.466 297.104 343 297.104C339.467 297.104 336.477 295.881 334.031 293.367C331.585 290.853 330.362 287.863 330.362 284.397V255.451C330.362 251.917 331.585 248.928 334.099 246.481C336.545 243.967 339.535 242.744 343 242.744ZM347.349 255.315C347.349 254.024 346.874 252.937 345.99 252.053C345.107 251.17 344.02 250.694 342.729 250.694C341.438 250.694 340.35 251.17 339.467 252.053C338.584 252.937 338.108 254.024 338.108 255.315V284.329C338.108 285.621 338.584 286.708 339.467 287.591C340.35 288.474 341.438 288.95 342.729 288.95C344.02 288.95 345.107 288.474 345.99 287.591C346.874 286.708 347.349 285.621 347.349 284.329V255.315Z" fill="white"/>
<path d="M384.586 296.493H362.774V243.424H370.792V288.543H384.586V296.493Z" fill="white"/>
<path d="M402.729 242.744C406.262 242.744 409.252 243.967 411.698 246.481C414.144 248.996 415.435 251.985 415.435 255.451V284.397C415.435 287.931 414.212 290.921 411.698 293.367C409.184 295.813 406.194 297.104 402.729 297.104C399.195 297.104 396.205 295.881 393.759 293.367C391.313 290.853 390.09 287.863 390.09 284.397V255.451C390.09 251.917 391.313 248.928 393.827 246.481C396.273 243.967 399.263 242.744 402.729 242.744ZM407.145 255.315C407.145 254.024 406.67 252.937 405.786 252.053C404.903 251.17 403.816 250.694 402.525 250.694C401.234 250.694 400.146 251.17 399.263 252.053C398.38 252.937 397.904 254.024 397.904 255.315V284.329C397.904 285.621 398.38 286.708 399.263 287.591C400.146 288.474 401.234 288.95 402.525 288.95C403.816 288.95 404.903 288.474 405.786 287.591C406.67 286.708 407.145 285.621 407.145 284.329V255.315Z" fill="white"/>
<path d="M435.073 297.172C431.539 297.172 428.55 295.949 426.103 293.435C423.657 290.921 422.366 287.999 422.366 284.533V255.587C422.366 252.053 423.589 249.064 426.103 246.617C428.618 244.171 431.607 242.88 435.073 242.88C438.606 242.88 441.596 244.103 444.042 246.617C446.488 249.132 447.712 252.121 447.712 255.587V261.634H439.422V255.383C439.422 254.092 438.946 253.005 438.063 252.121C437.179 251.238 436.092 250.762 434.801 250.762C433.51 250.762 432.423 251.238 431.539 252.121C430.656 253.005 430.18 254.092 430.18 255.383V284.398C430.18 285.689 430.656 286.776 431.539 287.659C432.423 288.542 433.51 289.018 434.801 289.018C436.092 289.018 437.179 288.542 438.063 287.659C438.946 286.776 439.422 285.689 439.422 284.398V274.001H435.005V265.983H447.779V284.533C447.779 288.067 446.556 291.057 444.042 293.503C441.528 295.949 438.538 297.172 435.073 297.172Z" fill="white"/>
<path d="M461.777 274.273L451.041 243.424H459.875L465.786 262.45L471.698 243.424H480.531L469.795 274.273V296.493H461.777V274.273Z" fill="white"/>
<path d="M605.355 344.601C605.016 343.242 604.608 341.951 604.064 340.728L607.598 336.923C606.578 334.952 605.423 333.118 604.064 331.419L599.104 333.118C598.153 332.098 597.133 331.215 596.046 330.4L597.201 325.303C595.367 324.08 593.464 323.129 591.426 322.314L588.028 326.255C586.737 325.847 585.378 325.575 584.019 325.439L582.524 320.479C581.437 320.411 580.35 320.411 579.263 320.479C578.175 320.547 577.088 320.683 576.001 320.819L574.982 325.915C573.623 326.255 572.332 326.662 571.109 327.206L567.303 323.673C565.333 324.692 563.498 325.847 561.867 327.206L563.566 332.166C562.547 333.118 561.663 334.137 560.848 335.224L555.752 334.069C554.529 335.904 553.577 337.806 552.762 339.845L556.703 343.242C556.295 344.533 556.024 345.892 555.888 347.251L550.927 348.746C550.859 349.833 550.859 350.921 550.927 352.008C550.995 353.095 551.063 354.182 551.267 355.269L556.363 356.289C556.703 357.648 557.111 358.939 557.587 360.162L553.985 363.899C555.004 365.87 556.16 367.704 557.519 369.335L562.479 367.636C563.43 368.655 564.449 369.539 565.537 370.354L564.382 375.45C566.216 376.674 568.119 377.625 570.157 378.44L573.555 374.499C574.846 374.907 576.205 375.179 577.564 375.383L579.059 380.343C580.146 380.411 581.233 380.411 582.32 380.343C583.407 380.275 584.495 380.139 585.582 380.003L586.601 374.907C587.96 374.567 589.251 374.159 590.474 373.684L594.279 377.217C596.25 376.266 598.085 375.043 599.715 373.684L598.017 368.791C599.036 367.84 599.919 366.821 600.735 365.734L605.831 366.889C606.986 365.054 608.005 363.152 608.821 361.113L604.88 357.648C605.287 356.357 605.559 354.998 605.763 353.639L610.723 352.144C610.791 351.056 610.791 349.969 610.723 348.882C610.655 347.795 610.52 346.708 610.384 345.62L605.355 344.601ZM591.629 350.445C591.969 356.696 587.145 361.996 580.893 362.336C574.642 362.676 569.342 357.851 569.002 351.6C568.662 345.349 573.487 340.049 579.738 339.709C585.99 339.369 591.29 344.193 591.629 350.445Z" fill="#F7F7F8"/>
<path d="M483.318 338.214C483.318 342.902 479.512 346.708 474.824 346.708C470.135 346.708 466.33 342.902 466.33 338.214C466.33 333.525 470.135 329.72 474.824 329.72C479.58 329.72 483.318 333.525 483.318 338.214Z" fill="white"/>
<path d="M171.223 228.679C171.223 234.251 166.671 238.803 161.099 238.803C155.527 238.803 150.974 234.251 150.974 228.679C150.974 223.107 155.527 218.554 161.099 218.554C166.671 218.554 171.223 223.107 171.223 228.679Z" fill="white"/>
<path d="M309.026 483.083C314.618 483.083 319.15 478.55 319.15 472.959C319.15 467.367 314.618 462.834 309.026 462.834C303.434 462.834 298.901 467.367 298.901 472.959C298.901 478.55 303.434 483.083 309.026 483.083Z" fill="#5A9EB8"/>
<path d="M372.491 138.305C378.083 138.305 382.616 133.772 382.616 128.18C382.616 122.589 378.083 118.056 372.491 118.056C366.9 118.056 362.367 122.589 362.367 128.18C362.367 133.772 366.9 138.305 372.491 138.305Z" fill="white"/>
<path d="M413.737 467.659C413.805 467.863 413.873 468.066 413.94 468.27C415.299 478.191 411.834 492.936 409.592 499.255C406.942 506.866 418.425 505.643 435.277 490.49C449.41 477.783 450.973 459.029 451.109 453.321L427.259 462.427L413.737 467.659Z" fill="#5CA2DD"/>
<path d="M389.003 433.955C388.935 433.887 388.799 433.819 388.731 433.751C379.694 429.403 364.405 428.247 357.678 428.519C349.66 428.791 354.212 418.191 373.782 406.639C380.373 402.766 387.236 401.067 393.487 400.592C387.236 401.067 380.305 402.766 373.714 406.639C354.144 418.191 349.592 428.791 357.61 428.519C364.337 428.315 379.626 429.403 388.663 433.751C388.799 433.819 388.935 433.887 389.003 433.955C388.867 434.091 388.799 434.227 388.731 434.363L388.867 434.159L389.003 433.955Z" fill="#E6BD59"/>
<path d="M398.584 454.544C398.312 454.205 398.04 453.797 397.768 453.389C389.886 442.585 388.935 436.402 388.935 434.091L388.799 434.227C388.867 434.159 388.867 434.091 388.935 434.091L388.799 434.295C386.896 436.877 384.994 439.459 382.955 442.177C382.955 442.177 381.732 447.342 390.226 458.961C398.72 470.512 404.02 470.852 404.02 470.852C407.281 469.697 410.475 468.61 413.533 467.591C411.426 466.979 406.126 464.465 398.584 454.544Z" fill="#67B6C0"/>
<path d="M357.678 428.519C364.405 428.316 379.693 429.403 388.731 433.752C388.799 433.819 388.935 433.887 389.003 433.955L413.872 402.63C410.475 401.679 402.661 399.912 393.555 400.592C387.304 401.068 380.373 402.766 373.85 406.64C354.212 418.191 349.66 428.791 357.678 428.519Z" fill="#5CA2DD"/>
<path d="M388.731 434.362L388.866 434.227C388.799 434.227 388.799 434.295 388.731 434.362Z" fill="#5CA2DD"/>
<path d="M511.177 371.102C511.109 371.034 511.109 370.966 511.041 370.898C511.041 370.898 511.041 370.898 511.041 370.83L510.973 370.762C510.089 369.471 509.41 368.112 509.002 366.685C502.683 365.258 483.929 362.472 457.7 372.597C453.963 374.024 450.022 375.722 446.013 377.761C433.238 384.148 423.317 392.302 413.804 402.63L388.935 433.955L388.799 434.159C388.799 436.47 389.75 442.653 397.632 453.457C397.904 453.865 398.176 454.204 398.448 454.612C398.516 454.748 398.652 454.884 398.719 455.02C406.058 464.601 411.29 467.047 413.329 467.727C413.397 467.727 413.465 467.659 413.533 467.659C413.533 467.659 413.533 467.727 413.601 467.794L427.123 462.562L451.041 453.321V453.253C463.68 447.274 474.416 440.275 484.268 430.014C490.384 423.627 495.276 417.444 499.149 411.532C510.633 394.069 513.147 379.799 513.691 373.82C512.807 373.004 511.992 372.121 511.177 371.102ZM483.725 406.096C478.085 410.241 470.067 409.018 465.922 403.378C461.777 397.738 463 389.72 468.64 385.575C469.727 384.828 470.882 384.216 472.037 383.808C477.202 382.042 483.045 383.672 486.443 388.293C486.511 388.429 486.579 388.565 486.715 388.701C490.52 394.341 489.297 402.019 483.725 406.096Z" fill="#2B76C1"/>
<path d="M524.291 360.909C524.291 360.841 524.291 360.841 524.223 360.773C523.679 360.026 522.048 359.89 519.398 360.841C519.126 360.909 518.855 361.045 518.583 361.181C516.069 362.2 512.399 364.307 509.07 366.685C509.07 366.685 509.07 366.685 509.002 366.685C509.41 368.112 510.089 369.471 510.973 370.762C510.973 370.762 510.973 370.83 511.04 370.83C511.04 370.83 511.04 370.83 511.04 370.898C511.108 370.966 511.108 371.034 511.176 371.102C511.924 372.121 512.807 373.004 513.758 373.752C513.758 373.684 513.758 373.616 513.758 373.616C517.496 370.83 521.029 367.5 522.66 365.326C523.136 364.714 523.475 364.171 523.747 363.627C524.495 362.404 524.63 361.453 524.291 360.909Z" fill="#CF545C"/>
<path d="M393.284 472.347L391.789 470.308C391.857 470.376 391.925 470.512 391.925 470.648C392.061 472.347 392.672 486.684 380.781 490.761C380.373 490.897 379.898 490.422 380.033 489.946C380.781 487.975 382.208 483.966 382.14 481.724C382.14 481.18 381.46 480.909 381.121 481.316C379.354 483.491 374.122 488.995 365.696 488.519C355.3 487.975 354.756 486.209 354.756 486.209C354.756 486.209 353.397 485.325 355.436 476.9C355.571 476.356 355.707 475.744 355.911 475.133C358.018 467.047 364.813 463.649 367.463 462.63C367.938 462.426 367.87 461.747 367.395 461.543C365.22 460.795 361.007 460.931 358.901 461.067C358.425 461.067 358.086 460.524 358.357 460.116C365.832 450.059 379.286 454.952 380.849 455.563C380.985 455.631 381.053 455.699 381.121 455.767L379.626 453.729C379.558 453.593 379.422 453.525 379.286 453.457C377.112 452.709 358.969 447.138 347.961 461.067C347.553 461.611 347.961 462.358 348.641 462.29C351.562 461.951 357.406 461.543 360.328 462.358C361.007 462.562 361.007 463.513 360.396 463.785C356.727 465.348 347.146 470.308 343.612 481.248C339.263 494.906 341.302 496.129 341.302 496.129C341.302 496.129 341.846 498.44 356.183 498.44C367.667 498.44 375.277 490.761 377.859 487.704C378.335 487.16 379.218 487.5 379.218 488.179C379.15 491.169 376.908 496.673 375.753 499.323C375.481 499.935 376.092 500.546 376.704 500.342C393.284 494.091 393.488 475.065 393.42 472.823C393.42 472.619 393.42 472.483 393.284 472.347Z" fill="#D0592A"/>
<path d="M380.917 455.563C379.286 454.952 365.832 449.991 358.425 460.116C358.154 460.523 358.493 461.067 358.969 461.067C361.076 460.931 365.288 460.795 367.463 461.543C367.938 461.747 368.006 462.426 367.531 462.63C364.881 463.649 358.086 466.979 355.979 475.133C355.843 475.744 355.64 476.356 355.504 476.899C353.465 485.325 354.824 486.209 354.824 486.209C354.824 486.209 355.3 487.975 365.764 488.519C374.122 488.927 379.422 483.491 381.189 481.316C381.528 480.908 382.14 481.18 382.208 481.724C382.276 483.966 380.849 488.043 380.101 489.946C379.898 490.421 380.373 490.897 380.849 490.761C392.74 486.684 392.129 472.415 391.993 470.648C391.993 470.512 391.925 470.444 391.857 470.308L386.557 463.038L381.257 455.767C381.121 455.699 381.053 455.631 380.917 455.563Z" fill="#F3D632"/>
<path d="M486.715 388.701C486.647 388.565 486.579 388.429 486.443 388.293C483.045 383.672 477.134 382.041 472.038 383.808C470.882 384.216 469.727 384.827 468.64 385.575C463 389.72 461.777 397.67 465.922 403.378C470.067 409.018 478.017 410.241 483.725 406.096C489.297 402.019 490.52 394.34 486.715 388.701Z" fill="#F7F7F8"/>
<path d="M243.318 144.489L245.628 143.198L252.355 119.143C252.899 117.173 255.005 116.018 256.976 116.561C258.946 117.105 260.101 119.211 259.558 121.182L254.801 138.033L255.821 137.49L268.391 130.423C269.75 129.676 270.226 127.977 269.478 126.55L261.257 111.873C260.509 110.514 258.742 110.038 257.383 110.786L232.242 124.851C230.883 125.599 230.407 127.365 231.155 128.724L239.377 143.402C240.26 144.761 241.959 145.236 243.318 144.489Z" fill="#BFBFBF"/>
<path d="M214.099 126.482L233.125 160.593C234.009 162.088 235.911 162.631 237.406 161.816L286.194 134.568C287.689 133.753 288.233 131.782 287.417 130.287L268.391 96.1763C267.508 94.6814 265.605 94.1378 264.111 94.9532L215.323 122.201C213.828 123.084 213.284 124.987 214.099 126.482ZM231.291 128.724C230.543 127.365 231.019 125.667 232.378 124.851L257.519 110.786C258.878 110.038 260.577 110.514 261.393 111.873L269.615 126.55C270.362 127.909 269.886 129.608 268.527 130.423L255.957 137.49L254.937 138.033L259.694 121.182C260.237 119.211 259.082 117.105 257.112 116.561C255.141 116.018 253.035 117.173 252.491 119.143L245.764 143.198L243.454 144.489C242.095 145.236 240.396 144.761 239.581 143.402L231.291 128.724ZM263.159 102.835C264.179 102.292 265.47 102.632 266.013 103.651C266.557 104.67 266.217 105.961 265.198 106.505C264.179 107.048 262.887 106.709 262.344 105.689C261.8 104.67 262.14 103.379 263.159 102.835ZM266.013 107.864C267.032 107.32 268.323 107.66 268.867 108.679C269.411 109.698 269.071 110.989 268.052 111.533C267.032 112.077 265.741 111.737 265.198 110.718C264.654 109.698 264.994 108.407 266.013 107.864Z" fill="white"/>
<path d="M203.16 131.442L217.905 166.64C218.177 167.32 218.992 167.66 219.672 167.388L226.874 164.398C227.554 164.126 227.894 163.311 227.622 162.631L212.877 127.433C212.605 126.754 211.789 126.414 211.11 126.686L203.907 129.676C203.16 129.947 202.82 130.763 203.16 131.442Z" fill="white"/>
<path d="M217.973 182.201C220.351 187.977 227.01 190.695 232.786 188.248C234.416 187.569 235.164 185.734 234.484 184.103C233.805 182.473 231.97 181.725 230.34 182.405C227.825 183.492 224.904 182.269 223.816 179.755C222.729 177.241 223.952 174.251 226.466 173.231C228.981 172.144 231.902 173.367 232.99 175.882C233.669 177.512 235.504 178.26 237.135 177.58C238.765 176.901 239.513 175.066 238.833 173.435C236.455 167.66 229.796 164.942 224.02 167.388C218.312 169.834 215.594 176.493 217.973 182.201Z" fill="white"/>
<path d="M275.662 88.362L269.615 93.3223C269.071 93.7979 268.935 94.6813 269.411 95.2249L293.737 124.579C294.213 125.123 295.096 125.259 295.64 124.783L301.687 119.823C302.231 119.347 302.367 118.464 301.891 117.92L277.565 88.5658C277.089 87.9542 276.206 87.8863 275.662 88.362Z" fill="white"/>
<path d="M310.656 136.606C309.297 137.694 309.162 139.732 310.249 141.023C311.336 142.382 313.374 142.586 314.666 141.431C319.49 137.49 320.169 130.287 316.16 125.53C312.151 120.706 305.017 120.027 300.26 124.036C295.436 127.977 294.824 135.179 298.765 139.936C299.852 141.295 301.891 141.431 303.182 140.344C304.541 139.256 304.677 137.218 303.59 135.927C301.823 133.82 302.163 130.627 304.269 128.928C306.376 127.161 309.569 127.501 311.268 129.607C313.103 131.714 312.831 134.84 310.656 136.606Z" fill="white"/>
<path d="M268.119 171.533C268.799 171.193 269.003 170.378 268.663 169.698L260.033 154.205C259.694 153.526 258.878 153.322 258.199 153.662L248.482 159.098C247.802 159.438 247.599 160.253 247.938 160.933L256.568 176.425C256.908 177.105 257.723 177.308 258.403 176.969L268.119 171.533Z" fill="white"/>
<path d="M278.992 165.485L288.709 160.049C289.388 159.71 289.592 158.894 289.252 158.215L280.623 142.722C280.283 142.043 279.468 141.839 278.788 142.178L269.071 147.614C268.392 147.954 268.188 148.77 268.528 149.449L277.157 164.942C277.497 165.621 278.312 165.825 278.992 165.485Z" fill="white"/>
<path d="M255.209 184.919L258.403 190.695C258.946 191.714 259.965 192.257 260.645 191.85L275.594 183.492C276.273 183.152 276.341 181.997 275.73 180.978L272.536 175.202C271.993 174.183 270.973 173.639 270.294 174.047L255.345 182.405C254.733 182.812 254.665 183.9 255.209 184.919Z" fill="white"/>
<path d="M282.933 176.969C283.477 177.988 284.496 178.532 285.176 178.124L300.125 169.766C300.804 169.426 300.872 168.271 300.26 167.252L297.067 161.476C296.523 160.457 295.504 159.913 294.824 160.321L279.875 168.679C279.196 169.019 279.128 170.174 279.74 171.193L282.933 176.969Z" fill="white"/>
<path d="M202.072 67.9771L201.053 68.5887C200.374 68.9284 200.17 69.7438 200.509 70.4233L203.907 76.4709L197.52 80.0043L197.044 80.2761C195.345 81.2274 194.734 83.4018 195.685 85.1005L213.012 116.154C213.964 117.852 216.138 118.464 217.837 117.513L259.422 94.2737C261.121 93.3224 261.732 91.148 260.781 89.4493L243.454 58.3962C242.503 56.6974 240.328 56.0859 238.629 57.0372L237.338 57.7846L231.834 60.8424L228.437 54.7948C228.097 54.1153 227.282 53.9115 226.602 54.2512L225.583 54.8628C224.904 55.2025 224.7 56.0179 225.039 56.6974L228.437 62.745L207.304 74.5683L203.907 68.5207C203.567 67.8412 202.752 67.6374 202.072 67.9771ZM209.003 88.2262C211.178 87.0031 214.032 87.7505 215.255 89.9929C216.478 92.2352 215.73 95.0212 213.488 96.2443C211.246 97.4674 208.46 96.7199 207.237 94.4776C206.013 92.3032 206.829 89.5172 209.003 88.2262ZM238.969 71.4426C241.211 70.2195 243.997 70.9669 245.221 73.2093C246.444 75.4516 245.696 78.2376 243.454 79.4607C241.211 80.6838 238.426 79.9363 237.202 77.6939C235.979 75.4516 236.727 72.6657 238.969 71.4426ZM254.462 81.0235L255.073 82.1786L210.226 107.388L209.615 106.233L254.462 81.0235Z" fill="white"/>
<path d="M191.812 98.0789C191.132 98.4187 190.929 99.302 191.268 99.9136L198.063 112.077C198.403 112.756 199.286 112.96 199.898 112.62L204.519 110.038L196.365 95.4968L191.812 98.0789Z" fill="white"/>
<path d="M197.723 94.817L196.364 95.5645L204.518 110.106L205.809 109.358C206.489 109.019 206.693 108.135 206.353 107.524L199.558 95.3606C199.218 94.6811 198.403 94.4093 197.723 94.817Z" fill="#BFBFBF"/>
<path d="M256.84 61.5897L252.219 64.1718L260.373 78.713L264.926 76.1989C265.605 75.8592 265.809 74.9758 265.469 74.3643L258.674 62.2012C258.267 61.4538 257.451 61.2499 256.84 61.5897Z" fill="white"/>
<path d="M250.929 64.8514C250.249 65.1911 250.045 66.0065 250.385 66.686L257.18 78.917C257.52 79.5965 258.403 79.8004 259.015 79.4606L260.374 78.7132L252.22 64.1719L250.929 64.8514Z" fill="#BFBFBF"/>
<path d="M213.488 96.2442C215.663 95.0211 216.478 92.2351 215.255 89.9928C214.032 87.7504 211.246 87.003 209.003 88.2261C206.761 89.4492 206.014 92.2351 207.237 94.4775C208.528 96.7198 211.314 97.4673 213.488 96.2442Z" fill="#464646"/>
<path d="M243.454 79.3926C245.696 78.1695 246.444 75.3835 245.221 73.1412C243.998 70.8988 241.212 70.1514 238.969 71.3745C236.727 72.5976 235.98 75.3835 237.203 77.6259C238.426 79.8682 241.28 80.6836 243.454 79.3926Z" fill="#464646"/>
<path d="M254.496 81.0563L209.662 106.266L210.295 107.391L255.128 82.1816L254.496 81.0563Z" fill="#BFBFBF"/>
<path d="M265.266 106.505C266.285 105.961 266.625 104.67 266.081 103.651C265.538 102.631 264.247 102.292 263.227 102.835C262.208 103.379 261.868 104.67 262.412 105.689C262.956 106.708 264.247 107.048 265.266 106.505Z" fill="#D9D8D8"/>
<path d="M268.052 111.533C269.071 110.989 269.411 109.698 268.867 108.679C268.324 107.66 267.033 107.32 266.013 107.864C264.994 108.407 264.654 109.698 265.198 110.718C265.742 111.737 267.033 112.077 268.052 111.533Z" fill="#D9D8D8"/>
<path d="M184.949 386.934C184.609 386.595 183.93 386.595 183.59 386.934C183.386 387.138 183.318 387.342 183.318 387.614C183.318 387.886 183.386 388.089 183.59 388.293L186.784 391.487C186.988 391.691 187.192 391.759 187.463 391.759C187.735 391.759 187.939 391.691 188.143 391.487C188.347 391.283 188.415 391.079 188.415 390.807C188.415 390.536 188.347 390.332 188.143 390.128L184.949 386.934Z" fill="#F3D632"/>
<path d="M196.908 381.43C196.365 381.43 195.957 381.838 195.957 382.381V386.934C195.957 387.478 196.365 387.885 196.908 387.885C197.452 387.885 197.86 387.478 197.86 386.934V382.381C197.928 381.838 197.452 381.43 196.908 381.43Z" fill="#F3D632"/>
<path d="M210.634 387.681C210.634 387.41 210.566 387.206 210.363 387.002C210.023 386.662 209.343 386.662 209.004 387.002L205.81 390.196C205.606 390.399 205.538 390.603 205.538 390.875C205.538 391.147 205.606 391.351 205.81 391.555C206.014 391.758 206.218 391.826 206.489 391.826C206.761 391.826 206.965 391.758 207.169 391.555L210.363 388.361C210.498 388.157 210.634 387.885 210.634 387.681Z" fill="#F3D632"/>
<path d="M214.915 399.369H210.362C209.819 399.369 209.411 399.777 209.411 400.32C209.411 400.864 209.819 401.271 210.362 401.271H214.915C215.459 401.271 215.866 400.864 215.866 400.32C215.866 399.777 215.459 399.369 214.915 399.369Z" fill="#F3D632"/>
<path d="M196.908 412.755C196.365 412.755 195.957 413.163 195.957 413.706V418.259C195.957 418.803 196.365 419.21 196.908 419.21C197.452 419.21 197.86 418.803 197.86 418.259V413.706C197.928 413.231 197.452 412.755 196.908 412.755Z" fill="#F3D632"/>
<path d="M186.784 409.153L183.59 412.347C183.182 412.755 183.182 413.366 183.59 413.706C183.794 413.91 183.998 413.978 184.269 413.978C184.541 413.978 184.745 413.91 184.949 413.706L188.143 410.512C188.346 410.309 188.414 410.105 188.414 409.833C188.414 409.561 188.346 409.357 188.143 409.153C187.803 408.746 187.123 408.746 186.784 409.153Z" fill="#F3D632"/>
<path d="M184.541 400.32C184.541 399.777 184.133 399.369 183.59 399.369H179.037C178.494 399.369 178.086 399.777 178.086 400.32C178.086 400.864 178.494 401.271 179.037 401.271H183.59C184.066 401.339 184.541 400.864 184.541 400.32Z" fill="#F3D632"/>
<path d="M213.148 419.414C213.012 419.414 212.809 419.346 212.741 419.21L207.508 413.978L205.878 420.569C205.742 420.773 205.538 420.909 205.266 420.909C204.994 420.909 204.79 420.705 204.722 420.433L198.811 402.97C198.743 402.766 198.811 402.494 198.947 402.359C199.083 402.223 199.354 402.155 199.558 402.223L217.021 408.134C217.293 408.202 217.429 408.406 217.497 408.678C217.497 408.95 217.429 409.154 217.157 409.289L210.566 410.92L215.798 416.152C216.07 416.424 216.07 416.764 215.798 417.036L213.556 419.278C213.488 419.346 213.352 419.414 213.148 419.414Z" fill="#F3D632"/>
<path d="M136.976 153.594C136.976 153.254 136.773 152.914 136.433 152.778L125.968 147.886L124.338 136.606C124.27 136.267 124.066 135.995 123.726 135.859C123.386 135.723 123.047 135.859 122.775 136.063L114.621 144.081L103.205 142.042C102.865 141.974 102.526 142.11 102.322 142.382C102.118 142.654 102.05 143.062 102.254 143.333L107.418 153.73L102.458 163.99C102.322 164.33 102.322 164.67 102.526 164.941C102.73 165.213 103.069 165.349 103.409 165.281L114.689 163.175L122.367 171.601C122.571 171.872 122.979 171.94 123.318 171.872C123.658 171.804 123.93 171.533 123.998 171.193L126.24 159.913L136.433 154.545C136.773 154.273 136.976 153.934 136.976 153.594Z" fill="#F7F7F8"/>
</g>
</svg>
