<svg width="40" height="40" viewBox="0 0 40 40" fill="none" xmlns="http://www.w3.org/2000/svg">
<path d="M3.87109 12.9033H6.45174V14.1936H3.87109V12.9033Z" fill="#2B76C1"/>
<path d="M38.0645 10.3226C39.1315 10.3226 40 9.45403 40 8.3871V1.93548C40 0.868548 39.1315 0 38.0645 0H29.0323C27.9653 0 27.0968 0.868548 27.0968 1.93548V8.3871C27.0968 9.45403 27.9653 10.3226 29.0323 10.3226H30.9677V11.6129H29.6774V12.9032H32.9032V19.3548H30.2406C29.726 18.8524 29.0921 18.4677 28.3827 18.256C28.3859 18.1908 28.3871 18.1278 28.3871 18.0645C28.3871 15.2185 26.0718 12.9032 23.2258 12.9032C21.4601 12.9032 19.8189 13.8218 18.8789 15.2911C18.2172 14.9933 17.4998 14.8391 16.7742 14.8387C14.6331 14.8387 12.7051 16.1882 11.9509 18.1678C11.4607 18.2731 11.004 18.4614 10.5891 18.7097H5.80645V16.7742H8.3871C9.45403 16.7742 10.3226 15.9056 10.3226 14.8387V1.93548C10.3226 0.868548 9.45403 0 8.3871 0H1.93548C0.868548 0 0 0.868548 0 1.93548V14.8387C0 15.9056 0.868548 16.7742 1.93548 16.7742H4.51613V20H9.21694C8.94006 20.3937 8.72827 20.8294 8.58968 21.2903H5.80645V28.3871H3.22581C2.15887 28.3871 1.29032 29.2556 1.29032 30.3226V36.129H0V38.0645C0 39.1315 0.868548 40 1.93548 40H12.2581C13.325 40 14.1935 39.1315 14.1935 38.0645V36.129H12.9032V30.3226C12.9032 29.2556 12.0347 28.3871 10.9677 28.3871H7.09677V22.5806H8.3871C8.3871 25.0702 10.4136 27.0968 12.9032 27.0968H27.0968C29.3671 27.0968 31.2465 25.4105 31.5613 23.2258H34.1935V28.3871H29.6774V40H40V28.3871H35.4839V21.9355H31.5587C31.4916 21.4812 31.3524 21.049 31.1574 20.6452H34.1935V12.9032H37.4194V11.6129H36.129V10.3226H38.0645ZM9.03226 10.3226H1.29032V3.87097H9.03226V10.3226ZM1.93548 1.29032H8.3871C8.74306 1.29032 9.03226 1.57952 9.03226 1.93548V2.58065H1.29032V1.93548C1.29032 1.57952 1.57952 1.29032 1.93548 1.29032ZM1.29032 14.8387V11.6129H9.03226V14.8387C9.03226 15.1947 8.74306 15.4839 8.3871 15.4839H1.93548C1.57952 15.4839 1.29032 15.1947 1.29032 14.8387ZM12.9032 38.0645C12.9032 38.4205 12.614 38.7097 12.2581 38.7097H1.93548C1.57952 38.7097 1.29032 38.4205 1.29032 38.0645V37.4194H12.9032V38.0645ZM11.6129 30.3226V36.129H2.58065V30.3226C2.58065 29.9666 2.86984 29.6774 3.22581 29.6774H10.9677C11.3237 29.6774 11.6129 29.9666 11.6129 30.3226ZM30.9677 38.7097V34.8387H38.7097V38.7097H30.9677ZM38.7097 33.5484H30.9677V29.6774H38.7097V33.5484ZM27.0968 25.8064H12.9032C11.1246 25.8064 9.67742 24.3593 9.67742 22.5806C9.67742 20.9498 10.8981 19.5741 12.5161 19.3806L12.9395 19.3297L13.0589 18.9201C13.5361 17.2766 15.0645 16.129 16.7742 16.129C17.4865 16.129 18.1858 16.329 18.7988 16.7065L19.4147 17.0864L19.7219 16.4302C20.3569 15.071 21.7323 14.1935 23.2258 14.1935C25.3607 14.1935 27.0968 15.9296 27.0968 18.0645C27.0968 18.2425 27.0806 18.4322 27.0457 18.6611L26.9484 19.2994L27.5863 19.3961C29.1463 19.6343 30.3226 21.0034 30.3226 22.5806C30.3226 24.3593 28.8754 25.8064 27.0968 25.8064ZM29.0323 1.29032H38.0645C38.4205 1.29032 38.7097 1.57952 38.7097 1.93548V6.45161H28.3871V1.93548C28.3871 1.57952 28.6763 1.29032 29.0323 1.29032ZM28.3871 8.3871V7.74194H38.7097V8.3871C38.7097 8.74306 38.4205 9.03226 38.0645 9.03226H29.0323C28.6763 9.03226 28.3871 8.74306 28.3871 8.3871ZM34.8387 11.6129H32.2581V10.3226H34.8387V11.6129Z" fill="#2B76C1"/>
<path d="M32.2583 30.9678H33.5486V32.2581H32.2583V30.9678ZM36.1293 36.1291H37.4196V37.4194H36.1293V36.1291ZM34.8389 30.9678H37.4196V32.2581H34.8389V30.9678ZM32.2583 36.1291H34.8389V37.4194H32.2583V36.1291Z" fill="#2B76C1"/>
</svg>
