<svg width="35" height="40" viewBox="0 0 35 40" fill="none" xmlns="http://www.w3.org/2000/svg">
<path d="M33.6239 4.73052C29.2285 4.73052 21.2307 3.83552 18.7255 0.536854C18.2998 -0.132051 17.3682 -0.191582 16.8594 0.446854C13.9099 3.74489 5.89358 4.73052 1.17187 4.73052C0.524608 4.73052 0 5.25692 0 5.90661V24.7274C0 33.2043 9.75764 38.3825 17.1497 39.9926C18.1042 40.2001 34.7957 35.9719 34.7957 24.7274V5.90669C34.7957 5.25731 34.2712 4.7306 33.6238 4.7306L33.6239 4.73052ZM32.452 24.7275C32.452 33.5614 19.378 37.1433 17.3977 37.6343C15.4175 37.1433 2.34375 33.5614 2.34375 24.7275V7.06973C11.3931 6.86067 15.9061 4.25419 17.7002 2.84122C21.3153 6.03856 27.6373 6.96051 32.452 7.07012V24.7275Z" fill="#2B76C1"/>
<path d="M11.542 15.2778V18.8459H10.3662C9.71918 18.8459 9.19434 19.3727 9.19434 20.022V29.4324C9.19434 30.0822 9.71918 30.6089 10.3662 30.6089H24.4287C25.076 30.6089 25.6006 30.0822 25.6006 29.4324V20.022C25.6006 19.3727 25.076 18.8459 24.4287 18.8459H13.8857V15.2779C13.8857 13.4395 15.3335 11.7882 17.4329 11.7882C19.35 11.7882 20.9094 13.3534 20.9094 15.2779C20.9094 15.9273 21.4343 16.454 22.0813 16.454C22.7286 16.454 23.2532 15.9273 23.2532 15.2779C23.2532 12.0564 20.6424 9.43555 17.4329 9.43555C14.0207 9.43555 11.542 12.1626 11.542 15.2778ZM23.2568 28.2563H11.5381V21.1985H23.2568V28.2563Z" fill="#2B76C1"/>
<path d="M18.5693 24.7279C18.5693 24.0782 18.0448 23.5518 17.3975 23.5518C16.7506 23.5518 16.2256 24.0782 16.2256 24.7279C16.2256 25.3776 16.7506 25.9043 17.3975 25.9043C18.0448 25.9043 18.5693 25.3776 18.5693 24.7279Z" fill="#2B76C1"/>
</svg>
