<svg width="58" height="58" viewBox="0 0 58 58" fill="none" xmlns="http://www.w3.org/2000/svg">
<path d="M52.9023 8.60938H5.09766C2.28114 8.60938 0 10.9047 0 13.707V44.293C0 47.112 2.29791 49.3906 5.09766 49.3906H52.9023C55.6953 49.3906 58 47.1216 58 44.293V13.707C58 10.9097 55.7279 8.60938 52.9023 8.60938ZM52.1884 12.0078L32.6046 31.4885C31.6417 32.4513 30.3616 32.9815 29 32.9815C27.6384 32.9815 26.3583 32.4512 25.3922 31.4853L5.81155 12.0078H52.1884ZM3.39844 43.6013V14.4009L18.084 29.0091L3.39844 43.6013ZM5.81371 45.9922L20.4935 31.4058L22.9924 33.8915C24.5971 35.4962 26.7306 36.3799 29 36.3799C31.2694 36.3799 33.4029 35.4962 35.0045 33.8947L37.5065 31.4058L52.1863 45.9922H5.81371ZM54.6016 43.6013L39.916 29.0091L54.6016 14.4009V43.6013Z" fill="black"/>
</svg>
