<svg width="18" height="13" viewBox="0 0 18 13" fill="none" xmlns="http://www.w3.org/2000/svg">
<path fill-rule="evenodd" clip-rule="evenodd" d="M1.44565 0.747572L6.8553 5.79731C8.03516 6.89608 9.96382 6.89703 11.1447 5.79731L16.5543 0.747572C16.5671 0.735707 16.5769 0.721361 16.5831 0.705552C16.5893 0.689742 16.5917 0.672857 16.5901 0.656093C16.5885 0.639329 16.583 0.623096 16.5739 0.608546C16.5649 0.593996 16.5525 0.581485 16.5376 0.5719C15.9859 0.212857 15.3146 0 14.5914 0H3.40857C2.68539 0 2.01407 0.212894 1.46231 0.5719C1.44749 0.581485 1.4351 0.593996 1.42604 0.608546C1.41697 0.623096 1.41145 0.639329 1.40986 0.656093C1.40827 0.672857 1.41065 0.689742 1.41684 0.705552C1.42302 0.721361 1.43286 0.735707 1.44565 0.747572ZM1.08525e-06 3.18037C-0.000439372 2.66729 0.133199 2.16184 0.389338 1.70782C0.39828 1.69181 0.411143 1.678 0.426882 1.66751C0.442621 1.65701 0.460792 1.65013 0.479918 1.64742C0.499044 1.64471 0.518585 1.64625 0.536954 1.65191C0.555322 1.65758 0.571999 1.6672 0.58563 1.68001L5.9268 6.66367C7.61818 8.24413 10.3808 8.24504 12.0732 6.66367L17.4144 1.68001C17.428 1.6672 17.4447 1.65758 17.463 1.65191C17.4814 1.64625 17.501 1.64471 17.5201 1.64742C17.5392 1.65013 17.5574 1.65701 17.5731 1.66751C17.5889 1.678 17.6017 1.69181 17.6107 1.70782C17.8668 2.16185 18.0004 2.66729 18 3.18037V9.81959C18 11.5746 16.47 13 14.5914 13H3.40857C1.53005 13 1.08525e-06 11.5746 1.08525e-06 9.81959V3.18037Z" fill="black"/>
</svg>
