<svg width="45" height="45" viewBox="0 0 45 45" fill="none" xmlns="http://www.w3.org/2000/svg">
<g clip-path="url(#clip0_0_10770)">
<path d="M45 22.5C45 10.0736 34.9264 2.28882e-05 22.5 2.28882e-05C10.0736 2.28882e-05 0 10.0736 0 22.5C0 33.7304 8.22793 43.0387 18.9844 44.7267V29.0039H13.2715V22.5H18.9844V17.543C18.9844 11.9039 22.3435 8.78909 27.483 8.78909C29.9446 8.78909 32.5195 9.22854 32.5195 9.22854V14.7656H29.6823C26.8873 14.7656 26.0156 16.5 26.0156 18.2794V22.5H32.2559L31.2583 29.0039H26.0156V44.7267C36.7721 43.0387 45 33.7304 45 22.5Z" fill="#1877F2"/>
<path d="M31.2583 29.0039L32.2559 22.5H26.0156V18.2794C26.0156 16.5 26.8873 14.7656 29.6823 14.7656H32.5195V9.22852C32.5195 9.22852 29.9446 8.78906 27.483 8.78906C22.3435 8.78906 18.9844 11.9039 18.9844 17.543V22.5H13.2715V29.0039H18.9844V44.7267C20.1299 44.9064 21.304 45 22.5 45C23.696 45 24.8701 44.9064 26.0156 44.7267V29.0039H31.2583Z" fill="white"/>
</g>
<defs>
<clipPath id="clip0_0_10770">
<rect width="45" height="45" fill="white"/>
</clipPath>
</defs>
</svg>
