<svg width="80" height="80" viewBox="0 0 80 80" fill="none" xmlns="http://www.w3.org/2000/svg">
<path d="M25.4997 75C28.8149 75 31.9943 73.7357 34.3385 71.4853C36.6827 69.2348 37.9997 66.1826 37.9997 63V51H25.4997C22.1845 51 19.0051 52.2643 16.6609 54.5147C14.3167 56.7652 12.9998 59.8174 12.9998 63C12.9998 66.1826 14.3167 69.2348 16.6609 71.4853C19.0051 73.7357 22.1845 75 25.4997 75Z" fill="#0ACF83"/>
<path d="M12.9998 39.0002C12.9998 35.8176 14.3167 32.7654 16.6609 30.515C19.0051 28.2645 22.1845 27.0002 25.4997 27.0002H37.9997V51.0002H25.4997C22.1845 51.0002 19.0051 49.736 16.6609 47.4855C14.3167 45.2351 12.9998 42.1828 12.9998 39.0002Z" fill="#A259FF"/>
<path d="M12.9998 15C12.9998 11.819 14.3154 8.7682 16.6575 6.51803C18.9995 4.26786 22.1764 3.00249 25.4899 3L37.9899 3V27H25.4997C22.1845 27 19.0051 25.7357 16.6609 23.4853C14.3167 21.2348 12.9998 18.1826 12.9998 15Z" fill="#F24E1E"/>
<path d="M37.9998 3H50.4997C53.8149 3 56.9943 4.26428 59.3385 6.51472C61.6827 8.76516 62.9997 11.8174 62.9997 15C62.9997 18.1826 61.6827 21.2348 59.3385 23.4853C56.9943 25.7357 53.8149 27 50.4997 27H37.9998V3Z" fill="#FF7262"/>
<path d="M62.9997 39.0002C62.9997 42.1828 61.6827 45.2351 59.3385 47.4855C56.9943 49.736 53.8149 51.0002 50.4997 51.0002C47.1845 51.0002 44.0051 49.736 41.6609 47.4855C39.3167 45.2351 37.9998 42.1828 37.9998 39.0002C37.9998 35.8176 39.3167 32.7654 41.6609 30.515C44.0051 28.2645 47.1845 27.0002 50.4997 27.0002C53.8149 27.0002 56.9943 28.2645 59.3385 30.515C61.6827 32.7654 62.9997 35.8176 62.9997 39.0002Z" fill="#1ABCFE"/>
</svg>
