<svg width="50" height="50" viewBox="0 0 50 50" fill="none" xmlns="http://www.w3.org/2000/svg">
<path fill-rule="evenodd" clip-rule="evenodd" d="M45.8062 0C47.3487 0 48.7766 0.814028 49.5001 2.13731C50.1932 3.40483 50.1638 4.89848 49.4232 6.13826L49.398 6.17995L42.9072 16.7687C42.1731 17.966 40.8481 18.7133 39.4318 18.7293L39.3855 18.7295L31.9735 18.7295L35.0542 25.6074L35.0665 25.6276L35.0854 25.66C35.8109 26.9388 35.7933 28.4592 35.0409 29.7189L35.0155 29.7608L28.5247 40.3495C27.7907 41.5468 26.4656 42.2942 25.0494 42.3101L25.0032 42.3104L15.9058 42.3103L9.36584 49.0371L9.35347 49.0496C8.73804 49.6597 7.90653 50 7.03958 50C6.82286 50 6.606 49.9786 6.39147 49.936C5.33394 49.7254 4.4553 49.0178 4.03237 48.0418L4.02044 48.0139L0.578771 40.3093L0.560666 40.2798L0.541862 40.2479C0.538739 40.2425 0.535562 40.237 0.532244 40.2311C-0.19327 38.9524 -0.175697 37.4321 0.576603 36.1723L0.601952 36.1304L6.89737 25.8605L2.25859 15.5041L2.3436 15.4619L2.34231 15.4556C2.14603 14.503 2.30403 13.5096 2.80811 12.6394L2.83595 12.5921L2.86168 12.5496L9.35253 1.96081C10.0866 0.763532 11.4118 0.0161933 12.8279 0H45.8062ZM11.7241 42.2298L4.82759 42.2297L6.85316 46.7992L6.85814 46.8113C6.89172 46.8932 6.94604 46.938 7.02687 46.9542C7.09898 46.9687 7.15732 46.9537 7.2125 46.9047L7.22215 46.8955L11.7241 42.2298ZM31.4392 26.5203H10.5926C10.5696 26.5203 10.5465 26.521 10.5236 26.5226L10.5172 26.523L16.2332 39.2737H25.0022C25.3626 39.2737 25.7098 39.0855 25.9073 38.7832L25.9229 38.7585L32.4231 28.1633C32.6171 27.8472 32.6385 27.4805 32.4849 27.1505C32.3077 26.77 31.8965 26.5203 31.4392 26.5203ZM8.42556 29.1385L3.26654 37.6183C3.06125 37.9558 3.04935 38.3511 3.23318 38.6989L3.25268 38.7343L3.26307 38.7516L3.28389 38.7848L3.32515 38.8447L3.37121 38.9031L3.41528 38.9522L3.42292 38.9602L3.45272 38.9896L3.47861 39.0136C3.6409 39.1573 3.84151 39.2449 4.06277 39.2674L4.11247 39.2716L4.14125 39.2731L4.17772 39.2737H12.931L8.42556 29.1385ZM7.06897 18.75L9.33475 23.8176L9.37889 23.8029C9.77017 23.6752 10.1793 23.606 10.5929 23.5997L10.6549 23.5992L30.8621 23.5992L28.694 18.7501L7.06897 18.75ZM45.7486 2.95608H24.8276L30.5453 15.7095H39.3111C39.6722 15.7095 40.0197 15.5212 40.2172 15.2187L40.2329 15.194L46.7335 4.59896C46.9274 4.28299 46.9488 3.91657 46.7953 3.58687C46.6218 3.21416 46.2239 2.96678 45.7777 2.95642L45.7486 2.95608ZM21.6249 2.95608H12.9076C12.5491 2.95608 12.2034 3.14393 12.0067 3.44589L11.9911 3.47063L5.50756 14.0658C5.314 14.3821 5.2926 14.7493 5.44609 15.0797C5.61897 15.4521 6.01476 15.6988 6.45819 15.7091L6.48718 15.7095H27.3276L21.6249 2.95608Z" fill="#2B76C1"/>
</svg>
