<svg width="80" height="80" viewBox="0 0 80 80" fill="none" xmlns="http://www.w3.org/2000/svg">
<g opacity="0.8">
<mask id="mask0_0_551" style="mask-type:luminance" maskUnits="userSpaceOnUse" x="13" y="5" width="55" height="70">
<path d="M68 37.3009L49.6667 56.1505L68 75H47.0504L28.7105 56.1505L47.0504 37.3009H68ZM47.0504 5L13 39.9966L23.4781 50.7659L68 5H47.0504Z" fill="white"/>
</mask>
<g mask="url(#mask0_0_551)">
<path d="M28.7173 56.1505L39.1888 66.9198L68.0002 37.301H47.0506L28.7173 56.1505Z" fill="#39CEFD"/>
</g>
<mask id="mask1_0_551" style="mask-type:luminance" maskUnits="userSpaceOnUse" x="13" y="5" width="55" height="70">
<path d="M68 37.3009L49.6667 56.1505L68 75H47.0504L28.7105 56.1505L47.0504 37.3009H68ZM47.0504 5L13 39.9966L23.4781 50.7659L68 5H47.0504Z" fill="white"/>
</mask>
<g mask="url(#mask1_0_551)">
<path d="M47.0504 5H68L23.4781 50.7659L13 39.9966L47.0504 5Z" fill="#39CEFD"/>
</g>
<mask id="mask2_0_551" style="mask-type:luminance" maskUnits="userSpaceOnUse" x="13" y="5" width="55" height="70">
<path d="M68 37.3009L49.6667 56.1505L68 75H47.0504L28.7105 56.1505L47.0504 37.3009H68ZM47.0504 5L13 39.9966L23.4781 50.7659L68 5H47.0504Z" fill="white"/>
</mask>
<g mask="url(#mask2_0_551)">
<path d="M39.1885 66.9196L47.0503 74.9932H67.9999L49.6665 56.1504L39.1885 66.9196Z" fill="#03569B"/>
</g>
<mask id="mask3_0_551" style="mask-type:luminance" maskUnits="userSpaceOnUse" x="13" y="5" width="55" height="70">
<path d="M68 37.3009L49.6667 56.1505L68 75H47.0504L28.7105 56.1505L47.0504 37.3009H68ZM47.0504 5L13 39.9966L23.4781 50.7659L68 5H47.0504Z" fill="white"/>
</mask>
<g mask="url(#mask3_0_551)">
<path d="M54.7285 61.3867L49.6665 56.1504L39.1885 66.9196L54.7285 61.3867Z" fill="url(#paint0_linear_0_551)"/>
</g>
<mask id="mask4_0_551" style="mask-type:luminance" maskUnits="userSpaceOnUse" x="13" y="5" width="55" height="70">
<path d="M68 37.3009L49.6667 56.1505L68 75H47.0504L28.7105 56.1505L47.0504 37.3009H68ZM47.0504 5L13 39.9966L23.4781 50.7659L68 5H47.0504Z" fill="white"/>
</mask>
<g mask="url(#mask4_0_551)">
<path d="M28.7158 56.1468L39.1941 45.3772L49.6731 56.1468L39.1941 66.9163L28.7158 56.1468Z" fill="#16B9FD"/>
</g>
<path d="M68 37.3009L49.6667 56.1505L68 75H47.0504L28.7105 56.1505L47.0504 37.3009H68ZM47.0504 5L13 39.9966L23.4781 50.7659L68 5H47.0504Z" fill="url(#paint1_radial_0_551)"/>
</g>
<defs>
<linearGradient id="paint0_linear_0_551" x1="42.2463" y1="68.9979" x2="50.264" y2="61.1971" gradientUnits="userSpaceOnUse">
<stop stop-color="#1A237E" stop-opacity="0.4"/>
<stop offset="1" stop-color="#1A237E" stop-opacity="0"/>
</linearGradient>
<radialGradient id="paint1_radial_0_551" cx="0" cy="0" r="1" gradientUnits="userSpaceOnUse" gradientTransform="translate(14.5451 9.771) scale(83.3211 85.6364)">
<stop stop-color="white" stop-opacity="0.1"/>
<stop offset="1" stop-color="white" stop-opacity="0"/>
</radialGradient>
</defs>
</svg>
