<svg width="36" height="40" viewBox="0 0 36 40" fill="none" xmlns="http://www.w3.org/2000/svg">
<path d="M35.7098 5.37718L34.0005 3.87202L35.7098 2.36726C35.9756 2.13289 36.0665 1.76757 35.9417 1.43617C35.8163 1.10445 35.5066 0.890233 35.1522 0.890233H28.0788V0.586249C28.0788 0.509262 28.0637 0.433028 28.0342 0.361901C28.0048 0.290774 27.9616 0.226147 27.9071 0.171708C27.8527 0.11727 27.7881 0.0740873 27.7169 0.0446255C27.6458 0.0151638 27.5696 0 27.4926 0C27.4156 0 27.3394 0.0151638 27.2683 0.0446255C27.1971 0.0740873 27.1325 0.11727 27.0781 0.171708C27.0236 0.226147 26.9804 0.290774 26.951 0.361901C26.9215 0.433028 26.9064 0.509262 26.9064 0.586249V8.49272L22.0916 11.1072C22.0646 10.8923 22.0001 10.6839 21.9012 10.4913L21.2228 9.16686C20.7571 8.25748 19.6384 7.89702 18.7295 8.3624L18.2049 8.631C17.7643 8.85678 17.438 9.24006 17.2861 9.71131C17.2107 9.94273 17.182 10.1868 17.2016 10.4294C17.2213 10.672 17.2889 10.9083 17.4005 11.1246L18.0789 12.4494C18.2314 12.7474 18.4622 12.9981 18.7466 13.1747C18.3864 13.6597 18.2156 14.256 18.0398 14.8755L17.9135 15.3229C17.8925 15.3969 17.8863 15.4744 17.8953 15.5509C17.9043 15.6274 17.9283 15.7013 17.9659 15.7685C18.0034 15.8357 18.0539 15.8949 18.1143 15.9426C18.1748 15.9902 18.2441 16.0255 18.3182 16.0465C18.3713 16.0617 18.425 16.0687 18.4778 16.0687C18.6054 16.0686 18.7295 16.0268 18.8313 15.9498C18.9331 15.8727 19.0069 15.7646 19.0417 15.6418L19.1681 15.1953C19.425 14.2892 19.5828 13.804 20.0851 13.5312L20.9857 13.042L21.0968 12.9852C21.1337 12.9663 21.1682 12.9449 21.2032 12.9239L27.6217 9.4385C27.5811 10.2408 27.1493 10.9988 26.4382 11.4307L22.2643 13.9666C22.2595 13.9694 22.2546 13.9721 22.25 13.9752L20.9508 14.7643C20.818 14.8452 20.7227 14.9755 20.6858 15.1265C20.649 15.2776 20.6736 15.4371 20.7543 15.57C20.9128 15.831 21.2423 15.9237 21.5112 15.7928L20.5255 18.7725L19.805 19.0679L17.8457 19.8709L18.4103 17.875C18.4525 17.7254 18.4336 17.5651 18.3578 17.4293C18.2819 17.2936 18.1552 17.1935 18.0056 17.1511C17.6937 17.0626 17.37 17.2443 17.2818 17.5558L16.3897 20.7104C16.3778 20.752 16.3707 20.7948 16.3686 20.838L16.1352 25.1263C16.1282 25.2899 16.163 25.599 16.0873 25.7586L13.4945 31.2133H11.6104C10.5065 31.2133 9.60881 32.1111 9.60881 33.2146V34.9068C9.34872 34.7877 9.06597 34.7262 8.7799 34.7265H3.99507C2.89156 34.7265 1.99375 35.624 1.99375 36.7278V38.8274H0.586249C0.430766 38.8274 0.281651 38.8892 0.171708 38.9991C0.0617653 39.1091 0 39.2582 0 39.4137C0 39.5692 0.0617653 39.7183 0.171708 39.8282C0.281651 39.9382 0.430766 39.9999 0.586249 39.9999H35.1515C35.307 39.9999 35.4561 39.9382 35.566 39.8282C35.676 39.7183 35.7377 39.5692 35.7377 39.4137C35.7377 39.2582 35.676 39.1091 35.566 38.9991C35.4561 38.8892 35.307 38.8274 35.1515 38.8274H33.6269V23.7167C33.6269 22.6132 32.7291 21.7153 31.6256 21.7153H28.0788V11.488C28.7288 10.607 28.9697 9.45217 28.6679 8.35475C28.6445 8.26956 28.6022 8.19077 28.5441 8.12429C28.4859 8.0578 28.4134 8.00534 28.3321 7.97084C28.2522 7.93685 28.1657 7.92103 28.0788 7.92452V6.85421H35.1519C35.5066 6.85421 35.8163 6.63999 35.9414 6.30858C36.0665 5.97718 35.9756 5.61155 35.7098 5.37718ZM18.402 10.0714C18.4292 9.98623 18.473 9.90732 18.5309 9.83922C18.5888 9.77112 18.6596 9.71519 18.7393 9.67467L19.2639 9.40608C19.3594 9.35695 19.4653 9.33132 19.5727 9.33131C19.8199 9.33131 20.0589 9.46647 20.1791 9.70123L20.8578 11.026C21.0162 11.3354 20.9136 11.7105 20.632 11.9L20.441 12.0035L20.0378 12.2101C19.7043 12.381 19.2935 12.2485 19.1226 11.9147L18.4439 10.5902C18.403 10.5108 18.3782 10.4241 18.371 10.335C18.3639 10.246 18.3744 10.1564 18.4021 10.0715L18.402 10.0714ZM17.2242 31.3937C17.0208 31.3008 16.8032 31.2428 16.5805 31.2222L17.2242 30.3674V31.3937ZM20.0077 26.6699C20.2896 26.3321 20.3675 25.9374 20.4303 25.6195C20.4462 25.5437 20.7355 23.9635 20.7355 23.9635C20.7355 23.9635 21.0093 24.1342 21.0379 24.1464C21.0479 24.151 21.0565 24.1581 21.0628 24.1671C21.0692 24.1761 21.073 24.1866 21.0739 24.1976L21.3928 27.4396H19.4281L20.0077 26.6699ZM23.4745 23.4341L22.9795 27.4367H22.5709L22.241 24.0828C22.2204 23.8723 22.146 23.6706 22.0251 23.4971C21.9042 23.3235 21.7407 23.1839 21.5503 23.0917L20.9607 22.7178L21.3535 20.5411C21.3535 20.5411 23.0082 22.5067 23.0466 22.5567C23.389 23.002 23.5062 23.1802 23.4745 23.4341ZM17.1421 26.2713C17.2605 25.9149 17.3154 25.552 17.3063 25.183L17.5193 21.2719L20.2307 20.1608L19.7379 22.8909C19.7364 22.8982 19.7348 22.9058 19.7339 22.9132L19.3262 25.1706C19.2731 25.4043 19.2268 25.7589 19.0809 25.9515L15.1193 31.2133H14.7928L17.1421 26.2713ZM3.16632 36.7275C3.16632 36.2707 3.53796 35.899 3.99515 35.899H8.77998C9.23709 35.899 9.60912 36.2707 9.60912 36.7275V38.8275H3.16617L3.16632 36.7275ZM10.7813 36.7275V33.2146C10.7813 32.7575 11.1533 32.3858 11.6104 32.3858H16.3953C16.8525 32.3858 17.2242 32.7575 17.2242 33.2147V38.8274H10.7816V36.7275H10.7813ZM32.4545 23.7167V38.8274H26.012V35.3124C26.012 35.2354 25.9968 35.1592 25.9674 35.0881C25.9379 35.017 25.8947 34.9523 25.8403 34.8979C25.7858 34.8435 25.7212 34.8003 25.6501 34.7708C25.579 34.7413 25.5027 34.7262 25.4257 34.7262C25.3487 34.7261 25.2724 34.7413 25.2013 34.7707C25.1301 34.8002 25.0655 34.8433 25.011 34.8978C24.9565 34.9522 24.9133 35.0169 24.8838 35.088C24.8543 35.1592 24.8392 35.2354 24.8392 35.3124V38.8274H18.3967V29.4406C18.3967 28.9837 18.7683 28.612 19.2255 28.612H24.0103C24.4675 28.612 24.8392 28.9837 24.8392 29.4406V32.3794C24.8392 32.5349 24.901 32.684 25.0109 32.7939C25.1209 32.9038 25.2699 32.9656 25.4254 32.9656C25.5024 32.9657 25.5787 32.9505 25.6498 32.9211C25.7209 32.8916 25.7856 32.8484 25.84 32.794C25.8945 32.7396 25.9377 32.6749 25.9671 32.6038C25.9966 32.5326 26.0117 32.4564 26.0117 32.3794V23.7167C26.0117 23.2596 26.3837 22.8878 26.8409 22.8878H27.4866C27.4885 22.8878 27.4905 22.8882 27.4927 22.8882C27.4946 22.8882 27.4967 22.8878 27.4985 22.8878H31.6254C32.0825 22.8878 32.4545 23.2599 32.4545 23.7168V23.7167ZM26.8409 21.7153C25.7374 21.7153 24.8395 22.6132 24.8395 23.7167V27.6199C24.6251 27.5219 24.395 27.4629 24.1599 27.4456L24.6381 23.5785C24.7321 22.8246 24.3475 22.3251 23.9759 21.8418C23.9365 21.7904 21.6578 19.0847 21.6578 19.0847L23.0557 14.8581L26.9065 12.5186V21.7153H26.8409ZM28.0788 5.68147V2.06296H34.2809L32.9452 3.23913C32.8553 3.31832 32.7832 3.41574 32.7339 3.52491C32.6845 3.63409 32.659 3.75252 32.6589 3.87234C32.6589 4.11468 32.7633 4.34538 32.9452 4.50562L34.2809 5.68179H28.0788V5.68147Z" fill="#2B76C1"/>
</svg>
