<svg width="70" height="74" viewBox="0 0 70 74" fill="none" xmlns="http://www.w3.org/2000/svg">
<path d="M0 0L4.92045 64.7647L35.0002 74L65.0796 64.7647L70 0H0Z" fill="#FF7816"/>
<path d="M70.0002 0L65.0798 64.7647L35.0002 74V0H70.0002Z" fill="#FF4B00"/>
<path d="M56.8637 19.6562H22.467L23.3022 30.4961H56.0284L54.0319 56.7427L35 62.6831L15.9681 56.7427L15.3184 47.9844H24.6023L24.7879 50.3691L35.0002 53.5341L45.2124 50.3691L46.0477 39.168H14.6221L12.4868 10.9844H57.5135L56.8637 19.6562Z" fill="#ECECF1"/>
<path d="M56.0284 30.4961L54.0319 56.7427L35 62.6831V53.5342L45.2122 50.3691L46.0476 39.168H35V30.4961H56.0284ZM57.5135 10.9844L56.8636 19.6562H35.0002V10.9844H57.5135Z" fill="#E2E2E7"/>
</svg>
