<svg width="40" height="40" viewBox="0 0 40 40" fill="none" xmlns="http://www.w3.org/2000/svg">
<path d="M3.75323 34.2401L1.08354 1H38.9165L36.2468 34.2401L20.0001 38.9587L3.75323 34.2401Z" stroke="#2B76C1" stroke-width="2"/>
<path d="M36.2468 34.2401L21 38.6682V1H38.9165L36.2468 34.2401Z" stroke="#2B76C1" stroke-width="2"/>
<path d="M7.6769 6.4375H32.3236L32.0315 10.125H12.8382H12.2958L12.3398 10.6656L12.8171 16.525L12.8545 16.9844H13.3155H31.4744L30.4045 30.2894L19.9999 33.3614L9.59613 30.2896L9.29404 26.4375H13.5978L13.6661 27.2676L13.6943 27.6098L14.0238 27.7064L19.8594 29.4172L20 29.4584L20.1407 29.4172L25.9763 27.7064L26.307 27.6094L26.3341 27.2659L26.8113 21.2112L26.8538 20.6719H26.3129H8.81697L7.6769 6.4375Z" fill="#2B76C1" stroke="#2B76C1"/>
<path d="M26.3129 20.6719H20.5V16.9844H31.4744L30.4045 30.2894L20.5 33.2138V29.3119L25.9762 27.7064L26.3069 27.6094L26.334 27.2659L26.8114 21.2112L26.8539 20.6719H26.3129ZM32.0316 10.125H20.5001V6.4375H32.3237L32.0316 10.125Z" fill="#2B76C1" stroke="#2B76C1"/>
</svg>
