<svg width="68" height="68" viewBox="0 0 68 68" fill="none" xmlns="http://www.w3.org/2000/svg">
<path d="M10.6215 0H57.3785C63.2491 0 68 4.74977 68 10.619V57.381C68 63.2502 63.2491 68 57.3785 68H10.6215C4.7509 68 0 63.2502 0 57.381V10.635C0 4.74976 4.7509 0 10.6215 0Z" fill="#330000"/>
<path d="M33.1601 41.3888H22.7785L20.651 48.3135C20.587 48.5534 20.3631 48.7294 20.1072 48.7134H14.8444C14.5405 48.7134 14.4445 48.5534 14.5245 48.2176L23.4824 22.3418C23.5783 22.0699 23.6583 21.766 23.7543 21.4142C23.8822 20.9184 23.9303 20.3907 23.9303 19.8789C23.9143 19.735 24.0102 19.5911 24.1702 19.5591C24.2022 19.5591 24.2182 19.5591 24.2502 19.5591H31.4005C31.6084 19.5591 31.7364 19.639 31.7524 19.783L41.974 48.2496C42.07 48.5534 41.974 48.6974 41.7021 48.6974H35.8634C35.6555 48.7134 35.4635 48.5854 35.4156 48.3775L33.1601 41.3888ZM24.3462 36.6071H31.9604C31.7844 36.0153 31.1605 34.624 30.9206 33.8723C30.6807 33.1207 30.3447 32.529 30.0888 31.6814C29.8169 30.8338 29.5449 29.9702 29.273 29.1226C29.001 28.275 28.7611 27.4434 28.5212 26.6437C28.2972 25.8441 28.0893 25.1245 27.9133 24.4688H27.8653C27.6094 25.6842 27.2895 26.8836 26.9215 28.0671C26.5056 29.4104 26.0737 30.7858 25.6418 32.1931C25.2099 33.6165 24.7621 35.4236 24.3462 36.6071Z" fill="#FF9A00"/>
<path d="M48.085 24.2771C47.1572 24.3091 46.2614 23.9573 45.6055 23.2856C44.9657 22.5979 44.6298 21.6703 44.6618 20.7268C44.6298 19.7832 44.9977 18.8876 45.6695 18.232C46.3414 17.5923 47.2372 17.2404 48.1649 17.2724C49.1087 17.2244 50.0365 17.5763 50.7083 18.232C51.3322 18.9036 51.6681 19.7992 51.6361 20.7268C51.6681 21.6703 51.3322 22.5979 50.6763 23.2856C49.9885 23.9573 49.0447 24.3251 48.085 24.2771ZM45.1737 48.2818V27.7475C45.1737 27.4756 45.2856 27.3477 45.5256 27.3477H50.6284C50.8683 27.3477 50.9803 27.4756 50.9803 27.7475V48.2818C50.9803 48.5857 50.8683 48.7296 50.6284 48.7296H45.5736C45.3176 48.7296 45.1737 48.5857 45.1737 48.2818Z" fill="#FF9A00"/>
</svg>
