<svg width="40" height="40" viewBox="0 0 40 40" fill="none" xmlns="http://www.w3.org/2000/svg">
<g clip-path="url(#clip0_0_2356)">
<path d="M17.4349 9.5651H16.5652V8.69576C16.5652 3.01092 19.5761 0 25.2609 0H26.1304V0.869673C26.1304 6.55418 23.1195 9.5651 17.4349 9.5651ZM24.3585 1.77179C20.576 2.03266 18.5979 4.01079 18.3259 7.8044C22.174 7.54361 24.1085 5.60877 24.3585 1.77179ZM24.3913 40.0001C22.9906 39.9991 21.611 39.6598 20.3696 39.011C19.4686 38.5285 18.4624 38.2761 17.4403 38.2761C16.4182 38.2761 15.412 38.5285 14.5109 39.011C13.2695 39.6597 11.8897 39.999 10.489 40.0001C4.64142 40.0001 0.0541992 31.9782 0.0541992 21.7392C0.0541992 15.5108 4.73917 10.4348 10.489 10.4348C11.5656 10.4348 12.635 10.6147 13.652 10.9675L16.8804 12.0868C17.2502 12.2145 17.652 12.2145 18.0217 12.0868L21.239 10.9675C22.2529 10.6163 23.3182 10.4363 24.3913 10.4348C27.5324 10.4348 30.4672 11.9458 32.4674 14.5761L33.2281 15.5869L32.0107 15.9346C28.8848 16.8354 26.8028 19.7849 27.0012 23.0321C27.1993 26.2792 29.6246 28.9536 32.8368 29.4672L33.8262 29.6303L33.5217 30.5869C31.7174 36.3912 28.2066 40.0001 24.3913 40.0001ZM17.4349 36.5217C18.739 36.532 20.0215 36.8564 21.1737 37.4675C22.1653 37.991 23.2701 38.2633 24.3914 38.2607C27.2392 38.2607 29.9456 35.489 31.576 30.9674C27.8317 29.9168 25.2482 26.4974 25.2609 22.6086C25.2759 19.2273 27.2401 16.1582 30.3041 14.7284C28.7065 13.0979 26.6086 12.1738 24.3914 12.1738C23.5108 12.174 22.6365 12.321 21.8043 12.6088L18.5762 13.7281C17.84 13.9809 17.0406 13.9809 16.3044 13.7281L13.0652 12.6088C12.2331 12.3209 11.3587 12.1738 10.4781 12.1738C5.68466 12.1738 1.7827 16.4674 1.7827 21.7392C1.7827 30.6958 5.76072 38.2607 10.4781 38.2607C11.5994 38.2637 12.7043 37.9913 13.6957 37.4675C14.848 36.8564 16.1306 36.5319 17.4349 36.5217Z" fill="#2B76C1"/>
</g>
<defs>
<clipPath id="clip0_0_2356">
<rect width="40" height="40" fill="white"/>
</clipPath>
</defs>
</svg>
