<svg width="24" height="24" viewBox="0 0 24 24" fill="none" xmlns="http://www.w3.org/2000/svg">
<g clip-path="url(#clip0_113_36)">
<path d="M20.7273 0H3.27273C1.46525 0 0 1.46525 0 3.27273V20.7273C0 22.5347 1.46525 24 3.27273 24H20.7273C22.5347 24 24 22.5347 24 20.7273V3.27273C24 1.46525 22.5347 0 20.7273 0Z" fill="black"/>
<path d="M8.64535 6.54545C8.64535 6.95001 8.52539 7.34548 8.30063 7.68185C8.07587 8.01822 7.75642 8.28039 7.38266 8.43521C7.0089 8.59002 6.59763 8.63053 6.20085 8.55161C5.80407 8.47268 5.43961 8.27787 5.15354 7.99181C4.86748 7.70575 4.67267 7.34128 4.59375 6.9445C4.51482 6.54772 4.55533 6.13645 4.71015 5.76269C4.86496 5.38894 5.12713 5.06948 5.46351 4.84472C5.79988 4.61996 6.19535 4.5 6.5999 4.5C7.14239 4.5 7.66266 4.7155 8.04625 5.0991C8.42985 5.4827 8.64535 6.00297 8.64535 6.54545ZM8.18172 9.95455V18.9914C8.18208 19.058 8.16926 19.1241 8.14399 19.1858C8.11873 19.2475 8.08152 19.3036 8.03451 19.3509C7.98749 19.3981 7.9316 19.4356 7.87004 19.4612C7.80849 19.4868 7.74248 19.5 7.67581 19.5H5.5199C5.45323 19.5002 5.38719 19.4872 5.32556 19.4618C5.26394 19.4363 5.20794 19.399 5.1608 19.3518C5.11366 19.3047 5.0763 19.2487 5.05087 19.1871C5.02544 19.1254 5.01245 19.0594 5.01263 18.9927V9.95455C5.01263 9.82001 5.06607 9.69098 5.1612 9.59585C5.25634 9.50072 5.38536 9.44727 5.5199 9.44727H7.67581C7.81011 9.44763 7.93879 9.50124 8.03362 9.59633C8.12846 9.69142 8.18172 9.82025 8.18172 9.95455ZM19.4508 14.6591V19.0336C19.451 19.0949 19.439 19.1557 19.4157 19.2123C19.3923 19.269 19.358 19.3205 19.3146 19.3638C19.2713 19.4072 19.2198 19.4415 19.1631 19.4649C19.1065 19.4882 19.0457 19.5002 18.9844 19.5H16.6663C16.605 19.5002 16.5442 19.4882 16.4876 19.4649C16.4309 19.4415 16.3794 19.4072 16.3361 19.3638C16.2928 19.3205 16.2584 19.269 16.235 19.2123C16.2117 19.1557 16.1997 19.0949 16.1999 19.0336V14.7941C16.1999 14.1614 16.3854 12.0232 14.5458 12.0232C13.1208 12.0232 12.8304 13.4864 12.7731 14.1436V19.0336C12.7731 19.1562 12.7249 19.2738 12.6389 19.361C12.5529 19.4483 12.436 19.4982 12.3135 19.5H10.0744C10.0133 19.5 9.95269 19.4879 9.89618 19.4645C9.83968 19.441 9.78835 19.4066 9.74516 19.3633C9.70196 19.32 9.66774 19.2686 9.64445 19.212C9.62116 19.1554 9.60927 19.0948 9.60944 19.0336V9.915C9.60927 9.85382 9.62116 9.79321 9.64445 9.73663C9.66774 9.68006 9.70196 9.62864 9.74516 9.58531C9.78835 9.54199 9.83968 9.50762 9.89618 9.48416C9.95269 9.46071 10.0133 9.44864 10.0744 9.44864H12.3135C12.4372 9.44864 12.5558 9.49777 12.6433 9.58523C12.7308 9.67269 12.7799 9.79131 12.7799 9.915V10.7032C13.309 9.90955 14.0931 9.29727 15.7663 9.29727C19.4726 9.29727 19.4508 12.7582 19.4508 14.6591Z" fill="white"/>
</g>
<defs>
<clipPath id="clip0_113_36">
<rect width="24" height="24" fill="white"/>
</clipPath>
</defs>
</svg>
