<svg width="14" height="18" viewBox="0 0 14 18" fill="none" xmlns="http://www.w3.org/2000/svg">
<path d="M7 0C5.14348 0 3.36301 0.695257 2.05025 1.93282C0.737498 3.17039 0 4.84889 0 6.59907C0 10.0846 6.23636 17.4575 6.50364 17.7755C6.56326 17.8456 6.63882 17.9021 6.72473 17.941C6.81064 17.9798 6.90471 18 7 18C7.09529 18 7.18936 17.9798 7.27527 17.941C7.36118 17.9021 7.43674 17.8456 7.49636 17.7755C7.76364 17.4575 14 10.0846 14 6.59907C14 4.84889 13.2625 3.17039 11.9497 1.93282C10.637 0.695257 8.85651 0 7 0ZM7 8.39882C6.49656 8.39882 6.00442 8.25808 5.58582 7.9944C5.16722 7.73072 4.84097 7.35595 4.64831 6.91747C4.45565 6.47899 4.40524 5.99649 4.50346 5.531C4.60167 5.06552 4.8441 4.63794 5.20009 4.30234C5.55608 3.96674 6.00964 3.73819 6.50341 3.6456C6.99718 3.55301 7.50898 3.60053 7.9741 3.78216C8.43922 3.96378 8.83677 4.27135 9.11647 4.66598C9.39617 5.0606 9.54545 5.52455 9.54545 5.99916C9.54545 6.63559 9.27727 7.24595 8.79991 7.69597C8.32254 8.146 7.6751 8.39882 7 8.39882Z" fill="black"/>
</svg>
