<svg width="58" height="58" viewBox="0 0 58 58" fill="none" xmlns="http://www.w3.org/2000/svg">
<path d="M29 0C17.4176 0 7.99463 9.42296 7.99463 21.0053C7.99463 35.3793 26.7924 56.4812 27.5927 57.3725C28.3445 58.2098 29.6569 58.2083 30.4073 57.3725C31.2077 56.4812 50.0054 35.3793 50.0054 21.0053C50.0052 9.42296 40.5824 0 29 0ZM29 53.2115C22.6736 45.6966 11.7773 30.8705 11.7773 21.0055C11.7773 11.5087 19.5033 3.78269 29 3.78269C38.4967 3.78269 46.2227 11.5087 46.2227 21.0054C46.2226 30.8708 35.328 45.6943 29 53.2115Z" fill="black"/>
<path d="M29.0001 10.437C23.1727 10.437 18.4319 15.1779 18.4319 21.0054C18.4319 26.8328 23.1728 31.5737 29.0001 31.5737C34.8274 31.5737 39.5682 26.8328 39.5682 21.0054C39.5682 15.1779 34.8274 10.437 29.0001 10.437ZM29.0001 27.791C25.2584 27.791 22.2146 24.747 22.2146 21.0054C22.2146 17.2637 25.2586 14.2197 29.0001 14.2197C32.7417 14.2197 35.7857 17.2637 35.7857 21.0054C35.7857 24.747 32.7417 27.791 29.0001 27.791Z" fill="black"/>
</svg>
