<svg width="202" height="55" viewBox="0 0 202 55" fill="none" xmlns="http://www.w3.org/2000/svg">
<path d="M32.7549 17.3621C31.2329 19.919 29.7109 22.476 28.128 25.033C28.1889 24.7894 29.0412 20.0408 24.9623 16.8142C22.3444 14.7442 18.6308 14.0746 15.2824 15.0486C15.2215 24.7894 15.0997 34.5302 15.0388 44.2102C13.0298 44.2102 11.0208 44.2102 9.01172 44.2102C9.01172 32.9474 9.01172 21.7454 9.01172 10.4826C9.01172 10.4826 18.3264 9.14327 25.3276 11.8829C27.3366 12.6743 30.0762 14.1963 32.7549 17.3621Z" fill="#2B76C1"/>
<path d="M44.6271 31.9731L44.5662 32.2775C44.3835 33.1907 44.14 34.043 43.8356 34.8344C42.9224 37.4523 41.4004 39.6439 39.6349 40.9833C39.6349 40.9833 39.574 40.9833 39.574 41.0442C38.4173 41.8965 37.3214 42.5053 36.2256 42.9315C33.6078 43.9664 28.7374 44.21 28.7374 44.21C25.6934 44.3317 21.9797 44.3926 17.8398 44.2708C24.5975 33.008 31.4161 21.8061 38.1738 10.5433L45.2967 10.4824C39.0261 20.5276 32.7554 30.5728 26.4239 40.618C27.398 40.7398 28.8591 40.8615 30.6246 40.7398C35.9212 40.2527 39.4522 37.6349 40.609 36.7217C41.6439 35.8694 43.2877 34.2865 44.6271 31.9731Z" fill="#2B76C1"/>
<path d="M52.9663 22.1715C52.4184 18.8839 50.8355 15.84 49.0091 13.1004C48.8873 12.9177 48.6438 12.5524 48.5221 12.4307C48.4003 12.3089 48.1568 11.8828 48.035 11.761C47.8524 11.5784 47.6698 11.3348 47.548 11.0913C47.4262 10.9695 47.1218 10.6043 47.0001 10.4825C46.1477 9.50843 45.2345 8.59523 44.2605 7.80379C42.4949 6.28179 40.4859 4.94243 38.3551 3.90746C36.1025 2.81162 33.6065 2.02019 31.1104 1.59403C19.3605 -0.475888 7.6107 5.61211 2.67942 16.2661C2.49678 16.6314 2.1315 16.7532 1.76622 16.6314C1.34006 16.5096 1.15741 16.0226 1.34005 15.6573C4.99285 7.74291 12.4202 1.95931 21.1261 0.437306C28.7361 -0.962934 36.894 1.04611 43.0429 5.79475C48.2785 9.75195 51.8705 15.7182 52.9663 22.1715Z" fill="#2B76C1"/>
<path d="M2.19168 18.4578C2.19168 18.8231 2.00904 19.1884 1.70464 19.371C1.64376 19.4319 1.58288 19.4319 1.46112 19.4928C1.33936 19.5536 1.2176 19.5537 1.09584 19.5537C0.669682 19.5537 0.365278 19.3101 0.121758 19.0057C0.0608782 18.8231 0 18.6404 0 18.4578C0 18.0316 0.24352 17.6055 0.6088 17.4837C0.6088 17.4837 0.608799 17.4837 0.669679 17.4837C0.791439 17.4228 0.913202 17.4229 1.09584 17.4229C1.522 17.4229 1.8264 17.6664 2.00904 17.9708C2.00904 18.0316 2.06992 18.0316 2.06992 18.0925C2.1308 18.1534 2.19168 18.2752 2.19168 18.4578Z" fill="#2B76C1"/>
<path d="M0.121338 34.1035C1.1563 37.9998 2.6783 40.2524 4.74822 42.8702C4.86998 43.0529 5.17438 43.3573 5.29614 43.5399C5.4179 43.6617 5.7223 44.027 5.84406 44.1487C6.0267 44.3314 6.20934 44.5749 6.39198 44.7575C6.51374 44.8793 6.81814 45.2446 6.9399 45.3663C7.8531 46.2795 8.82718 47.1318 9.86214 47.8624C11.7494 49.2626 13.8193 50.4194 16.0719 51.3326C18.4462 52.2458 20.9423 52.8546 23.4384 53.0981C35.31 54.3157 46.6337 47.3754 50.7735 36.417C50.8953 36.0517 51.2606 35.869 51.6258 35.9908C52.052 36.1126 52.2346 36.5387 52.1129 36.904C49.0689 45.0619 42.0068 51.3326 33.4836 53.5242C25.9953 55.4724 17.7157 54.0722 11.2624 49.7497C5.7223 46.1578 1.70422 40.435 0.121338 34.1035Z" fill="#2B76C1"/>
<path d="M51.0781 34.1645C51.0781 33.7993 51.1999 33.434 51.5043 33.2513C51.5652 33.1905 51.626 33.1296 51.6869 33.1296C51.8087 33.0687 51.9304 33.0078 52.0522 33.0078C52.4784 33.0078 52.8437 33.1905 53.0263 33.4949C53.1481 33.6166 53.2089 33.7993 53.2089 33.9819C53.2698 34.4081 53.0263 34.8342 52.661 35.0169C52.661 35.0169 52.661 35.0169 52.6001 35.0169C52.4784 35.0777 52.3566 35.1386 52.174 35.1386C51.8087 35.1386 51.4434 34.956 51.1999 34.6516C51.1999 34.5907 51.139 34.5907 51.139 34.5298C51.139 34.4689 51.0781 34.2863 51.0781 34.1645Z" fill="#2B76C1"/>
<path d="M201.518 27.2772H196.222L191.412 22.0415L186.663 27.2772H181.367L188.794 19.1193L182.037 11.6919H187.333L191.412 16.197L195.552 11.6919H200.849L194.091 19.1193L201.518 27.2772Z" fill="#2B76C1"/>
<path d="M180.333 18.6931V27.2772H176.254V18.5105C176.254 17.9017 176.071 17.2929 175.706 16.8058C175.219 16.1361 174.245 15.4665 172.48 15.4665H166.635V27.2772H162.617V13.8227C162.617 12.666 163.591 11.6919 164.748 11.6919H173.271C177.228 11.6919 180.333 14.8577 180.333 18.6931Z" fill="#2B76C1"/>
<path d="M159.877 11.6919V28.9818C159.877 31.7214 157.686 33.9131 154.946 33.9131H147.64V30.0168H154.459C155.555 30.0168 155.798 29.2862 155.798 28.7992C155.798 28.7383 155.798 28.6774 155.798 28.6165C155.798 28.3121 155.798 27.9469 155.798 27.6425V11.6919H159.877Z" fill="#2B76C1"/>
<path d="M154.519 23.5026V27.2772H147.335C144.656 27.2772 142.465 25.0855 142.465 22.4068V11.6919H146.3V21.6762C146.3 21.798 146.3 21.9197 146.3 22.0415C146.3 22.1024 146.3 22.1024 146.3 22.1633C146.3 22.5894 146.544 23.5026 147.761 23.5026H154.519Z" fill="#2B76C1"/>
<path d="M147.031 21.9805V22.224C146.97 22.0413 147.031 21.9805 147.031 21.9805Z" fill="#931C1C"/>
<path d="M147.031 21.9805V22.224C146.97 22.0413 147.031 21.9805 147.031 21.9805Z" fill="#931C1C"/>
<path d="M140.824 23.5026V27.2772H124.326C122.986 27.2772 121.89 26.1813 121.89 24.842V6.69971H125.908V23.5026H140.824Z" fill="#2B76C1"/>
<path d="M120.184 11.6919C119.21 14.7968 118.053 17.1711 117.079 18.754C116.592 19.6063 116.166 20.276 115.496 21.1283C113.122 24.1723 110.443 25.5117 109.773 25.8769C109.713 25.8769 109.713 25.9378 109.652 25.9378C107.825 26.7901 105.877 27.2163 103.868 27.2163C102.59 27.2163 101.555 26.1813 101.555 24.9029V11.6919H105.573V23.2591C113.244 22.5894 116.044 11.6919 116.044 11.6919H120.184Z" fill="#2B76C1"/>
<path d="M58.9998 8.76958V25.0854C58.9998 26.3639 60.0347 27.3989 61.3132 27.3989H70.9931C75.8026 27.3989 79.7598 23.5025 79.7598 18.6321V15.2229C79.7598 10.4742 75.9244 6.69965 71.2366 6.69965H61.1306C59.9738 6.63877 58.9998 7.55198 58.9998 8.76958ZM62.957 23.5634V10.4742H71.1758C71.1758 10.4742 74.1589 10.4742 75.4374 13.0921C75.7418 13.7009 75.8635 14.4314 75.8635 15.1011V18.6321C75.8635 19.6062 75.5591 20.5194 75.0721 21.3109C74.4633 22.2241 73.4283 23.1981 71.8454 23.5025C71.541 23.5634 71.2366 23.5634 70.8714 23.5634H62.957Z" fill="#2B76C1"/>
<path d="M95.8331 16.8669C95.8331 16.0145 95.1635 15.284 94.2503 15.284H87.6752C86.0923 15.284 86.0923 16.806 86.0923 16.9277V22.0417C86.0923 22.9549 86.8229 23.6854 87.7361 23.6854H94.4329V27.2773H87.4926C84.6921 27.2773 82.3787 24.9639 82.3787 22.1634V16.9886C82.3787 14.0664 84.753 11.7529 87.6143 11.7529H94.4329C97.2943 11.7529 99.6077 14.0664 99.6077 16.9277C99.6077 19.7282 97.3551 22.0417 94.4938 22.0417H87.4926V18.4497H94.1894C95.1026 18.3889 95.8331 17.7192 95.8331 16.8669Z" fill="#2B76C1"/>
<path d="M62.1718 45.3301V37.3611H59.0518V36.2301H66.5788V37.3611H63.4588V45.3301H62.1718ZM70.1697 45.4081C69.433 45.4081 68.783 45.2564 68.2197 44.9531C67.665 44.6497 67.2317 44.2337 66.9197 43.7051C66.6164 43.1764 66.4647 42.5697 66.4647 41.8851C66.4647 41.2004 66.612 40.5937 66.9067 40.0651C67.21 39.5364 67.6217 39.1247 68.1417 38.8301C68.6704 38.5267 69.264 38.3751 69.9227 38.3751C70.59 38.3751 71.1794 38.5224 71.6907 38.8171C72.202 39.1117 72.6007 39.5277 72.8867 40.0651C73.1814 40.5937 73.3287 41.2134 73.3287 41.9241C73.3287 41.9761 73.3244 42.0367 73.3157 42.1061C73.3157 42.1754 73.3114 42.2404 73.3027 42.3011H67.4397V41.4041H72.6527L72.1457 41.7161C72.1544 41.2741 72.0634 40.8797 71.8727 40.5331C71.682 40.1864 71.4177 39.9177 71.0797 39.7271C70.7504 39.5277 70.3647 39.4281 69.9227 39.4281C69.4894 39.4281 69.1037 39.5277 68.7657 39.7271C68.4277 39.9177 68.1634 40.1907 67.9727 40.5461C67.782 40.8927 67.6867 41.2914 67.6867 41.7421V41.9501C67.6867 42.4094 67.7907 42.8211 67.9987 43.1851C68.2154 43.5404 68.5144 43.8177 68.8957 44.0171C69.277 44.2164 69.7147 44.3161 70.2087 44.3161C70.616 44.3161 70.9844 44.2467 71.3137 44.1081C71.6517 43.9694 71.9464 43.7614 72.1977 43.4841L72.8867 44.2901C72.5747 44.6541 72.1847 44.9314 71.7167 45.1221C71.2574 45.3127 70.7417 45.4081 70.1697 45.4081ZM78.0647 45.4081C77.3627 45.4081 76.7343 45.2564 76.1797 44.9531C75.6337 44.6497 75.2047 44.2337 74.8927 43.7051C74.5807 43.1764 74.4247 42.5697 74.4247 41.8851C74.4247 41.2004 74.5807 40.5937 74.8927 40.0651C75.2047 39.5364 75.6337 39.1247 76.1797 38.8301C76.7343 38.5267 77.3627 38.3751 78.0647 38.3751C78.6887 38.3751 79.2433 38.5007 79.7287 38.7521C80.2227 38.9947 80.604 39.3587 80.8727 39.8441L79.9237 40.4551C79.6983 40.1171 79.421 39.8701 79.0917 39.7141C78.771 39.5494 78.4243 39.4671 78.0517 39.4671C77.601 39.4671 77.198 39.5667 76.8427 39.7661C76.4873 39.9654 76.2057 40.2471 75.9977 40.6111C75.7897 40.9664 75.6857 41.3911 75.6857 41.8851C75.6857 42.3791 75.7897 42.8081 75.9977 43.1721C76.2057 43.5361 76.4873 43.8177 76.8427 44.0171C77.198 44.2164 77.601 44.3161 78.0517 44.3161C78.4243 44.3161 78.771 44.2381 79.0917 44.0821C79.421 43.9174 79.6983 43.6661 79.9237 43.3281L80.8727 43.9261C80.604 44.4027 80.2227 44.7711 79.7287 45.0311C79.2433 45.2824 78.6887 45.4081 78.0647 45.4081ZM86.0786 38.3751C86.6419 38.3751 87.1359 38.4834 87.5606 38.7001C87.9939 38.9167 88.3319 39.2461 88.5746 39.6881C88.8172 40.1301 88.9386 40.6891 88.9386 41.3651V45.3301H87.6906V41.5081C87.6906 40.8407 87.5259 40.3381 87.1966 40.0001C86.8759 39.6621 86.4209 39.4931 85.8316 39.4931C85.3896 39.4931 85.0039 39.5797 84.6746 39.7531C84.3452 39.9264 84.0896 40.1821 83.9076 40.5201C83.7342 40.8581 83.6476 41.2784 83.6476 41.7811V45.3301H82.3996V35.6841H83.6476V40.2991L83.4006 39.8051C83.6259 39.3544 83.9726 39.0034 84.4406 38.7521C84.9086 38.5007 85.4546 38.3751 86.0786 38.3751ZM94.9272 38.3751C95.4905 38.3751 95.9845 38.4834 96.4092 38.7001C96.8425 38.9167 97.1805 39.2461 97.4232 39.6881C97.6659 40.1301 97.7872 40.6891 97.7872 41.3651V45.3301H96.5392V41.5081C96.5392 40.8407 96.3745 40.3381 96.0452 40.0001C95.7245 39.6621 95.2695 39.4931 94.6802 39.4931C94.2382 39.4931 93.8525 39.5797 93.5232 39.7531C93.1939 39.9264 92.9382 40.1821 92.7562 40.5201C92.5829 40.8581 92.4962 41.2784 92.4962 41.7811V45.3301H91.2482V38.4401H92.4442V40.2991L92.2492 39.8051C92.4745 39.3544 92.8212 39.0034 93.2892 38.7521C93.7572 38.5007 94.3032 38.3751 94.9272 38.3751ZM103.048 45.4081C102.354 45.4081 101.739 45.2564 101.202 44.9531C100.664 44.6497 100.24 44.2337 99.9278 43.7051C99.6158 43.1677 99.4598 42.5611 99.4598 41.8851C99.4598 41.2004 99.6158 40.5937 99.9278 40.0651C100.24 39.5364 100.664 39.1247 101.202 38.8301C101.739 38.5267 102.354 38.3751 103.048 38.3751C103.732 38.3751 104.343 38.5267 104.881 38.8301C105.427 39.1247 105.851 39.5364 106.155 40.0651C106.467 40.5851 106.623 41.1917 106.623 41.8851C106.623 42.5697 106.467 43.1764 106.155 43.7051C105.851 44.2337 105.427 44.6497 104.881 44.9531C104.343 45.2564 103.732 45.4081 103.048 45.4081ZM103.048 44.3161C103.49 44.3161 103.884 44.2164 104.231 44.0171C104.586 43.8177 104.863 43.5361 105.063 43.1721C105.262 42.7994 105.362 42.3704 105.362 41.8851C105.362 41.3911 105.262 40.9664 105.063 40.6111C104.863 40.2471 104.586 39.9654 104.231 39.7661C103.884 39.5667 103.49 39.4671 103.048 39.4671C102.606 39.4671 102.211 39.5667 101.865 39.7661C101.518 39.9654 101.241 40.2471 101.033 40.6111C100.825 40.9664 100.721 41.3911 100.721 41.8851C100.721 42.3704 100.825 42.7994 101.033 43.1721C101.241 43.5361 101.518 43.8177 101.865 44.0171C102.211 44.2164 102.606 44.3161 103.048 44.3161ZM108.349 45.3301V35.6841H109.597V45.3301H108.349ZM114.931 45.4081C114.237 45.4081 113.622 45.2564 113.085 44.9531C112.547 44.6497 112.123 44.2337 111.811 43.7051C111.499 43.1677 111.343 42.5611 111.343 41.8851C111.343 41.2004 111.499 40.5937 111.811 40.0651C112.123 39.5364 112.547 39.1247 113.085 38.8301C113.622 38.5267 114.237 38.3751 114.931 38.3751C115.615 38.3751 116.226 38.5267 116.764 38.8301C117.31 39.1247 117.734 39.5364 118.038 40.0651C118.35 40.5851 118.506 41.1917 118.506 41.8851C118.506 42.5697 118.35 43.1764 118.038 43.7051C117.734 44.2337 117.31 44.6497 116.764 44.9531C116.226 45.2564 115.615 45.4081 114.931 45.4081ZM114.931 44.3161C115.373 44.3161 115.767 44.2164 116.114 44.0171C116.469 43.8177 116.746 43.5361 116.946 43.1721C117.145 42.7994 117.245 42.3704 117.245 41.8851C117.245 41.3911 117.145 40.9664 116.946 40.6111C116.746 40.2471 116.469 39.9654 116.114 39.7661C115.767 39.5667 115.373 39.4671 114.931 39.4671C114.489 39.4671 114.094 39.5667 113.748 39.7661C113.401 39.9654 113.124 40.2471 112.916 40.6111C112.708 40.9664 112.604 41.3911 112.604 41.8851C112.604 42.3704 112.708 42.7994 112.916 43.1721C113.124 43.5361 113.401 43.8177 113.748 44.0171C114.094 44.2164 114.489 44.3161 114.931 44.3161ZM123.248 47.9301C122.615 47.9301 122 47.8391 121.402 47.6571C120.812 47.4837 120.331 47.2324 119.959 46.9031L120.557 45.9411C120.877 46.2184 121.272 46.4351 121.74 46.5911C122.208 46.7557 122.697 46.8381 123.209 46.8381C124.023 46.8381 124.621 46.6474 125.003 46.2661C125.384 45.8847 125.575 45.3041 125.575 44.5241V43.0681L125.705 41.7031L125.64 40.3251V38.4401H126.823V44.3941C126.823 45.6074 126.519 46.5001 125.913 47.0721C125.306 47.6441 124.418 47.9301 123.248 47.9301ZM123.092 45.0441C122.424 45.0441 121.826 44.9054 121.298 44.6281C120.778 44.3421 120.362 43.9477 120.05 43.4451C119.746 42.9424 119.595 42.3617 119.595 41.7031C119.595 41.0357 119.746 40.4551 120.05 39.9611C120.362 39.4584 120.778 39.0684 121.298 38.7911C121.826 38.5137 122.424 38.3751 123.092 38.3751C123.681 38.3751 124.218 38.4964 124.704 38.7391C125.189 38.9731 125.575 39.3371 125.861 39.8311C126.155 40.3251 126.303 40.9491 126.303 41.7031C126.303 42.4484 126.155 43.0681 125.861 43.5621C125.575 44.0561 125.189 44.4287 124.704 44.6801C124.218 44.9227 123.681 45.0441 123.092 45.0441ZM123.235 43.9521C123.694 43.9521 124.101 43.8567 124.457 43.6661C124.812 43.4754 125.089 43.2111 125.289 42.8731C125.497 42.5351 125.601 42.1451 125.601 41.7031C125.601 41.2611 125.497 40.8711 125.289 40.5331C125.089 40.1951 124.812 39.9351 124.457 39.7531C124.101 39.5624 123.694 39.4671 123.235 39.4671C122.775 39.4671 122.364 39.5624 122 39.7531C121.644 39.9351 121.363 40.1951 121.155 40.5331C120.955 40.8711 120.856 41.2611 120.856 41.7031C120.856 42.1451 120.955 42.5351 121.155 42.8731C121.363 43.2111 121.644 43.4754 122 43.6661C122.364 43.8567 122.775 43.9521 123.235 43.9521ZM129.207 45.3301V38.4401H130.455V45.3301H129.207ZM129.831 37.1141C129.589 37.1141 129.385 37.0361 129.22 36.8801C129.064 36.7241 128.986 36.5334 128.986 36.3081C128.986 36.0741 129.064 35.8791 129.22 35.7231C129.385 35.5671 129.589 35.4891 129.831 35.4891C130.074 35.4891 130.273 35.5671 130.429 35.7231C130.594 35.8704 130.676 36.0567 130.676 36.2821C130.676 36.5161 130.598 36.7154 130.442 36.8801C130.286 37.0361 130.083 37.1141 129.831 37.1141ZM135.906 45.4081C135.169 45.4081 134.519 45.2564 133.956 44.9531C133.401 44.6497 132.968 44.2337 132.656 43.7051C132.353 43.1764 132.201 42.5697 132.201 41.8851C132.201 41.2004 132.348 40.5937 132.643 40.0651C132.946 39.5364 133.358 39.1247 133.878 38.8301C134.407 38.5267 135 38.3751 135.659 38.3751C136.326 38.3751 136.916 38.5224 137.427 38.8171C137.938 39.1117 138.337 39.5277 138.623 40.0651C138.918 40.5937 139.065 41.2134 139.065 41.9241C139.065 41.9761 139.061 42.0367 139.052 42.1061C139.052 42.1754 139.048 42.2404 139.039 42.3011H133.176V41.4041H138.389L137.882 41.7161C137.891 41.2741 137.8 40.8797 137.609 40.5331C137.418 40.1864 137.154 39.9177 136.816 39.7271C136.487 39.5277 136.101 39.4281 135.659 39.4281C135.226 39.4281 134.84 39.5277 134.502 39.7271C134.164 39.9177 133.9 40.1907 133.709 40.5461C133.518 40.8927 133.423 41.2914 133.423 41.7421V41.9501C133.423 42.4094 133.527 42.8211 133.735 43.1851C133.952 43.5404 134.251 43.8177 134.632 44.0171C135.013 44.2164 135.451 44.3161 135.945 44.3161C136.352 44.3161 136.721 44.2467 137.05 44.1081C137.388 43.9694 137.683 43.7614 137.934 43.4841L138.623 44.2901C138.311 44.6541 137.921 44.9314 137.453 45.1221C136.994 45.3127 136.478 45.4081 135.906 45.4081ZM142.774 45.4081C142.202 45.4081 141.656 45.3301 141.136 45.1741C140.625 45.0181 140.222 44.8274 139.927 44.6021L140.447 43.6141C140.742 43.8134 141.106 43.9824 141.539 44.1211C141.972 44.2597 142.414 44.3291 142.865 44.3291C143.446 44.3291 143.862 44.2467 144.113 44.0821C144.373 43.9174 144.503 43.6877 144.503 43.3931C144.503 43.1764 144.425 43.0074 144.269 42.8861C144.113 42.7647 143.905 42.6737 143.645 42.6131C143.394 42.5524 143.112 42.5004 142.8 42.4571C142.488 42.4051 142.176 42.3444 141.864 42.2751C141.552 42.1971 141.266 42.0931 141.006 41.9631C140.746 41.8244 140.538 41.6381 140.382 41.4041C140.226 41.1614 140.148 40.8407 140.148 40.4421C140.148 40.0261 140.265 39.6621 140.499 39.3501C140.733 39.0381 141.062 38.7997 141.487 38.6351C141.92 38.4617 142.432 38.3751 143.021 38.3751C143.472 38.3751 143.927 38.4314 144.386 38.5441C144.854 38.6481 145.235 38.7997 145.53 38.9991L144.997 39.9871C144.685 39.7791 144.36 39.6361 144.022 39.5581C143.684 39.4801 143.346 39.4411 143.008 39.4411C142.462 39.4411 142.055 39.5321 141.786 39.7141C141.517 39.8874 141.383 40.1127 141.383 40.3901C141.383 40.6241 141.461 40.8061 141.617 40.9361C141.782 41.0574 141.99 41.1527 142.241 41.2221C142.501 41.2914 142.787 41.3521 143.099 41.4041C143.411 41.4474 143.723 41.5081 144.035 41.5861C144.347 41.6554 144.629 41.7551 144.88 41.8851C145.14 42.0151 145.348 42.1971 145.504 42.4311C145.669 42.6651 145.751 42.9771 145.751 43.3671C145.751 43.7831 145.63 44.1427 145.387 44.4461C145.144 44.7494 144.802 44.9877 144.36 45.1611C143.918 45.3257 143.389 45.4081 142.774 45.4081Z" fill="#2B76C1"/>
</svg>
