<svg width="44" height="44" viewBox="0 0 44 44" fill="none" xmlns="http://www.w3.org/2000/svg">
<path d="M20.5591 0.0118406C20.4645 0.0204414 20.1634 0.0505445 19.8925 0.0720468C13.643 0.635405 7.78925 4.00695 4.08172 9.18899C2.0172 12.0703 0.696774 15.3386 0.197849 18.8005C0.0215054 20.0089 0 20.3658 0 22.0043C0 23.6428 0.0215054 23.9997 0.197849 25.2081C1.39355 33.4693 7.27312 40.4102 15.2473 42.9819C16.6753 43.442 18.1806 43.756 19.8925 43.9452C20.5591 44.0183 23.4409 44.0183 24.1075 43.9452C27.0624 43.6183 29.5656 42.8873 32.0344 41.6272C32.4129 41.4337 32.486 41.3821 32.4344 41.3391C32.4 41.3133 30.7871 39.1502 28.8516 36.5355L25.3333 31.7835L20.9247 25.2597C18.4989 21.6732 16.5032 18.7403 16.486 18.7403C16.4688 18.736 16.4516 21.6345 16.443 25.1737C16.4301 31.3707 16.4258 31.6201 16.3484 31.7663C16.2366 31.977 16.1505 32.063 15.9699 32.1577C15.8323 32.2265 15.7118 32.2394 15.0624 32.2394H14.3183L14.1204 32.1147C13.9914 32.0329 13.8968 31.9254 13.8323 31.8007L13.7419 31.6072L13.7505 22.9848L13.7634 14.3581L13.8968 14.1904C13.9656 14.1001 14.1118 13.984 14.2151 13.9281C14.3914 13.8421 14.4602 13.8335 15.2043 13.8335C16.0817 13.8335 16.228 13.8679 16.4559 14.1173C16.5204 14.1861 18.9075 17.7813 21.7634 22.1118C24.6194 26.4424 28.5247 32.3555 30.443 35.2583L33.9269 40.5349L34.1032 40.4188C35.6645 39.4039 37.3161 37.959 38.6237 36.4538C41.4065 33.2586 43.2 29.3624 43.8022 25.2081C43.9785 23.9997 44 23.6428 44 22.0043C44 20.3658 43.9785 20.0089 43.8022 18.8005C42.6065 10.5393 36.7269 3.59841 28.7527 1.02675C27.3462 0.570898 25.8495 0.256966 24.172 0.0677463C23.7591 0.0247419 20.9161 -0.022563 20.5591 0.0118406ZM29.5656 13.3174C29.772 13.4206 29.9398 13.6184 30 13.8249C30.0344 13.9367 30.043 16.3277 30.0344 21.7162L30.0215 29.4484L28.6581 27.3584L27.2903 25.2683V19.6477C27.2903 16.0138 27.3075 13.9711 27.3333 13.8722C27.4022 13.6313 27.5527 13.4421 27.7591 13.3303C27.9355 13.24 28 13.2314 28.6753 13.2314C29.3118 13.2314 29.4237 13.24 29.5656 13.3174Z" fill="#2B76C1"/>
</svg>
