<svg width="44" height="44" viewBox="0 0 44 44" fill="none" xmlns="http://www.w3.org/2000/svg">
<path d="M20.0148 0.469418C21.217 -0.155062 22.783 -0.157882 23.9842 0.469418C30.0274 3.56815 36.0726 6.66203 42.1148 9.76265C43.2513 10.3436 44.0114 11.4913 43.9999 12.6796V31.3228C44.0083 32.5603 43.173 33.7355 41.9741 34.3032C35.9507 37.3849 29.9304 40.4703 23.908 43.5519C22.6809 44.1886 21.0835 44.1396 19.8948 43.4507C18.089 42.5007 16.28 41.5555 14.4741 40.6064C14.105 40.4068 13.689 40.2479 13.4284 39.9232C13.6588 39.6414 14.0707 39.6063 14.4053 39.4833C15.1591 39.2658 15.8514 38.9167 16.5439 38.5779C16.719 38.4691 16.9328 38.5108 17.1007 38.6081C18.6448 39.4116 20.1754 40.2383 21.7247 41.0341C22.0553 41.2073 22.3899 40.9774 22.6725 40.8345C28.5833 37.8029 34.5013 34.7829 40.4111 31.7504C40.63 31.6548 40.7511 31.4439 40.7333 31.2262C40.7374 25.0763 40.7343 18.9252 40.7354 12.7752C40.7604 12.5282 40.6029 12.3012 40.3568 12.2001C34.3543 9.13252 28.355 6.06027 22.3535 2.99194C22.2495 2.92707 22.1264 2.89226 22.0002 2.8921C21.874 2.89193 21.7507 2.92641 21.6465 2.991C15.6451 6.06027 9.64672 9.13535 3.64526 12.2027C3.40005 12.304 3.23547 12.5273 3.26466 12.7752C3.26569 18.9252 3.26466 25.0763 3.26466 31.2272C3.25425 31.3334 3.27996 31.4399 3.33831 31.5325C3.39666 31.625 3.48487 31.6991 3.59104 31.7448C5.19255 32.5689 6.79614 33.3872 8.39869 34.2085C9.30151 34.6495 10.41 34.9115 11.4047 34.5737C12.2825 34.288 12.8978 33.4752 12.881 32.6294C12.8893 26.5153 12.8769 20.4003 12.8872 14.2871C12.8653 14.0157 13.149 13.7914 13.4398 13.817C14.2093 13.8123 14.9799 13.8076 15.7494 13.8189C16.0706 13.8123 16.2916 14.1045 16.2519 14.378C16.2488 20.5308 16.2602 26.6838 16.2467 32.8366C16.2488 34.4764 15.5064 36.2606 13.8349 37.063C11.7758 38.031 9.23071 37.8257 7.19644 36.8975C5.43536 36.0999 3.75475 35.1585 2.02492 34.304C0.822838 33.7394 -0.00831312 32.5595 0.000148633 31.3229V12.6796C-0.0124576 11.4667 0.777939 10.2981 1.94981 9.72566C7.97215 6.6415 13.9935 3.55499 20.0148 0.469418Z" fill="#2B76C1"/>
<path d="M25.2689 13.3835C27.8955 13.2301 30.7074 13.2926 33.071 14.4668C34.901 15.3667 35.9155 17.2551 35.9478 19.1001C35.8967 19.3489 35.61 19.4862 35.3482 19.4691C34.5862 19.4682 33.8239 19.4785 33.0618 19.4644C32.7386 19.4757 32.5507 19.2052 32.5101 18.9459C32.2911 18.0631 31.7606 17.1889 30.845 16.7631C29.4395 16.1245 27.8099 16.1566 26.2772 16.1699C25.1584 16.2238 23.9553 16.3118 23.0074 16.9088C22.2797 17.3611 22.0586 18.2741 22.3184 19.0093C22.5632 19.5373 23.2348 19.7076 23.7843 19.8646C26.9497 20.6159 30.304 20.5411 33.4089 21.5298C34.6944 21.9329 35.952 22.7164 36.392 23.9378C36.9675 25.5747 36.7152 27.5314 35.4318 28.8455C34.391 29.927 32.8752 30.5156 31.3633 30.8353C29.352 31.2422 27.2647 31.2526 25.2221 31.0719C23.3015 30.8732 21.3028 30.4153 19.8201 29.2278C18.5522 28.2287 17.9329 26.6722 17.9944 25.1698C18.0091 24.9161 18.2875 24.7392 18.5553 24.76C19.3227 24.7544 20.0902 24.7525 20.8576 24.761C21.1641 24.7411 21.3914 24.9814 21.4071 25.2436C21.5487 26.0847 21.897 26.9674 22.7052 27.466C24.2649 28.3792 26.222 28.3167 28.0079 28.3422C29.4875 28.2826 31.1485 28.2646 32.3559 27.3772C32.9929 26.871 33.1817 26.0242 33.0095 25.2956C32.823 24.6806 32.114 24.3939 31.5051 24.2065C28.3802 23.3095 24.9885 23.635 21.8939 22.6206C20.6376 22.2178 19.4227 21.456 18.94 20.2848C18.2666 18.6271 18.5752 16.5768 19.9931 15.307C21.3756 14.0439 23.3714 13.5576 25.2689 13.3835Z" fill="#2B76C1"/>
</svg>
