<svg width="80" height="80" viewBox="0 0 80 80" fill="none" xmlns="http://www.w3.org/2000/svg">
<path d="M36.9319 6.72546C38.79 5.76036 41.2101 5.756 43.0665 6.72546C52.4061 11.5144 61.7486 16.2959 71.0865 21.0877C72.8429 21.9855 74.0177 23.7593 73.9998 25.5957V54.4079C74.0129 56.3205 72.722 58.1366 70.869 59.014C61.5601 63.7766 52.2561 68.545 42.9488 73.3075C41.0523 74.2915 38.5837 74.2157 36.7464 73.1511C33.9557 71.6829 31.1601 70.2221 28.369 68.7554C27.7987 68.4469 27.1558 68.2013 26.753 67.6995C27.109 67.264 27.7456 67.2098 28.2628 67.0197C29.4277 66.6835 30.4977 66.1439 31.5679 65.6203C31.8385 65.4523 32.1689 65.5167 32.4283 65.6671C34.8148 66.9088 37.1801 68.1865 39.5746 69.4163C40.0854 69.684 40.6026 69.3287 41.0393 69.1078C50.1741 64.4227 59.3202 59.7554 68.4534 55.0689C68.7919 54.9211 68.9789 54.5951 68.9515 54.2588C68.9579 44.7542 68.9531 35.248 68.9547 25.7435C68.9934 25.3618 68.75 25.0109 68.3696 24.8547C59.0931 20.1139 49.8213 15.3659 40.5463 10.6239C40.3856 10.5237 40.1953 10.4699 40.0003 10.4696C39.8053 10.4693 39.6147 10.5226 39.4537 10.6225C30.1787 15.3659 20.9086 20.1183 11.6336 24.8588C11.2546 25.0152 11.0003 25.3603 11.0454 25.7435C11.047 35.248 11.0454 44.7542 11.0454 54.2602C11.0293 54.4243 11.069 54.589 11.1592 54.732C11.2494 54.875 11.3857 54.9896 11.5498 55.0601C14.0249 56.3338 16.5031 57.5985 18.9798 58.8678C20.3751 59.5493 22.0882 59.9542 23.6254 59.4321C24.982 58.9906 25.9329 57.7343 25.907 56.4273C25.9198 46.9782 25.9006 37.5277 25.9166 28.0801C25.8827 27.6606 26.3212 27.314 26.7706 27.3535C27.9599 27.3463 29.1507 27.339 30.3399 27.3564C30.8363 27.3463 31.1779 27.7979 31.1166 28.2205C31.1118 37.7294 31.1294 47.2386 31.1086 56.7474C31.1118 59.2817 29.9644 62.0392 27.3813 63.2791C24.199 64.7751 20.2656 64.4579 17.1218 63.0234C14.4001 61.7907 11.8028 60.3359 9.12943 59.0153C7.27166 58.1427 5.98715 56.3193 6.00023 54.4082V25.5957C5.98075 23.7212 7.20227 21.9153 9.01334 21.0306C18.3206 16.2641 27.6263 11.4941 36.9319 6.72546Z" fill="#8CC84B"/>
<path d="M45.0516 26.684C49.1109 26.4469 53.4565 26.5435 57.1094 28.3582C59.9375 29.7488 61.5055 32.6674 61.5554 35.5186C61.4764 35.9032 61.0333 36.1154 60.6287 36.089C59.451 36.0875 58.273 36.1035 57.0952 36.0817C56.5956 36.0992 56.3053 35.6812 56.2425 35.2803C55.9041 33.9161 55.0843 32.565 53.6693 31.907C51.4971 30.9201 48.9785 30.9697 46.6099 30.9903C44.8808 31.0736 43.0214 31.2095 41.5565 32.1322C40.4319 32.8311 40.0903 34.2421 40.4916 35.3784C40.8701 36.1943 41.908 36.4576 42.7572 36.7003C47.6492 37.8613 52.8331 37.7458 57.6317 39.2737C59.6183 39.8966 61.5618 41.1075 62.2418 42.9951C63.1313 45.525 62.7414 48.5489 60.7579 50.5799C59.1494 52.2512 56.8067 53.1608 54.4702 53.6549C51.3618 54.2838 48.136 54.2998 44.9793 54.0206C42.011 53.7135 38.9221 53.0058 36.6307 51.1705C34.6712 49.6266 33.7142 47.221 33.8092 44.8992C33.8319 44.5071 34.2621 44.2337 34.676 44.2659C35.862 44.2571 37.0481 44.2542 38.2341 44.2673C38.7078 44.2366 39.059 44.6081 39.0833 45.0132C39.3022 46.313 39.8405 47.6773 41.0895 48.4479C43.5 49.8591 46.5245 49.7625 49.2846 49.802C51.5713 49.7099 54.1382 49.6821 56.0042 48.3106C56.9887 47.5283 57.2804 46.2196 57.0144 45.0936C56.7261 44.1431 55.6303 43.7001 54.6893 43.4105C49.86 42.0242 44.6182 42.5272 39.8357 40.9596C37.8941 40.3369 36.0166 39.1596 35.2706 37.3496C34.2298 34.7877 34.7067 31.619 36.8981 29.6566C39.0347 27.7046 42.1191 26.9531 45.0516 26.684Z" fill="#8CC84B"/>
</svg>
