<svg width="71" height="71" viewBox="0 0 71 71" fill="none" xmlns="http://www.w3.org/2000/svg">
<path d="M0 0H60C66.0751 0 71 4.92487 71 11V71H8C3.58172 71 0 67.4183 0 63V0Z" fill="#FF7014"/>
<g clip-path="url(#clip0_0_10208)">
<g clip-path="url(#clip1_0_10208)">
<path d="M32.9419 23.0503C34.4166 21.4085 36.5136 20.302 38.7538 20.3556C41.0828 20.28 42.9987 21.4885 44.6721 22.973C46.3665 20.9172 47.3842 18.2858 47.3842 15.4214C47.3842 8.86655 42.0548 3.53335 35.5011 3.52808H35.4915C28.9343 3.52808 23.5987 8.86304 23.5987 15.4214C23.5987 18.3253 24.6454 20.9911 26.3812 23.0583L32.9419 23.0503ZM30.75 13.4263C31.2641 12.9113 32.099 12.9113 32.614 13.4263L34.3612 15.1736L38.3882 11.1464C38.9032 10.6314 39.7381 10.6314 40.2522 11.1464C40.7673 11.6615 40.7673 12.4964 40.2522 13.0106L35.5011 17.7628C35.2114 18.0989 34.802 18.3747 34.3613 18.3561C34.0238 18.3561 33.6863 18.2278 33.4297 17.9703L30.75 15.2905C30.235 14.7754 30.235 13.9405 30.75 13.4263ZM43.9514 36.6469C43.9505 36.6469 39.2646 32.007 39.2646 32.007C39.1828 31.9258 39.0721 31.8804 38.9568 31.8807C38.8415 31.881 38.731 31.927 38.6496 32.0086C38.0257 32.6344 37.4016 33.26 36.7773 33.8854C34.9844 35.5008 32.9789 36.3543 30.9759 36.3543C29.8623 36.3785 28.6459 36.0611 27.6275 35.5061C26.0517 34.6694 25.2361 32.8694 25.6412 31.1256C25.9016 29.9277 26.6287 29.2752 27.5167 28.3975C28.2664 27.6425 29.2358 26.667 30.2114 25.6922L14.2947 25.7177C13.567 25.7186 13.0015 26.3101 13.0024 27.0387L13 37.6788C13.0009 38.4065 13.5924 38.9954 14.3209 38.9945L20.3557 38.9831L29.2629 47.8609C30.147 48.7424 31.5726 48.7495 32.4664 47.8873C33.3768 47.0075 33.3654 45.5292 32.4927 44.6186L34.3102 46.4292C35.1794 47.3054 36.6498 47.3292 37.5453 46.423C38.4373 45.5274 38.4347 44.079 37.5392 43.1878C38.4355 44.0886 39.9121 44.0605 40.7751 43.1807C41.6513 42.3124 41.6733 40.8393 40.769 39.9446C41.6368 40.8172 43.0446 40.8208 43.9188 40.0202C44.1787 39.7946 44.3703 39.5164 44.4936 39.2063C44.8503 38.3391 44.6403 37.2926 43.9514 36.6469Z" fill="white"/>
</g>
<path d="M56.6121 25.8607L45.7019 25.8818C45.059 25.8834 44.4221 25.7582 43.8276 25.5135C43.2332 25.2687 42.6928 24.9091 42.2374 24.4553C40.3716 22.5745 37.2631 22.5007 35.3964 24.3042C33.6791 25.9152 29.7532 29.894 28.5597 31.0911C28.3786 31.2739 28.2626 31.4927 28.2099 31.723C28.0798 32.2767 28.3145 32.8893 28.8638 33.1811C30.9669 34.2973 33.1737 33.5863 35.0123 31.9296L36.9572 29.9705C37.9609 28.8344 39.7285 28.7529 40.8075 29.8281L45.7678 34.7403C47.8453 36.6035 47.7847 40.2786 45.614 42.044C45.2763 42.3369 44.9005 42.5829 44.497 42.7753L47.2013 42.7709C50.6992 42.7638 51.4462 39.4029 51.4462 39.4029L56.6385 39.3915C57.3663 39.3906 58.0008 38.7991 57.9999 38.0705V27.1764C57.998 26.4487 57.3397 25.8598 56.6121 25.8607Z" fill="white"/>
</g>
<defs>
<clipPath id="clip0_0_10208">
<rect width="45" height="45" fill="white" transform="translate(13 13)"/>
</clipPath>
<clipPath id="clip1_0_10208">
<rect width="34" height="24" fill="white" transform="translate(13 24.5281)"/>
</clipPath>
</defs>
</svg>
