<svg width="68" height="68" viewBox="0 0 68 68" fill="none" xmlns="http://www.w3.org/2000/svg">
<path d="M12.0423 0H55.9577C62.6105 0 68 5.52726 68 12.3502V55.6498C68 62.4727 62.6105 68 55.9577 68H12.0423C5.38946 68 0 62.4727 0 55.6498V12.3502C0 5.52726 5.38946 0 12.0423 0Z" fill="#001E36"/>
<path d="M15.3047 47.6786V17.779C15.3047 17.5821 15.3846 17.4673 15.5926 17.4673C16.0723 17.4673 16.5201 17.4673 17.1758 17.4345C17.8635 17.4017 18.5672 17.4017 19.3348 17.3689C20.1024 17.3361 20.918 17.3361 21.7976 17.3033C22.6772 17.2705 23.5248 17.2705 24.3724 17.2705C26.6913 17.2705 28.6264 17.5657 30.2097 18.1726C31.633 18.6646 32.9284 19.4847 33.9999 20.5508C34.9115 21.4857 35.6151 22.6173 36.0629 23.8639C36.4947 25.0775 36.7186 26.3405 36.7186 27.6362C36.7186 30.1292 36.1589 32.1957 35.0234 33.8195C33.8879 35.4432 32.3047 36.6733 30.4655 37.3622C28.5465 38.0838 26.4195 38.3462 24.0846 38.3462C23.3969 38.3462 22.9491 38.3462 22.6612 38.3134C22.3734 38.2806 21.9735 38.2806 21.4458 38.2806V47.613C21.4778 47.8098 21.3338 47.9902 21.1419 48.023C21.11 48.023 21.078 48.023 21.03 48.023H15.6405C15.4166 48.0558 15.3047 47.941 15.3047 47.6786ZM21.4778 23.0766V32.8354C21.8776 32.8682 22.2454 32.901 22.5813 32.901H24.0846C25.188 32.901 26.2915 32.7206 27.347 32.3762C28.2586 32.1137 29.0422 31.5561 29.6659 30.8344C30.2576 30.1128 30.5455 29.1123 30.5455 27.8494C30.5775 26.9473 30.3536 26.0452 29.8898 25.258C29.41 24.5035 28.7224 23.9295 27.9068 23.6014C26.8512 23.1586 25.7318 22.9946 24.5643 23.0274C23.8287 23.0274 23.173 23.0274 22.6452 23.0602C22.0695 23.011 21.6697 23.0438 21.4778 23.0766Z" fill="#31A8FF"/>
<path d="M54.4062 31.064C53.5586 30.6048 52.6471 30.2767 51.6875 30.0799C50.632 29.8503 49.5925 29.7027 48.521 29.7027C47.9613 29.6699 47.3536 29.7683 46.8258 29.8995C46.458 29.9815 46.1381 30.1947 45.9462 30.4736C45.8023 30.7032 45.7223 30.9984 45.7223 31.2608C45.7223 31.5232 45.8343 31.7857 46.0102 32.0153C46.2661 32.3269 46.6019 32.5893 46.9697 32.8025C47.6254 33.147 48.2971 33.475 48.9848 33.7538C50.5201 34.2787 51.9914 35.0003 53.3507 35.8696C54.2783 36.4764 55.0459 37.2965 55.5897 38.2806C56.0375 39.2155 56.2774 40.2324 56.2454 41.2656C56.2774 42.627 55.8776 44.0047 55.1419 45.1364C54.3423 46.3009 53.2388 47.2029 51.9754 47.7278C50.584 48.3346 48.8888 48.6627 46.8418 48.6627C45.5464 48.6627 44.267 48.5478 42.9876 48.2854C41.9961 48.105 41.0046 47.7934 40.093 47.3505C39.9011 47.2357 39.7571 47.0389 39.7891 46.7929V41.7413C39.7891 41.6593 39.8211 41.5445 39.9011 41.4789C39.981 41.4133 40.077 41.4461 40.157 41.5117C41.2604 42.1841 42.4279 42.6434 43.6753 42.9386C44.7468 43.2338 45.8823 43.3814 47.0177 43.3814C48.0892 43.3814 48.8569 43.2338 49.3686 42.9714C49.8164 42.7746 50.1363 42.2661 50.1363 41.7577C50.1363 41.3476 49.9124 40.9704 49.4486 40.5932C49.0008 40.216 48.0572 39.7731 46.6659 39.2319C45.2266 38.707 43.8832 38.0182 42.6358 37.1325C41.7562 36.4929 41.0205 35.6564 40.4768 34.6559C40.029 33.721 39.7891 32.7041 39.8211 31.6873C39.8211 30.4408 40.157 29.2435 40.7807 28.1774C41.4843 27.0129 42.5398 26.078 43.7553 25.5039C45.0826 24.7987 46.7618 24.4871 48.7769 24.4871C49.9443 24.4871 51.1278 24.5691 52.2952 24.7495C53.1428 24.8643 53.9745 25.0939 54.7261 25.4219C54.838 25.4547 54.95 25.5696 55.014 25.6844C55.0459 25.7992 55.0779 25.914 55.0779 26.0288V30.7688C55.0779 30.8836 55.014 30.9984 54.934 31.064C54.6621 31.1296 54.5182 31.1296 54.4062 31.064Z" fill="#31A8FF"/>
</svg>
