<svg width="44" height="44" viewBox="0 0 44 44" fill="none" xmlns="http://www.w3.org/2000/svg">
<path d="M22 41.25C32.6315 41.25 41.25 32.6315 41.25 22C41.25 11.3685 32.6315 2.75 22 2.75C11.3685 2.75 2.75 11.3685 2.75 22C2.75 32.6315 11.3685 41.25 22 41.25Z" fill="#2B76C1"/>
<path d="M19.8539 13.75H22.1639L21.511 17.2208H23.5867C24.7251 17.2451 25.573 17.4995 26.1312 17.984C26.7003 18.4685 26.8677 19.3894 26.6334 20.7461L25.5119 26.7972H23.1683L24.2396 21.0187C24.3511 20.4128 24.3177 19.9829 24.1392 19.7285C23.9607 19.4741 23.5757 19.3469 22.9842 19.3469L21.126 19.3288L19.7534 26.7972H17.4434L19.8539 13.75Z" fill="white"/>
<path fill-rule="evenodd" clip-rule="evenodd" d="M9.26876 17.2209H13.7549C15.0716 17.2329 16.0259 17.645 16.6174 18.4565C17.2089 19.2682 17.4042 20.3765 17.2033 21.7819C17.1253 22.4242 16.9522 23.0539 16.6844 23.6719C16.4277 24.2897 16.0707 24.8468 15.6131 25.3436C15.055 25.9735 14.458 26.3732 13.8219 26.543C13.1858 26.7127 12.5273 26.7974 11.8467 26.7974H9.8379L9.2018 30.25H6.875L9.26876 17.2209ZM10.2229 24.744L11.2239 19.3106H11.5621C11.685 19.3106 11.8132 19.3045 11.9471 19.2925C12.84 19.2804 13.5819 19.3713 14.1735 19.565C14.776 19.7588 14.9769 20.4918 14.776 21.7638C14.5307 23.2782 14.0506 24.1625 13.3365 24.4168C12.6224 24.6593 11.7295 24.7742 10.6581 24.7621H10.4238C10.3568 24.7621 10.2899 24.7559 10.2229 24.744Z" fill="white"/>
<path fill-rule="evenodd" clip-rule="evenodd" d="M33.6002 17.2209H29.114L26.7202 30.25H29.047L29.6832 26.7974H31.6919C32.3726 26.7974 33.0311 26.7127 33.6671 26.543C34.3033 26.3732 34.9002 25.9735 35.4583 25.3436C35.9159 24.8468 36.2729 24.2897 36.5296 23.6719C36.7975 23.0539 36.9706 22.4242 37.0485 21.7819C37.2494 20.3765 37.0543 19.2682 36.4626 18.4565C35.8711 17.645 34.917 17.2329 33.6002 17.2209ZM31.0692 19.3106L30.0682 24.744C30.1352 24.7559 30.2021 24.7621 30.2691 24.7621H30.5034C31.5748 24.7742 32.4676 24.6593 33.1818 24.4168C33.8958 24.1625 34.3759 23.2782 34.6214 21.7638C34.8223 20.4918 34.6214 19.7588 34.0187 19.565C33.4272 19.3713 32.6852 19.2804 31.7923 19.2925C31.6584 19.3045 31.5302 19.3106 31.4073 19.3106H31.0692Z" fill="white"/>
</svg>
