<svg width="40" height="40" viewBox="0 0 40 40" fill="none" xmlns="http://www.w3.org/2000/svg">
<g clip-path="url(#clip0_0_2167)">
<path d="M34.1666 10H32.5C31.1216 10 30 8.87836 30 7.5V0.833359C30 0.373359 29.6266 0 29.1666 0C28.7066 0 28.3333 0.373359 28.3333 0.833359V7.5C28.3333 9.7975 30.2024 11.6666 32.4999 11.6666H34.1665C34.6265 11.6666 34.9999 11.2933 34.9999 10.8333C34.9999 10.3733 34.6266 10 34.1666 10Z" fill="#2B76C1"/>
<path d="M39.7558 10.2441L29.7558 0.244141C29.6784 0.166663 29.5866 0.105213 29.4855 0.0633171C29.3844 0.0214212 29.276 -9.59372e-05 29.1665 3.21541e-07H7.49989C5.20239 3.21541e-07 3.33325 1.86914 3.33325 4.16664V10C3.33325 10.46 3.70661 10.8334 4.16661 10.8334C4.62661 10.8334 4.99989 10.46 4.99989 10V4.16664C4.99989 2.78828 6.12153 1.66664 7.49989 1.66664H28.8215L38.3332 11.1783V35.8333C38.3332 37.2116 37.2115 38.3333 35.8332 38.3333H9.99989C9.53989 38.3333 9.16653 38.7066 9.16653 39.1666C9.16653 39.6266 9.53989 40 9.99989 40H35.8333C38.1308 40 39.9999 38.1309 39.9999 35.8334V10.8334C39.9999 10.6125 39.9124 10.4 39.7558 10.2441Z" fill="#2B76C1"/>
<path d="M28.6434 31.7259L24.4767 30.0593C24.378 30.0202 24.2729 30.0002 24.1667 30.0001H1.66672C0.7475 30 0 30.7475 0 31.6667V33.3333C0 34.2525 0.7475 35 1.66664 35H24.1666C24.2725 35 24.3775 34.98 24.4766 34.9409L28.6433 33.2743C28.9591 33.1468 29.1666 32.8409 29.1666 32.5001C29.1666 32.1593 28.9591 31.8534 28.6434 31.7259ZM24.0066 33.3334H1.66664V31.6668H24.0066L26.09 32.5L24.0066 33.3334Z" fill="#2B76C1"/>
<path d="M5.00011 30C4.54011 30 4.16675 30.3734 4.16675 30.8334V34.1667C4.16675 34.6267 4.54011 35 5.00011 35C5.46011 35 5.83347 34.6267 5.83347 34.1667V30.8333C5.83347 30.3734 5.46011 30 5.00011 30ZM21.6667 5.83337H13.3335C11.9551 5.83337 10.8335 6.95501 10.8335 8.33337V16.6667C10.8335 18.0451 11.9551 19.1667 13.3335 19.1667H21.6668C23.0452 19.1667 24.1668 18.0451 24.1668 16.6667V8.33337C24.1667 6.95501 23.0451 5.83337 21.6667 5.83337ZM22.5001 16.6667C22.5001 17.1258 22.126 17.5 21.6667 17.5H13.3335C12.8743 17.5 12.5001 17.1259 12.5001 16.6667V8.33337C12.5001 7.87416 12.8742 7.50001 13.3335 7.50001H21.6668C22.126 7.50001 22.5002 7.87416 22.5002 8.33337V16.6667H22.5001Z" fill="#2B76C1"/>
<path d="M11.6667 11.6666C7.53175 11.6666 4.16675 15.0316 4.16675 19.1666C4.16675 23.3016 7.53175 26.6666 11.6667 26.6666C15.8017 26.6666 19.1667 23.3016 19.1667 19.1666C19.1667 15.0316 15.8017 11.6666 11.6667 11.6666ZM11.6667 25C8.45011 25 5.83339 22.3833 5.83339 19.1666C5.83339 15.9499 8.45003 13.3333 11.6667 13.3333C14.8834 13.3333 17.5001 15.9499 17.5001 19.1666C17.5001 22.3833 14.8835 25 11.6667 25ZM28.3335 20C24.6576 20 21.6668 22.9908 21.6668 26.6666C21.6668 27.1266 22.0402 27.5 22.5002 27.5C22.9602 27.5 23.3335 27.1266 23.3335 26.6666C23.3335 23.9091 25.576 21.6666 28.3335 21.6666C31.091 21.6666 33.3335 23.9091 33.3335 26.6666C33.3335 29.4241 31.091 31.6666 28.3335 31.6666C27.8735 31.6666 27.5002 32.04 27.5002 32.5C27.5002 32.96 27.8735 33.3333 28.3335 33.3333C32.0094 33.3333 35.0002 30.3425 35.0002 26.6667C35.0001 22.9908 32.0092 20 28.3335 20Z" fill="#2B76C1"/>
</g>
<defs>
<clipPath id="clip0_0_2167">
<rect width="40" height="40" fill="white"/>
</clipPath>
</defs>
</svg>
