<svg width="40" height="40" viewBox="0 0 40 40" fill="none" xmlns="http://www.w3.org/2000/svg">
<g clip-path="url(#clip0_0_2086)">
<path d="M34.1669 10H32.5002C31.1219 10 30.0002 8.87836 30.0002 7.5V0.833359C30.0002 0.373359 29.6269 0 29.1669 0C28.7069 0 28.3335 0.373359 28.3335 0.833359V7.5C28.3335 9.7975 30.2026 11.6666 32.5001 11.6666H34.1668C34.6268 11.6666 35.0001 11.2933 35.0001 10.8333C35.0001 10.3733 34.6269 10 34.1669 10Z" fill="#2B76C1"/>
<path d="M39.756 10.2441L29.756 0.244141C29.6787 0.166663 29.5868 0.105213 29.4857 0.0633171C29.3846 0.0214212 29.2762 -9.59372e-05 29.1668 3.21541e-07H7.50014C5.20264 3.21541e-07 3.3335 1.86914 3.3335 4.16664V10C3.3335 10.46 3.70686 10.8334 4.16686 10.8334C4.62686 10.8334 5.00014 10.46 5.00014 10V4.16664C5.00014 2.78828 6.12178 1.66664 7.50014 1.66664H28.8218L38.3334 11.1783V35.8333C38.3334 37.2116 37.2118 38.3333 35.8334 38.3333H10.0001C9.54014 38.3333 9.16678 38.7066 9.16678 39.1666C9.16678 39.6266 9.54014 40 10.0001 40H35.8335C38.131 40 40.0001 38.1309 40.0001 35.8334V10.8334C40.0001 10.6125 39.9126 10.4 39.756 10.2441Z" fill="#2B76C1"/>
<path d="M28.6434 31.7258L24.4767 30.0591C24.378 30.0201 24.2729 30 24.1667 30H1.66672C0.7475 29.9999 0 30.7474 0 31.6666V33.3332C0 34.2524 0.7475 34.9999 1.66664 34.9999H24.1666C24.2725 34.9999 24.3775 34.9799 24.4766 34.9408L28.6433 33.2741C28.9591 33.1466 29.1666 32.8408 29.1666 32.5C29.1666 32.1592 28.9591 31.8533 28.6434 31.7258ZM24.0066 33.3333H1.66664V31.6666H24.0066L26.09 32.4999L24.0066 33.3333Z" fill="#2B76C1"/>
<path d="M4.99986 29.9999C4.53986 29.9999 4.1665 30.3733 4.1665 30.8333V34.1666C4.1665 34.6265 4.53986 34.9999 4.99986 34.9999C5.45986 34.9999 5.83322 34.6265 5.83322 34.1665V30.8332C5.83322 30.3733 5.45986 29.9999 4.99986 29.9999ZM21.6665 5.83325H13.3332C11.9549 5.83325 10.8332 6.95489 10.8332 8.33325V16.6666C10.8332 18.045 11.9549 19.1666 13.3332 19.1666H21.6666C23.0449 19.1666 24.1666 18.045 24.1666 16.6666V8.33325C24.1665 6.95489 23.0449 5.83325 21.6665 5.83325ZM22.4999 16.6665C22.4999 17.1257 22.1257 17.4999 21.6665 17.4999H13.3332C12.8741 17.4999 12.4999 17.1258 12.4999 16.6665V8.33325C12.4999 7.87403 12.874 7.49989 13.3332 7.49989H21.6666C22.1257 7.49989 22.4999 7.87403 22.4999 8.33325V16.6665H22.4999Z" fill="#2B76C1"/>
<path d="M11.6665 11.6667C7.5315 11.6667 4.1665 15.0317 4.1665 19.1667C4.1665 23.3017 7.5315 26.6667 11.6665 26.6667C15.8015 26.6667 19.1665 23.3017 19.1665 19.1667C19.1665 15.0317 15.8015 11.6667 11.6665 11.6667ZM11.6665 25.0001C8.44986 25.0001 5.83314 22.3835 5.83314 19.1667C5.83314 15.95 8.44978 13.3334 11.6665 13.3334C14.8831 13.3334 17.4999 15.95 17.4999 19.1667C17.4999 22.3835 14.8832 25.0001 11.6665 25.0001ZM28.3332 20.0001C24.6574 20.0001 21.6666 22.991 21.6666 26.6667C21.6666 27.1267 22.0399 27.5001 22.4999 27.5001C22.9599 27.5001 23.3333 27.1267 23.3333 26.6667C23.3333 23.9092 25.5758 21.6667 28.3333 21.6667C31.0908 21.6667 33.3333 23.9092 33.3333 26.6667C33.3333 29.4242 31.0908 31.6667 28.3333 31.6667C27.8733 31.6667 27.4999 32.0401 27.4999 32.5001C27.4999 32.9601 27.8733 33.3335 28.3333 33.3335C32.0092 33.3335 34.9999 30.3426 34.9999 26.6668C34.9999 22.991 32.009 20.0001 28.3332 20.0001Z" fill="#2B76C1"/>
</g>
<defs>
<clipPath id="clip0_0_2086">
<rect width="40" height="40" fill="white"/>
</clipPath>
</defs>
</svg>
