<svg width="40" height="40" viewBox="0 0 40 40" fill="none" xmlns="http://www.w3.org/2000/svg">
<path d="M37.6247 19.2358H36.4024V18.8593C36.4024 18.0937 35.7785 17.4708 35.0115 17.4708H34.1633C33.3965 17.4708 32.7726 18.0937 32.7726 18.8593V19.2358H29.5926V18.8593C29.5926 18.1461 29.0509 17.5573 28.3569 17.48V0.624531C28.3569 0.542517 28.3407 0.461305 28.3093 0.385534C28.2779 0.309762 28.2319 0.240914 28.1739 0.182921C28.1159 0.124928 28.0471 0.0789253 27.9713 0.0475396C27.8955 0.016154 27.8143 0 27.7323 0H0.625996C0.543981 0 0.46277 0.016154 0.386998 0.0475396C0.311227 0.0789253 0.242379 0.124928 0.184386 0.182921C0.0672635 0.300043 0.00146484 0.458895 0.00146484 0.624531V39.375C0.00146484 39.5406 0.0672635 39.6995 0.184386 39.8166C0.301508 39.9337 0.46036 39.9995 0.625996 39.9995H37.6247C38.9337 39.9995 39.9987 39.002 39.9987 37.7761V21.457C39.9987 20.2322 38.9337 19.2358 37.6247 19.2358ZM34.0217 18.8592C34.0217 18.7836 34.0865 18.7197 34.1633 18.7197H35.0115C35.0883 18.7197 35.1533 18.7836 35.1533 18.8592V21.3241C35.1533 21.3997 35.0883 21.4635 35.0115 21.4635H34.1633C34.0866 21.4635 34.0217 21.3997 34.0217 21.3241V18.8592ZM32.7726 20.4848V21.3241C32.7726 22.0897 33.3964 22.7126 34.1633 22.7126H35.0115C35.7783 22.7126 36.4023 22.0896 36.4023 21.3241V20.4848H37.6247C38.2449 20.4848 38.7495 20.9209 38.7495 21.457V23.7445H17.1533V21.457C17.1533 20.9209 17.6579 20.4848 18.2783 20.4848H19.1529V21.3241C19.1529 22.0897 19.7769 22.7126 20.5437 22.7126H21.3919C22.1587 22.7126 22.7826 22.0896 22.7826 21.3241V20.4848H25.9627V21.3241C25.9627 22.0897 26.5866 22.7126 27.3536 22.7126H28.2016C28.9685 22.7126 29.5925 22.0896 29.5925 21.3241V20.4848H32.7726ZM20.4021 21.3241V18.8592C20.4021 18.7836 20.4669 18.7197 20.5437 18.7197H21.3919C21.4687 18.7197 21.5336 18.7836 21.5336 18.8592V21.3241C21.5336 21.3997 21.4687 21.4635 21.3919 21.4635H20.5437C20.4669 21.4635 20.4021 21.3997 20.4021 21.3241ZM28.2016 18.7198C28.2784 18.7198 28.3433 18.7837 28.3433 18.8593V21.3241C28.3433 21.3998 28.2784 21.4636 28.2016 21.4636H27.3536C27.2768 21.4636 27.2119 21.3998 27.2119 21.3241V18.8593C27.2119 18.7837 27.2768 18.7198 27.3536 18.7198H28.2016ZM1.25053 1.24906H27.1077V17.4938C26.4579 17.6102 25.9628 18.1775 25.9628 18.8593V19.2358H22.7827V18.8593C22.7827 18.0937 22.1589 17.4708 21.392 17.4708H20.5438C19.777 17.4708 19.153 18.0937 19.153 18.8593V19.2358H18.2783C16.9693 19.2358 15.9042 20.2322 15.9042 21.457V37.7762C15.9042 38.1255 15.9909 38.4561 16.1448 38.7506H1.25053V1.24906ZM37.6247 38.7505H18.2783C17.6684 38.7505 17.1533 38.3043 17.1533 37.7761V24.9937H38.7497V37.7761C38.7496 38.3134 38.245 38.7505 37.6247 38.7505ZM23.5865 26.9091H20.3798C20.2142 26.9091 20.0553 26.9749 19.9382 27.0921C19.8211 27.2092 19.7553 27.368 19.7553 27.5337V30.7382C19.7553 30.9038 19.8211 31.0627 19.9382 31.1798C20.0553 31.2969 20.2142 31.3627 20.3798 31.3627H23.5865C23.7522 31.3627 23.911 31.2969 24.0282 31.1798C24.1453 31.0627 24.2111 30.9038 24.2111 30.7382V27.5337C24.2111 27.368 24.1452 27.2092 24.0281 27.0921C23.911 26.975 23.7522 26.9092 23.5865 26.9091ZM22.962 30.1137H21.0044V28.1583H22.962V30.1137ZM29.4994 26.9091H26.2949C26.2129 26.9091 26.1317 26.9253 26.0559 26.9567C25.9801 26.9881 25.9113 27.0341 25.8533 27.0921C25.7953 27.1501 25.7493 27.2189 25.7179 27.2947C25.6865 27.3704 25.6704 27.4517 25.6704 27.5337V30.7382C25.6704 30.8202 25.6865 30.9014 25.7179 30.9772C25.7493 31.053 25.7953 31.1218 25.8533 31.1798C25.9113 31.2378 25.9801 31.2838 26.0559 31.3152C26.1317 31.3466 26.2129 31.3627 26.2949 31.3627H29.4994C29.5814 31.3627 29.6627 31.3466 29.7384 31.3152C29.8142 31.2838 29.883 31.2378 29.941 31.1798C29.999 31.1218 30.045 31.053 30.0764 30.9772C30.1078 30.9014 30.124 30.8202 30.124 30.7382V27.5337C30.1239 27.368 30.0581 27.2092 29.941 27.0921C29.8239 26.975 29.6651 26.9092 29.4994 26.9091ZM28.8749 30.1137H26.9195V28.1583H28.8749V30.1137ZM23.5865 32.3813H20.3798C20.2142 32.3813 20.0553 32.4471 19.9382 32.5643C19.8211 32.6814 19.7553 32.8402 19.7553 33.0059V36.2104C19.7553 36.376 19.8211 36.5349 19.9382 36.652C20.0553 36.7691 20.2142 36.8349 20.3798 36.8349H23.5865C23.6686 36.8349 23.7498 36.8188 23.8255 36.7874C23.9013 36.756 23.9702 36.71 24.0282 36.652C24.0861 36.594 24.1321 36.5252 24.1635 36.4494C24.1949 36.3736 24.2111 36.2924 24.2111 36.2104V33.0059C24.2111 32.9238 24.1949 32.8426 24.1635 32.7669C24.1321 32.6911 24.0861 32.6222 24.0282 32.5643C23.9702 32.5063 23.9013 32.4603 23.8255 32.4289C23.7498 32.3975 23.6686 32.3813 23.5865 32.3813ZM22.962 35.5859H21.0044V33.6305H22.962V35.5859ZM29.4994 32.3813H26.2949C26.2129 32.3813 26.1317 32.3975 26.0559 32.4289C25.9801 32.4603 25.9113 32.5063 25.8533 32.5643C25.7953 32.6222 25.7493 32.6911 25.7179 32.7669C25.6865 32.8426 25.6704 32.9238 25.6704 33.0059V36.2104C25.6704 36.2924 25.6865 36.3736 25.7179 36.4494C25.7493 36.5252 25.7953 36.594 25.8533 36.652C25.9113 36.71 25.9801 36.756 26.0559 36.7874C26.1317 36.8188 26.2129 36.8349 26.2949 36.8349H29.4994C29.5814 36.8349 29.6627 36.8188 29.7384 36.7874C29.8142 36.756 29.883 36.71 29.941 36.652C29.999 36.594 30.045 36.5252 30.0764 36.4494C30.1078 36.3736 30.124 36.2924 30.124 36.2104V33.0059C30.124 32.9238 30.1078 32.8426 30.0764 32.7669C30.045 32.6911 29.999 32.6222 29.941 32.5643C29.883 32.5063 29.8142 32.4603 29.7384 32.4289C29.6627 32.3975 29.5814 32.3813 29.4994 32.3813ZM28.8749 35.5859H26.9195V33.6305H28.8749V35.5859ZM35.5253 26.9091H32.3187C32.153 26.9091 31.9942 26.9749 31.877 27.0921C31.7599 27.2092 31.6941 27.368 31.6941 27.5337V30.7382C31.6941 30.8202 31.7103 30.9014 31.7417 30.9772C31.773 31.053 31.819 31.1218 31.877 31.1798C31.935 31.2378 32.0039 31.2838 32.0797 31.3152C32.1554 31.3466 32.2366 31.3627 32.3187 31.3627H35.5253C35.6909 31.3627 35.8498 31.2969 35.9669 31.1798C36.084 31.0627 36.1498 30.9038 36.1498 30.7382V27.5337C36.1498 27.368 36.084 27.2092 35.9669 27.0921C35.8498 26.975 35.6909 26.9092 35.5253 26.9091ZM34.9008 30.1137H32.9432V28.1583H34.9008V30.1137ZM35.5253 32.3813H32.3187C32.153 32.3813 31.9942 32.4471 31.877 32.5643C31.7599 32.6814 31.6941 32.8402 31.6941 33.0059V36.2104C31.6941 36.2924 31.7103 36.3736 31.7417 36.4494C31.773 36.5252 31.819 36.594 31.877 36.652C31.935 36.71 32.0039 36.756 32.0797 36.7874C32.1554 36.8188 32.2366 36.8349 32.3187 36.8349H35.5253C35.6909 36.8349 35.8498 36.7691 35.9669 36.652C36.084 36.5349 36.1498 36.376 36.1498 36.2104V33.0059C36.1498 32.9238 36.1337 32.8426 36.1023 32.7669C36.0709 32.6911 36.0249 32.6222 35.9669 32.5643C35.9089 32.5063 35.8401 32.4603 35.7643 32.4289C35.6885 32.3975 35.6073 32.3813 35.5253 32.3813ZM34.9008 35.5859H32.9432V33.6305H34.9008V35.5859ZM3.83475 11.1702V4.45789C3.83475 4.29225 3.90054 4.1334 4.01767 4.01628C4.13479 3.89916 4.29364 3.83336 4.45928 3.83336H11.7165C11.7986 3.83336 11.8798 3.84951 11.9555 3.8809C12.0313 3.91229 12.1002 3.95829 12.1582 4.01628C12.2161 4.07427 12.2621 4.14312 12.2935 4.21889C12.3249 4.29466 12.3411 4.37588 12.3411 4.45789C12.3411 4.53991 12.3249 4.62112 12.2935 4.69689C12.2621 4.77266 12.2161 4.84151 12.1582 4.8995C12.1002 4.95749 12.0313 5.0035 11.9555 5.03488C11.8798 5.06627 11.7986 5.08242 11.7165 5.08242H5.08381V10.5458H11.0919V8.64516L9.93045 9.69945C9.81564 9.8039 9.66597 9.86172 9.51076 9.86156C9.42881 9.86166 9.34764 9.84558 9.2719 9.81425C9.19617 9.78292 9.12737 9.73696 9.06943 9.67899L7.64545 8.25719C7.52824 8.14015 7.46232 7.98135 7.46219 7.81571C7.46213 7.73369 7.47822 7.65246 7.50955 7.57667C7.54088 7.50087 7.58683 7.43198 7.64479 7.37395C7.70274 7.31591 7.77155 7.26985 7.8473 7.23841C7.92305 7.20697 8.00425 7.19075 8.08627 7.19069C8.25191 7.19056 8.41081 7.25624 8.52803 7.37328L9.53123 8.37492L12.5457 5.63875C12.6684 5.52788 12.8301 5.4702 12.9953 5.47838C13.1604 5.48656 13.3156 5.55993 13.4268 5.68238C13.538 5.80484 13.596 5.96639 13.5882 6.13159C13.5804 6.29679 13.5074 6.45215 13.3852 6.56359L12.3411 7.51133V11.1702C12.3411 11.3359 12.2753 11.4947 12.1582 11.6118C12.041 11.729 11.8822 11.7948 11.7165 11.7948H4.45928C4.29364 11.7948 4.13479 11.729 4.01767 11.6118C3.90054 11.4947 3.83475 11.3359 3.83475 11.1702ZM3.83475 23.3548V16.6447C3.83475 16.4791 3.90054 16.3202 4.01767 16.2031C4.13479 16.086 4.29364 16.0202 4.45928 16.0202H11.7165C11.8822 16.0202 12.041 16.086 12.1582 16.2031C12.2753 16.3202 12.3411 16.4791 12.3411 16.6447C12.3411 16.8103 12.2753 16.9692 12.1582 17.0863C12.041 17.2034 11.8822 17.2692 11.7165 17.2692H5.08381V22.7303H11.0919V20.8319L9.93045 21.8862C9.81566 21.9907 9.66598 22.0485 9.51076 22.0483C9.42872 22.0484 9.34747 22.0323 9.27168 22.0009C9.19588 21.9695 9.12704 21.9234 9.06912 21.8653L7.64514 20.4413C7.58714 20.3833 7.54113 20.3145 7.50974 20.2387C7.47835 20.163 7.46219 20.0817 7.46219 19.9997C7.46219 19.9177 7.47835 19.8365 7.50974 19.7607C7.54113 19.685 7.58714 19.6161 7.64514 19.5581C7.70312 19.5001 7.77197 19.4541 7.84774 19.4227C7.92351 19.3913 8.00472 19.3752 8.08674 19.3752C8.16875 19.3752 8.24997 19.3913 8.32574 19.4227C8.40151 19.4541 8.47035 19.5001 8.52834 19.5581L9.53154 20.5613L12.5457 17.8255C12.6684 17.7146 12.8301 17.6569 12.9953 17.6651C13.1604 17.6733 13.3156 17.7466 13.4268 17.8691C13.538 17.9916 13.596 18.1531 13.5882 18.3183C13.5804 18.4835 13.5074 18.6389 13.3852 18.7503L12.3411 19.698V23.3548C12.3411 23.4369 12.3249 23.5181 12.2935 23.5938C12.2621 23.6696 12.2161 23.7385 12.1582 23.7965C12.1002 23.8545 12.0313 23.9005 11.9555 23.9318C11.8798 23.9632 11.7986 23.9794 11.7165 23.9794H4.45928C4.37726 23.9794 4.29605 23.9632 4.22028 23.9318C4.14451 23.9005 4.07566 23.8545 4.01767 23.7965C3.95967 23.7385 3.91367 23.6696 3.88229 23.5938C3.8509 23.5181 3.83475 23.4369 3.83475 23.3548ZM13.428 30.0552C13.4831 30.1159 13.5257 30.1869 13.5534 30.2641C13.5811 30.3413 13.5932 30.4232 13.5892 30.5051C13.5852 30.587 13.5651 30.6674 13.5301 30.7415C13.4951 30.8157 13.4457 30.8822 13.385 30.9373L12.3411 31.8841V35.5416C12.3411 35.7072 12.2753 35.8661 12.1582 35.9832C12.041 36.1003 11.8822 36.1661 11.7165 36.1661H4.45928C4.29364 36.1661 4.13479 36.1003 4.01767 35.9832C3.90054 35.8661 3.83475 35.7072 3.83475 35.5416V28.8314C3.83475 28.6658 3.90054 28.5069 4.01767 28.3898C4.13479 28.2727 4.29364 28.2069 4.45928 28.2069H11.7165C11.8822 28.2069 12.041 28.2727 12.1582 28.3898C12.2753 28.5069 12.3411 28.6658 12.3411 28.8314C12.3411 28.997 12.2753 29.1559 12.1582 29.273C12.041 29.3901 11.8822 29.4559 11.7165 29.4559H5.08381V34.917H11.0919V33.017L9.93021 34.0708C9.81546 34.1752 9.66588 34.2329 9.51076 34.2327C9.4288 34.2328 9.34762 34.2168 9.27189 34.1854C9.19615 34.1541 9.12735 34.1081 9.06943 34.0501L7.64545 32.6283C7.58741 32.5703 7.54135 32.5015 7.50991 32.4258C7.47846 32.35 7.46225 32.2688 7.46219 32.1868C7.46213 32.1048 7.47823 32.0236 7.50957 31.9478C7.54091 31.872 7.58687 31.8031 7.64482 31.7451C7.70277 31.687 7.77158 31.641 7.84733 31.6095C7.92308 31.5781 8.00428 31.5619 8.0863 31.5618C8.16831 31.5618 8.24954 31.5779 8.32533 31.6092C8.40112 31.6405 8.47 31.6865 8.52803 31.7445L9.53139 32.7463L12.5459 30.012C12.6067 29.9569 12.6777 29.9143 12.7549 29.8866C12.8321 29.859 12.914 29.8468 12.9959 29.8509C13.0778 29.8549 13.1582 29.875 13.2323 29.91C13.3064 29.9451 13.3729 29.9944 13.428 30.0552ZM15.9041 4.45789C15.9041 4.29225 15.9699 4.1334 16.087 4.01628C16.2042 3.89916 16.363 3.83336 16.5287 3.83336H24.6495C24.8151 3.83336 24.974 3.89916 25.0911 4.01628C25.2082 4.1334 25.274 4.29225 25.274 4.45789C25.274 4.62353 25.2082 4.78238 25.0911 4.8995C24.974 5.01662 24.8151 5.08242 24.6495 5.08242H16.5287C16.363 5.08242 16.2042 5.01662 16.087 4.8995C15.9699 4.78238 15.9041 4.62353 15.9041 4.45789ZM15.9041 7.81297C15.9041 7.64733 15.9699 7.48848 16.087 7.37136C16.2042 7.25424 16.363 7.18844 16.5287 7.18844H24.6495C24.8151 7.18844 24.974 7.25424 25.0911 7.37136C25.2082 7.48848 25.274 7.64733 25.274 7.81297C25.274 7.97861 25.2082 8.13746 25.0911 8.25458C24.974 8.3717 24.8151 8.4375 24.6495 8.4375H16.5287C16.363 8.4375 16.2042 8.3717 16.087 8.25458C15.9699 8.13746 15.9041 7.97861 15.9041 7.81297Z" fill="#2B76C1"/>
</svg>
