<svg width="40" height="40" viewBox="0 0 40 40" fill="none" xmlns="http://www.w3.org/2000/svg">
<path d="M19.375 19.3752C19.5214 19.3753 19.6632 19.324 19.7756 19.2302L22.4744 16.9802C24.0493 15.6711 25.3162 14.0308 26.1849 12.1762C27.0536 10.3216 27.5026 8.29821 27.5 6.25023C27.5 6.08447 27.4342 5.9255 27.317 5.80829C27.1997 5.69108 27.0408 5.62523 26.875 5.62523H26.5C24.0526 5.62175 21.6786 4.78871 19.7656 3.26211C19.6548 3.17336 19.517 3.125 19.375 3.125C19.233 3.125 19.0952 3.17336 18.9844 3.26211C17.0714 4.78871 14.6974 5.62175 12.25 5.62523H11.875C11.7093 5.62523 11.5503 5.69108 11.4331 5.80829C11.3159 5.9255 11.25 6.08447 11.25 6.25023C11.2473 8.29824 11.6963 10.3216 12.5649 12.1763C13.4336 14.0309 14.7006 15.6712 16.2756 16.9802L18.9744 19.2302C19.0868 19.324 19.2286 19.3753 19.375 19.3752ZM12.515 6.87523C14.987 6.81649 17.3815 6.0006 19.375 4.53773C21.3687 6.00042 23.763 6.81629 26.235 6.87523C26.1512 8.63325 25.7022 10.3546 24.9167 11.9296C24.1312 13.5046 23.0264 14.8988 21.6725 16.0234L19.375 17.9377L17.0756 16.0221C15.7223 14.8975 14.6178 13.5034 13.8326 11.9287C13.0475 10.3539 12.5987 8.6329 12.515 6.87523Z" fill="#2B76C1"/>
<path d="M19.7814 16.0994L21.737 14.4237C23.4081 12.9867 24.5519 11.0331 24.987 8.8725C25.0051 8.78191 25.0029 8.68844 24.9806 8.5988C24.9582 8.50917 24.9163 8.4256 24.8578 8.35412C24.7992 8.28263 24.7256 8.22501 24.6422 8.18539C24.5587 8.14577 24.4675 8.12515 24.3751 8.125C22.8881 8.12191 21.4416 7.63975 20.2501 6.75L19.7501 6.375C19.6419 6.29386 19.5104 6.25 19.3751 6.25C19.2399 6.25 19.1083 6.29386 19.0001 6.375L18.5001 6.75C17.3085 7.63955 15.8621 8.12169 14.3751 8.125C14.2824 8.12498 14.1909 8.14558 14.1072 8.1853C14.0234 8.22502 13.9495 8.28287 13.8909 8.35467C13.8323 8.42646 13.7904 8.51039 13.7682 8.60038C13.746 8.69038 13.7441 8.78418 13.7626 8.875C14.1977 11.0356 15.3415 12.9892 17.0126 14.4263L18.9683 16.1019C19.0815 16.1987 19.2255 16.2519 19.3745 16.2519C19.5235 16.2519 19.6675 16.1987 19.7808 16.1019L19.7814 16.0994ZM17.8258 13.4744C16.5559 12.382 15.6305 10.9445 15.162 9.33625C16.6435 9.18886 18.0569 8.64046 19.2501 7.75L19.3751 7.65625L19.5001 7.75C20.6933 8.64062 22.1067 9.18904 23.5883 9.33625C23.1198 10.9445 22.1944 12.382 20.9245 13.4744L19.3751 14.8019L17.8258 13.4744Z" fill="#2B76C1"/>
<path d="M38.75 21.875H33.125V1.25C33.125 1.08424 33.0592 0.925268 32.9419 0.808058C32.8247 0.690848 32.6658 0.625 32.5 0.625H6.25C6.08424 0.625 5.92527 0.690848 5.80806 0.808058C5.69085 0.925268 5.625 1.08424 5.625 1.25V16.875H1.25C1.08424 16.875 0.925268 16.9408 0.808058 17.0581C0.690848 17.1753 0.625 17.3342 0.625 17.5V36.25C0.625992 37.0785 0.955551 37.8728 1.54139 38.4586C2.12722 39.0444 2.9215 39.374 3.75 39.375H30C30.8285 39.374 31.6228 39.0444 32.2086 38.4586C32.7944 37.8728 33.124 37.0785 33.125 36.25V34.375H38.75C38.9158 34.375 39.0747 34.3092 39.1919 34.1919C39.3092 34.0747 39.375 33.9158 39.375 33.75V22.5C39.375 22.3342 39.3092 22.1753 39.1919 22.0581C39.0747 21.9408 38.9158 21.875 38.75 21.875ZM1.875 36.25V18.125H5.625V36.25C5.625 36.7473 5.42746 37.2242 5.07583 37.5758C4.72419 37.9275 4.24728 38.125 3.75 38.125C3.25272 38.125 2.77581 37.9275 2.42417 37.5758C2.07254 37.2242 1.875 36.7473 1.875 36.25ZM31.875 36.25C31.875 36.7473 31.6775 37.2242 31.3258 37.5758C30.9742 37.9275 30.4973 38.125 30 38.125H6.23375C6.64738 37.5873 6.8727 36.9284 6.875 36.25V1.875H31.875V21.875H31.25C31.0842 21.875 30.9253 21.9408 30.8081 22.0581C30.6908 22.1753 30.625 22.3342 30.625 22.5V23.125H29.0088L26.875 20.9912V17.5C26.875 17.3342 26.8092 17.1753 26.6919 17.0581C26.5747 16.9408 26.4158 16.875 26.25 16.875H25.625C24.962 16.875 24.3261 17.1384 23.8572 17.6072C23.3884 18.0761 23.125 18.712 23.125 19.375V23.125H18.75C18.2527 23.125 17.7758 23.3225 17.4242 23.6742C17.0725 24.0258 16.875 24.5027 16.875 25V32.5C16.875 32.9973 17.0725 33.4742 17.4242 33.8258C17.7758 34.1775 18.2527 34.375 18.75 34.375H26.25C26.3467 34.3761 26.4423 34.3547 26.5294 34.3125L28.8975 33.125H30.625V33.75C30.625 33.9158 30.6908 34.0747 30.8081 34.1919C30.9253 34.3092 31.0842 34.375 31.25 34.375H31.875V36.25ZM30.625 31.875H28.75C28.6533 31.8739 28.5577 31.8953 28.4706 31.9375L26.1025 33.125H18.75C18.5842 33.125 18.4253 33.0592 18.3081 32.9419C18.1908 32.8247 18.125 32.6658 18.125 32.5V31.875H23.125V30.625H18.125V29.375H23.125V28.125H18.125V26.875H23.125V25.625H18.125V25C18.125 24.8342 18.1908 24.6753 18.3081 24.5581C18.4253 24.4408 18.5842 24.375 18.75 24.375H23.75C23.9158 24.375 24.0747 24.3092 24.1919 24.1919C24.3092 24.0747 24.375 23.9158 24.375 23.75V19.375C24.375 19.0435 24.5067 18.7255 24.7411 18.4911C24.9755 18.2567 25.2935 18.125 25.625 18.125V21.25C25.625 21.4157 25.6909 21.5747 25.8081 21.6919L28.3081 24.1919C28.4253 24.3091 28.5843 24.375 28.75 24.375H30.625V31.875ZM38.125 33.125H31.875V23.125H38.125V33.125Z" fill="#2B76C1"/>
<path d="M14.0375 19.4542C13.9497 19.4045 13.8509 19.3775 13.75 19.3755H8.75C8.58424 19.3755 8.42527 19.4413 8.30806 19.5585C8.19085 19.6757 8.125 19.8347 8.125 20.0005V25.0005C8.125 25.1662 8.19085 25.3252 8.30806 25.4424C8.42527 25.5596 8.58424 25.6255 8.75 25.6255H13.75C13.9158 25.6255 14.0747 25.5596 14.1919 25.4424C14.3092 25.3252 14.375 25.1662 14.375 25.0005V20.8842L16.0669 19.1923L15.1831 18.3086L14.0375 19.4542ZM13.125 24.3755H9.375V20.6255H12.8663L11.25 22.2417L10.4419 21.4336L9.55813 22.3173L10.8081 23.5673C10.9253 23.6845 11.0843 23.7503 11.25 23.7503C11.4157 23.7503 11.5747 23.6845 11.6919 23.5673L13.125 22.1342V24.3755ZM15.1831 25.8086L14.0375 26.9542C13.9497 26.9045 13.8509 26.8774 13.75 26.8755H8.75C8.58424 26.8755 8.42527 26.9413 8.30806 27.0585C8.19085 27.1757 8.125 27.3347 8.125 27.5005V32.5005C8.125 32.6662 8.19085 32.8252 8.30806 32.9424C8.42527 33.0596 8.58424 33.1255 8.75 33.1255H13.75C13.9158 33.1255 14.0747 33.0596 14.1919 32.9424C14.3092 32.8252 14.375 32.6662 14.375 32.5005V28.3842L16.0669 26.6923L15.1831 25.8086ZM13.125 31.8755H9.375V28.1255H12.8663L11.25 29.7417L10.4419 28.9336L9.55813 29.8173L10.8081 31.0673C10.9253 31.1845 11.0843 31.2503 11.25 31.2503C11.4157 31.2503 11.5747 31.1845 11.6919 31.0673L13.125 29.6342V31.8755Z" fill="#2B76C1"/>
</svg>
