<svg width="45" height="46" viewBox="0 0 45 46" fill="none" xmlns="http://www.w3.org/2000/svg">
<path d="M26.0039 23.0091C26.0039 20.915 24.2551 19.2175 22.0978 19.2175C19.9404 19.2175 18.1914 20.915 18.1914 23.0091C18.1914 25.1031 19.9404 26.8007 22.0978 26.8007C24.2551 26.8007 26.0039 25.1031 26.0039 23.0091Z" fill="#2B76C1" stroke="#2B76C1" stroke-linecap="round" stroke-linejoin="round"/>
<path d="M43.1954 23.0091C43.1954 18.4016 33.7497 14.6664 22.0978 14.6664C10.4459 14.6664 1 18.4016 1 23.0091C1 27.6167 10.4459 31.3518 22.0978 31.3518C33.7497 31.3518 43.1954 27.6167 43.1954 23.0091Z" stroke="#2B76C1" stroke-width="2" stroke-linecap="round" stroke-linejoin="round"/>
<path d="M10.4921 4.15656C6.39539 6.45236 8.00218 16.5983 14.0809 26.818C20.1597 37.0378 28.4086 43.4614 32.5052 41.1656C36.6019 38.8698 34.9951 28.7239 28.9163 18.5042C22.8375 8.28443 14.5887 1.86075 10.4921 4.15656Z" stroke="#2B76C1" stroke-width="2" stroke-linecap="round" stroke-linejoin="round"/>
<path d="M32.4953 4.83376C36.5919 7.12957 34.9852 17.2754 28.9064 27.4952C22.8276 37.7149 14.5788 44.1386 10.4821 41.8428C6.38541 39.547 7.9923 29.4011 14.0711 19.1814C20.1498 8.96159 28.3986 2.53796 32.4953 4.83376Z" stroke="#2B76C1" stroke-width="2" stroke-linecap="round" stroke-linejoin="round"/>
</svg>
