<svg width="77" height="77" viewBox="0 0 77 77" fill="none" xmlns="http://www.w3.org/2000/svg">
<path d="M38.5002 45.3123C42.2976 45.3123 45.376 42.2339 45.376 38.4364C45.376 34.639 42.2976 31.5605 38.5002 31.5605C34.7027 31.5605 31.6243 34.639 31.6243 38.4364C31.6243 42.2339 34.7027 45.3123 38.5002 45.3123Z" fill="#00D8FF"/>
<path fill-rule="evenodd" clip-rule="evenodd" d="M38.5004 24.4563C47.7322 24.4563 56.3083 25.781 62.7746 28.0071C70.5657 30.6894 75.3559 34.755 75.3559 38.4364C75.3559 42.2727 70.2792 46.5919 61.9127 49.3639C55.5874 51.4596 47.2637 52.5536 38.5004 52.5536C29.5155 52.5536 21.0074 51.5267 14.6108 49.3409C6.51796 46.5748 1.64355 42.1997 1.64355 38.4364C1.64355 34.7849 6.21725 30.7506 13.8988 28.0725C20.3893 25.8096 29.1771 24.4563 38.4991 24.4563H38.5004Z" stroke="#00D8FF" stroke-width="2.73408"/>
<path fill-rule="evenodd" clip-rule="evenodd" d="M26.3304 31.4867C30.9424 23.4895 36.3741 16.722 41.5331 12.2325C47.7487 6.82327 53.6638 4.70487 56.8528 6.5438C60.1762 8.46031 61.3815 15.016 59.6032 23.6483C58.26 30.1749 55.0481 37.9316 50.6702 45.5231C46.1815 53.3065 41.0417 60.1639 35.9531 64.6117C29.514 70.2405 23.2887 72.2775 20.0288 70.3975C16.8654 68.5746 15.6557 62.596 17.1733 54.6036C18.4555 47.8507 21.6732 39.562 26.3289 31.4865L26.3304 31.4867Z" stroke="#00D8FF" stroke-width="2.73408"/>
<path fill-rule="evenodd" clip-rule="evenodd" d="M26.3417 45.5436C21.7166 37.5555 18.5676 29.4683 17.2532 22.7567C15.671 14.6702 16.7897 8.48739 19.9758 6.64312C23.2959 4.72099 29.5775 6.95068 36.1681 12.8026C41.151 17.2269 46.2677 23.8821 50.6584 31.4665C55.16 39.2423 58.5339 47.1201 59.8464 53.75C61.5072 62.1398 60.163 68.5502 56.9061 70.4356C53.7459 72.2651 47.9629 70.3282 41.7966 65.0218C36.5865 60.5385 31.0124 53.6111 26.3417 45.5435V45.5436Z" stroke="#00D8FF" stroke-width="2.73408"/>
</svg>
