<svg width="40" height="40" viewBox="0 0 40 40" fill="none" xmlns="http://www.w3.org/2000/svg">
<path d="M39.205 9.97712L39.2052 10.61L39.25 10.6176V30.0579C39.2085 30.9083 39.1269 31.7556 39.0053 32.5962C38.8766 33.4095 38.6165 34.1918 38.2375 34.9091L38.2317 34.9202L38.2262 34.9315C37.8738 35.6561 37.4093 36.2999 36.8578 36.8338C36.2413 37.4008 35.5618 37.8715 34.8379 38.235L34.8316 38.2382L34.8253 38.2415C34.1275 38.6086 33.3848 38.8666 32.6213 39.0059L32.6213 39.0058L32.612 39.0076C31.7916 39.1679 30.9606 39.249 30.1282 39.25H9.87423C9.59529 39.2237 9.29788 39.2049 9.01161 39.1868C8.86307 39.1774 8.71752 39.1682 8.57911 39.1583C8.14262 39.1269 7.73668 39.086 7.36279 39.0091L7.3533 39.0072L7.34375 39.0054C6.56041 38.8653 5.80707 38.6115 5.1045 38.2336L5.08869 38.2251L5.07248 38.2173C4.37533 37.8843 3.72954 37.4208 3.16374 36.8433C2.0399 35.6958 1.27872 34.205 0.991795 32.5724L0.991912 32.5724L0.989368 32.5593C0.830607 31.7416 0.750321 30.907 0.75 30.0698C0.75 30.0697 0.75 30.0696 0.75 30.0695L0.75 9.78561C0.791832 8.93903 0.873521 8.09555 0.994713 7.25866C1.12272 6.44652 1.38409 5.66198 1.75899 4.93202L1.75908 4.93207L1.76442 4.92125C2.12416 4.1922 2.59744 3.54637 3.15849 3.01311L3.15857 3.01319L3.16781 3.00409C3.20494 2.96756 3.24359 2.93877 3.33947 2.86826C3.41865 2.81003 3.53585 2.72373 3.65613 2.60341C4.11167 2.22987 4.59349 1.89999 5.09643 1.61687L5.65456 1.37595L5.6555 1.37554C6.19483 1.14187 6.7542 0.989649 7.32434 0.919128L7.33804 0.917433L7.35167 0.915235C7.95924 0.817261 8.57159 0.762087 9.18512 0.75H30.0476C30.3266 0.77627 30.6239 0.795073 30.9102 0.813173C31.0588 0.822567 31.2043 0.831773 31.3428 0.841734C31.7793 0.87314 32.1852 0.91397 32.5591 0.990894L32.5686 0.992847L32.5781 0.994555C33.3615 1.13473 34.1148 1.38853 34.8174 1.76642L34.8321 1.77433L34.8471 1.78158C35.5575 2.12383 36.2139 2.6019 36.7859 3.19779L36.7859 3.19782L36.7911 3.20319C37.915 4.35077 38.6763 5.84164 38.9632 7.47422L38.9631 7.47424L38.9656 7.48734C39.1244 8.30512 39.2047 9.13979 39.205 9.97712Z" stroke="#2B76C1" stroke-width="1.5"/>
<path d="M26.4827 29.8952C27.3168 29.5387 28.452 29.1551 29.557 29.2205C30.6143 29.2831 31.6954 29.7553 32.496 31.2835C32.551 31.3913 32.6827 31.6112 32.9515 31.7268C33.3092 31.8806 33.635 31.7471 33.8176 31.595C33.971 31.4672 34.0575 31.3091 34.1045 31.2085C34.1579 31.0943 34.1983 30.9707 34.2296 30.849C34.3521 30.3728 34.4007 29.6667 34.3271 28.8377C34.1839 27.2235 33.5651 25.004 31.914 22.8299C31.9346 22.7535 31.9537 22.6628 31.9626 22.5625C33.7139 15.6193 29.3995 7.54574 22.3625 3.28695L21.3678 4.36996C24.2426 8.31954 25.494 13.0136 24.3833 17.0667L24.3828 17.0683C24.3616 17.1465 24.3394 17.2245 24.3164 17.3021C19.3208 14.0117 14.6631 10.1774 10.4187 5.86043L9.26309 6.80701C10.7865 9.0548 12.4044 11.2283 14.1115 13.3207C11.5682 11.4655 9.10931 9.48169 6.74335 7.37556L5.59769 8.31511C6.10825 9.18589 6.69704 9.9984 7.35559 10.74C10.8404 15.3995 14.8306 19.6084 19.2435 23.2806C15.9996 24.833 11.616 24.7707 7.15051 22.7221L7.15056 22.722L7.13821 22.7166C5.95891 22.2011 4.84413 21.5298 3.81858 20.7192L2.72016 21.7093C5.10282 25.4661 8.50063 28.3844 12.4775 30.0804C17.5517 32.2568 22.6832 32.0792 26.4827 29.8952ZM32.7458 30.5731C32.7434 30.5781 32.7436 30.5768 32.7467 30.5708C32.7463 30.5718 32.746 30.5725 32.7458 30.5731Z" fill="#FEFEFE" stroke="#2B76C1" stroke-width="1.5"/>
</svg>
