<svg width="80" height="80" viewBox="0 0 80 80" fill="none" xmlns="http://www.w3.org/2000/svg">
<g opacity="0.8">
<path d="M74.9212 22.4595C74.9207 20.9107 74.7722 19.3664 74.4783 17.8527C73.9314 14.7413 72.479 11.8895 70.3222 9.68722C69.2166 8.53552 67.9413 7.60462 66.5521 6.93534C65.1926 6.2041 63.7413 5.71661 62.2429 5.44849C60.762 5.14381 59.1258 5.14381 57.646 5H21.0612C19.9216 5.02183 18.7845 5.124 17.6565 5.3059C16.5332 5.44484 15.433 5.74464 14.3753 6.20288L13.3363 6.65137C12.3453 7.2043 11.3993 7.85226 10.509 8.58793C10.2203 8.89261 9.91297 9.03642 9.62314 9.3216C8.5251 10.3652 7.60608 11.6222 6.91072 13.0314C6.19215 14.4305 5.68904 15.9393 5.44295 17.5066C5.22274 19.0255 5.07488 20.5563 5 22.0926L5 57.6222C5.00056 59.1709 5.14905 60.7152 5.44295 62.229C5.98981 65.3404 7.44227 68.1922 9.59907 70.3944C10.6929 71.5107 11.9479 72.4135 13.3111 73.0647C14.6706 73.7959 16.122 74.2834 17.6204 74.5515C19.1013 74.8562 20.7375 74.8562 22.2173 75H57.7258C59.2669 74.9981 60.8049 74.8481 62.3227 74.5515C63.7927 74.2834 65.2189 73.7874 66.5554 73.0842C67.9388 72.3894 69.2325 71.4914 70.402 70.4139C71.4865 69.3668 72.3924 68.11 73.0761 66.7041C73.8089 65.3172 74.3099 63.8072 74.557 62.2399C74.7779 60.7142 74.9258 59.1764 75 57.6331V22.4729L74.9212 22.4595Z" fill="#F05138"/>
<path d="M51.7422 59.1491C45.5103 62.7566 36.9497 63.1222 28.352 59.4343C21.6443 56.574 15.9012 51.6467 11.8687 45.2886C13.7498 46.7754 15.7973 48.0088 17.9661 48.9569C26.8526 53.0336 35.7587 52.8495 42.0104 48.9569C33.7583 42.3027 26.3265 34.5784 19.89 25.9644C18.781 24.7212 17.7886 23.3553 16.9282 21.8878C23.6873 27.9046 30.8774 33.356 38.4339 38.1944C32.9303 32.2811 27.8686 25.9218 23.2969 19.1761C30.9212 26.9309 39.3023 33.8045 48.3003 39.6824L49.2628 40.2528C49.523 39.5884 49.748 38.9076 49.9365 38.2139C52.0146 30.6309 49.6478 22.0097 44.4548 14.8752C56.4769 22.151 63.5948 35.8288 60.6309 47.2848C60.6309 47.5895 60.4778 47.8966 60.3793 48.2025L60.4756 48.3244C66.4188 55.7647 64.7848 63.6316 64.0345 62.1448C60.784 55.9293 54.7631 57.8427 51.7433 59.1467L51.7422 59.1491Z" fill="#FEFEFE"/>
</g>
</svg>
