<svg width="80" height="80" viewBox="0 0 80 80" fill="none" xmlns="http://www.w3.org/2000/svg">
<path d="M12.6406 6H67.3594C71.0269 6 74 8.97314 74 12.6406V67.3594C74 71.0269 71.0269 74 67.3594 74H12.6406C8.97314 74 6 71.0269 6 67.3594V12.6406C6 8.97314 8.97314 6 12.6406 6Z" fill="#3178C6"/>
<path d="M12.6406 6H67.3594C71.0269 6 74 8.97314 74 12.6406V67.3594C74 71.0269 71.0269 74 67.3594 74H12.6406C8.97314 74 6 71.0269 6 67.3594V12.6406C6 8.97314 8.97314 6 12.6406 6Z" fill="#3178C6"/>
<path fill-rule="evenodd" clip-rule="evenodd" d="M48.0935 60.111V66.7597C49.1743 67.3138 50.4526 67.7293 51.9284 68.0063C53.4042 68.2834 54.9596 68.4219 56.5948 68.4219C59.4129 68.4219 62.498 68.0188 64.9091 66.4584C67.3082 64.9057 68.4219 62.3226 68.4219 59.5293C68.4219 57.4525 67.7776 55.4541 66.3225 53.9404C64.1405 51.6705 61.0743 50.75 58.3199 49.4005C56.9401 48.7245 55.0358 47.675 55.0358 45.8994C55.0358 45.4424 55.1536 45.0304 55.3893 44.6633C56.3365 43.1874 58.4403 42.8868 60.0453 42.8868C61.867 42.8868 63.7891 43.2947 65.4807 44.0503C66.0696 44.3135 66.6135 44.6182 67.1123 44.9645V38.7521C66.1008 38.3643 64.9957 38.0769 63.7971 37.8899C62.5984 37.7029 61.223 37.6094 59.6711 37.6094C58.0913 37.6094 56.5948 37.7791 55.1814 38.1184C53.768 38.4578 52.5243 38.9876 51.4503 39.7078C50.3764 40.4282 49.5277 41.3458 48.9041 42.4609C48.2806 43.5758 47.9688 44.909 47.9688 46.4604C47.9688 48.4412 48.5404 50.1311 49.6836 51.5301C50.8267 52.929 52.5623 54.1133 54.8904 55.083C56.4565 55.7234 58.0849 56.3555 59.4944 57.3061C60.4712 57.9649 61.3547 58.8835 61.3547 60.1317C61.3547 61.0376 60.8425 61.8057 60.0972 62.2822C58.9944 62.9872 57.5822 63.1444 56.3037 63.1444C54.8625 63.1444 53.4353 62.8917 52.0218 62.3861C50.6085 61.8806 49.299 61.1222 48.0935 60.111ZM36.9161 43.7296H45.4453V38.2734H21.6719V43.7296H30.1594V68.0234H36.9161V43.7296Z" fill="#F4C0C0"/>
</svg>
