<svg width="71" height="71" viewBox="0 0 71 71" fill="none" xmlns="http://www.w3.org/2000/svg">
<path d="M0 0H60C66.0751 0 71 4.92487 71 11V71H8C3.58172 71 0 67.4183 0 63V0Z" fill="#FF7014"/>
<path d="M50.6484 37.1506H47.2456C47.5924 38.1002 47.7819 39.125 47.7819 40.1932V53.0537C47.7819 53.499 47.7044 53.9265 47.5634 54.324H53.1889C55.2904 54.324 56.9999 52.6144 56.9999 50.513V43.5022C57 40 54.1507 37.1506 50.6484 37.1506ZM22.2181 40.1932C22.2181 39.125 22.4076 38.1003 22.7544 37.1507H19.3516C15.8493 37.1507 13 40.0001 13 43.5023V50.5132C13 52.6146 14.7096 54.3242 16.811 54.3242H22.4366C22.2918 53.9163 22.2179 53.4866 22.2181 53.0538V40.1932ZM38.8896 33.8416H31.1104C27.6081 33.8416 24.7587 36.6909 24.7587 40.1932V53.0538C24.7587 53.7553 25.3275 54.3241 26.0291 54.3241H43.9709C44.6725 54.3241 45.2413 53.7554 45.2413 53.0538V40.1932C45.2413 36.6909 42.3919 33.8416 38.8896 33.8416ZM35 17C30.788 17 27.3614 20.4267 27.3614 24.6387C27.3614 27.4957 28.9382 29.9909 31.267 31.3009C32.3715 31.9223 33.6449 32.2774 35 32.2774C36.3551 32.2774 37.6285 31.9223 38.733 31.3009C41.0619 29.9909 42.6386 27.4956 42.6386 24.6387C42.6386 20.4268 39.212 17 35 17ZM21.5867 24.1198C18.4367 24.1198 15.874 26.6825 15.874 29.8325C15.874 32.9826 18.4367 35.5452 21.5867 35.5452C22.3608 35.5459 23.1268 35.3883 23.8378 35.0822C25.0329 34.5677 26.0182 33.6569 26.628 32.5161C27.0697 31.6906 27.3003 30.7687 27.2994 29.8325C27.2994 26.6826 24.7367 24.1198 21.5867 24.1198ZM48.4133 24.1198C45.2633 24.1198 42.7006 26.6825 42.7006 29.8325C42.6997 30.7687 42.9303 31.6906 43.372 32.5161C43.9818 33.657 44.9671 34.5678 46.1622 35.0822C46.8731 35.3883 47.6392 35.5459 48.4133 35.5452C51.5633 35.5452 54.126 32.9826 54.126 29.8325C54.126 26.6825 51.5633 24.1198 48.4133 24.1198Z" fill="white"/>
</svg>
