<svg width="40" height="40" viewBox="0 0 40 40" fill="none" xmlns="http://www.w3.org/2000/svg">
<g clip-path="url(#clip0_0_2117)">
<path d="M20 23.75C15 23.75 14.0031 22.5287 13.8156 22.1544C13.7724 22.0676 13.7499 21.972 13.75 21.875V20C13.7513 18.8401 14.2127 17.7281 15.0329 16.9079C15.8531 16.0877 16.9651 15.6263 18.125 15.625H21.875C23.0349 15.6263 24.1469 16.0877 24.9671 16.9079C25.7873 17.7281 26.2487 18.8401 26.25 20V21.875C26.2511 21.9717 26.2297 22.0673 26.1875 22.1544C26 22.5287 25 23.75 20 23.75ZM15 21.6456C15.2638 21.8381 16.4031 22.5 20 22.5C23.525 22.5 24.6875 21.8644 25 21.6287V20C24.999 19.1715 24.6694 18.3772 24.0836 17.7914C23.4978 17.2056 22.7035 16.876 21.875 16.875H18.125C17.2965 16.876 16.5022 17.2056 15.9164 17.7914C15.3306 18.3772 15.001 19.1715 15 20V21.6456Z" fill="#2B76C1"/>
<path d="M20 16.875C19.2583 16.875 18.5333 16.6551 17.9166 16.243C17.2999 15.831 16.8193 15.2453 16.5355 14.5601C16.2516 13.8748 16.1774 13.1208 16.3221 12.3934C16.4668 11.666 16.8239 10.9978 17.3484 10.4734C17.8728 9.9489 18.541 9.59175 19.2684 9.44706C19.9958 9.30236 20.7498 9.37662 21.4351 9.66045C22.1203 9.94428 22.706 10.4249 23.118 11.0416C23.5301 11.6583 23.75 12.3833 23.75 13.125C23.749 14.1193 23.3536 15.0725 22.6506 15.7756C21.9475 16.4786 20.9943 16.874 20 16.875ZM20 10.625C19.5055 10.625 19.0222 10.7716 18.6111 11.0463C18.2 11.321 17.8795 11.7115 17.6903 12.1683C17.5011 12.6251 17.4516 13.1278 17.548 13.6127C17.6445 14.0977 17.8826 14.5431 18.2322 14.8928C18.5819 15.2424 19.0273 15.4805 19.5123 15.577C19.9972 15.6734 20.4999 15.6239 20.9567 15.4347C21.4135 15.2455 21.804 14.925 22.0787 14.5139C22.3534 14.1028 22.5 13.6195 22.5 13.125C22.5 12.462 22.2366 11.8261 21.7678 11.3572C21.2989 10.8884 20.663 10.625 20 10.625ZM33.75 23.75C32.8906 23.7549 32.0317 23.7102 31.1775 23.6163L31.3225 22.375C32.1286 22.4632 32.9391 22.5049 33.75 22.5C37.275 22.5 38.4375 21.8644 38.75 21.6288V20C38.749 19.1715 38.4195 18.3772 37.8336 17.7914C37.2478 17.2056 36.4535 16.876 35.625 16.875H33.75V15.625H35.625C36.7849 15.6263 37.8969 16.0877 38.7171 16.9079C39.5373 17.7281 39.9987 18.8401 40 20V21.875C40.0011 21.9717 39.9797 22.0673 39.9375 22.1544C39.75 22.5288 38.75 23.75 33.75 23.75Z" fill="#2B76C1"/>
<path d="M33.75 16.875V15.625C34.413 15.625 35.0489 15.3616 35.5178 14.8928C35.9866 14.4239 36.25 13.7881 36.25 13.125C36.25 12.462 35.9866 11.8261 35.5178 11.3573C35.0489 10.8884 34.413 10.625 33.75 10.625C33.2088 10.6232 32.6819 10.7988 32.25 11.125L31.5 10.125C32.1478 9.63574 32.9382 9.37229 33.75 9.37502C34.7446 9.37502 35.6984 9.77011 36.4016 10.4734C37.1049 11.1766 37.5 12.1305 37.5 13.125C37.5 14.1196 37.1049 15.0734 36.4016 15.7767C35.6984 16.4799 34.7446 16.875 33.75 16.875ZM6.25 23.75C1.25 23.75 0.25 22.5288 0.0656253 22.1544C0.022377 22.0676 -9.01854e-05 21.972 2.72069e-07 21.875V20C0.00132362 18.8401 0.462685 17.7281 1.28287 16.9079C2.10305 16.0877 3.21508 15.6263 4.375 15.625H6.25V16.875H4.375C3.5465 16.876 2.75222 17.2056 2.16639 17.7914C1.58055 18.3772 1.25099 19.1715 1.25 20V21.6456C1.51375 21.8381 2.65312 22.5 6.25 22.5C7.06089 22.505 7.8714 22.4632 8.6775 22.375L8.8225 23.6163C7.96828 23.7103 7.10936 23.7549 6.25 23.75Z" fill="#2B76C1"/>
<path d="M6.25 16.875C5.25544 16.875 4.30161 16.4799 3.59835 15.7767C2.89509 15.0734 2.5 14.1196 2.5 13.125C2.5 12.1304 2.89509 11.1766 3.59835 10.4734C4.30161 9.77009 5.25544 9.37501 6.25 9.37501C7.06183 9.37227 7.85218 9.63572 8.5 10.125L7.75 11.125C7.31814 10.7988 6.79123 10.6231 6.25 10.625C5.58696 10.625 4.95107 10.8884 4.48223 11.3572C4.01339 11.8261 3.75 12.462 3.75 13.125C3.75 13.788 4.01339 14.4239 4.48223 14.8928C4.95107 15.3616 5.58696 15.625 6.25 15.625V16.875ZM20 28.125C17.6513 28.125 15.3554 27.4285 13.4026 26.1237C11.4498 24.8189 9.92772 22.9642 9.02893 20.7944C8.13014 18.6245 7.89498 16.2368 8.35318 13.9333C8.81137 11.6298 9.94236 9.51386 11.6031 7.85311C13.2639 6.19236 15.3798 5.06138 17.6833 4.60318C19.9868 4.14498 22.3745 4.38015 24.5444 5.27894C26.7142 6.17773 28.5689 7.69977 29.8737 9.65261C31.1785 11.6054 31.875 13.9014 31.875 16.25C31.8715 19.3984 30.6193 22.4168 28.3931 24.6431C26.1668 26.8693 23.1484 28.1215 20 28.125ZM20 5.62501C17.8986 5.62501 15.8443 6.24815 14.0971 7.41564C12.3498 8.58313 10.988 10.2425 10.1838 12.184C9.3796 14.1255 9.16919 16.2618 9.57916 18.3228C9.98912 20.3839 11.0011 22.2771 12.487 23.763C13.9729 25.2489 15.8661 26.2609 17.9272 26.6708C19.9882 27.0808 22.1245 26.8704 24.066 26.0662C26.0075 25.262 27.6669 23.9002 28.8344 22.1529C30.0019 20.4057 30.625 18.3514 30.625 16.25C30.6219 13.433 29.5014 10.7324 27.5095 8.74047C25.5176 6.74857 22.817 5.62815 20 5.62501Z" fill="#2B76C1"/>
<path d="M27.6836 24.8176L28.5673 23.9338L31.0673 26.4338L30.1836 27.3176L27.6836 24.8176Z" fill="#2B76C1"/>
<path d="M36.2499 35.6251C36.0841 35.6251 35.9252 35.5592 35.808 35.442L28.933 28.567C28.8158 28.4498 28.75 28.2908 28.75 28.1251C28.75 27.9594 28.8158 27.8004 28.933 27.6832L31.433 25.1832C31.5502 25.0661 31.7091 25.0002 31.8749 25.0002C32.0406 25.0002 32.1995 25.0661 32.3167 25.1832L39.1917 32.0582C39.3089 32.1754 39.3747 32.3344 39.3747 32.5001C39.3747 32.6658 39.3089 32.8248 39.1917 32.942L36.6917 35.442C36.5746 35.5592 36.4156 35.6251 36.2499 35.6251ZM30.2586 28.1251L36.2499 34.1164L37.8661 32.5001L31.8749 26.5089L30.2586 28.1251Z" fill="#2B76C1"/>
</g>
<defs>
<clipPath id="clip0_0_2117">
<rect width="40" height="40" fill="white"/>
</clipPath>
</defs>
</svg>
