<svg width="170" height="170" viewBox="0 0 170 170" fill="none" xmlns="http://www.w3.org/2000/svg">
<path d="M150.933 112.267H89.4794C88.3805 112.267 87.4863 111.373 87.4863 110.274V20.7611C87.4863 19.6623 88.3805 18.7681 89.4794 18.7681H150.933C152.032 18.7681 152.926 19.6619 152.926 20.7611V110.274C152.926 111.373 152.032 112.267 150.933 112.267ZM89.4794 18.8531C88.4271 18.8531 87.5713 19.7092 87.5713 20.7611V110.274C87.5713 111.326 88.4274 112.182 89.4794 112.182H150.933C151.985 112.182 152.841 111.326 152.841 110.274V20.7611C152.841 19.7092 151.985 18.8531 150.933 18.8531H89.4794Z" fill="#E0E0E0"/>
<path d="M80.0677 112.267H18.6137C17.5148 112.267 16.6206 111.373 16.6206 110.274V20.7611C16.6206 19.6623 17.5145 18.7681 18.6137 18.7681H80.0677C81.1665 18.7681 82.0607 19.6619 82.0607 20.7611V110.274C82.0607 111.373 81.1665 112.267 80.0677 112.267ZM18.6137 18.8531C17.5617 18.8531 16.7056 19.7092 16.7056 20.7611V110.274C16.7056 111.326 17.5617 112.182 18.6137 112.182H80.0677C81.12 112.182 81.9757 111.326 81.9757 110.274V20.7611C81.9757 19.7092 81.1196 18.8531 80.0677 18.8531H18.6137Z" fill="#E0E0E0"/>
<path d="M170 133.031H0V133.116H170V133.031Z" fill="#E0E0E0"/>
<path d="M23.0288 137.88H17.5684V137.965H23.0288V137.88Z" fill="#E0E0E0"/>
<path d="M76.1201 136.959H57.9199V137.044H76.1201V136.959Z" fill="#E0E0E0"/>
<path d="M35.6937 141.039H23.3687V141.124H35.6937V141.039Z" fill="#E0E0E0"/>
<path d="M143.324 136.915H128.64V137H143.324V136.915Z" fill="#E0E0E0"/>
<path d="M148.506 136.915H146.354V137H148.506V136.915Z" fill="#E0E0E0"/>
<path d="M125.835 139.033H107.512V139.118H125.835V139.033Z" fill="#E0E0E0"/>
<path d="M64.4091 120.901C64.198 119.883 63.7944 118.936 63.2426 118.095L64.2473 116.881L62.0992 114.733L60.8854 115.737C60.0445 115.186 59.0976 114.782 58.0793 114.571L57.9321 113.006H54.8942L54.7467 114.571C53.7284 114.782 52.7815 115.185 51.9406 115.737L50.7268 114.733L48.5787 116.881L49.5834 118.095C49.0316 118.936 48.628 119.883 48.4169 120.901L46.8525 121.048V124.086L48.4169 124.234C48.628 125.252 49.0316 126.199 49.5834 127.04L48.5787 128.254L50.7268 130.402L51.9406 129.397C52.7815 129.949 53.7284 130.352 54.7467 130.563L54.8942 132.128H57.9321L58.0793 130.563C59.0976 130.352 60.0445 129.949 60.8854 129.396L62.0992 130.401L64.2473 128.253L63.2426 127.04C63.7944 126.199 64.198 125.252 64.4091 124.234L65.9735 124.086V121.048L64.4091 120.901ZM60.526 122.567C60.526 124.839 58.6845 126.68 56.4133 126.68C54.1418 126.68 52.3007 124.839 52.3007 122.567C52.3007 120.296 54.1421 118.455 56.4133 118.455C58.6845 118.455 60.526 120.296 60.526 122.567Z" fill="#E0E0E0"/>
<path d="M41.2306 86.6706C41.0844 85.9655 40.8049 85.3099 40.4228 84.7275L41.1184 83.887L39.6309 82.3995L38.7904 83.0952C38.208 82.7134 37.5525 82.4335 36.8473 82.2873L36.7453 81.2041H34.6418L34.5398 82.2873C33.8346 82.4335 33.1791 82.713 32.5967 83.0952L31.7562 82.3995L30.2687 83.887L30.9643 84.7275C30.5822 85.3096 30.3027 85.9655 30.1565 86.6706L29.0732 86.7726V88.8762L30.1565 88.9782C30.3027 89.6834 30.5822 90.3389 30.9643 90.9213L30.2687 91.7618L31.7562 93.2493L32.5967 92.5533C33.1787 92.9355 33.8346 93.2149 34.5398 93.3611L34.6418 94.4444H36.7453L36.8473 93.3611C37.5525 93.2149 38.208 92.9355 38.7904 92.5533L39.6309 93.2493L41.1184 91.7618L40.4228 90.9213C40.8049 90.3389 41.0844 89.6834 41.2306 88.9782L42.3139 88.8762V86.7726L41.2306 86.6706ZM38.5416 87.8242C38.5416 89.3971 37.2666 90.6721 35.6937 90.6721C34.1209 90.6721 32.8459 89.3971 32.8459 87.8242C32.8459 86.2514 34.1209 84.9764 35.6937 84.9764C37.2666 84.9764 38.5416 86.2514 38.5416 87.8242Z" fill="#E0E0E0"/>
<path d="M96.249 31.4097C95.9944 30.1813 95.5075 29.0393 94.8418 28.025L96.0539 26.561L93.4627 23.9699L91.9987 25.1816C90.9845 24.5162 89.8424 24.0294 88.614 23.7747L88.4362 21.8877H84.772L84.5942 23.7747C83.3657 24.0294 82.2237 24.5162 81.2095 25.1816L79.7454 23.9699L77.1543 26.561L78.366 28.025C77.7003 29.0393 77.2138 30.1813 76.9588 31.4097L75.0718 31.5876V35.2517L76.9588 35.4296C77.2134 36.658 77.7003 37.7997 78.366 38.8139L77.1543 40.278L79.7454 42.8691L81.2095 41.657C82.2237 42.3231 83.3657 42.8096 84.5942 43.0643L84.772 44.9513H88.4365L88.6143 43.0646C89.8427 42.8099 90.9848 42.3231 91.999 41.6573L93.4631 42.8694L96.0542 40.2783L94.8421 38.8146C95.5078 37.8 95.9947 36.6583 96.2494 35.4299L98.136 35.2521V31.5879L96.249 31.4097ZM91.5648 33.4198C91.5648 36.1595 89.344 38.3804 86.6042 38.3804C83.8645 38.3804 81.6436 36.1592 81.6436 33.4198C81.6436 30.6801 83.8645 28.4592 86.6042 28.4592C89.344 28.4592 91.5648 30.6801 91.5648 33.4198Z" fill="#D4D6D7"/>
<path d="M107.578 23.3666C107.461 22.8022 107.237 22.2776 106.931 21.8118L107.488 21.1393L106.298 19.9489L105.626 20.5055C105.16 20.1999 104.635 19.9761 104.071 19.8592L103.989 18.9922H102.306L102.224 19.8592C101.66 19.9761 101.135 20.1999 100.669 20.5055L99.9969 19.9489L98.8065 21.1393L99.3631 21.8118C99.0574 22.2776 98.8337 22.8022 98.7168 23.3666L97.8501 23.4482V25.1316L98.7168 25.2132C98.8337 25.7776 99.0574 26.3018 99.3631 26.768L98.8065 27.4405L99.9969 28.6308L100.669 28.0739C101.135 28.3799 101.66 28.6033 102.224 28.7203L102.306 29.5869H103.989L104.071 28.7203C104.635 28.6033 105.16 28.3796 105.626 28.0736L106.298 28.6305L107.488 27.4402L106.931 26.7676C107.237 26.3015 107.461 25.7769 107.578 25.2128L108.444 25.1312V23.4479L107.578 23.3666ZM105.426 24.2897C105.426 25.5484 104.406 26.5687 103.147 26.5687C101.888 26.5687 100.868 25.5484 100.868 24.2897C100.868 23.031 101.888 22.0107 103.147 22.0107C104.406 22.011 105.426 23.031 105.426 24.2897Z" fill="#D4D6D7"/>
<path d="M128.726 47.2573V39.6338H133.399V47.1189C133.399 49.2378 134.21 50.0293 135.518 50.0293C136.824 50.0293 137.637 49.2374 137.637 47.1189V39.6338H142.23V47.2573C142.23 51.4155 139.735 53.8118 135.478 53.8118C131.221 53.8118 128.726 51.4155 128.726 47.2573Z" fill="#D4D6D7"/>
<path d="M144.37 39.6338H149.043V53.4949H144.37V39.6338Z" fill="#D4D6D7"/>
<path d="M20.2275 32.6211V22.0107H26.7314V32.428C26.7314 35.3772 27.8612 36.4788 29.6799 36.4788C31.4989 36.4788 32.6287 35.3768 32.6287 32.428V22.0107H39.0224V32.6211C39.0224 38.4079 35.55 41.743 29.6251 41.743C23.7003 41.743 20.2275 38.4079 20.2275 32.6211Z" fill="#D4D6D7"/>
<path d="M53.9325 41.302L50.5977 36.1483L47.346 41.302H39.9326L46.905 31.5739L40.1808 22.0107H47.4837L50.7633 26.8612L53.96 22.0107H60.9599L54.2629 31.3257L61.373 41.3017L53.9325 41.302Z" fill="#D4D6D7"/>
<path d="M130.698 63.4979C130.334 61.7391 129.637 60.1037 128.684 58.6516L130.419 56.5555L126.709 52.8454L124.613 54.5804C123.16 53.6277 121.525 52.9304 119.766 52.5659L119.512 49.8643H114.265L114.01 52.5659C112.252 52.9307 110.616 53.6277 109.164 54.5804L107.068 52.8454L103.358 56.5555L105.093 58.6516C104.14 60.1037 103.443 61.7388 103.079 63.4979L100.377 63.7526V68.9991L103.079 69.2538C103.443 71.0126 104.14 72.6473 105.093 74.0998L103.358 76.1959L107.068 79.906L109.164 78.1703C110.616 79.1236 112.252 79.8203 114.01 80.1851L114.265 82.8868H119.512L119.766 80.1855C121.525 79.821 123.16 79.1236 124.613 78.1703L126.709 79.906L130.419 76.1959L128.684 74.1001C129.637 72.6477 130.334 71.0126 130.698 69.2541L133.4 68.9995V63.7529L130.698 63.4979ZM123.992 66.3757C123.992 70.2983 120.812 73.4783 116.889 73.4783C112.966 73.4783 109.786 70.2983 109.786 66.3757C109.786 62.4528 112.966 59.2727 116.889 59.2727C120.812 59.2731 123.992 62.4531 123.992 66.3757Z" fill="#263238"/>
<path opacity="0.7" d="M130.698 63.4979C130.334 61.7391 129.637 60.1037 128.684 58.6516L130.419 56.5555L126.709 52.8454L124.613 54.5804C123.16 53.6277 121.525 52.9304 119.766 52.5659L119.512 49.8643H114.265L114.01 52.5659C112.252 52.9307 110.616 53.6277 109.164 54.5804L107.068 52.8454L103.358 56.5555L105.093 58.6516C104.14 60.1037 103.443 61.7388 103.079 63.4979L100.377 63.7526V68.9991L103.079 69.2538C103.443 71.0126 104.14 72.6473 105.093 74.0998L103.358 76.1959L107.068 79.906L109.164 78.1703C110.616 79.1236 112.252 79.8203 114.01 80.1851L114.265 82.8868H119.512L119.766 80.1855C121.525 79.821 123.16 79.1236 124.613 78.1703L126.709 79.906L130.419 76.1959L128.684 74.1001C129.637 72.6477 130.334 71.0126 130.698 69.2541L133.4 68.9995V63.7529L130.698 63.4979ZM123.992 66.3757C123.992 70.2983 120.812 73.4783 116.889 73.4783C112.966 73.4783 109.786 70.2983 109.786 66.3757C109.786 62.4528 112.966 59.2727 116.889 59.2727C120.812 59.2731 123.992 62.4531 123.992 66.3757Z" fill="#A8AEBF"/>
<path d="M153.823 69.1477C153.644 68.281 153.3 67.4756 152.83 66.7599L153.686 65.7273L151.858 63.8995L150.825 64.7542C150.109 64.2847 149.304 63.9413 148.437 63.7618L148.312 62.4307H145.726L145.601 63.7618C144.735 63.9416 143.929 64.285 143.213 64.7542L142.18 63.8995L140.352 65.7273L141.207 66.7602C140.738 67.4756 140.394 68.2814 140.214 69.148L138.883 69.2735V71.8585L140.214 71.984C140.394 72.8503 140.738 73.6561 141.207 74.3715L140.352 75.4044L142.18 77.2322L143.213 76.3771C143.929 76.847 144.734 77.1901 145.601 77.3699L145.726 78.701H148.312L148.437 77.3699C149.303 77.1904 150.109 76.847 150.825 76.3771L151.858 77.2322L153.686 75.4044L152.83 74.3718C153.3 73.6561 153.643 72.8506 153.823 71.984L155.154 71.8585V69.2735L153.823 69.1477ZM150.519 70.5655C150.519 72.4981 148.952 74.0651 147.019 74.0651C145.086 74.0651 143.52 72.4984 143.52 70.5655C143.52 68.6326 145.086 67.0659 147.019 67.0659C148.952 67.0659 150.519 68.6326 150.519 70.5655Z" fill="#263238"/>
<path opacity="0.8" d="M153.823 69.1477C153.644 68.281 153.3 67.4756 152.83 66.7599L153.686 65.7273L151.858 63.8995L150.825 64.7542C150.109 64.2847 149.304 63.9413 148.437 63.7618L148.312 62.4307H145.726L145.601 63.7618C144.735 63.9416 143.929 64.285 143.213 64.7542L142.18 63.8995L140.352 65.7273L141.207 66.7602C140.738 67.4756 140.394 68.2814 140.214 69.148L138.883 69.2735V71.8585L140.214 71.984C140.394 72.8503 140.738 73.6561 141.207 74.3715L140.352 75.4044L142.18 77.2322L143.213 76.3771C143.929 76.847 144.734 77.1901 145.601 77.3699L145.726 78.701H148.312L148.437 77.3699C149.303 77.1904 150.109 76.847 150.825 76.3771L151.858 77.2322L153.686 75.4044L152.83 74.3718C153.3 73.6561 153.643 72.8506 153.823 71.984L155.154 71.8585V69.2735L153.823 69.1477ZM150.519 70.5655C150.519 72.4981 148.952 74.0651 147.019 74.0651C145.086 74.0651 143.52 72.4984 143.52 70.5655C143.52 68.6326 145.086 67.0659 147.019 67.0659C148.952 67.0659 150.519 68.6326 150.519 70.5655Z" fill="white"/>
<path d="M63.8933 42.7666C63.6873 41.7724 63.2936 40.8483 62.7547 40.0279L63.7352 38.8433L61.6384 36.7466L60.4539 37.7271C59.6331 37.1886 58.709 36.7948 57.7152 36.5885L57.5714 35.0615H54.6062L54.4624 36.5885C53.4686 36.7945 52.5445 37.1886 51.7237 37.7271L50.5391 36.7466L48.4424 38.8433L49.4229 40.0279C48.8844 40.8487 48.4906 41.7728 48.2843 42.7666L46.7573 42.9104V45.8752L48.2843 46.019C48.4903 47.0129 48.8844 47.937 49.4229 48.7577L48.4424 49.9423L50.5391 52.0391L51.7237 51.0582C52.5445 51.5971 53.4686 51.9908 54.4624 52.1968L54.6062 53.7238H57.5714L57.7152 52.1972C58.709 51.9911 59.6331 51.5971 60.4539 51.0582L61.6384 52.0391L63.7352 49.9423L62.7547 48.7577C63.2932 47.9366 63.6873 47.0129 63.8933 46.019L65.4199 45.8752V42.9104L63.8933 42.7666ZM60.103 44.3928C60.103 46.6096 58.3058 48.4069 56.089 48.4069C53.8722 48.4069 52.0749 46.6096 52.0749 44.3928C52.0749 42.176 53.8722 40.3788 56.089 40.3788C58.3058 40.3788 60.103 42.176 60.103 44.3928Z" fill="#263238"/>
<path opacity="0.8" d="M63.8933 42.7666C63.6873 41.7724 63.2936 40.8483 62.7547 40.0279L63.7352 38.8433L61.6384 36.7466L60.4539 37.7271C59.6331 37.1886 58.709 36.7948 57.7152 36.5885L57.5714 35.0615H54.6062L54.4624 36.5885C53.4686 36.7945 52.5445 37.1886 51.7237 37.7271L50.5391 36.7466L48.4424 38.8433L49.4229 40.0279C48.8844 40.8487 48.4906 41.7728 48.2843 42.7666L46.7573 42.9104V45.8752L48.2843 46.019C48.4903 47.0129 48.8844 47.937 49.4229 48.7577L48.4424 49.9423L50.5391 52.0391L51.7237 51.0582C52.5445 51.5971 53.4686 51.9908 54.4624 52.1968L54.6062 53.7238H57.5714L57.7152 52.1972C58.709 51.9911 59.6331 51.5971 60.4539 51.0582L61.6384 52.0391L63.7352 49.9423L62.7547 48.7577C63.2932 47.9366 63.6873 47.0129 63.8933 46.019L65.4199 45.8752V42.9104L63.8933 42.7666ZM60.103 44.3928C60.103 46.6096 58.3058 48.4069 56.089 48.4069C53.8722 48.4069 52.0749 46.6096 52.0749 44.3928C52.0749 42.176 53.8722 40.3788 56.089 40.3788C58.3058 40.3788 60.103 42.176 60.103 44.3928Z" fill="#818997"/>
<path d="M125.599 39.4641C125.471 38.8453 125.225 38.27 124.89 37.759L125.501 37.0215L124.195 35.7159L123.458 36.3265C122.947 35.9913 122.372 35.7462 121.753 35.6176L121.663 34.667H119.817L119.728 35.6176C119.109 35.7458 118.534 35.9913 118.023 36.3265L117.285 35.7159L115.98 37.0215L116.59 37.759C116.255 38.27 116.009 38.8453 115.881 39.4641L114.931 39.5538V41.3997L115.881 41.4894C116.01 42.1082 116.255 42.6835 116.59 43.1945L115.98 43.932L117.285 45.2376L118.023 44.627C118.534 44.9625 119.109 45.2077 119.728 45.3359L119.817 46.2865H121.663L121.753 45.3359C122.372 45.2077 122.947 44.9622 123.458 44.627L124.195 45.2376L125.501 43.932L124.89 43.1945C125.226 42.6835 125.471 42.1082 125.599 41.4894L126.549 41.3997V39.5538L125.599 39.4641ZM123.239 40.4766C123.239 41.8566 122.12 42.9756 120.74 42.9756C119.36 42.9756 118.241 41.8566 118.241 40.4766C118.241 39.0962 119.36 37.9772 120.74 37.9772C122.12 37.9772 123.239 39.0965 123.239 40.4766Z" fill="#263238"/>
<path opacity="0.8" d="M125.599 39.4641C125.471 38.8453 125.225 38.27 124.89 37.759L125.501 37.0215L124.195 35.7159L123.458 36.3265C122.947 35.9913 122.372 35.7462 121.753 35.6176L121.663 34.667H119.817L119.728 35.6176C119.109 35.7458 118.534 35.9913 118.023 36.3265L117.285 35.7159L115.98 37.0215L116.59 37.759C116.255 38.27 116.009 38.8453 115.881 39.4641L114.931 39.5538V41.3997L115.881 41.4894C116.01 42.1082 116.255 42.6835 116.59 43.1945L115.98 43.932L117.285 45.2376L118.023 44.627C118.534 44.9625 119.109 45.2077 119.728 45.3359L119.817 46.2865H121.663L121.753 45.3359C122.372 45.2077 122.947 44.9622 123.458 44.627L124.195 45.2376L125.501 43.932L124.89 43.1945C125.226 42.6835 125.471 42.1082 125.599 41.4894L126.549 41.3997V39.5538L125.599 39.4641ZM123.239 40.4766C123.239 41.8566 122.12 42.9756 120.74 42.9756C119.36 42.9756 118.241 41.8566 118.241 40.4766C118.241 39.0962 119.36 37.9772 120.74 37.9772C122.12 37.9772 123.239 39.0965 123.239 40.4766Z" fill="white"/>
<path d="M159.323 153.327C159.323 156 127.527 158.167 88.3056 158.167C49.0839 158.167 17.2881 156 17.2881 153.327C17.2881 150.653 49.0835 148.486 88.3056 148.486C127.528 148.486 159.323 150.653 159.323 153.327Z" fill="#6791BC"/>
<path d="M149.944 110.276H142.892C141.243 110.276 139.906 108.939 139.906 107.289V100.238C139.906 98.5879 141.243 97.251 142.892 97.251H149.944C151.594 97.251 152.931 98.5882 152.931 100.238V107.289C152.931 108.939 151.594 110.276 149.944 110.276Z" fill="#2B76C1"/>
<path opacity="0.5" d="M149.944 110.276H142.892C141.243 110.276 139.906 108.939 139.906 107.289V100.238C139.906 98.5879 141.243 97.251 142.892 97.251H149.944C151.594 97.251 152.931 98.5882 152.931 100.238V107.289C152.931 108.939 151.594 110.276 149.944 110.276Z" fill="white"/>
<path d="M145.268 104.839H143.398L143.068 105.696H141.381L143.532 100.775H145.163L147.314 105.696H145.599L145.268 104.839ZM144.811 103.644L144.333 102.406L143.855 103.644H144.811Z" fill="#2B76C1"/>
<path d="M151.336 103.629V105.696H149.86V105.19C149.677 105.577 149.312 105.767 148.77 105.767C147.828 105.767 147.343 105.232 147.343 104.571C147.343 103.826 147.906 103.411 149.101 103.411H149.741C149.691 103.116 149.466 102.962 149.016 102.962C148.672 102.962 148.285 103.074 148.032 103.264L147.526 102.217C147.976 101.935 148.658 101.781 149.255 101.781C150.577 101.781 151.336 102.35 151.336 103.629ZM149.747 104.445V104.178H149.354C149.016 104.178 148.868 104.291 148.868 104.501C148.868 104.677 149.009 104.81 149.248 104.81C149.466 104.81 149.663 104.698 149.747 104.445Z" fill="#2B76C1"/>
<path d="M141.017 95.9037H129.162C128.214 95.9037 127.445 95.135 127.445 94.1867V84.2883C127.445 83.34 128.214 82.5713 129.162 82.5713H141.017C141.965 82.5713 142.734 83.34 142.734 84.2883V94.1867C142.734 95.135 141.965 95.9037 141.017 95.9037Z" fill="#2B76C1"/>
<path opacity="0.6" d="M141.017 95.9037H129.162C128.214 95.9037 127.445 95.135 127.445 94.1867V84.2883C127.445 83.34 128.214 82.5713 129.162 82.5713H141.017C141.965 82.5713 142.734 83.34 142.734 84.2883V94.1867C142.734 95.135 141.965 95.9037 141.017 95.9037Z" fill="white"/>
<path d="M139.152 88.7919L135.553 91.6094L133.326 90.2878C132.913 90.0427 132.391 90.0804 132.018 90.3827L127.461 94.0686C127.443 95.0771 128.255 95.905 129.264 95.9063L140.924 95.924C141.927 95.9128 142.734 95.0965 142.734 94.0938V89.9801L140.458 88.6943C140.043 88.4593 139.527 88.4981 139.152 88.7919Z" fill="#2B76C1"/>
<path d="M137.441 86.6534C137.441 87.5659 136.718 88.3058 135.827 88.3058C134.935 88.3058 134.213 87.5659 134.213 86.6534C134.213 85.7408 134.936 85.001 135.827 85.001C136.718 85.001 137.441 85.7408 137.441 86.6534Z" fill="#2B76C1"/>
<path d="M136.723 98.458H132.631V102.551H136.723V98.458Z" fill="#2B76C1"/>
<path d="M136.723 103.5H132.631V107.592H136.723V103.5Z" fill="#263238"/>
<path d="M149.066 85.7778H144.973V89.8704H149.066V85.7778Z" fill="#2B76C1"/>
<path opacity="0.8" d="M149.066 85.7778H144.973V89.8704H149.066V85.7778Z" fill="white"/>
<path d="M37.7525 32.5631C40.2611 29.7748 44.5549 29.548 47.3429 32.0565C50.1313 34.565 50.358 38.8589 47.8495 41.6469C45.9129 43.7994 42.9144 44.4182 40.3637 43.4373L38.5498 44.3699L38.3465 42.2245C38.318 42.1997 38.2874 42.179 38.2591 42.1535C35.4711 39.6453 35.2444 35.3514 37.7525 32.5631Z" fill="#2B76C1"/>
<g opacity="0.3">
<path d="M37.7525 32.5631C40.2611 29.7748 44.5549 29.548 47.3429 32.0565C50.1313 34.565 50.358 38.8589 47.8495 41.6469C45.9129 43.7994 42.9144 44.4182 40.3637 43.4373L38.5498 44.3699L38.3465 42.2245C38.318 42.1997 38.2874 42.179 38.2591 42.1535C35.4711 39.6453 35.2444 35.3514 37.7525 32.5631Z" fill="white"/>
</g>
<path d="M38.4268 30.7559C36.4986 31.832 35.1818 33.9301 35.0513 36.134" stroke="#2B76C1" stroke-width="0.5" stroke-miterlimit="10" stroke-linecap="round" stroke-linejoin="round"/>
<path d="M35.027 37.1465C34.9821 37.4804 35.0073 37.8231 35.1001 38.1471" stroke="#2B76C1" stroke-width="0.5" stroke-miterlimit="10" stroke-linecap="round" stroke-linejoin="round"/>
<path d="M42.5482 39.8326L39.6816 37.2166L40.5945 36.2163L42.5169 37.9704L45.7105 34.8516L46.6567 35.8202L42.5482 39.8326Z" fill="white"/>
<path d="M60.6695 67.3403C60.6695 67.3403 60.2421 66.4964 60.4941 65.7559C60.746 65.0154 60.7504 64.3572 60.9758 63.8196C61.2013 63.2821 61.4454 64.0301 61.4947 64.4541C61.544 64.878 61.6042 65.3585 61.9166 65.2697C62.2291 65.1813 64.1827 63.1831 64.6298 63.1097C65.0773 63.0363 64.8624 63.4582 64.8624 63.4582C64.8624 63.4582 65.3499 62.9856 65.5896 63.1277C65.6519 63.1644 65.7369 63.3514 65.5485 63.6017C65.1245 64.1644 64.1742 65.2996 64.1742 65.2996C64.2273 65.2333 65.5006 63.9158 65.7171 63.7435C66 63.518 66.2482 63.5561 66.3737 63.7244C66.5518 63.9638 65.0293 65.6512 65.0147 65.7671C65.0147 65.7671 65.8589 64.7665 66.2367 64.843C66.6141 64.9195 66.117 65.5784 65.5686 66.0762C65.0657 66.5325 64.1984 67.5593 63.6421 67.9734C62.9567 68.4837 62.3817 68.6728 61.68 68.2852C60.9779 67.8986 60.6695 67.3403 60.6695 67.3403Z" fill="#E9B376"/>
<path opacity="0.3" d="M64.7863 63.5083C64.4051 63.8969 64.0417 64.3025 63.6973 64.7241" stroke="black" stroke-width="0.25" stroke-miterlimit="10" stroke-linecap="round" stroke-linejoin="round"/>
<path opacity="0.3" d="M64.6997 66.1678C64.3447 65.5609 63.8075 65.0625 63.1758 64.7534" stroke="black" stroke-width="0.25" stroke-miterlimit="10" stroke-linecap="round" stroke-linejoin="round"/>
<path opacity="0.3" d="M61.9735 65.6162C62.1459 65.845 62.2356 66.1347 62.2224 66.421C62.2091 66.7073 62.0932 66.9874 61.9004 67.1996" stroke="black" stroke-width="0.25" stroke-miterlimit="10" stroke-linecap="round" stroke-linejoin="round"/>
<path d="M45.1276 62.999C45.1276 62.999 46.5859 62.7474 49.0244 65.4106C52.1065 68.777 54.5983 71.2991 54.5983 71.2991L61.1379 66.6805L62.7583 68.2813C62.7583 68.2813 56.6567 75.8602 55.1284 76.2648C53.6001 76.6694 52.935 76.1536 51.946 75.3444C50.9569 74.5352 44.7988 68.3323 44.9338 68.3771C45.0688 68.4224 45.1276 62.999 45.1276 62.999Z" fill="#EBB373"/>
<path d="M47.1406 146.544C47.1185 146.345 46.4042 142.187 46.4042 142.187L42.4204 143.093L43.5448 147.348L46.2712 147.809L47.1406 146.544Z" fill="#EBB373"/>
<path d="M14.8882 66.981C15.0888 67.1037 22.1704 73.2438 22.2523 73.203C22.3342 73.1622 29.6612 67.3903 30.1117 67.1856C30.5619 66.981 32.9079 71.0742 32.6968 71.0742C32.486 71.0742 25.4884 77.234 22.5699 77.3979C19.6513 77.5618 13.4575 68.0452 13.4575 68.0452L14.8882 66.981Z" fill="#EBB373"/>
<path d="M76.2839 138.347L73.8624 140.455L68.3228 135.639L70.7442 133.528L76.2839 138.347Z" fill="#EBB373"/>
<path d="M71.6737 139.628L72.572 138.723C72.7753 138.518 73.067 138.431 73.3523 138.474C74.5834 138.66 74.7031 138 74.5963 136.766C74.9125 136.363 75.4232 136.677 75.564 136.759L78.6981 138.525C78.9619 138.67 79.0585 139.002 78.913 139.265C78.8871 139.312 78.8545 139.355 78.8161 139.393C77.725 140.492 77.2089 141.013 75.8509 142.381L71.6982 146.567C70.5663 147.708 69.1815 146.804 69.5415 146.228C71.1715 143.651 72.0341 141.537 72.0674 140.274C72.0803 140.046 71.8767 140.091 71.6737 139.628Z" fill="#263238"/>
<path d="M70.7982 141.334C71.196 141.273 71.5866 141.17 71.963 141.027C71.9977 141.009 72.0116 140.966 71.9936 140.932C71.9841 140.913 71.9664 140.899 71.9457 140.895C71.7566 140.831 70.0787 140.299 69.719 140.632C69.651 140.69 69.6221 140.782 69.6449 140.868C69.6683 141.032 69.768 141.175 69.9135 141.253C70.1926 141.374 70.5024 141.402 70.7982 141.334ZM71.7032 140.964C71.248 141.112 70.3959 141.341 70.0019 141.12C69.8992 141.058 69.8278 140.956 69.8054 140.839C69.7931 140.802 69.8047 140.763 69.8343 140.738C70.0328 140.557 71.009 140.761 71.7032 140.964Z" fill="#2B76C1"/>
<path d="M71.9472 141.033C71.9638 141.036 71.9812 141.033 71.9968 141.026C72.0155 141.005 72.0199 140.975 72.0077 140.949C71.9992 140.883 71.4236 139.375 70.5695 139.588C70.3587 139.645 70.3101 139.756 70.3131 139.844C70.3135 140.264 71.4106 140.914 71.9115 141.05L71.9472 141.033ZM70.6725 139.7C71.2216 139.629 71.6585 140.495 71.8132 140.845C71.2614 140.639 70.4539 140.086 70.4665 139.828C70.4637 139.808 70.4563 139.75 70.615 139.712L70.6725 139.7Z" fill="#2B76C1"/>
<path d="M71.749 140.95C72.1009 140.68 72.5745 140.576 73.0074 140.673" stroke="#2B76C1" stroke-width="0.5" stroke-miterlimit="10" stroke-linecap="round" stroke-linejoin="round"/>
<path d="M71.6143 141.933C71.9662 141.664 72.4398 141.559 72.8726 141.656" stroke="#2B76C1" stroke-width="0.5" stroke-miterlimit="10" stroke-linecap="round" stroke-linejoin="round"/>
<path d="M71.2754 142.987C71.6273 142.717 72.1009 142.613 72.5337 142.709" stroke="#2B76C1" stroke-width="0.5" stroke-miterlimit="10" stroke-linecap="round" stroke-linejoin="round"/>
<path d="M29.7785 150.453C32.4433 150.112 34.2827 147.327 33.887 144.231C33.4913 141.136 31.0102 138.902 28.3455 139.243C25.6807 139.584 23.8413 142.369 24.237 145.465C24.6328 148.56 27.1138 150.794 29.7785 150.453Z" fill="#2B76C1"/>
<path opacity="0.4" d="M29.7785 150.453C32.4433 150.112 34.2827 147.327 33.887 144.231C33.4913 141.136 31.0102 138.902 28.3455 139.243C25.6807 139.584 23.8413 142.369 24.237 145.465C24.6328 148.56 27.1138 150.794 29.7785 150.453Z" fill="black"/>
<path d="M13.3809 60.6325L16.6132 50.1489L23.0246 59.4003L33.8152 143.844L24.1718 145.077L13.3809 60.6325Z" fill="#2B76C1"/>
<path d="M18.3096 52.5889C17.5419 53.3559 16.6929 53.4712 15.7569 52.9221L13.3813 60.6322C13.3813 60.6322 14.4908 62.6981 15.7821 60.4738C15.7821 60.4738 17.2567 62.319 18.532 60.1226C18.532 60.1226 19.9155 61.5652 20.9307 59.8159C20.9307 59.8159 22.1234 60.9522 23.0248 59.4001L18.3096 52.5889Z" fill="#B97964"/>
<path opacity="0.3" d="M18.5664 60.1294L29.904 144.462L32.1491 144.175C32.4928 144.024 20.9654 59.8228 20.9654 59.8228C19.9495 61.5721 18.5664 60.1294 18.5664 60.1294Z" fill="white"/>
<path opacity="0.3" d="M15.7932 60.5024C15.0809 61.7292 14.4247 61.6506 13.979 61.3337L25.2374 145.076L27.4824 144.789C27.8099 144.646 17.3753 68.3065 16.3757 60.9992C16.0214 60.787 15.7932 60.5024 15.7932 60.5024Z" fill="white"/>
<path d="M24.0518 146.169L34.2656 144.863L34.0549 143.215L23.8411 144.521L24.0518 146.169Z" fill="#263238"/>
<path d="M14.6431 68.0341C14.6431 68.0341 16.5287 67.06 16.68 66.4949C16.8316 65.9298 16.017 66.1141 16.017 66.1141C16.017 66.1141 16.9007 65.8564 16.8418 65.4664C16.7715 64.9982 15.9191 65.1951 15.9191 65.1951C15.9191 65.1951 16.6321 64.955 16.5566 64.612C16.4784 64.2556 15.5005 64.4093 15.5005 64.4093C15.5005 64.4093 15.9704 64.1455 15.7831 63.9364C15.5954 63.7273 13.5139 64.0136 12.973 64.5072C12.432 65.0013 12.8815 67.6652 13.1165 68.2183C13.1841 68.3771 13.3463 68.6274 14.1307 68.7385C14.2952 68.762 14.453 68.6552 14.4897 68.4934L14.5873 68.0636L14.6431 68.0341Z" fill="#EBB373"/>
<path opacity="0.2" d="M16.0079 66.0707C16.0065 66.071 16.0055 66.0714 16.0041 66.0717L14.4853 66.5946C14.4649 66.6018 14.4544 66.6262 14.4619 66.6494C14.4694 66.6725 14.4928 66.6861 14.5122 66.6789L16.031 66.156C16.0514 66.1489 16.0619 66.1244 16.0544 66.1013C16.0473 66.0792 16.0269 66.0663 16.0079 66.0707Z" fill="black"/>
<path opacity="0.2" d="M15.8653 65.162L15.8643 65.1624L14.3655 65.5486C14.3448 65.554 14.3326 65.5775 14.3383 65.601C14.3445 65.6248 14.3621 65.6363 14.387 65.6343L15.8857 65.2481C15.9064 65.2426 15.9187 65.2192 15.9129 65.1954C15.9071 65.1719 15.8857 65.1573 15.8653 65.162Z" fill="black"/>
<path opacity="0.2" d="M15.4396 64.3778L14.3176 64.6328C14.2965 64.6376 14.2839 64.661 14.2894 64.6848C14.2948 64.7086 14.3162 64.7243 14.3373 64.7195L15.4593 64.4642C15.4804 64.4594 15.493 64.4363 15.4875 64.4125C15.4821 64.3887 15.4607 64.373 15.4396 64.3778Z" fill="black"/>
<path d="M43.0492 146.188H44.3248C44.6135 146.188 44.8804 146.335 45.0511 146.567C45.7865 147.572 46.3397 147.192 47.1397 146.248C47.6483 146.188 47.7854 146.772 47.8268 146.929L48.7805 150.398C48.8635 150.687 48.6959 150.989 48.4062 151.072C48.3545 151.087 48.3011 151.094 48.2478 151.093C46.6987 151.093 45.9657 151.093 44.0379 151.093H38.1416C36.5341 151.093 36.2012 149.474 36.8632 149.324C39.8406 148.666 41.9489 147.79 42.869 146.924C43.039 146.772 42.8635 146.658 43.0492 146.188Z" fill="#263238"/>
<path d="M41.2214 146.769C41.5454 147.008 41.8939 147.212 42.2604 147.379C42.2975 147.391 42.3376 147.371 42.3495 147.333C42.356 147.313 42.3532 147.291 42.342 147.274C42.254 147.095 41.4499 145.529 40.9606 145.508C40.8715 145.5 40.7858 145.545 40.7406 145.622C40.641 145.753 40.6097 145.925 40.6566 146.083C40.7671 146.366 40.965 146.607 41.2214 146.769ZM42.1217 147.15C41.6964 146.931 40.9334 146.488 40.813 146.052C40.7841 145.936 40.8062 145.813 40.8742 145.715C40.8912 145.68 40.928 145.661 40.966 145.664C41.2343 145.678 41.7769 146.514 42.1217 147.15Z" fill="#2B76C1"/>
<path d="M42.2446 147.372C42.2545 147.386 42.2684 147.397 42.284 147.403C42.3123 147.401 42.3367 147.383 42.3463 147.356C42.3871 147.303 43.0525 145.833 42.3 145.376C42.111 145.267 41.9978 145.311 41.9376 145.375C41.6398 145.671 41.9508 146.908 42.2072 147.359L42.2446 147.372ZM42.2929 145.529C42.7308 145.868 42.4231 146.788 42.284 147.144C42.0409 146.608 41.8652 145.645 42.0569 145.473C42.0698 145.456 42.1056 145.41 42.2439 145.496L42.2929 145.529Z" fill="#2B76C1"/>
<path d="M42.1636 147.173C42.6029 147.233 43.0105 147.495 43.2468 147.871" stroke="#2B76C1" stroke-width="0.5" stroke-miterlimit="10" stroke-linecap="round" stroke-linejoin="round"/>
<path d="M41.3711 147.77C41.8104 147.829 42.218 148.092 42.4543 148.467" stroke="#2B76C1" stroke-width="0.5" stroke-miterlimit="10" stroke-linecap="round" stroke-linejoin="round"/>
<path d="M40.3848 148.271C40.824 148.331 41.2317 148.594 41.468 148.969" stroke="#2B76C1" stroke-width="0.5" stroke-miterlimit="10" stroke-linecap="round" stroke-linejoin="round"/>
<path d="M33.4381 65.4723C33.4381 65.4723 31.1832 70.5074 31.463 72.4818C31.837 75.1192 34.1065 78.4178 36.3077 83.4325L48.6639 81.5176C47.1635 76.5193 46.0262 73.7265 45.1371 62.6445C43.3079 62.6432 42.463 62.7275 40.6546 63.1148C38.7271 63.5031 36.8299 64.0277 34.9769 64.6842C32.5932 65.5641 33.4381 65.4723 33.4381 65.4723Z" fill="#9CB2C8"/>
<path d="M44.3999 62.8171C44.3999 62.8171 45.1965 62.3411 46.4525 62.9657C47.7084 63.5906 51.3825 67.2215 51.3825 67.2215C51.3825 67.2215 46.9995 72.6788 46.9349 72.6788C46.8703 72.6788 44.5288 69.4991 44.5288 69.4991L44.3999 62.8171Z" fill="#9CB2C8"/>
<path d="M31.6661 71.4375L28.6714 67.9344C28.6714 67.9344 32.3441 65.4766 33.3892 65.0812C34.4347 64.6857 34.9767 64.6851 34.9767 64.6851L31.6661 71.4375Z" fill="#9CB2C8"/>
<path d="M36.3079 83.4326C34.1839 90.6977 34.7361 107.444 36.6601 119.524C38.0405 130.437 41.3497 144.222 41.3497 144.222L47.9984 143.18C47.9984 143.18 45.7735 125.308 45.239 117.689C44.5148 107.189 44.4716 82.1678 44.4716 82.1678L35.6564 81.9424L36.3079 83.4326Z" fill="#2B76C1"/>
<path opacity="0.4" d="M36.3079 83.4326C34.1839 90.6977 34.7361 107.444 36.6601 119.524C38.0405 130.437 41.3497 144.222 41.3497 144.222L47.9984 143.18C47.9984 143.18 45.7735 125.308 45.239 117.689C44.5148 107.189 44.4716 82.1678 44.4716 82.1678L35.6564 81.9424L36.3079 83.4326Z" fill="black"/>
<path opacity="0.2" d="M44.6106 91.4675C43.7379 89.1426 43.1459 87.9094 42.9905 90.2241C42.6662 95.1222 43.3941 100.721 44.6637 103.497C44.6739 99.3341 44.545 95.0616 44.6106 91.4675Z" fill="black"/>
<path d="M35.7202 81.9423C35.7202 81.9423 40.1157 86.6938 43.3556 93.5567C46.7298 100.704 49.0013 110.085 51.4894 115.86C55.4287 125.004 69.8368 137.781 69.8368 137.781L73.2413 134.956C73.2413 134.956 62.9481 120.393 60.223 114.191C51.4959 94.3356 54.0867 85.9261 48.664 81.4901L48.1523 79.7778L35.7202 81.9423Z" fill="#2B76C1"/>
<path opacity="0.4" d="M35.7202 81.9423C35.7202 81.9423 40.1157 86.6938 43.3556 93.5567C46.7298 100.704 49.0013 110.085 51.4894 115.86C55.4287 125.004 69.8368 137.781 69.8368 137.781L73.2413 134.956C73.2413 134.956 62.9481 120.393 60.223 114.191C51.4959 94.3356 54.0867 85.9261 48.664 81.4901L48.1523 79.7778L35.7202 81.9423Z" fill="black"/>
<path d="M31.357 52.5953C31.3778 52.5885 31.3961 52.5749 31.4087 52.5572C31.4332 52.5123 31.4169 52.4562 31.3727 52.4307C30.4214 51.7429 30.1347 50.4522 30.7056 49.4265C31.6596 47.5721 34.0621 48.229 34.0869 48.2337C34.1342 48.2555 34.1899 48.2348 34.2113 48.1879C34.2331 48.1406 34.2124 48.0848 34.1654 48.0634C34.1566 48.0593 34.1471 48.0566 34.1376 48.0556C34.1158 48.0617 31.5614 47.3504 30.5373 49.3421C29.9396 50.4529 30.2493 51.834 31.2642 52.583C31.2911 52.6014 31.3254 52.6061 31.357 52.5953Z" fill="#263238"/>
<path d="M31.5359 52.6614C31.5661 52.6525 31.5899 52.6298 31.6005 52.6002C31.6148 52.5516 31.5879 52.5006 31.5403 52.4846C31.5403 52.4846 30.4142 52.1113 30.0651 51.2854C29.8988 50.8536 29.9355 50.3698 30.165 49.9679C30.1912 49.923 30.1759 49.8656 30.131 49.8397C30.13 49.839 30.129 49.8387 30.1279 49.838C30.0817 49.8135 30.0243 49.8299 29.9981 49.8751C29.7434 50.3263 29.7046 50.8675 29.8923 51.3503C30.2762 52.2561 31.4315 52.6366 31.4832 52.6532C31.4992 52.6614 31.5179 52.6644 31.5359 52.6614Z" fill="#263238"/>
<path d="M42.2195 59.0949C42.9182 58.9579 43.5112 58.4989 43.8186 57.857C43.843 57.8121 43.8267 57.756 43.7825 57.7305C43.7397 57.705 43.6846 57.719 43.6588 57.7618C43.6577 57.7635 43.6567 57.7652 43.656 57.7669C43.0192 59.3785 39.8239 59.0769 39.7919 59.0742C39.7406 59.0681 39.6937 59.1048 39.6876 59.1561C39.6876 59.1572 39.6872 59.1578 39.6872 59.1589C39.6811 59.2082 39.7161 59.2534 39.7654 59.2595C39.7671 59.2598 39.7688 59.2598 39.7709 59.2598C40.5906 59.3418 41.4182 59.286 42.2195 59.0949Z" fill="#263238"/>
<path d="M55.0705 53.7594C54.4405 54.082 53.7244 54.2337 53.0179 54.1942C53.9675 53.3541 54.3351 51.9159 53.9046 50.7232C52.2668 51.9536 49.8756 52.0754 48.1216 51.018C46.8248 50.2363 45.8714 48.8902 44.4404 48.3962C43.1987 47.9675 40.6198 48.0535 40.2832 49.8895L40.8398 51.2441C41.7925 50.8228 43.2742 52.2773 43.7971 53.1783C44.32 54.0793 44.389 55.1619 44.4941 56.1985C44.5988 57.2349 44.779 58.3286 45.4594 59.1178C46.0496 59.8022 46.9537 60.1612 47.854 60.2408C48.7543 60.3204 49.6584 60.1459 50.5308 59.909C50.8898 59.8114 51.2635 59.6931 51.5199 59.4231C51.7762 59.1531 51.8616 58.6853 51.6055 58.4153C50.9782 58.5136 50.319 58.3929 49.7675 58.0784C51.0881 58.1858 52.479 57.9621 53.5605 57.1968C54.6407 56.4311 55.3411 55.0561 55.0705 53.7594Z" fill="#263238"/>
<path d="M31.2318 53.3106C30.5127 51.5735 31.1968 49.5733 32.8288 48.64C33.908 47.9457 35.3513 47.8536 36.7324 48.0093C39.7444 48.3486 42.0806 50.8306 42.2774 53.8556C42.4393 56.3427 41.7395 59.0365 38.2396 59.74C31.3311 61.1286 31.2318 53.3106 31.2318 53.3106Z" fill="#263238"/>
<path d="M41.1454 63.044C41.1454 63.044 40.0676 64.0867 38.696 65.5708C38.4104 65.8799 38.0885 66.156 37.7413 66.3943C36.805 67.0373 35.9308 67.4436 35.6303 66.9914C35.5636 66.8921 35.5082 66.7823 35.4637 66.666C35.1631 65.885 35.1199 64.7443 35.7112 64.1524C36.3779 63.4849 36.6747 62.9454 36.4524 62.1702C36.332 61.7302 36.1171 61.2861 35.8764 60.8588L36.6652 60.2539L39.3363 56.8638C39.204 58.7705 39.4298 62.1212 41.1454 63.044Z" fill="#EBB373"/>
<path opacity="0.2" d="M36.4968 62.3412C37.2706 61.7537 38.0842 60.7953 37.8636 59.8314C37.768 59.4257 37.6351 59.0463 37.5079 58.8076L36.0762 61.2322C36.2557 61.5759 36.3336 61.8081 36.4968 62.3412Z" fill="black"/>
<path d="M39.5298 53.3628C39.5992 56.4962 39.6941 57.8178 38.2793 59.6263C36.1509 62.3466 32.3538 61.9458 31.3661 58.9446C30.477 56.2433 30.513 51.5727 33.4088 49.9227C36.2618 48.2965 39.4605 50.2294 39.5298 53.3628Z" fill="#EBB373"/>
<path d="M35.466 54.8562C35.4881 55.186 35.3413 55.4756 35.1376 55.5032C34.9343 55.5307 34.7514 55.2856 34.7293 54.9558C34.7072 54.626 34.854 54.3363 35.0574 54.3088C35.261 54.2812 35.4439 54.5264 35.466 54.8562Z" fill="#263238"/>
<path d="M32.314 55.1987C32.3347 55.5183 32.1872 55.7999 31.9845 55.8274C31.7815 55.8546 31.6003 55.618 31.5796 55.298C31.5588 54.9784 31.7064 54.6969 31.9094 54.6697C32.112 54.6418 32.2932 54.8788 32.314 55.1987Z" fill="#263238"/>
<path d="M36.1448 53.6134C36.1057 53.6222 36.0645 53.6154 36.0305 53.5906C35.5025 53.2026 34.9823 53.4192 34.9762 53.4219C34.899 53.4542 34.8133 53.4182 34.7858 53.339C34.7586 53.2598 34.7994 53.1686 34.8772 53.135C34.9044 53.1234 35.5572 52.8511 36.2128 53.3325C36.278 53.3804 36.2903 53.4774 36.2399 53.5484C36.2158 53.5831 36.1815 53.6052 36.1448 53.6134Z" fill="#263238"/>
<path d="M31.3623 53.7307C31.33 53.7239 31.3011 53.7035 31.2838 53.6712C31.2478 53.6042 31.2719 53.5111 31.3382 53.4631C32.0015 52.9837 32.5615 53.2268 32.5853 53.2377C32.652 53.2676 32.6771 53.354 32.6411 53.4308C32.6057 53.5073 32.5228 53.5451 32.4561 53.5155C32.4344 53.5056 31.9968 53.3244 31.4694 53.7055C31.4354 53.7304 31.3967 53.7382 31.3623 53.7307Z" fill="#263238"/>
<path d="M33.3836 54.9238C33.3836 54.9238 33.0307 56.14 32.5659 56.9261C32.4846 57.0635 32.5649 57.2413 32.7199 57.279C33.1191 57.3762 33.5526 57.1977 33.5526 57.1977L33.3836 54.9238Z" fill="#E4873E"/>
<path d="M35.1758 54.3087L34.4448 54.2217C34.4448 54.2217 34.8946 54.7082 35.1758 54.3087Z" fill="#263238"/>
<path d="M32.0176 54.6686L31.2866 54.5815C31.2866 54.5815 31.7364 55.0681 32.0176 54.6686Z" fill="#263238"/>
<path d="M37.492 54.0408C37.492 54.0408 36.0501 52.012 36.9351 50.2763C36.9351 50.2763 31.0459 49.308 30.8725 54.9628C30.8725 54.9628 29.691 49.7952 34.8948 48.697C40.0985 47.5984 41.5064 55.2461 39.2321 58.0245C39.2308 58.0327 38.6487 55.4463 37.492 54.0408Z" fill="#263238"/>
<path d="M40.7558 55.7837C40.462 56.4613 39.9122 56.9288 39.3822 57.1277C38.5849 57.4272 38.0106 56.1556 38.1969 55.3012C38.3649 54.5321 39.1156 53.95 39.9329 54.0204C40.7381 54.0901 41.092 55.0088 40.7558 55.7837Z" fill="#EBB373"/>
<path opacity="0.2" d="M39.0022 55.8161C38.9882 55.5203 39.096 55.2204 39.2953 55.0011C39.4945 54.7818 39.7825 54.6455 40.0783 54.6309" stroke="black" stroke-width="0.5" stroke-miterlimit="10" stroke-linecap="round" stroke-linejoin="round"/>
<path d="M33.4521 58.2182C33.6847 58.5202 33.8958 58.8384 34.0835 59.1702L34.2787 59.1145C35.1345 58.7881 35.4207 58.3546 35.4877 57.9877C35.5142 57.8011 35.4949 57.611 35.4309 57.4335C35.3986 57.3315 35.3524 57.2343 35.2936 57.1445C34.8557 57.5811 34.328 57.917 33.7473 58.1292C33.5654 58.1778 33.4521 58.2182 33.4521 58.2182Z" fill="#263238"/>
<path d="M33.7388 58.1008L33.9346 58.3769C34.7373 58.0696 35.265 57.7428 35.4221 57.4052C35.3895 57.3032 35.3436 57.206 35.2847 57.1162C34.8472 57.5524 34.3195 57.8887 33.7388 58.1008Z" fill="white"/>
<path d="M34.2744 59.0999C35.1302 58.7735 35.4165 58.34 35.4835 57.9731C35.1601 58.1027 34.863 58.2897 34.6059 58.5246C34.4386 58.6776 34.323 58.8786 34.2744 59.0999Z" fill="#C15854"/>
<path opacity="0.2" d="M31.4891 71.4373L32.2446 68.7095C32.2446 68.7095 30.4389 70.6033 30.9536 72.4206L31.4392 72.0367L31.4891 71.4373Z" fill="black"/>
<path opacity="0.2" d="M46.1705 71.7057C46.1705 71.7057 44.6772 69.7102 44.6772 69.6997L46.5952 74.0014L46.1705 71.7057Z" fill="black"/>
<path d="M106.279 149.041H62.6395C59.2007 149.041 56.4131 146.253 56.4131 142.814V42.6186C56.4131 37.3214 60.7073 33.0269 66.0048 33.0269H103.995C109.293 33.0269 113.587 37.3214 113.587 42.6186V141.732C113.587 145.768 110.315 149.041 106.279 149.041Z" fill="#2B76C1"/>
<path d="M104.248 146.312H65.7523C61.8699 146.312 58.7222 143.165 58.7222 139.282V42.7855C58.7222 38.9031 61.8695 35.7554 65.7523 35.7554H104.248C108.131 35.7554 111.278 38.9027 111.278 42.7855V139.282C111.278 143.165 108.131 146.312 104.248 146.312Z" fill="white"/>
<path d="M94.9864 40.9106H73.3638V42.2625H94.9864V40.9106Z" stroke="#2B76C1" stroke-miterlimit="10"/>
<path d="M103.147 40.1105C103.147 40.3991 102.916 40.6334 102.63 40.6334C102.344 40.6334 102.112 40.3995 102.112 40.1105C102.112 39.8218 102.344 39.5879 102.63 39.5879C102.915 39.5879 103.147 39.8218 103.147 40.1105Z" fill="#2B76C1"/>
<path d="M103.147 41.4404C103.147 41.7291 102.916 41.963 102.63 41.963C102.344 41.963 102.112 41.7291 102.112 41.4404C102.112 41.1517 102.344 40.9175 102.63 40.9175C102.915 40.9175 103.147 41.1517 103.147 41.4404Z" fill="#2B76C1"/>
<path d="M103.147 42.7706C103.147 43.0593 102.916 43.2935 102.63 43.2935C102.344 43.2935 102.112 43.0596 102.112 42.7706C102.112 42.4816 102.344 42.248 102.63 42.248C102.915 42.2477 103.147 42.482 103.147 42.7706Z" fill="#2B76C1"/>
<path d="M67.3724 40.4766L66.3813 41.4286L67.3724 42.4044" stroke="#2B76C1" stroke-miterlimit="10" stroke-linecap="round" stroke-linejoin="round"/>
<path d="M107.045 50.6392H63.1167V58.4024H107.045V50.6392Z" stroke="#2B76C1" stroke-miterlimit="10"/>
<path d="M58.7056 46.7227C76.3084 46.7227 93.9112 46.7227 111.514 46.7227" stroke="#2B76C1" stroke-miterlimit="10"/>
<path d="M107.045 62.1289H63.1167V84.3353H107.045V62.1289Z" stroke="#2B76C1" stroke-miterlimit="10"/>
<path d="M63.1167 84.3358L76.9486 73.1814C77.4423 72.7833 78.1297 72.7394 78.669 73.0716L85.8695 77.5059L95.2773 70.2374C95.8267 69.813 96.5792 69.7777 97.165 70.1493L107.045 76.4141" stroke="#2B76C1" stroke-miterlimit="10"/>
<path d="M85.5945 71.4364C87.114 71.4364 88.3458 70.192 88.3458 68.6569C88.3458 67.1219 87.114 65.8774 85.5945 65.8774C84.0751 65.8774 82.8433 67.1219 82.8433 68.6569C82.8433 70.192 84.0751 71.4364 85.5945 71.4364Z" stroke="#2B76C1" stroke-miterlimit="10"/>
<path d="M72.8825 87.6831H63.1167V89.9411H72.8825V87.6831Z" stroke="#2B76C1" stroke-miterlimit="10"/>
<path d="M107.045 92.5752H63.1167V94.0804H107.045V92.5752Z" stroke="#2B76C1" stroke-miterlimit="10"/>
<path d="M107.045 95.9619H63.1167V97.4671H107.045V95.9619Z" stroke="#2B76C1" stroke-miterlimit="10"/>
<path d="M82.6987 99.3486H63.1167V100.854H82.6987V99.3486Z" stroke="#2B76C1" stroke-miterlimit="10"/>
<path d="M107.045 126.914H63.1167V128.419H107.045V126.914Z" stroke="#2B76C1" stroke-miterlimit="10"/>
<path d="M107.045 130.3H63.1167V131.805H107.045V130.3Z" stroke="#2B76C1" stroke-miterlimit="10"/>
<path d="M82.6987 133.688H63.1167V135.193H82.6987V133.688Z" stroke="#2B76C1" stroke-miterlimit="10"/>
<path d="M81.6609 104.281H63.1074V123.025H81.6609V104.281Z" stroke="#2B76C1" stroke-miterlimit="10"/>
<path d="M63.1074 123.025L81.6612 104.281" stroke="#2B76C1" stroke-miterlimit="10"/>
<path d="M81.6002 123.025L63.0464 104.281" stroke="#2B76C1" stroke-miterlimit="10"/>
<path d="M106.161 104.452H87.6074V123.196H106.161V104.452Z" stroke="#2B76C1" stroke-miterlimit="10"/>
<path d="M87.6074 123.196L106.161 104.452" stroke="#2B76C1" stroke-miterlimit="10"/>
<path d="M106.1 123.196L87.5464 104.452" stroke="#2B76C1" stroke-miterlimit="10"/>
<path d="M118.167 136.442C118.167 136.442 148.686 130.234 149.941 136.59C151.734 145.662 129.687 151.08 118.05 150.365C106.413 149.65 118.167 136.442 118.167 136.442Z" fill="#263238"/>
<path opacity="0.2" d="M118.167 136.442C118.167 136.442 148.686 130.234 149.941 136.59C151.734 145.662 129.687 151.08 118.05 150.365C106.413 149.65 118.167 136.442 118.167 136.442Z" fill="black"/>
<path opacity="0.2" d="M139.939 138.244L125.438 146.87L127.258 149.626C127.258 149.626 126.214 151.079 124.443 146.468L133.421 140.906C133.421 140.906 130.673 140.548 130.755 140.12C130.893 139.415 136.988 138.248 139.767 137.723C139.912 137.675 140.067 137.754 140.114 137.898C140.161 138.042 140.083 138.197 139.939 138.244Z" fill="black"/>
<path opacity="0.2" d="M124.952 145.836L127.303 149.91C124.242 150.352 121.143 150.504 118.05 150.365C117.032 150.329 116.03 150.116 115.091 149.738L114.271 148.127L116.249 144.425L124.952 145.836Z" fill="black"/>
<path d="M129.712 144.384L123.262 148.212L124.306 151.318L131.838 148.197L129.712 144.384Z" fill="#895555"/>
<path d="M119.747 149.138L120.303 151.366C120.303 151.366 120.767 151.478 120.899 151.948C120.972 152.211 120.759 152.926 120.759 152.926L122.244 159.064C122.253 159.062 122.665 158.964 122.83 158.852C123.032 158.715 123.197 158.573 123.33 158.429C123.794 157.923 123.866 157.172 123.899 156.614C123.955 155.681 124.572 152.967 124.572 152.967C124.572 152.967 124.798 152.262 125.568 151.658C125.997 151.321 126.203 150.885 126.172 150.611C126.109 150.052 125.716 149.831 125.193 149.878L124.586 149.934C124.163 149.599 124.046 149.051 124.335 148.534C124.335 148.534 124.732 147.218 124.169 147.425C123.848 147.543 122.432 148.125 121.3 148.552C121.036 148.652 120.786 148.745 120.567 148.828V148.828C120.081 149.012 119.747 149.138 119.747 149.138Z" fill="#263238"/>
<path d="M124.296 154.416C124.314 154.383 124.306 154.339 124.279 154.313C124.151 154.188 123.993 154.098 123.811 154.054C123.716 154.031 123.668 154.184 123.764 154.207C123.925 154.246 124.065 154.325 124.176 154.434C124.213 154.47 124.271 154.463 124.295 154.418C124.295 154.418 124.296 154.417 124.296 154.416Z" fill="#2B76C1"/>
<path d="M124.436 153.881C124.454 153.847 124.447 153.804 124.419 153.777C124.292 153.654 124.133 153.562 123.952 153.519C123.856 153.496 123.808 153.649 123.904 153.672C124.065 153.711 124.205 153.79 124.316 153.898C124.353 153.934 124.411 153.928 124.435 153.882C124.436 153.882 124.436 153.881 124.436 153.881Z" fill="#2B76C1"/>
<path d="M124.556 153.335C124.574 153.301 124.566 153.258 124.538 153.231C124.411 153.107 124.252 153.017 124.071 152.973C123.975 152.95 123.927 153.103 124.023 153.126C124.184 153.165 124.324 153.244 124.436 153.352C124.473 153.388 124.53 153.382 124.555 153.336C124.555 153.336 124.555 153.336 124.556 153.335Z" fill="#2B76C1"/>
<path opacity="0.2" d="M120.567 148.828V148.829C120.081 149.012 119.747 149.139 119.747 149.139L120.303 151.367C120.303 151.367 120.767 151.479 120.899 151.948C120.972 152.211 120.759 152.926 120.759 152.926L122.244 159.065C122.253 159.062 122.665 158.964 122.83 158.852C122.923 158.789 123.006 158.725 123.083 158.661L120.69 148.782C120.649 148.798 120.606 148.814 120.567 148.828Z" fill="white"/>
<path d="M124.471 153.296C124.68 153.226 124.889 153.155 125.107 153.123C125.325 153.09 125.552 153.097 125.757 153.178C125.852 153.216 125.95 153.282 125.968 153.383C125.986 153.489 125.908 153.588 125.819 153.648C125.647 153.764 125.425 153.786 125.223 153.742C125.02 153.697 124.635 153.421 124.471 153.296Z" stroke="#2B76C1" stroke-width="0.25" stroke-miterlimit="10"/>
<path d="M124.465 153.27C124.641 153.138 124.818 153.006 124.969 152.846C125.12 152.685 125.243 152.494 125.293 152.28C125.316 152.18 125.317 152.063 125.245 151.991C125.169 151.915 125.042 151.923 124.942 151.962C124.749 152.037 124.604 152.207 124.526 152.399C124.447 152.59 124.456 153.063 124.465 153.27Z" stroke="#2B76C1" stroke-width="0.25" stroke-miterlimit="10"/>
<path d="M131.258 117.526C131.258 117.526 132.075 127.413 132.355 127.951C133.302 129.768 139.839 133.029 139.839 133.029L143.239 132.421L145.6 134.514L143.967 135.717L142.115 134.954C141.087 135.107 140.048 135.167 139.01 135.135C137.264 135.083 128.567 132.908 127.231 130.52C125.896 128.132 125.915 117.041 125.915 117.041L131.258 117.526Z" fill="#895555"/>
<path d="M125.647 121.238C125.647 121.238 123.305 112.507 126.611 110.2C129.918 107.893 132.14 119.867 132.14 119.867L125.647 121.238Z" fill="#2B76C1"/>
<path opacity="0.5" d="M125.647 121.238C125.647 121.238 123.305 112.507 126.611 110.2C129.918 107.893 132.14 119.867 132.14 119.867L125.647 121.238Z" fill="white"/>
<path d="M127.23 137.127L127.543 125.656L127.759 109.943L121.025 108.273L116.309 108.229L108.333 110.712L108.063 114.561C108.063 114.561 108.308 132.28 108.25 132.812C108.178 133.465 106.153 137.513 106.153 137.513C114.575 139.696 127.346 137.716 127.23 137.127Z" fill="#2B76C1"/>
<path opacity="0.2" d="M127.59 120.828L127.703 113.985L128.907 120.55L127.59 120.828Z" fill="black"/>
<path opacity="0.2" d="M113.21 121.482C113.42 121.447 114.276 121.194 114.276 121.194L112.331 114.527L115.343 121.853L113.381 122.567L113.21 121.482Z" fill="black"/>
<path d="M112.462 116.035C112.462 116.035 113.784 127.023 114.703 128.074C116.257 129.85 124.071 134.669 124.071 134.669L128.08 133.395C128.361 133.312 128.667 133.371 128.889 133.551L131.541 135.702L131.275 135.912C131.16 136.004 130.998 136.018 130.868 135.948L130.452 135.726L130.91 136.202L130.757 136.323C130.605 136.444 130.397 136.483 130.208 136.427L129.005 136.065L130.102 136.843C129.846 137.047 129.496 137.11 129.18 137.009L127.42 136.451C126.201 136.692 124.963 136.832 123.72 136.87C121.626 136.937 111.86 133.199 110.095 130.62C108.33 128.041 106.743 117.503 106.743 117.503L112.462 116.035Z" fill="#895555"/>
<path d="M106.997 123.158C106.997 123.158 104.83 113.17 108.136 110.863C111.442 108.556 114.277 121.195 114.277 121.195L106.997 123.158Z" fill="#2B76C1"/>
<path opacity="0.5" d="M106.997 123.158C106.997 123.158 104.83 113.17 108.136 110.863C111.442 108.556 114.277 121.195 114.277 121.195L106.997 123.158Z" fill="white"/>
<path d="M133.106 136.542L127.003 136.362L120.528 136.171C120.528 136.173 120.528 136.174 120.528 136.175C120.517 136.656 121.041 137.059 121.7 137.076L128.17 137.267L131.871 137.376C131.877 137.376 131.882 137.376 131.888 137.377H131.889L142.189 137.68C142.842 137.695 143.379 137.322 143.39 136.845L133.106 136.542Z" fill="#263238"/>
<path d="M142.379 137.637L130.888 137.298C130.69 137.291 130.534 137.156 130.541 136.997C130.542 136.967 130.549 136.937 130.561 136.91L136.019 125.341C136.158 125.01 136.549 124.793 136.986 124.804L148.484 125.143C148.679 125.149 148.833 125.28 148.828 125.436C148.827 125.469 148.819 125.501 148.804 125.531L143.347 137.1C143.205 137.429 142.815 137.646 142.379 137.637Z" fill="#263238"/>
<path opacity="0.7" d="M148.484 125.143L136.986 124.804C136.549 124.793 136.158 125.01 136.019 125.341L130.767 136.473L127.004 136.362L120.528 136.172C120.528 136.173 120.528 136.174 120.528 136.176C120.517 136.656 121.042 137.059 121.7 137.076L128.17 137.267L131.871 137.376C131.877 137.377 131.883 137.377 131.888 137.377H131.889L142.189 137.681C142.396 137.685 142.589 137.647 142.76 137.583C143.03 137.501 143.249 137.329 143.347 137.1L148.804 125.531C148.819 125.501 148.827 125.469 148.828 125.436C148.832 125.28 148.678 125.149 148.484 125.143Z" fill="white"/>
<path d="M141.394 131.178C141.129 131.734 140.615 132.105 140.242 132.015C139.869 131.925 139.784 131.41 140.041 130.853C140.299 130.296 140.819 129.934 141.192 130.023C141.565 130.113 141.663 130.609 141.394 131.178Z" fill="white"/>
<g opacity="0.3">
<path d="M136.018 125.341L130.767 136.473L131.3 136.489L136.986 124.804C136.549 124.793 136.157 125.01 136.018 125.341Z" fill="black"/>
</g>
<path d="M135.896 149.634L143.263 151.044L144.54 148.026L136.832 145.37L135.896 149.634Z" fill="#895555"/>
<path d="M146.508 152.68L147.569 150.643C147.569 150.643 147.297 150.252 147.509 149.814C147.628 149.567 148.262 149.174 148.262 149.174L151.221 143.594C151.213 143.589 150.839 143.39 150.641 143.364C150.399 143.333 150.182 143.329 149.987 143.349C149.303 143.42 148.751 143.935 148.357 144.33C147.696 144.992 145.435 146.614 145.435 146.614C145.435 146.614 144.799 146.993 143.822 146.935C143.277 146.903 142.834 147.091 142.676 147.317C142.352 147.778 142.5 148.204 142.923 148.515L143.414 148.876C143.509 149.407 143.233 149.895 142.674 150.09C142.674 150.09 141.504 150.812 142.063 151.03C142.382 151.155 143.828 151.658 144.958 152.089C145.222 152.189 145.471 152.285 145.69 152.369L145.69 152.368C146.175 152.554 146.508 152.68 146.508 152.68Z" fill="#263238"/>
<path d="M146.602 145.713C146.566 145.726 146.543 145.764 146.546 145.803C146.559 145.98 146.618 146.153 146.725 146.306C146.781 146.386 146.919 146.304 146.862 146.222C146.767 146.087 146.715 145.935 146.703 145.78C146.699 145.728 146.652 145.695 146.604 145.713C146.603 145.713 146.603 145.713 146.602 145.713Z" fill="#2B76C1"/>
<path d="M146.142 146.021C146.106 146.034 146.083 146.072 146.086 146.11C146.099 146.287 146.158 146.461 146.265 146.613C146.321 146.694 146.459 146.611 146.402 146.53C146.307 146.394 146.255 146.242 146.243 146.087C146.24 146.035 146.192 146.002 146.144 146.02C146.143 146.021 146.143 146.021 146.142 146.021Z" fill="#2B76C1"/>
<path d="M145.691 146.351C145.655 146.364 145.632 146.401 145.635 146.44C145.648 146.617 145.706 146.79 145.813 146.943C145.87 147.024 146.008 146.941 145.951 146.86C145.856 146.724 145.804 146.572 145.792 146.417C145.788 146.365 145.741 146.332 145.692 146.35C145.692 146.35 145.691 146.351 145.691 146.351Z" fill="#2B76C1"/>
<path opacity="0.2" d="M147.509 149.813C147.628 149.567 148.262 149.173 148.262 149.173L151.22 143.593C151.212 143.589 150.839 143.389 150.64 143.364C150.529 143.35 150.425 143.342 150.324 143.339L145.567 152.321C145.607 152.337 145.651 152.353 145.689 152.368L145.689 152.368C146.174 152.553 146.508 152.68 146.508 152.68L147.569 150.643C147.569 150.643 147.296 150.252 147.509 149.813Z" fill="white"/>
<path d="M145.728 146.436C145.525 146.351 145.321 146.264 145.137 146.145C144.953 146.025 144.787 145.869 144.688 145.673C144.642 145.581 144.612 145.467 144.665 145.38C144.721 145.288 144.846 145.266 144.953 145.28C145.158 145.307 145.339 145.438 145.461 145.605C145.583 145.772 145.688 146.234 145.728 146.436Z" stroke="#2B76C1" stroke-width="0.25" stroke-miterlimit="10"/>
<path d="M145.715 146.46C145.496 146.442 145.275 146.423 145.056 146.443C144.837 146.463 144.618 146.525 144.439 146.652C144.355 146.712 144.276 146.799 144.283 146.901C144.289 147.008 144.389 147.086 144.49 147.123C144.684 147.194 144.906 147.163 145.091 147.072C145.277 146.98 145.585 146.621 145.715 146.46Z" stroke="#2B76C1" stroke-width="0.25" stroke-miterlimit="10"/>
<path d="M108.183 145.439C106.661 142.85 103.257 135.854 110.618 134.728C117.979 133.601 142.099 145.948 142.099 145.948L140.411 150.571L117.748 146.31C117.748 146.31 120.741 150.561 116.968 150.26C111.488 149.555 110.207 148.201 108.183 145.439Z" fill="#263238"/>
<path opacity="0.2" d="M118.285 146.452L112.096 144.302C112.096 144.302 117.242 147.663 119.153 148.101L118.285 146.452Z" fill="black"/>
<path d="M114.98 109.35C116.646 107.756 116.313 103.429 115.869 101.194L121.11 105.233C121.004 105.495 120.916 105.763 120.848 106.037C120.706 106.527 120.693 107.045 120.81 107.542C120.924 107.95 121.452 109.077 121.452 109.077C121.452 109.077 121.777 110.352 118.377 110.486C116.892 110.706 114.98 109.35 114.98 109.35Z" fill="#895555"/>
<path opacity="0.2" d="M116.895 103.434C116.748 106.081 119.456 107.202 120.812 107.545C120.695 107.049 120.708 106.531 120.85 106.041L116.895 103.434Z" fill="black"/>
<path d="M114.899 99.2785C115.695 102.349 116.079 104.097 118.003 105.375C120.897 107.296 124.493 105.183 124.658 101.928C124.808 98.9983 123.482 94.4685 120.111 93.8493C116.79 93.2394 114.104 96.2076 114.899 99.2785Z" fill="#895555"/>
<path d="M113.558 95.099C113.675 93.1811 118.392 92.276 119.891 92.9638C120.115 93.0665 117.582 94.9555 117.74 94.8634L116.508 95.5526C116.297 95.5468 115.943 95.8518 115.855 96.5025C115.855 96.5025 116.986 101.565 115.784 103.318C114.482 102.976 114.023 100.971 113.416 99.8403C112.509 98.1553 111.329 95.66 113.558 95.099Z" fill="#263238"/>
<path d="M114.135 102.107C114.545 102.859 115.276 103.351 115.97 103.538C117.013 103.82 117.174 102.739 116.895 101.777C116.643 100.911 116.172 99.887 115.119 100.029C114.082 100.17 113.666 101.246 114.135 102.107Z" fill="#895555"/>
<path d="M119.245 99.1849C119.306 99.5028 119.529 99.7265 119.743 99.6844C119.957 99.6422 120.081 99.3501 120.02 99.0319C119.958 98.714 119.735 98.4903 119.521 98.5324C119.307 98.5746 119.183 98.8667 119.245 99.1849Z" fill="#263238"/>
<path d="M122.478 98.8119C122.539 99.1301 122.762 99.3535 122.976 99.3113C123.19 99.2692 123.313 98.9771 123.252 98.6589C123.191 98.341 122.968 98.1172 122.754 98.1594C122.54 98.2016 122.416 98.4936 122.478 98.8119Z" fill="#263238"/>
<path d="M121.796 98.7969C121.796 98.7969 123.137 100.183 123.594 100.764C123.215 101.249 122.394 101.212 122.394 101.212L121.796 98.7969Z" fill="#6D3939"/>
<path d="M118.563 97.9682C118.616 97.9784 118.674 97.9614 118.713 97.9186C119.175 97.4072 119.744 97.4745 119.75 97.4752C119.836 97.4861 119.915 97.4279 119.928 97.3453C119.94 97.2627 119.881 97.1865 119.796 97.1753C119.767 97.1712 119.053 97.0866 118.479 97.7213C118.422 97.7846 118.428 97.8801 118.492 97.9345C118.513 97.9522 118.537 97.9634 118.563 97.9682Z" fill="#263238"/>
<path opacity="0.2" d="M114.7 101.11C114.793 100.9 115.043 100.783 115.277 100.794C115.511 100.806 115.727 100.926 115.898 101.081C116.104 101.266 116.258 101.505 116.341 101.767" stroke="black" stroke-width="0.5" stroke-miterlimit="10" stroke-linecap="round" stroke-linejoin="round"/>
<path d="M124.033 97.1693C124.061 97.158 124.085 97.139 124.103 97.1128C124.151 97.0428 124.132 96.9483 124.061 96.902C123.348 96.4389 122.689 96.7164 122.657 96.7252C122.578 96.7589 122.541 96.8486 122.575 96.9255C122.608 97.0023 122.698 97.0373 122.777 97.0047C122.804 96.9921 123.315 96.7844 123.887 97.1563C123.932 97.1856 123.987 97.1886 124.033 97.1693Z" fill="#263238"/>
<path d="M122.337 102.282C122.089 102.643 121.868 103.021 121.675 103.413C121.601 103.391 121.526 103.371 121.454 103.345C120.456 103.029 120.095 102.554 120.004 102.121C119.962 101.908 119.972 101.689 120.031 101.48C120.062 101.362 120.109 101.249 120.171 101.144C120.6 101.627 121.505 101.993 121.999 102.168C122.215 102.233 122.337 102.282 122.337 102.282Z" fill="#263238"/>
<path d="M122.01 102.162L121.806 102.49C120.868 102.191 120.249 101.858 120.043 101.474C120.074 101.356 120.12 101.243 120.182 101.137C120.615 101.626 121.517 101.987 122.01 102.162Z" fill="white"/>
<path d="M121.465 103.338C120.467 103.023 120.107 102.548 120.015 102.115C120.392 102.242 120.744 102.434 121.054 102.684C121.256 102.854 121.4 103.082 121.465 103.338Z" fill="#C15854"/>
<path d="M115.079 94.5684C115.079 94.5684 116.525 89.8308 120.864 89.9424C120.472 90.1049 120.116 90.3409 119.813 90.6373C119.813 90.6373 123.399 89.6473 125.007 91.9984L124.232 91.7209C124.232 91.7209 125.549 93.6671 124.719 95.2664L124.388 94.6014C124.388 94.6014 123.237 96.7247 120.911 96.6111L121.609 96.0753C121.609 96.0753 117.752 96.6645 116.64 95.8662C116.073 95.4939 115.549 95.0584 115.079 94.5684Z" fill="#263238"/>
</svg>
