<svg width="29" height="41" viewBox="0 0 29 41" fill="none" xmlns="http://www.w3.org/2000/svg">
<path d="M25 27.65V4.16667C25 3.0616 24.561 2.00179 23.7796 1.22039C22.9982 0.438987 21.9384 0 20.8333 0L4.16667 0C3.0616 0 2.00179 0.438987 1.22039 1.22039C0.438987 2.00179 0 3.0616 0 4.16667V35.8333C0 36.3805 0.107774 36.9223 0.317168 37.4278C0.526563 37.9334 0.833478 38.3927 1.22039 38.7796C1.6073 39.1665 2.06663 39.4734 2.57215 39.6828C3.07768 39.8922 3.61949 40 4.16667 40C14.9083 40 14.45 40.125 14.8 39.7083C15.55 38.825 14.6083 38.45 9.675 34.2333C9.58087 34.1534 9.50821 34.0511 9.46362 33.9359C9.41902 33.8207 9.4039 33.6962 9.41963 33.5737C9.43536 33.4512 9.48143 33.3346 9.55368 33.2344C9.62593 33.1342 9.72205 33.0536 9.83333 33C10.2083 32.8083 10.0667 32.8417 13.9 34.125C14.0255 34.1674 14.1594 34.1793 14.2904 34.1596C14.4215 34.1399 14.5459 34.0893 14.6535 34.0119C14.761 33.9345 14.8485 33.8325 14.9088 33.7145C14.9691 33.5965 15.0003 33.4658 15 33.3333V22.5C15 22.279 15.0878 22.067 15.2441 21.9107C15.4004 21.7545 15.6123 21.6667 15.8333 21.6667C16.0543 21.6667 16.2663 21.7545 16.4226 21.9107C16.5789 22.067 16.6667 22.279 16.6667 22.5V31.6667C16.6667 31.8877 16.7545 32.0996 16.9107 32.2559C17.067 32.4122 17.279 32.5 17.5 32.5C17.721 32.5 17.933 32.4122 18.0893 32.2559C18.2455 32.0996 18.3333 31.8877 18.3333 31.6667V28.3333C18.3333 28.1123 18.4211 27.9004 18.5774 27.7441C18.7337 27.5878 18.9457 27.5 19.1667 27.5C19.3877 27.5 19.5996 27.5878 19.7559 27.7441C19.9122 27.9004 20 28.1123 20 28.3333V31.6667C20 31.8877 20.0878 32.0996 20.2441 32.2559C20.4004 32.4122 20.6123 32.5 20.8333 32.5C21.0543 32.5 21.2663 32.4122 21.4226 32.2559C21.5789 32.0996 21.6667 31.8877 21.6667 31.6667V29.1667C21.6667 28.9457 21.7545 28.7337 21.9107 28.5774C22.067 28.4211 22.279 28.3333 22.5 28.3333C22.721 28.3333 22.933 28.4211 23.0893 28.5774C23.2455 28.7337 23.3333 28.9457 23.3333 29.1667V31.6667C23.3333 31.8877 23.4211 32.0996 23.5774 32.2559C23.7337 32.4122 23.9457 32.5 24.1667 32.5C24.3877 32.5 24.5996 32.4122 24.7559 32.2559C24.9122 32.0996 25 31.8877 25 31.6667V30C25 29.779 25.0878 29.567 25.2441 29.4107C25.4004 29.2545 25.6123 29.1667 25.8333 29.1667C26.0543 29.1667 26.2663 29.2545 26.4226 29.4107C26.5789 29.567 26.6667 29.779 26.6667 30V39.1667C26.6667 39.3877 26.7545 39.5996 26.9107 39.7559C27.067 39.9122 27.279 40 27.5 40C27.721 40 27.933 39.9122 28.0893 39.7559C28.2455 39.5996 28.3333 39.3877 28.3333 39.1667V30C28.3322 29.6006 28.2354 29.2074 28.0511 28.8531C27.8668 28.4988 27.6003 28.1939 27.2739 27.9638C26.9475 27.7336 26.5707 27.5851 26.1751 27.5305C25.7795 27.4759 25.3765 27.5169 25 27.65ZM1.66667 4.16667C1.66667 3.50363 1.93006 2.86774 2.3989 2.3989C2.86774 1.93006 3.50363 1.66667 4.16667 1.66667H20.8333C21.4964 1.66667 22.1323 1.93006 22.6011 2.3989C23.0699 2.86774 23.3333 3.50363 23.3333 4.16667V5H1.66667V4.16667ZM11.9083 38.3333H4.16667C3.50363 38.3333 2.86774 38.0699 2.3989 37.6011C1.93006 37.1323 1.66667 36.4964 1.66667 35.8333V35H8.15833C8.425 35.4083 8.26667 35.225 11.9083 38.3333ZM21.275 27C20.9718 26.5229 20.5159 26.1627 19.9817 25.9781C19.4474 25.7934 18.8664 25.7953 18.3333 25.9833V22.5C18.3333 21.837 18.0699 21.2011 17.6011 20.7322C17.1323 20.2634 16.4964 20 15.8333 20C15.1703 20 14.5344 20.2634 14.0656 20.7322C13.5967 21.2011 13.3333 21.837 13.3333 22.5H5.83333C5.61232 22.5 5.40036 22.5878 5.24408 22.7441C5.0878 22.9004 5 23.1123 5 23.3333C5 23.5543 5.0878 23.7663 5.24408 23.9226C5.40036 24.0789 5.61232 24.1667 5.83333 24.1667H13.3333V32.175L10.9333 31.3417C10.595 31.2292 10.2358 31.1933 9.8819 31.2365C9.52796 31.2797 9.18803 31.4009 8.88664 31.5915C8.58526 31.782 8.32995 32.0371 8.13915 32.3384C7.94835 32.6396 7.82682 32.9794 7.78333 33.3333H1.66667V6.66667H23.3333V26.8167C22.9981 26.6926 22.6395 26.6446 22.2835 26.6763C21.9275 26.7081 21.583 26.8186 21.275 27Z" fill="#2B76C1"/>
<path d="M10 10.0001V14.1668C10 14.6088 9.82441 15.0327 9.51184 15.3453C9.19928 15.6578 8.77536 15.8334 8.33333 15.8334C7.89131 15.8334 7.46738 15.6578 7.15482 15.3453C6.84226 15.0327 6.66667 14.6088 6.66667 14.1668V10.0001C6.66667 9.77907 6.57887 9.56711 6.42259 9.41083C6.26631 9.25455 6.05435 9.16675 5.83333 9.16675C5.61232 9.16675 5.40036 9.25455 5.24408 9.41083C5.0878 9.56711 5 9.77907 5 10.0001V14.1668C5 15.0508 5.35119 15.8987 5.97631 16.5238C6.60143 17.1489 7.44928 17.5001 8.33333 17.5001C9.21739 17.5001 10.0652 17.1489 10.6904 16.5238C11.3155 15.8987 11.6667 15.0508 11.6667 14.1668V10.0001C11.6667 9.77907 11.5789 9.56711 11.4226 9.41083C11.2663 9.25455 11.0543 9.16675 10.8333 9.16675C10.6123 9.16675 10.4004 9.25455 10.2441 9.41083C10.0878 9.56711 10 9.77907 10 10.0001ZM18.5 9.50008L16.6667 11.9418L14.8333 9.50008C14.7007 9.32327 14.5033 9.20638 14.2845 9.17513C14.0657 9.14387 13.8435 9.20081 13.6667 9.33342C13.4899 9.46603 13.373 9.66344 13.3417 9.88223C13.3105 10.101 13.3674 10.3233 13.5 10.5001L15.625 13.3334L13.5 16.1668C13.3674 16.3436 13.3105 16.5658 13.3417 16.7846C13.373 17.0034 13.4899 17.2008 13.6667 17.3334C13.8435 17.466 14.0657 17.523 14.2845 17.4917C14.5033 17.4605 14.7007 17.3436 14.8333 17.1668L16.6667 14.7251L18.5 17.1668C18.6326 17.3436 18.83 17.4605 19.0488 17.4917C19.2676 17.523 19.4899 17.466 19.6667 17.3334C19.8435 17.2008 19.9604 17.0034 19.9916 16.7846C20.0229 16.5658 19.9659 16.3436 19.8333 16.1668L17.7083 13.3334L19.8333 10.5001C19.9659 10.3233 20.0229 10.101 19.9916 9.88223C19.9604 9.66344 19.8435 9.46603 19.6667 9.33342C19.4899 9.20081 19.2676 9.14387 19.0488 9.17513C18.83 9.20638 18.6326 9.32327 18.5 9.50008ZM10.8333 19.1668H5.83333C5.61232 19.1668 5.40036 19.2545 5.24408 19.4108C5.0878 19.5671 5 19.7791 5 20.0001C5 20.2211 5.0878 20.4331 5.24408 20.5893C5.40036 20.7456 5.61232 20.8334 5.83333 20.8334H10.8333C11.0543 20.8334 11.2663 20.7456 11.4226 20.5893C11.5789 20.4331 11.6667 20.2211 11.6667 20.0001C11.6667 19.7791 11.5789 19.5671 11.4226 19.4108C11.2663 19.2545 11.0543 19.1668 10.8333 19.1668ZM5.83333 27.5001H9.16667C9.38768 27.5001 9.59964 27.4123 9.75592 27.256C9.9122 27.0997 10 26.8878 10 26.6668C10 26.4457 9.9122 26.2338 9.75592 26.0775C9.59964 25.9212 9.38768 25.8334 9.16667 25.8334H5.83333C5.61232 25.8334 5.40036 25.9212 5.24408 26.0775C5.0878 26.2338 5 26.4457 5 26.6668C5 26.8878 5.0878 27.0997 5.24408 27.256C5.40036 27.4123 5.61232 27.5001 5.83333 27.5001Z" fill="#2B76C1"/>
</svg>
