<svg width="40" height="40" viewBox="0 0 40 40" fill="none" xmlns="http://www.w3.org/2000/svg">
<path d="M3.35938 20.5813C3.01406 20.5813 2.73438 20.8609 2.73438 21.2063V25.1125C2.73438 25.4578 3.01406 25.7375 3.35938 25.7375C3.70469 25.7375 3.98438 25.4578 3.98438 25.1125V21.2063C3.98438 20.8609 3.70469 20.5813 3.35938 20.5813ZM8.82812 17.0438C9.17344 17.0438 9.45312 16.7641 9.45312 16.4188V14.6992H11.1727C11.518 14.6992 11.7977 14.4195 11.7977 14.0742C11.7977 13.7289 11.518 13.4492 11.1727 13.4492H8.82812C8.48281 13.4492 8.20312 13.7289 8.20312 14.0742V16.4188C8.20312 16.7633 8.48281 17.0438 8.82812 17.0438ZM11.1727 31.6203H9.45312V29.9008C9.45312 29.5555 9.17344 29.2758 8.82812 29.2758C8.48281 29.2758 8.20312 29.5555 8.20312 29.9008V32.2453C8.20312 32.5906 8.48281 32.8703 8.82812 32.8703H11.1727C11.518 32.8703 11.7977 32.5906 11.7977 32.2453C11.7977 31.9 11.518 31.6203 11.1727 31.6203ZM31.2492 32.8703H33.5938C33.9391 32.8703 34.2188 32.5906 34.2188 32.2453V29.9008C34.2188 29.5555 33.9391 29.2758 33.5938 29.2758C33.2484 29.2758 32.9688 29.5555 32.9688 29.9008V31.6203H31.2492C30.9039 31.6203 30.6242 31.9 30.6242 32.2453C30.6242 32.5906 30.9039 32.8703 31.2492 32.8703Z" fill="#2B76C1"/>
<path d="M36.9937 8.0101C37.7633 7.15151 38.5398 6.29838 39.3234 5.45229C40.1469 4.56322 40.1219 3.19604 39.2656 2.34057C38.4094 1.48432 37.043 1.45932 36.1539 2.28276C34.0484 4.23276 31.9008 6.14213 29.7211 8.00307H3.20312C1.47969 8.00307 0.078125 9.40463 0.078125 11.1281V35.1906C0.078125 36.914 1.47969 38.3156 3.20312 38.3156H36.7969C38.5203 38.3156 39.9219 36.914 39.9219 35.1906V11.1281C39.9219 9.47104 38.625 8.11166 36.9937 8.0101ZM19.5187 22.0867C19.4524 22.0209 19.4019 21.941 19.3709 21.8529C19.3399 21.7648 19.3293 21.6709 19.3398 21.5781C19.5188 19.9749 19.8852 18.6515 20.4539 17.5546C22.1758 18.2499 23.3555 19.4296 24.0508 21.1515C22.9531 21.7203 21.6305 22.0867 20.0273 22.2656C19.8391 22.2874 19.6539 22.2218 19.5187 22.0867ZM20.6141 15.3515C20.2555 15.6242 19.9562 15.9484 19.7242 16.3148C18.8625 17.6789 18.3305 19.3554 18.0977 21.4398C18.0578 21.7929 18.1195 22.1421 18.268 22.4538L17.2234 23.4984C16.9797 23.7421 16.9797 24.1382 17.2234 24.382C17.3453 24.5038 17.5055 24.5648 17.6656 24.5648C17.8258 24.5648 17.9852 24.5038 18.1078 24.382L19.1531 23.3367C19.4023 23.4562 19.6758 23.5195 19.957 23.5195C20.0266 23.5195 20.0969 23.5156 20.1672 23.5078C22.2516 23.2749 23.9281 22.7429 25.2922 21.8812C25.6586 21.6499 25.9828 21.3507 26.2562 20.9914C27.8664 18.8749 29.532 16.7742 31.2445 14.6976H32.9688V16.4171C32.9688 16.7624 33.2484 17.0421 33.5938 17.0421C33.9391 17.0421 34.2188 16.7624 34.2188 16.4171V14.0726C34.2188 13.7273 33.9391 13.4476 33.5938 13.4476H32.2812C32.6023 13.064 32.925 12.6804 33.2492 12.2992H35.5469C35.6328 12.2992 35.7031 12.3695 35.7031 12.4554V33.8617C35.7031 33.9476 35.6328 34.0179 35.5469 34.0179H6.875C6.78906 34.0179 6.71875 33.9476 6.71875 33.8617V12.4554C6.71875 12.3695 6.78906 12.2992 6.875 12.2992H24.5234C23.2327 13.3324 21.9295 14.3499 20.6141 15.3515ZM25.2602 20.2351C25.2094 20.3015 25.1562 20.364 25.1016 20.4234C24.3039 18.6179 22.9883 17.3023 21.1828 16.5046C21.243 16.4492 21.3047 16.396 21.3711 16.346C25.9352 12.8726 30.4297 9.14604 34.7648 5.24291L36.3633 6.84135C32.4602 11.1765 28.7336 15.671 25.2602 20.2351ZM37.0031 3.19994C37.1953 3.02182 37.4383 2.93276 37.6805 2.93276C37.9344 2.93276 38.1875 3.03041 38.3812 3.22416C38.7602 3.60307 38.7711 4.20854 38.4055 4.60229C38.0028 5.03732 37.6021 5.47404 37.2031 5.91244L35.6922 4.40151C36.1312 4.00307 36.568 3.60307 37.0031 3.19994ZM38.6719 35.1906C38.6719 36.2242 37.8305 37.0656 36.7969 37.0656H3.20312C2.16953 37.0656 1.32812 36.2242 1.32812 35.1906V11.1281C1.32812 10.0945 2.16953 9.25307 3.20312 9.25307H28.243C27.5219 9.85776 26.7969 10.457 26.0695 11.0499H6.875C6.1 11.0499 5.46875 11.6812 5.46875 12.4562V33.8624C5.46875 34.6374 6.1 35.2687 6.875 35.2687H35.5469C36.3219 35.2687 36.9531 34.6374 36.9531 33.8624V12.4562C36.9531 11.6812 36.3219 11.0499 35.5469 11.0499H34.3195C34.8383 10.4484 35.3609 9.84916 35.8867 9.25307H36.7969C37.8305 9.25307 38.6719 10.0945 38.6719 11.1281V35.1906Z" fill="#2B76C1"/>
<path d="M29.5977 12.0085C29.3539 11.7647 28.9578 11.7647 28.7141 12.0085L26.3383 14.3843C26.0945 14.628 26.0945 15.0241 26.3383 15.2679C26.4602 15.3897 26.6203 15.4507 26.7805 15.4507C26.9406 15.4507 27.1 15.3897 27.2227 15.2679L29.5984 12.8921C29.6564 12.834 29.7024 12.7651 29.7338 12.6893C29.7651 12.6135 29.7812 12.5322 29.7812 12.4501C29.7811 12.3681 29.7648 12.2868 29.7334 12.2111C29.7019 12.1353 29.6558 12.0664 29.5977 12.0085ZM11.5625 26.8546C11.5625 26.4671 11.8781 26.1515 12.2656 26.1515H15.8594C16.2047 26.1515 16.4844 25.8718 16.4844 25.5265C16.4844 25.1812 16.2047 24.9015 15.8594 24.9015H12.2656C11.1883 24.9015 10.3125 25.778 10.3125 26.8546C10.3125 27.7335 10.9047 28.5085 11.7531 28.7397L19.8203 30.9343C19.9719 30.9757 20.0781 31.114 20.0781 31.271C20.0781 31.4632 19.9219 31.6202 19.7289 31.6202H16.7187C16.3734 31.6202 16.0937 31.8999 16.0937 32.2452C16.0937 32.5905 16.3734 32.8702 16.7187 32.8702H19.7289C20.6109 32.8702 21.3281 32.153 21.3281 31.271C21.3281 30.5515 20.843 29.9171 20.1484 29.728L12.0812 27.5335C11.9324 27.4926 11.8011 27.4041 11.7074 27.2815C11.6137 27.1589 11.5628 27.0089 11.5625 26.8546Z" fill="#2B76C1"/>
</svg>
