<svg width="43" height="45" viewBox="0 0 43 45" fill="none" xmlns="http://www.w3.org/2000/svg">
<path d="M6.28894 17.4425C6.28894 17.256 6.36301 17.0772 6.49488 16.9453C6.62674 16.8135 6.80558 16.7394 6.99206 16.7394H24.751C24.9375 16.7394 25.1163 16.8135 25.2482 16.9453C25.38 17.0772 25.4541 17.256 25.4541 17.4425C25.4541 17.629 25.38 17.8078 25.2482 17.9397C25.1163 18.0716 24.9375 18.1456 24.751 18.1456H6.99206C6.80558 18.1456 6.62674 18.0716 6.49488 17.9397C6.36301 17.8078 6.28894 17.629 6.28894 17.4425ZM24.7509 32.4401H6.99206C6.80558 32.4401 6.62674 32.5142 6.49488 32.646C6.36301 32.7779 6.28894 32.9567 6.28894 33.1432C6.28894 33.3297 6.36301 33.5085 6.49488 33.6404C6.62674 33.7723 6.80558 33.8463 6.99206 33.8463H24.751C24.8433 33.8463 24.9347 33.8281 25.02 33.7928C25.1054 33.7575 25.1829 33.7057 25.2481 33.6404C25.3134 33.5751 25.3652 33.4975 25.4005 33.4122C25.4359 33.3269 25.4541 33.2355 25.4541 33.1432C25.454 33.0508 25.4359 32.9594 25.4005 32.8741C25.3652 32.7888 25.3134 32.7113 25.2481 32.646C25.1828 32.5807 25.1053 32.5289 25.02 32.4936C24.9347 32.4583 24.8432 32.4401 24.7509 32.4401ZM24.7509 37.6737H6.99206C6.80558 37.6737 6.62674 37.7478 6.49488 37.8796C6.36301 38.0115 6.28894 38.1903 6.28894 38.3768C6.28894 38.5633 6.36301 38.7421 6.49488 38.874C6.62674 39.0059 6.80558 39.08 6.99206 39.08H24.751C24.8433 39.0799 24.9347 39.0618 25.02 39.0264C25.1054 38.9911 25.1829 38.9393 25.2481 38.874C25.3134 38.8087 25.3652 38.7312 25.4005 38.6459C25.4359 38.5606 25.4541 38.4691 25.4541 38.3768C25.454 38.2844 25.4359 38.193 25.4005 38.1077C25.3652 38.0224 25.3134 37.9449 25.2481 37.8796C25.1828 37.8143 25.1053 37.7625 25.02 37.7272C24.9347 37.6919 24.8432 37.6737 24.7509 37.6737ZM6.99206 12.912H19.7402C19.9267 12.912 20.1056 12.8379 20.2374 12.7061C20.3693 12.5742 20.4434 12.3954 20.4434 12.2089C20.4434 12.0224 20.3693 11.8436 20.2374 11.7117C20.1056 11.5798 19.9267 11.5058 19.7402 11.5058H6.99206C6.80558 11.5058 6.62674 11.5798 6.49488 11.7117C6.36301 11.8436 6.28894 12.0224 6.28894 12.2089C6.28894 12.3954 6.36301 12.5742 6.49488 12.7061C6.62674 12.8379 6.80558 12.912 6.99206 12.912ZM36.2816 33.9389V39.5924C36.2816 39.7788 36.2075 39.9577 36.0757 40.0895C35.9438 40.2214 35.765 40.2955 35.5785 40.2955H31.5771V44.2969C31.5771 44.4834 31.503 44.6622 31.3711 44.7941C31.2393 44.9259 31.0604 45 30.874 45H0.868896C0.682416 45 0.503574 44.9259 0.371712 44.7941C0.239851 44.6622 0.165771 44.4834 0.165771 44.2969V5.40765C0.165771 5.22117 0.239851 5.04232 0.371712 4.91046C0.503574 4.7786 0.682416 4.70452 0.868896 4.70452H4.87029V0.703125C4.87029 0.516645 4.94437 0.337802 5.07623 0.205941C5.20809 0.074079 5.38694 4.66808e-10 5.57342 4.66808e-10H30.7171C30.8094 -3.36405e-06 30.9008 0.0181807 30.9862 0.0535138C31.0715 0.088847 31.149 0.140637 31.2143 0.205928L36.0757 5.06733C36.141 5.13263 36.1928 5.21014 36.2281 5.29545C36.2634 5.38076 36.2816 5.47219 36.2816 5.56453V15.8874C40.0812 17.1279 42.8344 20.7047 42.8344 24.9131C42.8344 29.1215 40.0812 32.6984 36.2816 33.9389ZM31.4202 4.86141H33.881L31.4202 2.40064V4.86141ZM6.27663 4.70452H26.0126C26.105 4.70452 26.1964 4.7227 26.2817 4.75804C26.367 4.79337 26.4445 4.84516 26.5098 4.91045L31.3712 9.77186C31.4365 9.83715 31.4883 9.91466 31.5237 9.99997C31.559 10.0853 31.5772 10.1767 31.5772 10.2691V15.5862C32.6658 15.3805 33.782 15.3667 34.8754 15.5454V6.26766H30.7172C30.5307 6.26766 30.3518 6.19358 30.22 6.06172C30.0881 5.92985 30.014 5.75101 30.014 5.56453V1.40625H6.27663V4.70452ZM26.7157 9.56584H29.1764L26.7157 7.10508V9.56584ZM30.1708 43.5938V33.8599C27.6623 32.968 25.6361 31.05 24.6008 28.6128H6.99206C6.80558 28.6128 6.62674 28.5387 6.49488 28.4069C6.36301 28.275 6.28894 28.0961 6.28894 27.9097C6.28894 27.7232 6.36301 27.5443 6.49488 27.4125C6.62674 27.2806 6.80558 27.2065 6.99206 27.2065H24.1307C23.944 26.4564 23.8497 25.6862 23.85 24.9131C23.85 24.391 23.8931 23.8787 23.9745 23.3792H6.99206C6.80558 23.3792 6.62674 23.3051 6.49488 23.1732C6.36301 23.0414 6.28894 22.8625 6.28894 22.676C6.28894 22.4896 6.36301 22.3107 6.49488 22.1789C6.62674 22.047 6.80558 21.9729 6.99206 21.9729H24.3167C25.2296 19.1774 27.4073 16.9488 30.1709 15.9664V10.9721H26.0126C25.8262 10.9721 25.6473 10.898 25.5155 10.7661C25.3836 10.6343 25.3095 10.4554 25.3095 10.269V6.11077H1.57202V43.5938H30.1708ZM34.8754 34.2809C33.7819 34.4594 32.6657 34.4456 31.5771 34.2401V38.8892H34.8754V34.2809ZM41.4281 24.9131C41.4281 20.4545 37.8008 16.8272 33.3422 16.8272C28.8836 16.8272 25.2563 20.4545 25.2563 24.9131C25.2563 29.3717 28.8836 32.9991 33.3422 32.9991C37.8008 32.9991 41.4281 29.3717 41.4281 24.9131ZM39.0245 23.2102C38.3502 23.8912 37.6758 24.5752 37.0013 25.2592C35.7825 26.4953 34.5221 27.7736 33.2743 29.0215C32.952 29.3438 32.5235 29.5213 32.0677 29.5213C31.6119 29.5213 31.1833 29.3438 30.861 29.0215L27.6641 25.8246C26.9987 25.1592 26.9987 24.0765 27.6641 23.4112C27.8222 23.2522 28.0103 23.1262 28.2174 23.0404C28.4245 22.9546 28.6466 22.9107 28.8708 22.9113C29.095 22.9107 29.3171 22.9546 29.5242 23.0404C29.7313 23.1262 29.9194 23.2522 30.0775 23.4112L32.0637 25.3973L36.6073 20.8084C36.9293 20.4846 37.3566 20.3062 37.8117 20.3049H37.8166C38.0396 20.3043 38.2605 20.3478 38.4667 20.4329C38.6728 20.5179 38.8601 20.6429 39.0178 20.8005C39.6839 21.4631 39.6868 22.5439 39.0245 23.2102ZM38.0261 21.7978C37.9702 21.7422 37.8944 21.7111 37.8155 21.7113C37.7366 21.7116 37.6611 21.7431 37.6054 21.799L32.5656 26.889C32.5004 26.9548 32.4229 27.0071 32.3374 27.0429C32.252 27.0786 32.1603 27.0972 32.0677 27.0974H32.0659C31.8795 27.0974 31.7006 27.0233 31.5687 26.8915L29.0829 24.4056C29.0551 24.3777 29.022 24.3556 28.9855 24.3405C28.9491 24.3254 28.91 24.3177 28.8706 24.3178C28.8242 24.3178 28.7348 24.3292 28.6582 24.4056C28.5817 24.4821 28.5703 24.5716 28.5703 24.618C28.5703 24.6644 28.5818 24.7538 28.6582 24.8303L31.8552 28.0273C31.9115 28.0835 31.9879 28.1151 32.0675 28.1151C32.1471 28.1151 32.2235 28.0835 32.2799 28.0273C33.5242 26.7829 34.7827 25.5065 35.9998 24.272C36.675 23.5872 37.35 22.9025 38.0261 22.2197C38.0539 22.192 38.0759 22.1591 38.0909 22.1229C38.1059 22.0867 38.1136 22.0479 38.1136 22.0087C38.1136 21.9695 38.1059 21.9307 38.0909 21.8945C38.0759 21.8583 38.0539 21.8254 38.0261 21.7978Z" fill="#2B76C1"/>
</svg>
