<svg width="50" height="50" viewBox="0 0 50 50" fill="none" xmlns="http://www.w3.org/2000/svg">
<path d="M29.4174 15.3853C25.8225 15.3853 22.2793 16.9286 19.5742 19.9628V5H14.2212V30.1927C14.2212 38.3704 20.8507 44.9998 29.0289 44.9998C37.2069 44.9998 43.8365 38.3704 43.8365 30.1927C43.8365 22.0149 37.5954 15.3853 29.4174 15.3853ZM29.0289 39.2967C24.0006 39.2967 19.9244 35.2206 19.9244 30.1926C19.9244 25.1645 24.0006 21.0884 29.0289 21.0884C34.057 21.0884 38.1332 25.1645 38.1332 30.1926C38.1332 35.2207 34.057 39.2967 29.0289 39.2967Z" fill="#2B76C1"/>
<path d="M10.3282 37.6768C8.30584 37.6768 6.6665 39.3161 6.6665 41.3383C6.6665 43.3605 8.30584 44.9999 10.3282 44.9999C12.3506 44.9999 13.9899 43.3605 13.9899 41.3383C13.9899 39.3161 12.3506 37.6768 10.3282 37.6768Z" fill="#2B76C1"/>
</svg>
