<svg width="42" height="37" viewBox="0 0 42 37" fill="none" xmlns="http://www.w3.org/2000/svg">
<path d="M16.782 26.6729C16.6253 26.673 16.4736 26.6171 16.3545 26.5152L12.0812 22.8765C12.0083 22.8145 11.9499 22.7375 11.9098 22.6506C11.8696 22.5638 11.8489 22.4693 11.8489 22.3737C11.8489 22.2781 11.8696 22.1836 11.9098 22.0967C11.9499 22.0099 12.0083 21.9329 12.0812 21.8709L16.3545 18.2322C16.4878 18.1186 16.6607 18.0627 16.8353 18.0766C17.0098 18.0905 17.1717 18.1732 17.2853 18.3065C17.5215 18.5845 17.4883 19.0011 17.2105 19.2374L13.528 22.3735L17.2105 25.5095C17.3135 25.5971 17.3871 25.7142 17.4214 25.845C17.4557 25.9758 17.449 26.114 17.4023 26.2408C17.3556 26.3677 17.271 26.4772 17.1601 26.5545C17.0491 26.6317 16.9172 26.6731 16.782 26.6729ZM25.2179 26.6729C25.0311 26.6729 24.8454 26.5941 24.7149 26.4404C24.6014 26.3071 24.5454 26.1341 24.5594 25.9596C24.5734 25.785 24.6561 25.6231 24.7894 25.5095L28.4719 22.3735L24.7894 19.2374C24.6608 19.1225 24.5823 18.9619 24.5706 18.7899C24.5589 18.6179 24.6149 18.4481 24.7266 18.3168C24.8384 18.1856 24.9971 18.1032 25.1688 18.0874C25.3404 18.0716 25.5115 18.1235 25.6454 18.2321L29.9187 21.8708C29.9915 21.9328 30.05 22.0098 30.0901 22.0967C30.1302 22.1835 30.151 22.278 30.151 22.3736C30.151 22.4692 30.1302 22.5637 30.0901 22.6505C30.05 22.7374 29.9915 22.8144 29.9187 22.8764L25.6454 26.5151C25.5263 26.617 25.3747 26.6729 25.218 26.6729H25.2179ZM19.4872 29.4022C19.3888 29.4023 19.2917 29.3804 19.2028 29.3382C19.114 29.296 19.0357 29.2345 18.9737 29.1581C18.9117 29.0818 18.8675 28.9925 18.8444 28.8969C18.8212 28.8013 18.8198 28.7017 18.84 28.6055L21.5032 15.9606C21.5394 15.7892 21.6421 15.6392 21.7888 15.5435C21.9355 15.4479 22.1143 15.4144 22.2856 15.4505C22.457 15.4867 22.6071 15.5894 22.7027 15.7361C22.7984 15.8828 22.8318 16.0616 22.7957 16.2329L20.1325 28.8778C20.1013 29.0259 20.0202 29.1588 19.9027 29.2543C19.7853 29.3497 19.6386 29.4019 19.4872 29.4022Z" fill="#2B76C1"/>
<path d="M5.43396 36.4911H36.566C39.1212 36.4911 41.2 34.4127 41.2 31.8572V5.43396C41.2 2.87879 39.1212 0.8 36.566 0.8H5.43396C2.87879 0.8 0.8 2.87879 0.8 5.43396V31.8572C0.8 34.4127 2.8788 36.4911 5.43396 36.4911ZM2.52075 5.43396C2.52075 3.82791 3.82791 2.52075 5.43396 2.52075H36.566C38.1721 2.52075 39.4792 3.82791 39.4792 5.43396V31.8572C39.4792 33.4632 38.1721 34.7704 36.566 34.7704H5.43396C3.82791 34.7704 2.52075 33.4632 2.52075 31.8572V5.43396Z" fill="#2B76C1" stroke="#2B76C1" stroke-width="0.4"/>
<path d="M40.3395 11.5745H1.6603C1.48709 11.5716 1.32196 11.5007 1.2005 11.3772C1.07905 11.2537 1.01099 11.0874 1.01099 10.9142C1.01099 10.7409 1.07905 10.5746 1.2005 10.4511C1.32196 10.3276 1.48709 10.2567 1.6603 10.2538H40.3395C40.5127 10.2567 40.6779 10.3276 40.7993 10.4511C40.9208 10.5746 40.9888 10.7409 40.9888 10.9142C40.9888 11.0874 40.9208 11.2537 40.7993 11.3772C40.6779 11.5007 40.5127 11.5716 40.3395 11.5745ZM12.2831 8.41454C11.1311 8.41454 10.1932 7.47661 10.1932 6.32463C10.1932 5.17237 11.1311 4.23482 12.2831 4.23482C13.4354 4.23482 14.3729 5.17237 14.3729 6.32463C14.3729 7.47661 13.4354 8.41454 12.2831 8.41454ZM12.2831 5.55558C11.8593 5.55558 11.514 5.90048 11.514 6.32463C11.514 6.74878 11.8593 7.09378 12.2831 7.09378C12.7073 7.09378 13.0522 6.74888 13.0522 6.32463C13.0522 5.90039 12.7073 5.55558 12.2831 5.55558ZM5.86218 8.39426C4.70973 8.39426 3.77228 7.45671 3.77228 6.30444C3.77228 5.15209 4.70973 4.21454 5.86209 4.21454C7.01445 4.21454 7.9519 5.15209 7.9519 6.30444C7.9519 7.45671 7.01454 8.39426 5.86218 8.39426ZM5.86218 5.53529C5.43831 5.53529 5.09303 5.88058 5.09303 6.30444C5.09303 6.7286 5.43831 7.0735 5.86209 7.0735C6.28624 7.0735 6.63114 6.7286 6.63114 6.30444C6.63114 5.88058 6.28633 5.53529 5.86218 5.53529ZM18.7041 8.43444C17.5522 8.43444 16.6146 7.4969 16.6146 6.34454C16.6146 5.19265 17.5521 4.2551 18.7041 4.2551C19.8564 4.2551 20.7939 5.19256 20.7939 6.34454C20.7939 7.4969 19.8564 8.43444 18.7041 8.43444ZM18.7041 5.57548C18.2803 5.57548 17.9354 5.92039 17.9354 6.34454C17.9354 6.76869 18.2803 7.11369 18.7041 7.11369C19.1282 7.11369 19.4731 6.76869 19.4731 6.34454C19.4731 5.92039 19.1282 5.57548 18.7041 5.57548Z" fill="#2B76C1"/>
</svg>
