<svg width="252" height="136" viewBox="0 0 252 136" fill="none" xmlns="http://www.w3.org/2000/svg">
<path d="M70.821 23.7584C75.1948 19.3845 75.1948 12.2932 70.821 7.91936C66.4472 3.54554 59.3558 3.54554 54.982 7.91936C50.6082 12.2932 50.6082 19.3845 54.982 23.7584C59.3558 28.1322 66.4472 28.1322 70.821 23.7584Z" fill="#2B76C1"/>
<path d="M237.925 86.3923C245.619 86.3923 251.856 80.1555 251.856 72.462C251.856 64.7685 245.619 58.5317 237.925 58.5317C230.232 58.5317 223.995 64.7685 223.995 72.462C223.995 80.1555 230.232 86.3923 237.925 86.3923Z" fill="#2B76C1"/>
<path d="M46.7664 93.7662C46.603 93.7085 46.4299 93.795 46.3819 93.9585L44.2092 100.342C43.9111 98.948 43.5747 97.4867 43.1901 95.9677C41.4116 88.8632 38.4506 79.6629 33.5668 69.4627C33.586 69.4339 33.6052 69.405 33.6149 69.3762L36.1529 61.9064C36.2106 61.7429 36.124 61.5699 35.9606 61.5218C35.7972 61.4641 35.6241 61.5506 35.576 61.7141L33.2015 68.6936C29.529 61.1276 24.7895 53.0233 18.6944 44.8324C18.5982 44.6978 18.406 44.669 18.2714 44.7651C18.1368 44.8612 18.1079 45.0535 18.2041 45.1881C21.7996 50.0334 24.9241 54.8403 27.6351 59.5221L22.2226 57.8109C22.0592 57.7628 21.8957 57.8494 21.8381 58.0128C21.79 58.1762 21.8765 58.3397 22.0399 58.3973L28.0774 60.3009C28.0774 60.3009 28.0774 60.3009 28.087 60.3009C33.7014 70.1453 37.4892 79.4129 40.0464 87.2481L32.1151 85.383C31.9517 85.3446 31.7882 85.4503 31.7498 85.6138C31.7113 85.7772 31.8171 85.9406 31.9805 85.9791L40.0849 87.8826C40.1041 87.8922 40.133 87.8922 40.1522 87.8922C40.1906 87.8922 40.2195 87.8826 40.2483 87.873C41.2001 90.8436 41.9692 93.5931 42.5941 96.0927C43.0651 97.977 43.4785 99.7844 43.8246 101.486C43.815 101.553 43.8342 101.621 43.8631 101.678C45.9781 112.042 45.9492 118.646 45.9492 118.723C45.9492 118.887 46.0838 119.031 46.2473 119.031C46.4107 119.031 46.5549 118.896 46.5549 118.733C46.5549 118.656 46.5837 111.975 44.4495 101.524L46.9587 94.17C47.0068 93.9969 46.9202 93.8239 46.7664 93.7662Z" fill="white"/>
<path d="M36.4413 126.712C36.4124 126.664 33.7879 121.877 28.0389 115.714C25.0298 112.494 20.7901 108.513 15.2526 104.562C15.2526 104.543 15.2526 104.524 15.2526 104.505L14.4162 99.8323C14.397 99.7362 14.3009 99.6689 14.2047 99.6881C14.1086 99.7073 14.0413 99.8034 14.0605 99.8996L14.8489 104.274C10.7054 101.361 5.86004 98.4768 0.255249 95.9387C0.159112 95.9003 0.0533609 95.9387 0.0149061 96.0253C-0.0235488 96.1214 0.014907 96.2271 0.10143 96.2656C3.40855 97.7653 6.45609 99.3901 9.24407 101.063L5.8985 101.736C5.80236 101.755 5.73507 101.851 5.75429 101.947C5.77352 102.043 5.86966 102.111 5.96579 102.092L9.69592 101.332C15.5218 104.879 20.2133 108.648 23.8473 112.032L19.127 113.359C19.0308 113.388 18.9731 113.484 19.002 113.59C19.0308 113.686 19.127 113.743 19.2327 113.714L24.0492 112.359C24.0588 112.359 24.078 112.349 24.0876 112.34C24.1069 112.33 24.1165 112.32 24.1357 112.301C25.5009 113.59 26.7122 114.81 27.7697 115.945C33.4899 122.069 36.1048 126.828 36.124 126.876C36.1721 126.962 36.2874 127.001 36.374 126.953C36.4509 126.905 36.4893 126.799 36.4413 126.712Z" fill="white"/>
<path d="M192.039 130.317C192.02 130.279 190.261 126.145 186.05 120.656C183.848 117.781 180.705 114.186 176.484 110.513C176.484 110.494 176.494 110.484 176.484 110.465L176.177 106.581C176.167 106.495 176.1 106.437 176.013 106.447C175.927 106.456 175.869 106.524 175.879 106.61L176.167 110.244C173.014 107.533 169.274 104.783 164.9 102.255C164.833 102.217 164.736 102.236 164.698 102.313C164.659 102.38 164.679 102.476 164.756 102.515C167.342 104.005 169.697 105.572 171.851 107.168L169.063 107.456C168.976 107.466 168.918 107.543 168.928 107.62C168.938 107.706 169.014 107.764 169.091 107.754L172.206 107.437C176.686 110.802 180.224 114.263 182.916 117.32L178.955 118.031C178.869 118.05 178.82 118.127 178.83 118.204C178.849 118.291 178.926 118.339 179.003 118.329L183.051 117.608C183.06 117.608 183.07 117.599 183.079 117.599C183.099 117.589 183.108 117.579 183.118 117.57C184.127 118.733 185.021 119.829 185.8 120.838C189.992 126.309 191.741 130.404 191.761 130.442C191.789 130.519 191.886 130.558 191.962 130.519C192.03 130.481 192.068 130.385 192.039 130.317Z" fill="white"/>
<path d="M201.586 104.784C201.749 104.726 201.922 104.813 201.97 104.976L204.143 111.36C204.441 109.966 204.777 108.504 205.162 106.985C206.94 99.8808 209.901 90.6805 214.785 80.4803C214.766 80.4515 214.747 80.4226 214.737 80.3938L212.199 72.9239C212.141 72.7605 212.228 72.5875 212.391 72.5394C212.555 72.4817 212.728 72.5682 212.776 72.7317L215.151 79.7112C218.823 72.1452 223.563 64.0409 229.658 55.85C229.754 55.7154 229.946 55.6865 230.081 55.7827C230.215 55.8788 230.244 56.0711 230.148 56.2057C226.552 61.051 223.428 65.8579 220.717 70.5397L226.129 68.8285C226.293 68.7804 226.456 68.8669 226.514 69.0304C226.562 69.1938 226.476 69.3572 226.312 69.4149L220.275 71.3184C220.275 71.3184 220.275 71.3184 220.265 71.3184C214.651 81.1629 210.863 90.4305 208.306 98.2657L216.237 96.4006C216.4 96.3622 216.564 96.4679 216.602 96.6313C216.641 96.7948 216.535 96.9582 216.372 96.9967L208.267 98.9002C208.248 98.9098 208.219 98.9098 208.2 98.9098C208.161 98.9098 208.133 98.9002 208.104 98.8906C207.152 101.861 206.383 104.611 205.758 107.11C205.287 108.995 204.874 110.802 204.527 112.504C204.537 112.571 204.518 112.638 204.489 112.696C202.374 123.059 202.403 129.664 202.403 129.741C202.403 129.904 202.268 130.049 202.105 130.049C201.941 130.049 201.797 129.914 201.797 129.751C201.797 129.674 201.768 122.992 203.903 112.542L201.393 105.188C201.336 105.015 201.422 104.841 201.586 104.784Z" fill="white"/>
<path d="M217.198 128.779C217.217 128.741 219.496 124.578 224.485 119.243C227.091 116.445 230.773 112.994 235.58 109.571C235.58 109.552 235.58 109.542 235.58 109.523L236.31 105.476C236.329 105.389 236.406 105.332 236.493 105.351C236.579 105.37 236.637 105.447 236.618 105.533L235.935 109.321C239.531 106.793 243.732 104.293 248.587 102.092C248.664 102.053 248.76 102.092 248.798 102.169C248.837 102.246 248.798 102.342 248.721 102.38C245.857 103.678 243.213 105.082 240.79 106.543L243.694 107.129C243.78 107.149 243.838 107.235 243.818 107.312C243.799 107.399 243.713 107.456 243.636 107.437L240.396 106.783C235.349 109.86 231.273 113.128 228.129 116.06L232.224 117.214C232.311 117.233 232.359 117.329 232.33 117.406C232.301 117.483 232.215 117.541 232.138 117.512L227.956 116.339C227.946 116.339 227.937 116.33 227.917 116.33C227.898 116.32 227.889 116.31 227.879 116.301C226.696 117.416 225.649 118.474 224.726 119.454C219.765 124.761 217.496 128.895 217.477 128.933C217.438 129.01 217.342 129.039 217.265 129.001C217.188 128.952 217.16 128.856 217.198 128.779Z" fill="white"/>
<path d="M231.109 135.595H24.5971C22.3378 135.595 20.5112 133.769 20.5112 131.51C20.5112 129.25 22.3378 127.424 24.5971 127.424H231.109C233.368 127.424 235.195 129.25 235.195 131.51C235.195 133.759 233.368 135.595 231.109 135.595Z" fill="#4E749B"/>
<path d="M214.949 10.838C211.161 3.46429 202.115 0.570561 194.741 4.35836C187.367 8.14617 184.473 17.1927 188.261 24.5664C192.049 31.9401 201.096 34.8435 208.469 31.046C215.833 27.2582 218.737 18.2117 214.949 10.838ZM192.799 22.2303C190.299 17.3657 192.212 11.4052 197.077 8.89604C201.942 6.39647 207.902 8.3096 210.411 13.1741C212.911 18.0387 210.998 23.9992 206.133 26.5084C201.269 29.0079 195.298 27.0948 192.799 22.2303Z" fill="#BFBFD9"/>
<path d="M215.929 9.86731C212.142 2.49359 203.095 -0.400142 195.721 3.38766C188.348 7.17546 185.454 16.222 189.242 23.5957C193.029 30.9694 202.076 33.8631 209.45 30.0753C216.814 26.2779 219.717 17.2314 215.929 9.86731ZM193.779 21.2596C191.28 16.395 193.193 10.4345 198.057 7.92533C202.922 5.42577 208.882 7.3389 211.392 12.2034C213.891 17.068 211.978 23.0285 207.114 25.5377C202.249 28.0276 196.279 26.1145 193.779 21.2596Z" fill="#2B76C1"/>
<path d="M195.721 3.3875C195.077 3.72398 194.462 4.09892 193.885 4.50269L196.259 9.11728C196.807 8.66543 197.403 8.26166 198.057 7.92518C202.922 5.42561 208.882 7.33874 211.391 12.2033C211.411 12.2417 211.43 12.2802 211.449 12.3186L215.987 9.98251C215.967 9.94406 215.948 9.9056 215.929 9.86715C212.132 2.49343 203.085 -0.409915 195.721 3.3875Z" fill="#BFBFD9"/>
<path d="M252 26.5664H221.447V31.9693H252V26.5664Z" fill="#2B76C1"/>
<path d="M237.954 14.4434H221.447V19.8463H237.954V14.4434Z" fill="#2B76C1"/>
<path d="M64.8978 65.7328C60.139 56.4748 48.766 52.8216 39.4984 57.59C30.2404 62.3488 26.5872 73.7218 31.3556 82.9894C36.1144 92.2474 47.4874 95.9006 56.755 91.1322C66.013 86.3638 69.6566 75.0004 64.8978 65.7328ZM37.0565 80.0476C33.9128 73.9333 36.3163 66.4346 42.4306 63.2909C48.5449 60.1472 56.0436 62.5507 59.1873 68.665C62.331 74.7793 59.9275 82.278 53.8132 85.4217C47.6989 88.5654 40.2002 86.1619 37.0565 80.0476Z" fill="#BFBFD9"/>
<path d="M66.119 64.5018C61.3602 55.2438 49.9872 51.5906 40.7196 56.359C31.4616 61.1178 27.8084 72.4908 32.5768 81.7584C37.3356 91.0164 48.7086 94.6696 57.9762 89.9012C67.2438 85.1425 70.8874 73.7694 66.119 64.5018ZM38.2873 78.8166C35.1436 72.7023 37.5471 65.2036 43.6614 62.0599C49.7757 58.9163 57.2744 61.3197 60.4181 67.434C63.5618 73.5483 61.1584 81.047 55.044 84.1907C48.9297 87.3344 41.431 84.931 38.2873 78.8166Z" fill="#BFBFD9"/>
<path d="M40.7287 56.3592C39.9115 56.7822 39.1424 57.2532 38.4214 57.7628L41.4016 63.5598C42.0842 62.9926 42.8437 62.4831 43.6609 62.0601C49.7752 58.9164 57.2739 61.3198 60.4176 67.4342C60.4464 67.4822 60.4656 67.5303 60.4849 67.5784L66.1954 64.6462C66.1762 64.5981 66.1473 64.5501 66.1281 64.502C61.3597 55.244 49.9867 51.6004 40.7287 56.3592Z" fill="#2B76C1"/>
<path d="M30.5576 71.5581L36.9315 72.3752C37.1719 68.4913 39.2292 64.8189 42.6805 62.6366L39.3446 57.1567C34.1724 60.3869 31.0479 65.7995 30.5576 71.5581Z" fill="#124C86"/>
<path opacity="0.4" d="M189.377 79.7975H110.131C108.448 79.7975 107.189 78.2593 107.525 76.6057L118.552 22.4228C118.802 21.1827 119.898 20.2886 121.158 20.2886H200.403C202.086 20.2886 203.345 21.8268 203.009 23.4803L191.982 77.6632C191.732 78.9034 190.646 79.7975 189.377 79.7975Z" fill="#2B76C1"/>
<path d="M190.491 35.4201H159.68C158.161 35.4201 156.92 34.1896 156.92 32.661C156.92 31.142 158.151 29.9019 159.68 29.9019H190.491C192.01 29.9019 193.251 31.1324 193.251 32.661C193.251 34.1896 192.01 35.4201 190.491 35.4201Z" fill="#2B76C1"/>
<path d="M187.809 48.6872H156.997C155.478 48.6872 154.238 47.4567 154.238 45.9281C154.238 44.4091 155.469 43.1689 156.997 43.1689H187.809C189.328 43.1689 190.569 44.3995 190.569 45.9281C190.569 47.447 189.328 48.6872 187.809 48.6872Z" fill="#2B76C1"/>
<path d="M185.05 61.945H168.495C166.977 61.945 165.736 60.7145 165.736 59.1859C165.736 57.6669 166.967 56.4268 168.495 56.4268H185.05C186.569 56.4268 187.809 57.6573 187.809 59.1859C187.809 60.7049 186.569 61.945 185.05 61.945Z" fill="#2B76C1"/>
<path d="M132.319 71.0588H115.764C114.245 71.0588 113.005 69.8282 113.005 68.2997C113.005 66.7807 114.235 65.5405 115.764 65.5405H132.319C133.838 65.5405 135.078 66.7711 135.078 68.2997C135.078 69.8282 133.847 71.0588 132.319 71.0588Z" fill="#2B76C1"/>
<path d="M134.886 82.5566C137.491 79.336 137.876 76.8076 140.173 70.6741C142.471 64.5405 147.758 61.8583 150.441 61.4738C153.123 61.0892 158.795 60.6278 159.333 61.4738C159.872 62.3198 152.517 65.5307 152.969 67.0689C153.431 68.5975 156.651 70.5972 156.113 73.962C155.574 77.3364 154.584 76.3366 153.123 80.557C151.671 84.7678 144.615 89.142 144.615 89.142L134.886 82.5566Z" fill="#FF8762"/>
<path d="M72.2042 59.5604C72.7426 62.8579 72.1273 67.6071 71.2044 68.8377C72.9637 73.1254 83.2407 74.0098 84.0771 71.9429C84.6924 68.953 85 65.3479 85 65.3479C87.067 67.0303 94.806 67.0687 94.6522 54.7344C97.0268 53.4269 97.4883 51.8214 97.4883 51.8214C96.4884 51.6676 94.0369 49.6775 93.7293 47.5337C93.4216 45.3898 93.96 35.0455 84.6828 33.3535C75.4056 31.6711 71.1178 35.1128 69.1278 39.487C67.1474 43.8516 64.1575 46.9184 72.2042 59.5604Z" fill="#FF8762"/>
<path d="M86.6059 34.1706C86.4233 34.3052 86.2406 34.3341 86.2406 34.3341C86.8174 35.43 86.7598 40.1407 80.6647 38.4679C83.4238 42.323 81.7029 43.0633 81.7029 43.0633C84.1737 47.601 82.8566 49.6775 81.2415 50.1294C79.636 50.5908 79.3476 53.2346 79.5206 53.8691C80.2128 57.1474 82.6259 63.2906 74.2331 62.1465C72.8007 62.9541 71.3586 61.7428 70.2626 58.2337C69.1667 54.7247 57.3322 44.6688 66.3499 38.1699C64.7444 34.8916 69.109 34.8916 69.109 34.7186C69.6858 27.7102 74.1658 32.1902 74.3388 31.4403C80.9915 21.1152 95.4506 24.2973 91.7973 34.1322C91.2878 35.4973 89.5285 35.9492 88.4518 34.9589C88.4422 34.9493 88.4422 34.9493 88.4325 34.9397C87.9519 34.4975 87.1539 33.7668 86.6059 34.1706Z" fill="#2B1710"/>
<path d="M88.0382 44.9668C89.0764 44.3227 90.2205 43.9286 91.0569 43.7171C91.5087 43.6017 91.5087 42.9768 91.0665 42.8422C89.8455 42.4673 88.2881 43.0537 87.4229 44.3323C87.1537 44.7265 87.6344 45.2168 88.0382 44.9668Z" fill="#2B1710"/>
<path d="M89.9418 48.5236C90.4568 48.5236 90.8743 47.779 90.8743 46.8604C90.8743 45.9419 90.4568 45.1973 89.9418 45.1973C89.4268 45.1973 89.0093 45.9419 89.0093 46.8604C89.0093 47.779 89.4268 48.5236 89.9418 48.5236Z" fill="#2B1710"/>
<path d="M90.0762 49.3505C89.8647 49.3505 89.6436 49.3025 89.4321 49.1967C88.9225 48.9564 88.5284 48.4661 88.3457 47.8604C88.3265 47.7835 88.3649 47.697 88.4419 47.6778C88.5188 47.6585 88.6053 47.697 88.6245 47.7739C88.788 48.3026 89.1244 48.7256 89.5571 48.9275C89.8647 49.0717 90.1916 49.091 90.4704 48.9756C90.5473 48.9468 90.6338 48.9852 90.6626 49.0525C90.6915 49.1294 90.653 49.2159 90.5857 49.2448C90.4127 49.3121 90.2492 49.3505 90.0762 49.3505Z" fill="#E0B3A8"/>
<path d="M88.759 56.4262C90.75 56.4262 92.3641 54.8896 92.3641 52.9941C92.3641 51.0986 90.75 49.562 88.759 49.562C86.7679 49.562 85.1538 51.0986 85.1538 52.9941C85.1538 54.8896 86.7679 56.4262 88.759 56.4262Z" fill="#FF7557"/>
<path d="M83.0096 51.5796C83.3184 49.6771 82.0264 47.8846 80.1239 47.5758C78.2214 47.267 76.4289 48.559 76.1201 50.4615C75.8113 52.364 77.1033 54.1566 79.0058 54.4653C80.9083 54.7741 82.7009 53.4821 83.0096 51.5796Z" fill="#FF7A52"/>
<path d="M79.5583 48.5337C78.7892 48.5337 78.0778 48.8798 77.6067 49.4854C77.5586 49.5527 77.5682 49.6393 77.6355 49.6873C77.7028 49.7354 77.7894 49.7258 77.8374 49.6585C78.2604 49.1297 78.8853 48.8221 79.5583 48.8221C79.8948 48.8221 80.212 48.899 80.5004 49.0336C80.4716 49.0336 80.4427 49.024 80.4043 49.024C79.5871 49.024 78.9142 49.6873 78.9142 50.5141C78.9142 51.3313 79.5775 52.0042 80.4043 52.0042C81.0003 52.0042 81.5003 51.6581 81.7406 51.1486C81.7021 51.8023 81.3657 52.408 80.8273 52.7926C80.76 52.8406 80.7504 52.9272 80.7888 52.9945C80.8177 53.0329 80.8658 53.0521 80.9042 53.0521C80.9331 53.0521 80.9619 53.0425 80.9907 53.0233C81.6445 52.5618 82.0386 51.8024 82.0386 50.9948C82.0386 49.6489 80.9234 48.5337 79.5583 48.5337ZM80.4043 51.7158C79.7409 51.7158 79.2122 51.1775 79.2122 50.5237C79.2122 49.8604 79.7506 49.3316 80.4043 49.3316C81.058 49.3316 81.5964 49.87 81.5964 50.5237C81.5964 51.1775 81.058 51.7158 80.4043 51.7158Z" fill="#E0B3A8"/>
<path d="M90.4028 57.5322C91.5565 57.8014 92.8543 58.186 92.9312 58.4167C93.0082 59.1858 90.9027 60.5221 90.4028 57.5322Z" fill="white"/>
<path d="M91.6335 60.3388C91.4605 60.3388 91.3162 60.3004 91.1913 60.2619C90.7202 60.0889 90.4029 59.6947 90.3068 59.3967C90.278 59.3198 90.326 59.2333 90.4029 59.214C90.4798 59.1852 90.5664 59.2333 90.5856 59.3102C90.6625 59.5409 90.9317 59.8581 91.297 59.9831C91.4989 60.06 91.8162 60.0985 92.1526 59.887C92.2199 59.8485 92.3161 59.8678 92.3545 59.9351C92.393 60.0024 92.3738 60.0985 92.3065 60.1369C92.0661 60.2811 91.8354 60.3388 91.6335 60.3388Z" fill="#E0B3A8"/>
<path d="M73.6176 31.9497H73.608C73.5311 31.9401 73.4638 31.8728 73.4734 31.7958C73.5407 30.9018 73.31 30.1519 72.8293 29.6904C72.3967 29.2771 71.7718 29.104 70.9931 29.2001C70.9162 29.2098 70.8393 29.1521 70.8297 29.0752C70.82 28.9983 70.8777 28.9213 70.9546 28.9117C71.8199 28.8156 72.5409 29.0079 73.0312 29.4886C73.5792 30.0077 73.8388 30.8441 73.7618 31.8343C73.7618 31.892 73.6945 31.9497 73.6176 31.9497Z" fill="#2B1710"/>
<path d="M93.162 32.7575C93.1524 32.7575 93.1524 32.7575 93.1428 32.7575C93.0659 32.7479 93.0082 32.671 93.0178 32.5941C93.2678 30.8252 92.9121 29.3639 91.9603 28.2583C90.7009 26.7874 88.3936 25.9607 85.4518 25.9222C85.3749 25.9222 85.3076 25.8549 85.3076 25.778C85.3076 25.7011 85.3749 25.6338 85.4518 25.6338C88.4801 25.6722 90.8643 26.5375 92.1718 28.0661C93.1812 29.2485 93.5562 30.7867 93.2966 32.6422C93.2966 32.6999 93.2293 32.7575 93.162 32.7575Z" fill="#2B1710"/>
<path d="M82.5871 43.2748C82.5775 43.2748 82.5679 43.2748 82.5583 43.2748C82.4814 43.2556 82.4333 43.1786 82.4525 43.1017C82.4718 43.0248 82.491 42.9383 82.5198 42.8422C82.7506 42.0538 83.0966 40.8617 80.5106 39.5254C80.4433 39.487 80.4144 39.4005 80.4433 39.3235C80.4817 39.2562 80.5682 39.2274 80.6452 39.2563C83.4331 40.7079 83.039 42.0923 82.7986 42.9191C82.7698 43.0056 82.7506 43.0825 82.7313 43.1594C82.7121 43.2267 82.6544 43.2748 82.5871 43.2748Z" fill="#2B1710"/>
<path d="M83.1059 49.649C83.0675 49.649 83.029 49.6297 83.0002 49.6009C82.9425 49.5432 82.9521 49.4471 83.0098 49.3894C83.0194 49.3798 83.7981 48.6011 83.3655 46.5918C83.3463 46.5149 83.3943 46.438 83.4809 46.4188C83.5578 46.3995 83.6347 46.4476 83.6539 46.5341C84.125 48.7164 83.2501 49.5721 83.2117 49.6009C83.1732 49.6394 83.1348 49.649 83.1059 49.649Z" fill="#2B1710"/>
<path d="M83.5101 50.2832C83.462 50.2832 83.4139 50.2639 83.3851 50.2159C83.337 50.1486 83.3563 50.0524 83.4332 50.014C84.135 49.5621 83.8369 48.6392 83.8369 48.6296C83.8081 48.5527 83.8562 48.4662 83.9331 48.4469C84.01 48.4181 84.0965 48.4662 84.1157 48.5431C84.2503 48.9372 84.308 49.8025 83.5966 50.2639C83.5581 50.2735 83.5293 50.2832 83.5101 50.2832Z" fill="#2B1710"/>
<path d="M62.3499 46.7261C62.2922 46.7261 62.2345 46.6876 62.2153 46.63C61.7923 45.361 61.8692 43.6978 62.4076 42.275C62.8786 41.0348 63.9265 39.3908 66.2242 38.6217C66.3011 38.5929 66.3876 38.641 66.4069 38.7179C66.4357 38.7948 66.3876 38.8813 66.3107 38.9005C64.1284 39.6312 63.1286 41.1886 62.6767 42.3807C62.1576 43.7362 62.0903 45.3321 62.4941 46.5338C62.5229 46.6107 62.4748 46.6973 62.3979 46.7165C62.3883 46.7165 62.3691 46.7261 62.3499 46.7261Z" fill="#2B1710"/>
<path d="M73.0988 31.661C73.0411 31.661 72.993 31.6322 72.9642 31.5745C72.2239 29.8825 70.8588 30.4208 70.8011 30.4401C70.7242 30.4689 70.6377 30.4305 70.6088 30.3632C70.58 30.2862 70.6184 30.1997 70.6857 30.1709C70.7049 30.1613 72.3777 29.5075 73.2334 31.4591C73.2622 31.536 73.2334 31.6226 73.1564 31.6514C73.1468 31.661 73.118 31.661 73.0988 31.661Z" fill="#2B1710"/>
<path d="M145.067 67.4147C144.99 67.4147 144.932 67.357 144.922 67.2801C144.893 67.0494 144.749 66.2995 143.884 66.2322C143.807 66.2226 143.74 66.1553 143.749 66.0784C143.759 66.0015 143.826 65.9342 143.903 65.9438C144.778 66.0111 145.153 66.6648 145.22 67.2513C145.23 67.3282 145.172 67.4051 145.086 67.4147C145.076 67.4147 145.067 67.4147 145.067 67.4147Z" fill="#F0D3CC"/>
<path d="M147.018 69.7702C146.941 69.7702 146.884 69.7125 146.874 69.6356C146.845 69.4048 146.701 68.655 145.836 68.5877C145.759 68.5781 145.692 68.5108 145.701 68.4339C145.711 68.3569 145.778 68.2896 145.855 68.2993C146.73 68.3666 147.105 69.0203 147.172 69.6067C147.182 69.6836 147.124 69.7605 147.037 69.7702C147.028 69.7702 147.018 69.7702 147.018 69.7702Z" fill="#F0D3CC"/>
<path d="M148.797 72.1256C148.72 72.1256 148.662 72.0679 148.653 71.991C148.624 71.7603 148.48 71.0104 147.615 70.9431C147.538 70.9335 147.47 70.8662 147.48 70.7893C147.49 70.7124 147.557 70.6451 147.634 70.6547C148.509 70.722 148.884 71.3758 148.951 71.9622C148.96 72.0391 148.903 72.116 148.816 72.1256C148.807 72.1256 148.807 72.1256 148.797 72.1256Z" fill="#F0D3CC"/>
<path d="M150.527 74.5963C150.45 74.5963 150.392 74.5386 150.383 74.4617C150.354 74.231 150.21 73.4811 149.344 73.4138C149.268 73.4042 149.2 73.3369 149.21 73.26C149.22 73.1831 149.287 73.1158 149.364 73.1254C150.239 73.1927 150.613 73.8465 150.681 74.4329C150.69 74.5098 150.633 74.5867 150.546 74.5963C150.537 74.5963 150.527 74.5963 150.527 74.5963Z" fill="#F0D3CC"/>
<path d="M33.4995 127.385H114.197C114.197 114.974 100.286 83.4698 95.6906 77.9515C91.0953 72.4332 77.8764 68.184 69.2529 68.8665C60.6294 69.5683 36.7201 87.1518 33.4995 127.385Z" fill="#88A8C8"/>
<path d="M89.7493 73.3564C100.632 78.8747 114.428 105.389 114.428 105.389C119.638 96.6505 134.809 81.6339 134.809 81.6339C140.019 84.2392 145.23 89.4498 145.23 89.4498C145.538 99.5634 136.683 127.424 136.683 127.424H92.3835C82.1256 117.926 72.2812 79.3362 89.7493 73.3564Z" fill="#6295C8"/>
<path d="M145.393 54.85H106.112C104.429 54.85 103.17 53.3118 103.506 51.6582L111.236 13.5302C111.486 12.2901 112.582 11.396 113.841 11.396H153.132C154.815 11.396 156.074 12.9342 155.738 14.5877L148.008 52.7157C147.758 53.9559 146.662 54.85 145.393 54.85Z" fill="#BFBFD9"/>
<path d="M140.914 57.1473H101.622C99.94 57.1473 98.6806 55.6091 99.0171 53.9556L106.746 15.8276C106.996 14.5874 108.092 13.6934 109.352 13.6934H148.643C150.325 13.6934 151.585 15.2316 151.248 16.8851L143.519 55.0131C143.269 56.2629 142.183 57.1473 140.914 57.1473Z" fill="#2B76C1"/>
<path d="M112.476 43.3516L129.262 35.4203L135.934 42.198L144.221 39.8042L148.97 16.414C148.989 16.3179 148.97 16.2313 148.902 16.1544C148.845 16.0775 148.758 16.0391 148.662 16.0391H109.371C109.227 16.0391 109.092 16.1448 109.063 16.289L105.525 33.7091L112.476 43.3516Z" fill="white"/>
<path d="M138.869 29.8634C140.307 28.4254 140.307 26.0941 138.869 24.6562C137.431 23.2183 135.1 23.2183 133.662 24.6562C132.224 26.0941 132.224 28.4254 133.662 29.8633C135.1 31.3013 137.431 31.3013 138.869 29.8634Z" fill="#8490AF"/>
<path d="M222.332 94.8908H161.487C159.805 94.8908 158.545 93.3526 158.882 91.699L163.093 69.9336C163.343 68.6934 164.439 67.7993 165.698 67.7993H226.543C228.226 67.7993 229.485 69.3375 229.148 70.9911L224.938 92.7565C224.688 94.0063 223.601 94.8908 222.332 94.8908Z" fill="#C4CBF5"/>
<path d="M218.958 97.9572H158.113C156.43 97.9572 155.171 96.419 155.507 94.7654L159.718 73C159.968 71.7598 161.064 70.8657 162.323 70.8657H223.169C224.851 70.8657 226.11 72.4039 225.774 74.0575L221.563 95.8229C221.313 97.0631 220.227 97.9572 218.958 97.9572Z" fill="#2B76C1"/>
<path d="M158.112 95.6119C158.016 95.6119 157.93 95.5734 157.872 95.4965C157.814 95.4196 157.786 95.3331 157.805 95.2369L162.016 73.4426C162.044 73.3177 162.169 73.2119 162.314 73.2119H223.159C223.255 73.2119 223.341 73.2504 223.399 73.3273C223.457 73.4042 223.486 73.4907 223.466 73.5869L219.256 95.3811C219.227 95.5061 219.102 95.6119 218.958 95.6119H158.112Z" fill="white"/>
<path d="M170.466 75.2212C166.803 75.2212 163.823 78.2014 163.823 81.8643C163.823 85.0849 166.13 87.7767 169.178 88.3824L168.043 93.9006C167.976 94.2179 168.187 94.5255 168.505 94.5928C168.543 94.6024 168.582 94.6024 168.62 94.6024C168.889 94.6024 169.139 94.4102 169.197 94.1314L170.35 88.5073C170.389 88.5073 170.427 88.5073 170.466 88.5073C174.129 88.5073 177.109 85.5271 177.109 81.8643C177.109 78.2014 174.129 75.2212 170.466 75.2212ZM170.466 87.3345C167.447 87.3345 164.996 84.883 164.996 81.8643C164.996 78.8456 167.447 76.3941 170.466 76.3941C173.485 76.3941 175.936 78.8456 175.936 81.8643C175.936 84.883 173.485 87.3345 170.466 87.3345Z" fill="#2B76C1"/>
<path d="M183.118 92.5065C183.618 92.6027 184.098 92.2854 184.195 91.7855L187.165 76.7497C187.261 76.2497 186.944 75.769 186.444 75.6729C185.944 75.5768 185.464 75.894 185.367 76.3939L182.397 91.4298C182.291 91.9297 182.618 92.4104 183.118 92.5065Z" fill="#2B76C1"/>
<path d="M54.8038 57.9934C54.5539 57.9934 54.3231 57.8396 54.2366 57.5897L48.9394 42.9191C48.5068 41.727 47.3724 40.9291 46.1034 40.9291H21.8576C21.5211 40.9291 21.252 40.6599 21.252 40.3234C21.252 39.987 21.5211 39.7178 21.8576 39.7178H46.0938C47.8723 39.7178 49.4682 40.8426 50.0739 42.5154L55.371 57.1859C55.4864 57.5031 55.323 57.8492 55.0057 57.9646C54.9384 57.9838 54.8711 57.9934 54.8038 57.9934Z" fill="#2B76C1"/>
<path d="M45.0069 31.873H24.4624C23.2799 31.873 22.3281 32.8248 22.3281 34.0073C22.3281 35.1898 23.2799 36.1415 24.4624 36.1415H44.9973C46.1797 36.1415 47.1315 35.1898 47.1315 34.0073C47.1411 32.8344 46.1797 31.873 45.0069 31.873Z" fill="#124C86"/>
<path d="M34.2393 24.1724H24.7602C23.5777 24.1724 22.626 25.1241 22.626 26.3066C22.626 27.4891 23.5777 28.4409 24.7602 28.4409H34.2393C35.4218 28.4409 36.3736 27.4891 36.3736 26.3066C36.3736 25.1241 35.4218 24.1724 34.2393 24.1724Z" fill="#2B76C1"/>
<path d="M222.899 116.724V113.734H220.63C220.371 112.08 219.717 110.571 218.765 109.283L220.399 107.648L218.284 105.533L216.64 107.177C215.362 106.235 213.852 105.591 212.209 105.341V103.005H209.219V105.341C207.575 105.581 206.065 106.225 204.777 107.158L203.133 105.514L201.018 107.629L202.652 109.263C201.691 110.542 201.028 112.061 200.768 113.705H198.49V116.695H200.739C200.97 118.368 201.614 119.906 202.566 121.204L200.989 122.78L203.104 124.895L204.662 123.338C205.96 124.309 207.498 124.982 209.18 125.232V127.424H212.17V125.232C213.852 124.982 215.391 124.328 216.689 123.357L218.246 124.915L220.361 122.8L218.794 121.232C219.746 119.935 220.399 118.396 220.64 116.733H222.899V116.724ZM210.69 120.55C207.786 120.55 205.421 118.195 205.421 115.282C205.421 112.378 207.777 110.013 210.69 110.013C213.603 110.013 215.958 112.369 215.958 115.282C215.958 118.185 213.603 120.55 210.69 120.55Z" fill="#2B76C1"/>
<path d="M196.327 126.818L201.509 122.492C202.23 121.895 203.133 121.559 204.066 121.559H206.892V120.29H196.933C196.635 121.251 195.741 121.944 194.683 121.944C193.385 121.944 192.328 120.886 192.328 119.588C192.328 118.29 193.385 117.233 194.683 117.233C195.741 117.233 196.635 117.925 196.933 118.886H206.892V117.617H204.076C203.143 117.617 202.23 117.291 201.518 116.685L196.337 112.359C195.366 111.551 193.981 111.484 192.943 112.205L188.559 115.233C187.896 115.695 187.098 115.945 186.29 115.945H179.195V123.251H186.29C187.098 123.251 187.896 123.501 188.559 123.962L192.943 126.991C193.972 127.693 195.356 127.625 196.327 126.818Z" fill="#BFBFD9"/>
<path d="M182.858 115.311H174.158V123.876H182.858V115.311Z" fill="#2B76C1"/>
<path d="M174.158 123.107V116.089H125.397C124.138 116.089 123.109 117.108 123.109 118.377V120.828C123.109 122.088 124.128 123.116 125.397 123.116H174.158V123.107Z" fill="#8490AF"/>
</svg>
