<svg width="24" height="24" viewBox="0 0 24 24" fill="none" xmlns="http://www.w3.org/2000/svg">
<g clip-path="url(#clip0_113_21)">
<path d="M16.1494 7.85045L16.1194 7.82045C15.1388 6.8395 13.8403 6.24063 12.4576 6.13157C11.0748 6.02251 9.69854 6.41041 8.57625 7.22549C7.45396 8.04058 6.65933 9.22937 6.33528 10.578C6.01124 11.9267 6.17905 13.3467 6.80852 14.5827L7.06489 15.0873L6.58762 17.4055L6.5808 17.4355L8.88398 16.89L9.40898 17.1559C10.5013 17.6986 11.7363 17.8852 12.9403 17.6895C14.1442 17.4938 15.2565 16.9257 16.1208 16.065C17.2079 14.9777 17.8211 13.5048 17.8268 11.9673C17.8324 10.4298 17.2299 8.95243 16.1508 7.85727L16.1494 7.85045ZM15.9149 14.3577C15.6326 14.8023 15.1867 15.345 14.6263 15.48C13.6444 15.7186 12.1376 15.4882 10.2626 13.7414L10.2394 13.7195C8.5908 12.1923 8.16262 10.92 8.26625 9.91091C8.32352 9.33681 8.8008 8.82 9.20307 8.48045C9.26678 8.42645 9.3422 8.38805 9.42334 8.36829C9.50449 8.34853 9.58912 8.34796 9.67053 8.36662C9.75193 8.38528 9.82786 8.42267 9.8923 8.4758C9.95673 8.52894 10.0079 8.59636 10.0417 8.67272L10.6485 10.0445C10.6883 10.1329 10.703 10.2304 10.6913 10.3266C10.6795 10.4228 10.6416 10.5138 10.5817 10.59L10.2749 10.9882C10.2106 11.0698 10.1719 11.1686 10.1634 11.2721C10.1549 11.3757 10.1771 11.4794 10.2272 11.5705C10.399 11.8705 10.8108 12.3136 11.2676 12.7255C11.7803 13.1877 12.349 13.6118 12.709 13.7577C12.8055 13.7964 12.9114 13.8054 13.0131 13.7838C13.1148 13.7622 13.2078 13.7109 13.2803 13.6364L13.6363 13.2777C13.7049 13.21 13.7903 13.1617 13.8838 13.1378C13.9772 13.1138 14.0753 13.115 14.1681 13.1414L15.6094 13.5505C15.6891 13.5748 15.7622 13.6171 15.823 13.674C15.8839 13.731 15.9308 13.8012 15.9603 13.8791C15.9898 13.9571 16.0011 14.0407 15.9932 14.1237C15.9853 14.2067 15.9585 14.2867 15.9149 14.3577Z" fill="black"/>
<path d="M20.7273 0H3.27273C2.40475 0 1.57232 0.344804 0.95856 0.95856C0.344804 1.57232 0 2.40475 0 3.27273L0 20.7273C0 21.5953 0.344804 22.4277 0.95856 23.0414C1.57232 23.6552 2.40475 24 3.27273 24H20.7273C21.5953 24 22.4277 23.6552 23.0414 23.0414C23.6552 22.4277 24 21.5953 24 20.7273V3.27273C24 2.40475 23.6552 1.57232 23.0414 0.95856C22.4277 0.344804 21.5953 0 20.7273 0ZM19.4359 12.1773C19.3957 13.4231 19.0431 14.6388 18.4107 15.7129C17.7782 16.787 16.886 17.685 15.8161 18.3245C14.7462 18.9639 13.5328 19.3244 12.2873 19.3728C11.0417 19.4212 9.80403 19.1559 8.68773 18.6014L4.93091 19.4918C4.87397 19.5051 4.81435 19.5009 4.75985 19.4797C4.70536 19.4585 4.65851 19.4214 4.62545 19.3732C4.60314 19.3412 4.58764 19.3049 4.57989 19.2667C4.57215 19.2285 4.57234 19.1891 4.58045 19.1509L5.37 15.3177C4.85501 14.3065 4.57817 13.1908 4.56067 12.0561C4.54316 10.9214 4.78546 9.79779 5.26902 8.77114C5.75258 7.7445 6.46459 6.84208 7.35055 6.13293C8.23652 5.42378 9.27297 4.9267 10.3806 4.67973C11.4882 4.43275 12.6377 4.44243 13.741 4.70801C14.8443 4.9736 15.8722 5.48806 16.7461 6.21202C17.62 6.93598 18.3167 7.85027 18.783 8.88491C19.2492 9.91955 19.4725 11.0471 19.4359 12.1814V12.1773Z" fill="black"/>
</g>
<defs>
<clipPath id="clip0_113_21">
<rect width="24" height="24" fill="white"/>
</clipPath>
</defs>
</svg>
