<svg width="58" height="58" viewBox="0 0 58 58" fill="none" xmlns="http://www.w3.org/2000/svg">
<g clip-path="url(#clip0_0_420)">
<path fill-rule="evenodd" clip-rule="evenodd" d="M35.9236 32.3905C34.8259 32.8391 34.1247 34.5576 33.4133 35.4355C33.0485 35.8852 32.6135 35.9555 32.0528 35.73C27.9327 34.0886 24.7744 31.3393 22.5009 27.5477C22.1157 26.9598 22.1848 26.4954 22.6493 25.9493C23.3358 25.1405 24.199 24.2218 24.3848 23.132C24.7971 20.7214 21.6456 13.2437 17.4837 16.632C5.50756 26.3911 37.4619 52.2748 43.2291 38.2755C44.8603 34.3072 37.7429 31.6451 35.9236 32.3905ZM28.9998 52.9341C24.7642 52.9341 20.5966 51.808 16.9478 49.6761C16.3622 49.3329 15.6542 49.2422 14.9994 49.4201L7.07084 51.5962L9.83264 45.5119C10.0174 45.1057 10.0914 44.6578 10.0472 44.2138C10.0031 43.7698 9.84227 43.3453 9.58116 42.9834C6.62678 38.8883 5.06463 34.0535 5.06463 29C5.06463 15.8016 15.8014 5.0648 28.9998 5.0648C42.1982 5.0648 52.9339 15.8016 52.9339 29C52.9339 42.1973 42.1971 52.9341 28.9998 52.9341ZM28.9998 0C13.009 0 -0.000170534 13.0092 -0.000170534 29C-0.000170534 34.6255 1.59709 40.0279 4.6319 44.7166L0.226392 54.4192C0.0273183 54.8574 -0.0428196 55.3433 0.0241858 55.82C0.0911912 56.2966 0.292568 56.7444 0.604751 57.1107C0.842847 57.3894 1.13848 57.6132 1.47131 57.7667C1.80414 57.9202 2.16627 57.9998 2.5328 58C4.16631 58 13.0736 55.2008 15.3404 54.5789C19.5306 56.8207 24.2307 58 28.9998 58C44.9895 58 57.9998 44.9896 57.9998 29C57.9998 13.0092 44.9895 0 28.9998 0Z" fill="black"/>
</g>
<defs>
<clipPath id="clip0_0_420">
<rect width="58" height="58" fill="white"/>
</clipPath>
</defs>
</svg>
